<svg xmlns="http://www.w3.org/2000/svg" viewBox="0 0 1780.9 468.56"><defs><style>.cls-1,.cls-2,.cls-3,.cls-4{fill:none;stroke:#000;stroke-linecap:round;stroke-linejoin:round;}.cls-1{stroke-width:3.57px;}.cls-2{stroke-width:2.67px;}.cls-3{stroke-width:2.3px;}</style></defs><g id="Layer_2" data-name="Layer 2"><g id="Layer_2-2" data-name="Layer 2"><path class="cls-1" d="M1730.77,105.39s4.24-5.57,9-4.75c6.58,1.14,10.85,8.42,7.09,16.55a9.13,9.13,0,0,1-7.72,4.71c.16,8.95-5.84,24.32-17.49,29.43-9.24,4.06-14.6,4.29-25.24,1.64-9.12-2.27-16.23-9.38-20.63-20.61-5.06-12.92-7-37.18.09-55.42,0,0,14.64,4.39,26.88,1.29,0,0,18,5,24.62,2.33Z"/><path d="M1715.56,115.33c.07,2-1,3.67-2.34,3.72s-2.53-1.54-2.6-3.55,1-3.68,2.34-3.73S1715.49,113.31,1715.56,115.33Zm-30.49-2c-1.37,0-2.41,1.71-2.34,3.72s1.23,3.61,2.59,3.56,2.42-1.72,2.35-3.73S1686.43,113.32,1685.07,113.37Z"/><path d="M1738.75,121.47a8.73,8.73,0,0,1-3.88-.75,14.23,14.23,0,0,1-3.37-2.13c-.18-.13,1.59-1.82,1.69-1.66a9.22,9.22,0,0,0,5.6,3.74C1739,120.71,1739,121.43,1738.75,121.47Z"/><path d="M1735,116.06c0-1.1,0-2.2.09-3.31,0-.56.1-1.12.18-1.69,0-.28.1-.57.18-.87a3.76,3.76,0,0,1,.4-1,3,3,0,0,1,1.63-1,11.18,11.18,0,0,1,1.51-.34,22.33,22.33,0,0,1,2.93-.21c.37,0,.17,2.42-.12,2.35a19.4,19.4,0,0,0-2.63-.14,8,8,0,0,0-1.23.1,2,2,0,0,0-.77.26,4.13,4.13,0,0,0-.5,1.2c-.14.5-.26,1-.36,1.54-.21,1-.38,2.12-.51,3.2A.41.41,0,0,1,1735,116.06Z"/><path class="cls-1" d="M1671.34,99.65s-5.74-.35-5.28,8.28c.44,8.18,4.86,9,4.86,9"/><path d="M1719.42,107.9a14,14,0,0,0-2.66-3.54,5.59,5.59,0,0,0-3.47-1.71c-.17,0,0-2.44.37-2.34a7.63,7.63,0,0,1,4.28,3,15.37,15.37,0,0,1,2.22,4.29C1720.26,107.93,1719.59,108.17,1719.42,107.9Z"/><path d="M1680.48,107.89a8.91,8.91,0,0,1,2.6-3.56,10.21,10.21,0,0,1,4.08-2c.25-.1.57,2.33.38,2.33a8.33,8.33,0,0,0-3.56,1,7.8,7.8,0,0,0-2.78,2.61C1681.06,108.46,1680.38,108.23,1680.48,107.89Z"/><path class="cls-1" d="M1717.71,153.76s-.39,6.45-.14,10.31c0,0,.15,10.91-9.31,10.13-8.13-.67-6.65-10.93-6.65-10.93s0,.61.34-8.29"/><path class="cls-1" d="M1727.36,167.6S1762,181.49,1773.48,278a15.32,15.32,0,0,1-12,2.72s-6.24-62.95-32.56-93.54"/><path class="cls-2" d="M1762,280.76s-8.55,9.32-6.41,12.24,8.16-6.12,8.16-6.12-3.5,18.74,0,19.33,4.08-12.73,4.08-12.73.39,13.93,2.91,12.75,0-13.43,0-13.43,3.3,11.66,5.64,9.52-2.34-13-2.34-13,3.7,7.77,5.25,5.05-2.75-10.55-7.78-14.79"/><path d="M1699.94,113.23l-.91,10.86-.23,2.72-.11,1.36a.83.83,0,0,0,0,.29s0,.09,0,.09l.52,0a6.53,6.53,0,0,0,1.17,0,8.57,8.57,0,0,0,2.32-.57c.46-.21,1.43,2,.78,2.23a10.42,10.42,0,0,1-3,.5,9.05,9.05,0,0,1-1.55-.11,6.56,6.56,0,0,1-2-.66l-.26-.13a1.29,1.29,0,0,1,0-.28V129l.16-1.07.21-1.34.42-2.69,1.69-10.78C1699.27,112.35,1700,112.43,1699.94,113.23Z"/><path class="cls-1" d="M1717.48,165.42c5.64,0,10.3.23,10.6,4.6S1736,347.91,1736,347.91s-19.81-25.41-26.61-52.75c0,0-15.18,34.93-29.93,48.38,0,0,6.91-174.39,9.28-175.85s12.81-2.27,12.81-2.27"/><path class="cls-1" d="M1684.62,338.75l4.7,109.84s5.83,2.92,10.49,0V314.5"/><path class="cls-1" d="M1689.32,448.59s-34.09,12.53-31.47,17.2,42-8.6,42-8.6v-8.6"/><path class="cls-1" d="M1730.06,339.54l-4.66,109s-5.83,2.92-10.49,0v-137"/><path class="cls-1" d="M1725.4,448.59s34.09,12.53,31.47,17.2-42-8.6-42-8.6v-8.6"/><path d="M1708.61,309.09a22.43,22.43,0,0,1-5.9.71h0l-.7,1.31.68.07a24.12,24.12,0,0,0,6.34-.31,24.75,24.75,0,0,0,5-1.47c-.26-.72-.5-1.43-.71-2.11A23.21,23.21,0,0,1,1708.61,309.09Z"/><line class="cls-3" x1="1709.35" y1="295.16" x2="1709.35" y2="174.2"/><path class="cls-3" d="M1760.39,272.69s8.78-.15,11.89-3.87"/><path class="cls-2" d="M1619.45,203.23a2.89,2.89,0,0,0-3.78,0c-2,1.61-.73,11.08,1.89,11.08s1.31-7.43,1.31-7.43,1.31,7.43,4.08,7.43,1.6-9.47,1.6-9.47,1.31,8.45,4.23,8.15.58-8.88.58-8.88,1.46,7.43,3.94,7.14.87-15.59-4.52-11.08c0,0-2.33-2.33-4.23,1C1624.55,201.19,1620.47,199.34,1619.45,203.23Z"/><polyline class="cls-1" points="1634.84 203.59 1646.44 200.45 1663.42 263.17 1616.31 275.93 1599.33 213.2 1614.08 209.21"/><path d="M1611,229.46l.13-.34,32.12-8.7,2,2.2-.13.35-13.68,3.7,2.2,8.12.09,0a7.87,7.87,0,0,1,4.71-3.91c3.4-.93,6.82,1.5,7.77,5,.78,2.88-.06,6-1.5,9.32l-.26.07-3.3-1.27c1.71-3.53,2.68-6.72,2-9.1a2,2,0,0,0-2.61-1.57c-2.26.61-4.19,3.13-5.56,6.28l3,11-.18.36h-3.07l-2-7.76-.09,0a8.38,8.38,0,0,1-15-2.06c-1.06-3.93,1.61-7.13,5.91-8.29a22.52,22.52,0,0,1,6.2-.78l-1.25-4.61-15.53,4.2Zm19.38,4.88a20.78,20.78,0,0,0-4.13.67c-3.66,1-5.78,4.2-5,6.93.59,2.17,2.23,2.94,4.41,2.35s4.22-2.49,5.9-5.7Z"/><path class="cls-1" d="M1647.43,204.11s9.23,2.78,15.15-2.63c13.66-12.46,18.25-33.38,26.12-33.79"/><path class="cls-1" d="M1650.35,214.89s8.59,4.81,16-.58,20.46-27.85,20.46-27.85"/><path class="cls-4" d="M1708.71,136.42s8.17-.31,10.2-8.58c0,0,3.58,6-.11,11.08S1708.71,136.42,1708.71,136.42Z"/><path class="cls-4" d="M1715.36,140.7s-.88-6.24,5.1-6.74"/><path class="cls-1" d="M1667.73,101.28s-8.68-11.79-1.69-21.5c0,0-10.26-24.06,12.57-29,16.46-3.58,15.15,5.82,22.9,6.6,14.13,1.42,26.08,0,37.46,8.62,10.75,8.16,11.83,26.52,6.65,37.93"/><path d="M112.07,320.86a24.91,24.91,0,0,1-12.45.91,26.12,26.12,0,0,1-11.49-5.32c-.58-.41,1.05-2.23,1.52-1.81a24,24,0,0,0,10.3,5.58,23.64,23.64,0,0,0,11.87-.12C112.64,319.85,112.94,320.51,112.07,320.86Z"/><path class="cls-1" d="M70.05,116.65s-5.2-4.7-9.71-3c-6.27,2.34-9.11,10.28-3.92,17.57a9.12,9.12,0,0,0,8.46,3.21c1.48,8.82,10.22,22.83,22.61,25.7,9.84,2.29,15.15,1.52,25.11-3,8.54-3.91,14.23-12.21,16.47-24.06,2.59-13.63,1.08-32.35-2.07-44-.35-1.31-1.31-4.32-2.55-7.61,0,0-12.19,3.68-27.93-7.83,0,0-11.07,16.32-27.39,27.54Z"/><path d="M88.36,105.68c1.29-.46,2.87.72,3.54,2.61s.17,3.81-1.12,4.26-2.88-.72-3.54-2.61S87.07,106.13,88.36,105.68Zm25.43-4.43c.67,1.89,2.26,3.07,3.54,2.61s1.79-2.36,1.13-4.26-2.26-3.06-3.55-2.61S113.12,99.35,113.79,101.25Z"/><path d="M65,133.14a9.17,9.17,0,0,0,4.82-4.71c.07-.18,2.12,1.16,2,1.32a14.19,14.19,0,0,1-2.92,2.71,8.65,8.65,0,0,1-3.67,1.46C64.88,134,64.75,133.25,65,133.14Z"/><path d="M67.07,128.1c-.3-.95-.63-1.9-1-2.82a12.88,12.88,0,0,0-1.25-2.55.55.55,0,0,0-.27-.24l-.17,0-.26,0a5.89,5.89,0,0,0-1.3.08,19.67,19.67,0,0,0-2.78.66c-.28.12-.92-2.25-.56-2.29a22.24,22.24,0,0,1,3.19-.34,8.53,8.53,0,0,1,1.71.13l.48.13a2.54,2.54,0,0,1,.53.25,2.17,2.17,0,0,1,.76.84,14.08,14.08,0,0,1,1.06,3c.25,1,.46,2,.64,3C67.92,128.35,67.23,128.51,67.07,128.1Z"/><path class="cls-3" d="M129.14,98.94s5.91-1.41,7.05,7.15C137.27,114.21,131,117,131,117"/><path d="M80.13,104.41a15.73,15.73,0,0,1,.5-4.8,7.65,7.65,0,0,1,2.9-4.35c.27-.21,1.36,2,1.2,2a5.62,5.62,0,0,0-2.61,2.86,14.15,14.15,0,0,0-1.18,4.27C80.9,104.74,80.18,104.77,80.13,104.41Z"/><path d="M116.65,90.8a7.71,7.71,0,0,0-3.55-1.41,8.42,8.42,0,0,0-3.67.38c-.17.08-.76-2.3-.5-2.31a10.38,10.38,0,0,1,4.54.39,8.87,8.87,0,0,1,3.72,2.37C117.42,90.48,116.87,91,116.65,90.8Z"/><path class="cls-1" d="M89.11,161.36s.39,9,.15,12.86c0,0-1.77,14.71,9.41,14.64,8.16-.06,6.54-15.45,6.54-15.45s0-3.77-.34-12.67"/><path class="cls-4" d="M91.42,124.31s7.67,4.66,13.45,0c0,0-.48,9-6.13,9C93.32,133.27,91.42,124.31,91.42,124.31Z"/><path d="M101.2,102.54l1.59,4.08.8,2,.38,1a4,4,0,0,0,.19.41l.38-.17.18,0,.24-.08.5-.13a10,10,0,0,1,2.07-.32,5.27,5.27,0,0,1,2.27.36,3.55,3.55,0,0,1,1.81,1.81,5.15,5.15,0,0,1,.31,1.18l.07.61-.06.64a3.62,3.62,0,0,1-1.33,2.28,5.52,5.52,0,0,1-2.16,1,9.45,9.45,0,0,1-2.17.3c-.79,0-.53-2.41,0-2.36a5.47,5.47,0,0,0,3.06-.63,1.54,1.54,0,0,0,.65-1l.06-.32,0-.37a3.82,3.82,0,0,0-.12-.69,1.77,1.77,0,0,0-.82-.93,3.55,3.55,0,0,0-1.52-.32,8.25,8.25,0,0,0-1.77.15c-.15,0-.3.06-.45.09l-.23.06a1.67,1.67,0,0,0-.29.08c-.5.14-1,.32-1.48.49-.2-.52-.37-1.09-.55-1.62l-.35-1.1-.66-2.08-1.33-4.18C100.18,102,100.85,101.72,101.2,102.54Z"/><path class="cls-1" d="M50.19,267.71c1.8.17,3.47.3,5,.4a51.83,51.83,0,0,0,16.69-1.38"/><path class="cls-1" d="M133.85,100.43s1.72-25.22-9.35-38.33-17.09-4.66-32.44-8.45S52.23,62.39,42.61,93.57s-13.69,53.62-21.56,67.17-9.89,22-11.07,38.31c-2.33,32.06-8.74,29.14-8.16,46.63.42,12.51,19.36,18,36,20.55"/><path class="cls-1" d="M374.22,93.44l-.92,15.5s5.2-4.7,9.71-3c6.26,2.34,9.11,10.28,3.92,17.57a9.12,9.12,0,0,1-8.46,3.21c-1.48,8.82-10.23,22.83-22.61,25.71-9.84,2.28-15.15,1.51-25.11-3-8.55-3.91-14.23-12.21-16.48-24.06-2.58-13.63-.07-37.85,10.31-54.46,0,0,45.49,5.34,47.9,8.26S374.22,93.44,374.22,93.44Z"/><path d="M356.64,101.12c-.5,1.94-2,3.25-3.3,2.91s-2-2.19-1.49-4.14,2-3.26,3.3-2.92S357.14,99.17,356.64,101.12Zm-28.7-10.48c-1.32-.34-2.8,1-3.3,2.92s.17,3.8,1.49,4.14,2.8-1,3.3-2.92S329.26,91,327.94,90.64Z"/><path d="M378.18,126.21a8.6,8.6,0,0,1-3.67-1.46,13.69,13.69,0,0,1-2.92-2.71c-.16-.16,1.89-1.49,2-1.32a9.17,9.17,0,0,0,4.82,4.71C378.6,125.52,378.48,126.22,378.18,126.21Z"/><path d="M375.5,120.2c.2-1.08.43-2.16.7-3.24.14-.54.3-1.08.49-1.62.1-.27.2-.55.33-.83a3.73,3.73,0,0,1,.58-.9,3,3,0,0,1,1.8-.73,10.2,10.2,0,0,1,1.55,0,21.74,21.74,0,0,1,2.92.33c.36,0-.28,2.41-.56,2.29a21.55,21.55,0,0,0-2.55-.63,9.28,9.28,0,0,0-1.23-.12,2,2,0,0,0-.81.11,4,4,0,0,0-.71,1.09c-.23.46-.44.95-.64,1.44-.4,1-.76,2-1.09,3A.41.41,0,0,1,375.5,120.2Z"/><path class="cls-1" d="M316,92.33s-5.57-1.4-6.71,7.17c-1.08,8.12,3.11,9.78,3.11,9.78"/><path d="M362.44,95.08a14.45,14.45,0,0,0-1.55-4.15A5.68,5.68,0,0,0,358,88.31c-.17,0,.73-2.33,1-2.14a7.67,7.67,0,0,1,3.27,4.08,15.37,15.37,0,0,1,.91,4.74C363.24,95.34,362.52,95.39,362.44,95.08Z"/><path d="M325.07,84.09a9.06,9.06,0,0,1,3.51-2.68,10.2,10.2,0,0,1,4.48-.78c.27,0-.11,2.4-.29,2.34a8.35,8.35,0,0,0-3.69-.06,7.72,7.72,0,0,0-3.41,1.72C325.48,84.81,324.89,84.39,325.07,84.09Z"/><path class="cls-1" d="M354.24,153.65s-.39,6.45-.15,10.31c0,0,.16,10.91-9.3,10.13-8.14-.67-6.65-10.93-6.65-10.93s0-1.23.33-10.13"/><path class="cls-1" d="M89.33,172s-13.4-1-14,9.72-4.66,118.89-4.66,118.89,42.09,8,59.7-2.14c0,0-11.72-118.06-12.69-123.62s-12.36-4.2-12.36-4.2"/><path class="cls-1" d="M115.4,171.82s2.88-1.22,3.66-6.47,2-14.53,2-14.53"/><path class="cls-1" d="M81.45,173.21s-34.66,13.9-46.12,110.44a15.32,15.32,0,0,0,12,2.72S52,236.2,74.64,199.54"/><path class="cls-3" d="M47.37,286.37s8.55,9.33,6.41,12.24-8.15-6.12-8.15-6.12,3.49,18.75,0,19.33-4.08-12.72-4.08-12.72-.39,13.93-2.92,12.74,0-13.42,0-13.42-3.3,11.65-5.63,9.52,2.33-13,2.33-13-3.69,7.77-5.25,5.05,2.75-10.54,7.79-14.79"/><path class="cls-1" d="M363.89,167.49S398.54,181.38,410,277.93A15.33,15.33,0,0,1,398,280.65s-6.24-62.95-32.55-93.54"/><path class="cls-3" d="M398.48,280.65s-8.55,9.32-6.41,12.24,8.15-6.12,8.15-6.12-3.49,18.75,0,19.33,4.08-12.73,4.08-12.73.39,13.93,2.92,12.75,0-13.43,0-13.43,3.3,11.66,5.63,9.52-2.33-13-2.33-13,3.69,7.77,5.24,5.05S413,283.7,408,279.46"/><path class="cls-1" d="M117,173.21s41.84-18.74,68.36-102.37L196.76,81s-25.35,87.13-77.66,106.07"/><path class="cls-1" d="M187.94,73.12a50.8,50.8,0,0,0,1.54-12c.14-7.28-1.17-11.36,6.41-17.19"/><path class="cls-1" d="M194.17,78.71s1.13-3.21,3.17-4.57c1.52-1,5-1.53,7.52-3.3"/><polyline class="cls-1" points="253.26 64.77 253.26 70.84 195.89 70.84 195.89 65.31"/><polyline class="cls-1" points="195.89 58.51 195.89 1.78 253.26 1.78 253.26 57.78"/><line class="cls-3" x1="195.89" y1="8.39" x2="253.26" y2="8.39"/><path class="cls-3" d="M195.89,58.5s7.82-6.23,9.42-2.62c1.72,3.89-4.91,6.88-9.42,9.43"/><path class="cls-1" d="M324.87,168.07c-13.52-9.95-40.88-36.46-60.15-97.23L253.36,81s22.8,78.36,69.76,102.61"/><path class="cls-1" d="M262.18,73.12a50.8,50.8,0,0,1-1.54-12c-.14-7.28,1.17-11.36-6.41-17.19"/><path class="cls-1" d="M256,78.71s-1.14-3.21-3.17-4.57c-1.52-1-5-1.53-7.52-3.3"/><path class="cls-3" d="M253.26,57.78s-6.85-5.51-8.45-1.9c-1.72,3.89,3.94,6.34,8.45,8.89"/><path class="cls-1" d="M95.9,320.63l-5.21,130s-3.2,4.67-10.49,0c0,0,2.64-100.31-5.08-121.88-5.59-15.62-4.43-28.16-4.43-28.16"/><path class="cls-1" d="M80.2,450.6s-32.68,9-32.63,14c.06,6.86,43.42-5.83,43.42-5.83l-.3-8.16"/><path class="cls-1" d="M104.82,322.31,110,450.6s3.2,4.67,10.49,0c0,0-2.63-100.31,5.08-121.88a87.32,87.32,0,0,0,4.85-30.3"/><path class="cls-1" d="M120.46,450.6s32.68,9,32.63,14c-.06,6.86-43.41-5.83-43.41-5.83l.29-8.16"/><path d="M342.25,94.7l-3.94,10.17-1,2.54-.49,1.27c-.11.29-.07.2-.09.28s0,.08,0,.09l.48.2a6.89,6.89,0,0,0,1.12.33,8.31,8.31,0,0,0,2.39.11c.5-.07.8,2.36.12,2.36a10.68,10.68,0,0,1-3-.37,7.68,7.68,0,0,1-1.45-.54,6.72,6.72,0,0,1-1.77-1.21l-.21-.2a1,1,0,0,1,.07-.27l.18-.54.44-1,.58-1.23,1.17-2.47,4.65-9.85C341.85,93.67,342.51,94,342.25,94.7Z"/><path class="cls-4" d="M334.49,119.5s15.74,3.74,24.67-2.3c0,0-2.91,11.63-12.33,11.24S334.49,119.5,334.49,119.5Z"/><path class="cls-1" d="M385.33,107.15s11.32-33.3,8.22-40.29-42.07-10.3-42.07-10.3,4.77-18.55-2.81-20.25S338.81,56,338.81,56s-1.4-17.09-9.66-17.48S327,57,327,57s-13.43-16.12-18.91-9.71,10.64,17.68,10.64,17.68a95.13,95.13,0,0,0-5.43,27.33"/><path class="cls-1" d="M354,165.31c5.64,0,10.3.23,10.59,4.61s5.54,124.13,5.54,124.13S332,301.33,316,292.3c0,0,6.9-123.26,9.27-124.72S338,165.31,338,165.31"/><path class="cls-1" d="M319.23,293.82l6.62,154.66s5.82,2.92,10.49,0V310.93"/><path class="cls-1" d="M325.85,448.48s-34.1,12.53-31.47,17.2,42-8.6,42-8.6v-8.6"/><path class="cls-1" d="M368.49,295.05l-6.57,153.43s-5.83,2.92-10.49,0V308"/><path class="cls-1" d="M361.92,448.48S396,461,393.39,465.68s-42-8.6-42-8.6v-8.6"/><path d="M333.28,309a23.79,23.79,0,0,0,11.88.13,24.2,24.2,0,0,0,10.29-5.58c.47-.43,2.11,1.4,1.53,1.8a26.06,26.06,0,0,1-11.49,5.32,24.89,24.89,0,0,1-12.45-.9C332.17,309.4,332.45,308.74,333.28,309Z"/><path d="M215.48,29.26A19.8,19.8,0,0,1,212.35,31c-.25.12-.31.31,0,.43a20.87,20.87,0,0,1,3.29,1.87,1.36,1.36,0,0,1,.74,1.3c0,.87-1.18,2.43-1.86,2.43-.47,0-.65-.32-1.09-.63A37,37,0,0,0,207.5,33c-.59-.28-.81-.65-.81-1.74a1.76,1.76,0,0,1,1.06-1.87,47.5,47.5,0,0,0,5.53-3.1c.87-.56.93-.87,1.46-.87S216.42,27,216.42,28C216.42,28.48,215.92,29,215.48,29.26Z"/><path d="M231.27,19.41C227.45,28,224,35.1,220.3,42.59c-.18.37-.43.71-.84.71-.62,0-1.92-.71-1.92-1.4a1.79,1.79,0,0,1,.24-.9c4.32-8.91,7.84-16.5,10.85-23.18.22-.46.43-.84.81-.84.62,0,2.17.59,2.17,1.15A3.49,3.49,0,0,1,231.27,19.41Z"/><path d="M241.65,33.11a34.24,34.24,0,0,0-5.9,3.23c-.44.31-.59.66-1.09.66-.65,0-1.83-1.59-1.83-2.37,0-.59.15-.83.74-1.27a23.74,23.74,0,0,1,3.29-1.86c.25-.13.22-.35,0-.47a19.42,19.42,0,0,1-3.13-1.77c-.44-.31-.94-.78-.94-1.28,0-1.15,1.06-2.48,1.74-2.48s.56.25,1.43.81a43.26,43.26,0,0,0,5.5,3.07,1.75,1.75,0,0,1,1,1.84C242.46,32.27,242.27,32.83,241.65,33.11Z"/></g></g></svg>