<svg xmlns="http://www.w3.org/2000/svg" viewBox="0 0 99.77 99.54"><defs><style>.cls-1,.cls-2{fill:none;stroke-linecap:round;stroke-linejoin:round;}.cls-1{stroke:#000;stroke-width:2.91px;}.cls-2{stroke:#1f1f1f;stroke-width:0.82px;}.cls-3{fill:#1f1f1f;}</style></defs><g id="Layer_2" data-name="Layer 2"><g id="Layer_2-2" data-name="Layer 2"><polygon class="cls-1" points="49.88 91.26 43.27 98.08 38.75 89.73 30.54 94.52 28.45 85.25 19.25 87.65 19.73 78.16 10.23 77.99 13.25 68.98 4.14 66.25 9.49 58.39 1.46 53.31 8.72 47.18 2.36 40.12 11.01 36.18 6.78 27.66 16.18 26.2 14.41 16.86 23.84 17.99 24.66 8.52 33.45 12.15 36.79 3.25 44.27 9.12 49.88 1.46 55.5 9.12 62.98 3.25 66.32 12.15 75.11 8.52 75.92 17.99 85.36 16.86 83.59 26.2 92.98 27.66 88.76 36.18 97.41 40.12 91.05 47.18 98.31 53.31 90.28 58.39 95.62 66.25 86.52 68.98 89.54 77.99 80.04 78.16 80.52 87.65 71.32 85.25 69.22 94.52 61.02 89.73 56.49 98.08 49.88 91.26"/><polygon class="cls-2" points="49.88 8.48 54.69 15.04 61.09 10.02 63.94 17.63 71.45 14.52 72.15 22.62 80.23 21.66 78.71 29.64 86.75 30.89 83.14 38.18 90.53 41.55 85.09 47.59 91.3 52.83 84.44 57.18 89 63.9 81.22 66.23 83.8 73.94 75.67 74.08 76.08 82.2 68.22 80.15 66.42 88.08 59.4 83.98 55.54 91.13 49.88 85.29 44.23 91.13 40.36 83.98 33.34 88.08 31.55 80.15 23.68 82.2 24.09 74.08 15.96 73.94 18.55 66.23 10.76 63.9 15.33 57.18 8.46 52.83 14.68 47.59 9.23 41.55 16.63 38.18 13.02 30.89 21.05 29.64 19.54 21.66 27.61 22.62 28.31 14.52 35.82 17.63 38.68 10.02 45.08 15.04 49.88 8.48"/><path class="cls-3" d="M46.64,44.48a9.42,9.42,0,0,1-1.79,6.16,6.22,6.22,0,0,1-5.1,2.18,6,6,0,0,1-4.93-2.25A9.41,9.41,0,0,1,33,44.48a9.39,9.39,0,0,1,1.77-6.13,6.1,6.1,0,0,1,5-2.15,6.23,6.23,0,0,1,5,2.23A9.15,9.15,0,0,1,46.64,44.48Zm-8.2.07a9.27,9.27,0,0,0,.35,3c.23.62.57.93,1,.93s.8-.31,1-.91a9.35,9.35,0,0,0,.34-3,9.45,9.45,0,0,0-.34-3c-.22-.61-.56-.92-1-.92s-.82.31-1,.94A9.74,9.74,0,0,0,38.44,44.55Zm21.4-8L45.16,63.05H39.78L54.46,36.58ZM66.77,55A9.38,9.38,0,0,1,65,61.15a6.23,6.23,0,0,1-5.1,2.19,6,6,0,0,1-4.93-2.26A9.39,9.39,0,0,1,53.12,55a9.35,9.35,0,0,1,1.78-6.13,6.09,6.09,0,0,1,5-2.14,6.24,6.24,0,0,1,5,2.22A9.15,9.15,0,0,1,66.77,55Zm-8.2.07a9.75,9.75,0,0,0,.34,3c.23.61.58.92,1,.92S60.82,58.66,61,58a10.89,10.89,0,0,0,.3-2.87,11,11,0,0,0-.3-2.87c-.2-.7-.55-1.06-1.07-1.06s-.82.32-1,1A9.36,9.36,0,0,0,58.57,55.08Z"/></g></g></svg>