<svg xmlns="http://www.w3.org/2000/svg" viewBox="0 0 428.55 48.21"><defs><style>.cls-1{fill:#0eb9af;}.cls-2{fill:#fff;}.cls-3{fill:#3d3245;}.cls-4{fill:none;stroke:#b50000;stroke-linecap:round;stroke-linejoin:round;stroke-width:1.71px;}.cls-5{fill:#b50000;}.cls-6{fill:#1f1f1f;}</style></defs><g id="Layer_2" data-name="Layer 2"><g id="Layer_1-2" data-name="Layer 1"><rect class="cls-1" x="257.77" y="1.89" width="170.78" height="44.44"/><path class="cls-2" d="M410.8,20.94c1.33-2,2.72-3.94,4-6a8.92,8.92,0,0,1,7.56-4.57c1.7-.05,2,.47,1.25,1.95a1,1,0,0,0-.15.32c-.1,2.6-1.86,4.36-3.17,6.37-3.09,4.77-6.11,9.6-9.19,14.39a6.7,6.7,0,0,1-6.17,3.49c-1.07,0-1.59-.5-1.55-1.48.08-2.28.25-4.57.39-6.85a1.35,1.35,0,0,0-.14-.79l-.56.77c-1.7,2.36-3.33,4.78-5.15,7.06a5,5,0,0,1-4.57,1.78c-1-.1-1.37-.64-1-1.53a109,109,0,0,1,11.26-20.54A18.24,18.24,0,0,1,407,12.19a3.42,3.42,0,0,1,1.86-.62c.94-.06,1.74.26,1.73,1.44V20.8Z"/><path class="cls-2" d="M307,15.68c-.09,3-1.41,6-3,8.74-2.81,4.87-6,9.42-11.16,12.14-2.78,1.48-5.66,2-8.54.12-2-1.29-2.46-3.2-2.17-5.38.48-3.58,2.24-6.63,4.1-9.62a30,30,0,0,1,7.74-8.57,8.13,8.13,0,0,1,6.54-1.8,1.45,1.45,0,0,0,.88-.18c3-1.46,5.27-.21,5.55,3.1C306.91,14.62,306.92,15,307,15.68ZM290.38,32.74A10,10,0,0,0,292,31.5a39.48,39.48,0,0,0,3.3-4,24,24,0,0,0,3.9-8,3,3,0,0,0-.14-.95c-.3.12-.7.15-.9.37-.83.89-1.66,1.8-2.4,2.77-2,2.61-3.94,5.21-5.8,7.9C289.17,30.72,289.38,31.65,290.38,32.74Z"/><path class="cls-2" d="M394.26,10.34c.47,0,.95,0,1.42,0a3.17,3.17,0,0,1,2.81,2.73c.65,3.61-.61,6.79-2.18,9.88a36.6,36.6,0,0,1-7.88,10.6,13.81,13.81,0,0,1-7.3,3.92c-5.34.77-8.51-2.76-7.06-7.95a32.46,32.46,0,0,1,6.39-11.66,48,48,0,0,1,3.33-3.52C386.68,11.44,390.34,10.54,394.26,10.34Zm-3.67,7.89-.43-.22c-3.69,3.81-7.58,7.45-9.82,12.42a2.76,2.76,0,0,0-.27,1.37,6.8,6.8,0,0,0,.53,1.51,5.1,5.1,0,0,0,1.32-.59,24,24,0,0,0,5.84-7.82C388.83,22.74,389.65,20.46,390.59,18.23Z"/><path class="cls-2" d="M282.48,11.22h.35c3.88.16,5.39,2.42,4,6.06-.94,2.5-2.33,4.59-5.17,5.23a6.59,6.59,0,0,1-1.17.16c-1.58,0-2.06-.64-1.56-2.17a2.79,2.79,0,0,0,.2-.55,1.81,1.81,0,0,0,0-1c-.08-.13-.58-.1-.86,0a10.2,10.2,0,0,0-4.6,3.21,15.72,15.72,0,0,0-3.84,6,2,2,0,0,0,.42,2.39,2.15,2.15,0,0,0,2.55.13c1.06-.53,2.07-1.14,3.36-.76.84.25,1,.64.85,1.48a12.56,12.56,0,0,0,.07,1.72,1.81,1.81,0,0,1-.46,1.21c-3.52,2.51-7.31,3.92-11.66,2.42a4.16,4.16,0,0,1-2.59-4.69c.66-5.82,3.61-10.44,7.57-14.54a20,20,0,0,1,9.62-6c.95-.23,1.94-.3,2.91-.45Z"/><path class="cls-2" d="M347.66,37.69a18.24,18.24,0,0,1-3.09-.84,2.74,2.74,0,0,1-1.63-3.31,3.13,3.13,0,0,1,3.08-2.6,9.15,9.15,0,0,1,2.33.31,6.35,6.35,0,0,0,4.89-.82c1.18-.64,1.28-1.32.42-2.39a17.28,17.28,0,0,0-1.35-1.49c-2-1.94-2.26-4.19-1.32-6.73,2.39-6.5,10.06-9.59,15.57-8.68a4.83,4.83,0,0,1,2.07,1c1.49,1.23,1.2,2.85-.53,3.78a4.76,4.76,0,0,0-1.34,1.15,4.23,4.23,0,0,1-3.3,1.32c-.78.06-1.58,0-2.37,0a2.47,2.47,0,0,0-2.26,1.64,2.13,2.13,0,0,0,.64,2.57c3.38,3.09,2.52,6.25.54,9C357.12,35.59,353.17,37.45,347.66,37.69Z"/><path class="cls-2" d="M308.52,31.85c1.15-.24,1.94-.43,2.75-.57a18.89,18.89,0,0,1,2-.2c.6,0,1.12.12,1.1.9a.23.23,0,0,0,0,.11c.42.87,1.1,1.66.42,2.73a4.47,4.47,0,0,1-3.42,2.31c-2.83.21-5.68.2-8.52.19-.42,0-1.14-.43-1.21-.76-.29-1.45-1.07-2.92-.22-4.43A154.42,154.42,0,0,1,314,13.48c1.48-1.92,3.83-2.47,6.21-2.25,1.62.15,2.16,1.23,1.41,2.71a24.55,24.55,0,0,1-2.33,3.84c-3.27,4.32-6.61,8.58-9.92,12.86C309.15,30.93,308.94,31.25,308.52,31.85Z"/><path class="cls-2" d="M324.54,31.82c.92-.22,1.83-.46,2.75-.63s2.1-.37,2.79.68a2.85,2.85,0,0,1-.12,3.24,3.87,3.87,0,0,1-3.15,2.07c-3.12.11-6.24.11-9.36,0-1.38,0-1.69-.62-1.42-2,.52-2.67,2.1-4.83,3.46-7.09A103,103,0,0,1,329.74,13.8a7.91,7.91,0,0,1,4.84-2.53,3.28,3.28,0,0,1,2.27.81,1.68,1.68,0,0,1,.16,2.45c-2.72,3.73-5.42,7.49-8.16,11.2-1.46,2-3,3.86-4.49,5.79Z"/><path class="cls-2" d="M362.29,37.48l-.68-.06c-2-.23-2.45-1.07-1.47-2.78,1.39-2.43,2.83-4.84,4.34-7.2,2.79-4.4,5.65-8.75,8.48-13.12,1.39-2.15,3.64-2.65,5.92-3a2,2,0,0,1,1.59.69c.22.33,0,1.15-.26,1.6-3.64,6.05-7.33,12.07-11,18.11a25.27,25.27,0,0,0-1.36,2.36C366.74,36.48,364.79,37.38,362.29,37.48Z"/><path class="cls-2" d="M333.89,37.38h-.35c-2.26-.09-2.86-1-1.68-2.93,3.77-6.16,7.62-12.28,11.47-18.4a5.73,5.73,0,0,1,3.27-2.61,4.57,4.57,0,0,0,1.41-1c.21-.17.35-.42.55-.61.87-.79,2.3-1,2.93-.37.84.84.45,1.76-.05,2.6l-10.2,17c-.61,1-1.27,2-1.79,3.07A5.58,5.58,0,0,1,333.89,37.38Z"/><path class="cls-3" d="M62.22,36.37V12.92h8.36c8.17,0,12.48,4.7,12.48,11.72S78.75,36.37,70.58,36.37ZM70.58,33c6,0,8.78-3.3,8.78-8.36s-2.79-8.35-8.78-8.35h-4.7V33Z"/><path class="cls-3" d="M94.85,36.83c-5.59,0-9.53-3.94-9.53-9.32s3.94-9.32,9.53-9.32,9.54,3.94,9.54,9.32S100.45,36.83,94.85,36.83Zm6.1-9.32a6.1,6.1,0,1,0-12.19,0,6.1,6.1,0,1,0,12.19,0Z"/><path class="cls-3" d="M121.71,25.07a6.15,6.15,0,0,0-11.8,2.44A6.15,6.15,0,0,0,121.71,30h3.44c-.93,4.09-4.45,6.88-9.14,6.88-5.6,0-9.54-3.94-9.54-9.32s3.94-9.32,9.54-9.32c4.69,0,8.21,2.8,9.14,6.88Z"/><path class="cls-3" d="M138.2,23.64c-.11-1.36-1.36-2.37-3.48-2.37-2.29,0-3.58,1-3.58,2.58,0,3.7,10.9-.14,10.9,7.28,0,3.3-2.91,5.7-7.35,5.7s-7.25-2.36-7.35-5.59h3.44c.07,1.47,1.43,2.51,3.87,2.51,2.62,0,3.95-1.07,3.95-2.62,0-3.73-10.9.11-10.9-7.28,0-3.26,2.72-5.66,7-5.66s6.85,2.4,6.92,5.45Z"/><path class="cls-3" d="M144.87,13.74a2.39,2.39,0,0,1,2.37-2.36,2.39,2.39,0,0,1,0,4.77A2.4,2.4,0,0,1,144.87,13.74Zm.68,22.63V18.66H149V36.37Z"/><path class="cls-3" d="M156,28.77v.07a5.65,5.65,0,0,0,6,4.84c2.3,0,3.91-.72,4.95-2.26h3.76c-1.36,3.3-4.59,5.41-8.71,5.41-5.59,0-9.54-3.94-9.54-9.32s3.95-9.32,9.54-9.32a9,9,0,0,1,9.47,9.32v1.26Zm.11-3.12v.07h11.72v-.07a6.14,6.14,0,0,0-11.72,0Z"/><path class="cls-4" d="M24.11.85A23.26,23.26,0,1,0,47.36,24.11,23.26,23.26,0,0,0,24.11.85Z"/><path class="cls-5" d="M27.78,11.76h-13v2.47H17v22.6h2.47V14.23h2.92v22.6h2.46v-4.3h3c4.91,0,8.34-4.27,8.34-10.39S32.69,11.76,27.78,11.76Zm0,18.3h-3V14.23h3c3.45,0,5.87,3.25,5.87,7.91S31.23,30.06,27.78,30.06Z"/><path class="cls-6" d="M208,26.54h-8.4V21.78H208V13.32h4.75v8.46h8.4v4.76h-8.4v8.35H208Z"/></g></g></svg>