<svg xmlns="http://www.w3.org/2000/svg" viewBox="0 0 115.95 74.06"><defs><style>.cls-1,.cls-2{fill:none;stroke-linecap:round;stroke-linejoin:round;}.cls-1{stroke:#000;stroke-width:2.91px;}.cls-2{stroke:#1f1f1f;stroke-width:0.82px;}.cls-3{fill:#1f1f1f;}</style></defs><g id="Layer_2" data-name="Layer 2"><g id="Layer_2-2" data-name="Layer 2"><path class="cls-1" d="M6.51,30.76,2.91,5.22a384.91,384.91,0,0,1,107.41,0L108.7,16.66"/><path class="cls-2" d="M91.28,7.16a381,381,0,0,0-78.16.91,8.77,8.77,0,0,1-4.21,4.5L11,29.05"/><path class="cls-2" d="M46.06,17.54a12.21,12.21,0,0,1,10.55-5.71A12.88,12.88,0,0,1,62.1,13"/><path class="cls-1" d="M114.5,48.15A372.79,372.79,0,0,0,19.16,72.61Q11,52.56,1.45,32.85A416,416,0,0,1,106.23,5.16Q111,26.62,114.5,48.15Z"/><path class="cls-2" d="M97.16,10.65a412.08,412.08,0,0,0-85,22.43,8.07,8.07,0,0,1-2.7,5.33q5.67,12.45,10.83,25.05a8.09,8.09,0,0,1,5.53,2.12,376.14,376.14,0,0,1,78.77-20.29,7.75,7.75,0,0,1,3.81-4.55q-2.46-13.46-5.46-26.89A10.22,10.22,0,0,1,97.16,10.65Z"/><path class="cls-2" d="M71,33.61c1.69,6.06-2.29,12.14-8.66,13.8s-13-1.66-15.11-7.59,1.54-12.33,8.3-14.11S69.35,27.56,71,33.61Z"/><path class="cls-3" d="M64.76,37.64a2.8,2.8,0,0,1-.45,2.61,5.87,5.87,0,0,1-2.85,1.85c.19.62.37,1.24.56,1.86l-1.34.35c-.18-.61-.37-1.22-.55-1.82a12.68,12.68,0,0,1-4.42.34c-.26-.8-.51-1.59-.77-2.38a13.24,13.24,0,0,0,2.28.12,12.13,12.13,0,0,0,2.25-.21l-.87-2.81-.74-.06a8.36,8.36,0,0,1-3.26-.79,3.09,3.09,0,0,1-1.49-1.81,2.58,2.58,0,0,1,.41-2.46,6,6,0,0,1,2.84-1.88l-.45-1.38,1.38-.37c.15.45.29.9.44,1.35a12.72,12.72,0,0,1,4.44-.23c-.1.79-.2,1.57-.29,2.36a12.36,12.36,0,0,0-3.44.11c.29.89.57,1.78.85,2.68a15.69,15.69,0,0,1,3.13.47,3.92,3.92,0,0,1,1.54.8A2.79,2.79,0,0,1,64.76,37.64ZM56.1,34.07a.93.93,0,0,0,.52.58,4.63,4.63,0,0,0,1.15.27l-.69-2.13C56.26,33.13,55.94,33.56,56.1,34.07Zm5.72,4.46a.88.88,0,0,0-.54-.56,5.07,5.07,0,0,0-1.17-.29l.69,2.26Q62.08,39.39,61.82,38.53Z"/></g></g></svg>