<svg xmlns="http://www.w3.org/2000/svg" xmlns:xlink="http://www.w3.org/1999/xlink" viewBox="0 0 133.4 213.92"><defs><style>.cls-1{fill:none;}.cls-2{fill:#bd9797;}.cls-3{fill:#e8f8ff;}.cls-4{fill:#e0f4ff;}.cls-5{fill:#754835;}.cls-6{clip-path:url(#clip-path);}.cls-7{fill:#683f30;}.cls-8{fill:#e8e8eb;}.cls-9{clip-path:url(#clip-path-2);}.cls-10{fill:#f0f0f0;}.cls-11{fill:#bbb;}.cls-12{fill:#a88489;}.cls-13{fill:#d5d2da;}.cls-14{fill:#828b4c;}.cls-15{clip-path:url(#clip-path-11);}.cls-16{fill:#747a45;}.cls-17{fill:#6f7841;}.cls-18{clip-path:url(#clip-path-12);}.cls-19{fill:#63693b;}.cls-20{clip-path:url(#clip-path-13);}.cls-21{fill:#b5d602;}.cls-22{clip-path:url(#clip-path-14);}.cls-23{fill:#a1bb02;}.cls-24{clip-path:url(#clip-path-15);}.cls-25{fill:#676b3f;}.cls-26{fill:#552c2b;}.cls-27{fill:#231f20;}.cls-28{clip-path:url(#clip-path-16);}.cls-29{fill:#f3f3f3;}.cls-30{fill:#d8d5dd;}.cls-31{fill:#1d0201;}.cls-32{fill:#fdfeff;}.cls-33{fill:#fcfeff;}.cls-34{fill:#f1edeb;}.cls-35{fill:#181819;}.cls-36{fill:#fcfcfc;}.cls-37{fill:#a4d6ff;}.cls-38{fill:#fff;}.cls-39{fill:#140a1a;}.cls-40{fill:#fac721;}.cls-41{fill:#faec21;}.cls-42{fill:#ffff4a;}</style><clipPath id="clip-path"><path class="cls-1" d="M45.8,169.22s-9.1.4-15.5-12.7c0,0-1.5,18.2,17.1,18.9s-1.6-6.2-1.6-6.2"/></clipPath><clipPath id="clip-path-2"><path class="cls-1" d="M88.6,169.92c1.6,6.5-4.8,17.5-5.3,22.7s7.1,8.5,6.2,10.5-10.1,1.1-13.8,1-3-3.6-2.7-9.8.1-12,.1-12h0a72.32,72.32,0,0,1-14.6.3,57.62,57.62,0,0,0-.9,11.7c.3,6.2,1,9.7-2.7,9.8s-12.9,1-13.8-1,6.4-4.9,6.9-10.1c1.2-11.9,3.2-27.1,4.8-33.6l35.8,10.5"/></clipPath><clipPath id="clip-path-11"><path class="cls-1" d="M49.2,165.22l-3,2.2s-3,.1-2.4,4.2c0,0,3.3,6.2,23,5.5s26.3-8.7,26.3-8.7a5,5,0,0,0-2-4C89,163,69,161.22,69,161.22L57,165l-7.8.2"/></clipPath><clipPath id="clip-path-12"><path class="cls-1" d="M86.4,145.92a3.39,3.39,0,0,0,3.6-3.1c.6-3.4-4-15.1-4.6-15.3s-7.4,2.4-7.4,2.4l-1.4,3.2,1.7,5.5,8.1,7.3"/></clipPath><clipPath id="clip-path-13"><path class="cls-1" d="M47.3,145.92a3.39,3.39,0,0,1-3.6-3.1c-.6-3.4,4-15.1,4.6-15.3s7.4,2.4,7.4,2.4l1.4,3.2-1.7,5.5-8.1,7.3"/></clipPath><clipPath id="clip-path-14"><path class="cls-1" d="M46.2,167.52s4.4,5.1,19.3,4.8a52.66,52.66,0,0,0,25.7-7.7s-4.3-25.7-9.5-35.6-19.5.7-19.5.7l-8.9-.5-2.2-1.8-2.4,11a99.5,99.5,0,0,0-2.2,18.1l-.3,11"/></clipPath><clipPath id="clip-path-15"><path class="cls-1" d="M50.8,126.92a3.48,3.48,0,0,0,2.9,3.9c5.7,1,18.2,2.5,30.3-.8a3.54,3.54,0,0,0,2.3-4.7l-.1-.3a3.6,3.6,0,0,0-3.4-2.2l-28.6,1.1a3.37,3.37,0,0,0-3.4,3"/></clipPath><clipPath id="clip-path-16"><path class="cls-1" d="M105.9,99c9.2-21.1,10.8-46.8,11.3-51.5.9-8.2-31.7-25.6-34.3-15.6-2,7.6,13.1,19.3,20.2,24.4h0a18,18,0,0,1-.8,3.5h-.1a190.54,190.54,0,0,0-21-7c-12.4-3.4-16.1-8.7-16.1-8.7,2,3.2,1.6,8.1,1.6,8.1a17.19,17.19,0,0,0-15.5-1.7c5.8.8,7.5,3.1,7.5,3.1-17.2-2-20.1.4-25.5,20.6a92.18,92.18,0,0,0-3.1,17c-2.3-1.4-7.8-4.5-10.1-2.6-3,2.4,6.3,5.7,6.3,5.7s-7.8,1.8-6.9,4.7c.7,2,7.1,1.2,10.7.5,1.4,15.3,11,27.7,39.8,28.1,13.4.2,22.9-7.1,29.8-17.3,2.5,1.7,7.6,4.8,10.2,3.1,3.5-2.3-5.9-7.8-5.9-7.8s8,.5,9.1-3.6c.9-2.9-3.8-3.2-7.2-3"/></clipPath></defs><g id="Layer_2" data-name="Layer 2"><g id="Layer_1-2" data-name="Layer 1"><path class="cls-2" d="M83.6,138l1-1.5-1,1.5h0l1-1.5-1,1.5a36,36,0,0,1,4.6,4,21.46,21.46,0,0,1,2.8,3.5,9.33,9.33,0,0,1,.7,1.5,5.76,5.76,0,0,1,.2,1,1.08,1.08,0,0,1-.1.6,4.48,4.48,0,1,0,7.8,4.4,10.37,10.37,0,0,0,1.3-5,12.27,12.27,0,0,0-.7-3.9,17.58,17.58,0,0,0-3-5.4,37.85,37.85,0,0,0-5.5-5.7,23,23,0,0,0-2.9-2.3,4.61,4.61,0,0,0-6.3,1.1,4.32,4.32,0,0,0,1.1,6.2"/><path class="cls-2" d="M45.1,130.82a55.79,55.79,0,0,0-5.4,5.2,26.91,26.91,0,0,0-3.9,5.3,18.67,18.67,0,0,0-1.5,3.2,11.66,11.66,0,0,0-.7,3.8,8.75,8.75,0,0,0,.7,3.5,9.88,9.88,0,0,0,2.1,3.2,4.53,4.53,0,0,0,6.4-6.4.31.31,0,0,1-.1-.2v-.2a1.83,1.83,0,0,1,.2-.9,12.75,12.75,0,0,1,1.6-3,31.11,31.11,0,0,1,4.1-4.6c.6-.6,1.2-1.1,1.6-1.5l.4-.4.1-.1h0l-1.6-1.9,1.6,2h0l-1.6-1.9,1.6,2a4.56,4.56,0,0,0,.7-6.3,4.3,4.3,0,0,0-6.3-.8"/><path class="cls-3" d="M51.6,50.32c.2,1,.3,1.8.4,2.5,2,.1,4.2.3,6.8.6,0,0-1.7-2.2-7.2-3.1M66.8.92a65.82,65.82,0,0,0-61.1,90h0a66,66,0,0,0,25.2,12.7,30.34,30.34,0,0,1-.6-4.2,36.3,36.3,0,0,1-6.9.8c-2,0-3.5-.3-3.8-1.3-.9-2.9,6.9-4.7,6.9-4.7s-9.2-3.3-6.3-5.7a3.17,3.17,0,0,1,2-.6c2.7,0,6.3,2.1,8.1,3.2a92.18,92.18,0,0,1,3.1-17c2.6-9.9,4.6-15.5,8-18.4a20,20,0,0,0-3.6-5.2l.1.5c-11.8-1.1-26.4-9.4-23.9-14,1-1.8,4.5-2.6,8.8-2.6a73.5,73.5,0,0,1,20.1,3.3c5.5,1.8,7.8,8.3,8.8,12.7a16.47,16.47,0,0,1,5.7-1,17.3,17.3,0,0,1,9.5,2.8h0v-1a14.3,14.3,0,0,0-1.6-7h0l.3.3h0c1.1,1.2,5.3,5.5,15.9,8.4a190.54,190.54,0,0,1,21,7h.1a1.85,1.85,0,0,0,.2-.7,14.19,14.19,0,0,0,.5-2.2c-.1,0-.1-.1-.2-.1l.3-.4c-6.8-4.8-20.4-15.4-20.4-23a5.9,5.9,0,0,1,.2-1.4,3.66,3.66,0,0,1,1.6-2.2,7.24,7.24,0,0,1,3.5-.8,24.91,24.91,0,0,1,7.4,1.5,5.46,5.46,0,0,1,2-2,6.86,6.86,0,0,1,3.7-1c3.7,0,7.9,2.6,10.4,6.9.5.9.9,1.8,1.3,2.7a62.88,62.88,0,0,0-4.6-21.3A65.32,65.32,0,0,0,66.8.92"/><path class="cls-4" d="M5.8,90.82a66.09,66.09,0,0,0,41.5,38.5,12.7,12.7,0,0,1,.9-1.8h.1a14.74,14.74,0,0,1,2.6.7,5.28,5.28,0,0,1-.1-1.3,3.67,3.67,0,0,1,.9-2C38.8,121,32.9,113,30.9,103.42A64,64,0,0,1,5.8,90.82m102.4-75.1A68.06,68.06,0,0,1,112.8,37a15.79,15.79,0,0,1,.9,4.2c2.2,2.1,3.6,4.2,3.5,6v.3c-.2,1.4-.4,4.6-.9,9a3.85,3.85,0,0,1,2.6,3,3.61,3.61,0,0,1-2.3,4.3h-.5a1.7,1.7,0,0,1-.7-.1c-1.5,10.2-4.3,23.5-9.4,35.3h1.3c3,0,6.2.4,6.2,2.4a.9.9,0,0,1-.1.5c-.9,3.3-6.1,3.7-8.2,3.7h-.9s6.6,3.9,6.6,6.5a1.47,1.47,0,0,1-.8,1.3,3.83,3.83,0,0,1-1.9.5c-2.7,0-6.3-2.2-8.3-3.6-3.9,5.8-8.6,10.7-14.4,13.8a4.13,4.13,0,0,1,.7,1.1l.1.3a3.08,3.08,0,0,1,.3,1.3,4.14,4.14,0,0,1-.5,1.9,6.89,6.89,0,0,1,.3.8,65.76,65.76,0,0,0,21.8-113.8"/><path class="cls-5" d="M45.8,169.22s-9.1.4-15.5-12.7c0,0-1.5,18.2,17.1,18.9s-1.6-6.2-1.6-6.2"/><g class="cls-6"><path class="cls-7" d="M30.2,158.32c.2,4.6,2.1,16.6,17.1,17.1.9,0,1.7.1,2.5.1H50c-3.8-1.2-5.4-2.7-6-3.4a18.83,18.83,0,0,1-13.8-13.8"/></g><path class="cls-8" d="M26.2,203.62c0,3.9,17.2,7.1,38.4,7.1s38.4-3.2,38.4-7.1-17.2-7.1-38.4-7.1-38.4,3.1-38.4,7.1"/><path class="cls-2" d="M88.6,169.92c1.6,6.5-4.8,17.5-5.3,22.7s7.1,8.5,6.2,10.5-10.1,1.1-13.8,1-3-3.6-2.7-9.8.1-12,.1-12h0a72.32,72.32,0,0,1-14.6.3,57.62,57.62,0,0,0-.9,11.7c.3,6.2,1,9.7-2.7,9.8s-12.9,1-13.8-1,6.4-4.9,6.9-10.1c1.2-11.9,3.2-27.1,4.8-33.6l35.8,10.5"/><g class="cls-9"><path class="cls-10" d="M45.8,192.22s4.3,3.3,14,.7,10.1,1,10.1,1,10.2,2.5,17.4-2,11.2,22,11.2,22-37.8-3-38.8-3-20,.4-20,.4l-4.2-11.4,10.3-7.7"/></g><g class="cls-9"><path class="cls-11" d="M80.5,199.62a4.36,4.36,0,0,1,1.7,2.5,6.51,6.51,0,0,1,.1,3.1c0,.2-.9,0-.9-.2a8.63,8.63,0,0,0,.2-2.8,4.37,4.37,0,0,0-1.3-2.4Z"/></g><g class="cls-9"><path class="cls-11" d="M84.3,199.62a4.36,4.36,0,0,1,1.7,2.5,6.51,6.51,0,0,1,.1,3.1c0,.2-.9,0-.9-.2a8.63,8.63,0,0,0,.2-2.8,4.37,4.37,0,0,0-1.3-2.4Z"/></g><g class="cls-9"><path class="cls-11" d="M50.3,199.82a3.83,3.83,0,0,0-1.3,2.4,5.36,5.36,0,0,0,.2,2.8c0,.1-.9.4-.9.2a6.51,6.51,0,0,1,.1-3.1,4.89,4.89,0,0,1,1.7-2.5Z"/></g><g class="cls-9"><path class="cls-11" d="M46.5,199.82a3.83,3.83,0,0,0-1.3,2.4,5.36,5.36,0,0,0,.2,2.8c0,.1-.9.4-.9.2a6.51,6.51,0,0,1,.1-3.1,4.89,4.89,0,0,1,1.7-2.5Z"/></g><g class="cls-9"><path class="cls-12" d="M55.5,181.22s.1,5.4,0,12.5l2.1-.3v-1a52.67,52.67,0,0,1,.9-9.7h0l-3-1.5"/></g><g class="cls-9"><path class="cls-13" d="M57.6,193.32h0a15.17,15.17,0,0,1-2.1.3v2.8c-.1,4.3-1.1,6.5-2,7.7A6.62,6.62,0,0,0,55,204c2.4-.1,2.9-1.6,2.9-4.4,0-.9-.1-1.9-.1-3.1,0-.7-.1-1.5-.1-2.3a2.22,2.22,0,0,1-.1-.9"/></g><g class="cls-9"><path class="cls-12" d="M88.9,171.72c-3.9,2.3-10.9,5-22.1,5.5-1.1,0-2.1.1-3.1.1a46.9,46.9,0,0,1-13.6-1.7,11,11,0,0,0-.2,1.8A68.64,68.64,0,0,0,64.4,179a67,67,0,0,0,8.7-.6c7.5-1,12.5-2.9,15.7-4.7a7.57,7.57,0,0,0,.1-1.5v-.5"/></g><g class="cls-9"><path class="cls-12" d="M79.2,180.82l-6.1,1.5c0,.1.1,2,.1,4.7,1.9-1.1,5.4-3.5,6-6.2"/></g><path class="cls-14" d="M49.2,165.22l-3,2.2s-3,.1-2.4,4.2c0,0,3.3,6.2,23,5.5s26.3-8.7,26.3-8.7a5,5,0,0,0-2-4C89,163,69,161.22,69,161.22L57,165l-7.8.2"/><g class="cls-15"><path class="cls-16" d="M91.2,164.52a46,46,0,0,1-8.6,4.3,11.55,11.55,0,0,1,1.7,5.1c6.4-2.5,8.9-5.4,8.9-5.4h0c-.1-.4-.1-2.7-2-4h0"/></g><path class="cls-17" d="M86.4,145.92a3.39,3.39,0,0,0,3.6-3.1c.6-3.4-4-15.1-4.6-15.3s-7.4,2.4-7.4,2.4l-1.4,3.2,1.7,5.5,8.1,7.3"/><g class="cls-18"><path class="cls-19" d="M86,128.52a3.38,3.38,0,0,1-2,1.5c-.5.1-1.1.3-1.6.4a100.23,100.23,0,0,1,4.9,15.4,3.52,3.52,0,0,0,2.7-3.1c0-.2.1-.5.1-.7-.1-3.3-2.8-10.8-4.1-13.5"/></g><path class="cls-17" d="M47.3,145.92a3.39,3.39,0,0,1-3.6-3.1c-.6-3.4,4-15.1,4.6-15.3s7.4,2.4,7.4,2.4l1.4,3.2-1.7,5.5-8.1,7.3"/><g class="cls-20"><path class="cls-19" d="M48.3,127.52h0c-.6.1-4.7,10.5-4.7,14.6a1.48,1.48,0,0,0,.1.7,3.38,3.38,0,0,0,3.4,3.1h.2l.2-.2c.3-2.5.8-5,1.3-7.5l2.1-9.9v-.2a24.55,24.55,0,0,0-2.6-.6"/></g><path class="cls-21" d="M46.2,167.52s4.4,5.1,19.3,4.8a52.66,52.66,0,0,0,25.7-7.7s-4.3-25.7-9.5-35.6-19.5.7-19.5.7l-8.9-.5-2.2-1.8-2.4,11a99.5,99.5,0,0,0-2.2,18.1l-.3,11"/><g class="cls-22"><path class="cls-23" d="M82.4,130.42a44.61,44.61,0,0,1-7,1.2l7.2,37.1h0a46,46,0,0,0,8.6-4.3s-4-23.2-8.8-34"/></g><path class="cls-14" d="M50.8,126.92a3.48,3.48,0,0,0,2.9,3.9c5.7,1,18.2,2.5,30.3-.8a3.54,3.54,0,0,0,2.3-4.7l-.1-.3a3.6,3.6,0,0,0-3.4-2.2l-28.6,1.1a3.37,3.37,0,0,0-3.4,3"/><g class="cls-24"><path class="cls-25" d="M85.5,123.92a30.15,30.15,0,0,1-11,3.4l.8,4.3a54,54,0,0,0,8.6-1.6,3.51,3.51,0,0,0,2.6-3.4,3.08,3.08,0,0,0-.3-1.3l-.1-.3a2.38,2.38,0,0,0-.6-1.1"/></g><path class="cls-26" d="M73.2,182.22a24,24,0,0,0,7.4-2.5c.2-.1.6.7.4.8a23.63,23.63,0,0,1-7.8,2Z"/><path class="cls-5" d="M52.2,54.42s-.8-14-9.4-16.9-26.5-5.3-28.9-.7,12.1,12.9,23.9,14l-.1-.5a20.17,20.17,0,0,1,4.2,6.6l10.3-2.5"/><path class="cls-27" d="M107.1,58.42a5.86,5.86,0,0,1-1-.7,31.19,31.19,0,0,0-2.7-1.8l-.5.8c2.2,1.6,3.7,2.5,3.7,2.5l.5-.8"/><path class="cls-27" d="M100.5,64.82a19.13,19.13,0,0,0,2.3-5l-.9-.3a32.68,32.68,0,0,1-1.4,3.4,9.25,9.25,0,0,0-.5,1c-.1.1-.1.2-.2.3l-.1.1.8.5h0"/><path class="cls-2" d="M105.9,99c9.2-21.1,10.8-46.8,11.3-51.5.9-8.2-31.7-25.6-34.3-15.6-2,7.6,13.1,19.3,20.2,24.4h0a18,18,0,0,1-.8,3.5h-.1a190.54,190.54,0,0,0-21-7c-12.4-3.4-16.1-8.7-16.1-8.7,2,3.2,1.6,8.1,1.6,8.1a17.19,17.19,0,0,0-15.5-1.7c5.8.8,7.5,3.1,7.5,3.1-17.2-2-20.1.4-25.5,20.6a92.18,92.18,0,0,0-3.1,17c-2.3-1.4-7.8-4.5-10.1-2.6-3,2.4,6.3,5.7,6.3,5.7s-7.8,1.8-6.9,4.7c.7,2,7.1,1.2,10.7.5,1.4,15.3,11,27.7,39.8,28.1,13.4.2,22.9-7.1,29.8-17.3,2.5,1.7,7.6,4.8,10.2,3.1,3.5-2.3-5.9-7.8-5.9-7.8s8,.5,9.1-3.6c.9-2.9-3.8-3.2-7.2-3"/><g class="cls-28"><path class="cls-29" d="M45.8,95.32s-6.9-34.2,16.1-32.4c21.5,1.7,11.8,37.6,11.8,37.6s20.7-5,26.3,9.6c3.6,9.5-7.2,14.1-14.9,19.8s-34.8-2.6-45.1-8.7c-16.3-9.6-12.8-32.7,5.8-25.9"/></g><g class="cls-28"><path class="cls-12" d="M113.5,73.92h0"/></g><g class="cls-28"><path class="cls-12" d="M113.3,75c-.9,4.3-4.9,20-14.5,32.7a13.35,13.35,0,0,1,1.1,2.4h0c2,1.4,5.6,3.6,8.3,3.6a3.2,3.2,0,0,0,1.9-.5,1.7,1.7,0,0,0,.8-1.3c0-2.6-6.6-6.5-6.6-6.5h.9c2.1,0,7.3-.3,8.2-3.7,0-.2.1-.3.1-.5,0-1.9-3.2-2.4-6.2-2.4H106A138.66,138.66,0,0,0,113.3,75"/></g><g class="cls-28"><path class="cls-30" d="M98.7,107.82C92.5,116,84,123,72.4,124.92a97.15,97.15,0,0,1-14.8,1.2H55.8a73.88,73.88,0,0,0,14.3,1.5h.6c13.1,0,22.5-7.2,29.2-17.3h0a8.3,8.3,0,0,0-1.2-2.5"/></g><g class="cls-28"><path class="cls-5" d="M102.4,59.72s-1.1,5.6,7.5,6.8,11.4-9.6,11.4-9.6l-4-24.3L95.8,21.82l-19.1,2.4-1.6,8.6,11.6,17.4,15.7,9.5"/></g><g class="cls-28"><path class="cls-12" d="M65.1,44a14.3,14.3,0,0,1,1.6,7v1a4.14,4.14,0,0,0,.7,1.2,3.79,3.79,0,0,0,3.1,1.6h.3c2.6-.2-4-8.7-5.5-10.5a1.24,1.24,0,0,0-.2-.3"/></g><g class="cls-28"><path class="cls-12" d="M54.2,50.12a19.5,19.5,0,0,0-2.9.2h0c5.8.8,7.5,3.1,7.5,3.1h0s2.7,1.7,3.9,1.7c.6,0,.9-.5.1-1.9-1.3-2.6-5.6-3.1-8.6-3.1"/></g><g class="cls-28"><path class="cls-7" d="M84.5,29.62a3.31,3.31,0,0,0-1.6,2.2,6.75,6.75,0,0,0-.2,1.4c0,7.6,13.7,18.2,20.4,23h0a.75.75,0,0,1-.1.5,14.19,14.19,0,0,1-.5,2.2l1.6.7c3.1-9.4-3.1-10.4-12.2-18a21.69,21.69,0,0,1-7.4-12"/></g><path class="cls-11" d="M54.2,111.52l.7-7.7c0-.2,1-.1.9.1l-1.4,7.6Z"/><path class="cls-31" d="M37.6,50.42a26.52,26.52,0,0,0-4.2-3.3c-.1-.1.4-.9.5-.8a46.83,46.83,0,0,1,3.9,3.8Z"/><path class="cls-32" d="M101.1,27.42a6.86,6.86,0,0,0-3.7,1,4.81,4.81,0,0,0-2,2,55.06,55.06,0,0,1,17.4,10v-.5a28.1,28.1,0,0,0-.1-2.9,16.64,16.64,0,0,0-1.3-2.7c-2.4-4.3-6.6-6.9-10.3-6.9"/><path class="cls-33" d="M112.8,37c0,1,.1,1.9.1,2.9h0v.5a6,6,0,0,1,.8.8,15.79,15.79,0,0,0-.9-4.2"/><path class="cls-34" d="M95.4,30.42c-1.6,2.9,0,7.3,2.7,11.9s5.8,8.1,9.1,8.1a4.69,4.69,0,0,0,2.7-.8c2.7-1.6,4-4.8,3.8-8.4l-.8-.8h0a53,53,0,0,0-17.5-10"/><path class="cls-33" d="M116.3,56.42c-.3,2.2-.6,4.6-1,7.2a1.7,1.7,0,0,0,.7.1h.5c1.7-.3,2.7-2.2,2.3-4.3a3.9,3.9,0,0,0-2.5-3"/><path class="cls-34" d="M115.6,56.42h-.5c-1.7.3-2.7,2.2-2.3,4.3a3.69,3.69,0,0,0,2.6,3c.4-2.6.7-5.1,1-7.2a2.81,2.81,0,0,0-.8-.1"/><path class="cls-35" d="M64.8,104.12c-.4,2.6-5.2,3.6-9.8,2.8s-8.1-3.5-7.6-6.1,4.5-4.1,9.2-3.3S65.2,101.52,64.8,104.12Z"/><path class="cls-36" d="M56.1,100c0,.9-1.5,1-3.2,1.1s-3.1.1-3.1-.8,1.4-1.7,3.2-1.7S56,99.12,56.1,100Z"/><path class="cls-37" d="M133.4,63.82a66.91,66.91,0,0,0-6-24.9,68.37,68.37,0,0,0-14.9-20.8A67.64,67.64,0,0,0,90.8,4.42a67,67,0,0,0-50.3,1,66.71,66.71,0,0,0-21.2,14.5A66.49,66.49,0,0,0,0,66.32,66.86,66.86,0,0,0,18.7,113a67,67,0,0,0,21,14.7,65.49,65.49,0,0,0,25,5.6,64.45,64.45,0,0,0,25.3-4.2,66.21,66.21,0,0,0,21.8-13.4A68.45,68.45,0,0,0,127,95.12a67.29,67.29,0,0,0,6.3-24.9c.1-4.8-2-4.7-2.1-.1a63.54,63.54,0,0,1-6.1,24.1,66,66,0,0,1-14.7,20,64.4,64.4,0,0,1-45.7,17,63.29,63.29,0,0,1-24.2-5.5,64.15,64.15,0,0,1-20.3-14.2A64.84,64.84,0,0,1,6.7,90.72,64.79,64.79,0,0,1,7,42a65.56,65.56,0,0,1,13.7-20.7,66.72,66.72,0,0,1,20.5-14A65.05,65.05,0,0,1,90,6.42a64.62,64.62,0,0,1,41.3,57.5C131.4,67.52,133.5,67.52,133.4,63.82Z"/><path class="cls-38" d="M71.1,101.12a2.76,2.76,0,0,1-2.1-2.6c-.2-5.8.6-21.8,14.1-23,16.5-1.4,14.8,21.1,6.5,25C83.4,103.52,74.9,102,71.1,101.12Zm-26-4.2a2.8,2.8,0,0,0,3.1-2.4c.6-5.6,1.5-18.1-3.1-19.6-6-1.9-12.5,12.7-11.4,16.6C34.5,94.62,40.7,96.32,45.1,96.92Z"/><path class="cls-39" d="M47.4,87.72a2.5,2.5,0,0,1,0-5,3,3,0,0,1,1,.2,4,4,0,0,0-3.1-2.8c-2.5-.3-5,2.7-5.5,6.7s1.1,7.5,3.6,7.8,5-2.7,5.5-6.7c0-.3.1-.7.1-1A1.82,1.82,0,0,1,47.4,87.72Z"/><path class="cls-39" d="M86.9,89.52a2.5,2.5,0,0,1,0-5h.5a3.82,3.82,0,0,0-2.9-2.1c-2.7-.4-5.4,2.9-6,7.2s1.2,8.2,3.9,8.5,5.4-2.9,6-7.2a14.77,14.77,0,0,0,.1-2.1A2.13,2.13,0,0,1,86.9,89.52Z"/><path class="cls-39" d="M71.1,101.12l.1-.3a2.35,2.35,0,0,1-1.8-2.3v-1.2a34.06,34.06,0,0,1,2.3-12.8,16,16,0,0,1,4.2-5.8,13.78,13.78,0,0,1,7.4-2.9c.5,0,1-.1,1.4-.1a10,10,0,0,1,8.3,3.7,13.61,13.61,0,0,1,2.5,8.3,18.78,18.78,0,0,1-1.6,7.6,9.3,9.3,0,0,1-4.3,4.8,20.33,20.33,0,0,1-8.8,1.7,42.54,42.54,0,0,1-9.5-1.2l-.2.5-.1.3a43.76,43.76,0,0,0,9.7,1.2,20.3,20.3,0,0,0,9.1-1.8,9.92,9.92,0,0,0,4.6-5.2,18.65,18.65,0,0,0,1.7-7.9A13.86,13.86,0,0,0,93.4,79a10.79,10.79,0,0,0-8.9-4,7.57,7.57,0,0,0-1.5.1,13.78,13.78,0,0,0-7.7,3c-3,2.4-4.6,6-5.6,9.5a39.75,39.75,0,0,0-1.1,9.6v1.2a3,3,0,0,0,2.4,2.9Zm-26-4.2v.3h.4a3.13,3.13,0,0,0,3.1-2.8c.2-2.1.5-5.2.5-8.4a32.9,32.9,0,0,0-.7-7.3A8.45,8.45,0,0,0,47.2,76a4.47,4.47,0,0,0-2-1.6,5,5,0,0,0-1.2-.2,6.72,6.72,0,0,0-4.1,1.9,24.08,24.08,0,0,0-4.8,7,22.1,22.1,0,0,0-2,7.1,3.75,3.75,0,0,0,.1,1.1c.5,1.7,2.4,3,4.6,3.9A30.85,30.85,0,0,0,44.9,97l.2-.1v-.3a33.14,33.14,0,0,1-6.9-1.7c-2.2-.9-3.8-2.1-4.2-3.4a2.48,2.48,0,0,1-.1-.9c0-2.2,1.3-6.1,3.2-9.4A16.18,16.18,0,0,1,40.4,77a5.46,5.46,0,0,1,3.6-1.7,1.8,1.8,0,0,1,1,.2,2.84,2.84,0,0,1,1.6,1.3c1.4,1.9,1.8,5.8,1.8,9.6,0,3.1-.3,6.2-.5,8.3a2.39,2.39,0,0,1-2.4,2.1h-.3Z"/><path class="cls-11" d="M56.1,115.32a20.49,20.49,0,0,0,8.2-.7,15.47,15.47,0,0,0,3.6-1.9,10.67,10.67,0,0,0,2.5-3.1c.2-.4,1.1,0,.8.4a11.18,11.18,0,0,1-2.8,3.3,11.78,11.78,0,0,1-3.9,1.9,19.93,19.93,0,0,1-8.4.5C55.8,115.62,55.9,115.32,56.1,115.32Z"/><rect class="cls-40" x="40.8" y="147.42" width="52.2" height="27.6"/><rect class="cls-41" x="40.8" y="127.72" width="52.2" height="27.6"/><path class="cls-40" d="M46.1,147.62c0,2.7,4.1,4.9,9.2,4.9s9.2-2.2,9.2-4.9v-6.1l-18.4.1Zm23,0c0,2.7,4.1,4.9,9.2,4.9s9.2-2.2,9.2-4.9v-6.1l-18.4.1Zm-23-12.3c0,2.7,4.1,4.9,9.2,4.9s9.2-2.2,9.2-4.9v-6.1l-18.4.1Zm23,0c0,2.7,4.1,4.9,9.2,4.9s9.2-2.2,9.2-4.9v-6.1l-18.4.1Z"/><path class="cls-42" d="M64.5,129.32c0,2.7-4.1,4.9-9.2,4.9s-9.2-2.2-9.2-4.9,4.1-4.9,9.2-4.9S64.5,126.62,64.5,129.32Zm-9.2,7.3c-5.1,0-9.2,2.2-9.2,4.9s4.1,4.9,9.2,4.9,9.2-2.2,9.2-4.9S60.4,136.62,55.3,136.62Zm23-12.2c-5.1,0-9.2,2.2-9.2,4.9s4.1,4.9,9.2,4.9,9.2-2.2,9.2-4.9S83.4,124.42,78.3,124.42Zm0,12.2c-5.1,0-9.2,2.2-9.2,4.9s4.1,4.9,9.2,4.9,9.2-2.2,9.2-4.9S83.4,136.62,78.3,136.62Z"/><ellipse class="cls-10" cx="40.4" cy="152.42" rx="5.5" ry="8"/><ellipse class="cls-10" cx="93.4" cy="152.42" rx="5.5" ry="8"/></g></g></svg>