<svg xmlns="http://www.w3.org/2000/svg" xmlns:xlink="http://www.w3.org/1999/xlink" viewBox="0 0 133.4 213.92"><defs><style>.cls-1{fill:none;}.cls-2{fill:#bd9797;}.cls-3{fill:#e8f8ff;}.cls-4{fill:#e0f4ff;}.cls-5{fill:#754835;}.cls-6{clip-path:url(#clip-path);}.cls-7{fill:#683f30;}.cls-8{fill:#e8e8eb;}.cls-9{clip-path:url(#clip-path-2);}.cls-10{fill:#f0f0f0;}.cls-11{fill:#bbb;}.cls-12{fill:#a88489;}.cls-13{fill:#d5d2da;}.cls-14{fill:#828b4c;}.cls-15{clip-path:url(#clip-path-11);}.cls-16{fill:#747a45;}.cls-17{fill:#6f7841;}.cls-18{clip-path:url(#clip-path-12);}.cls-19{fill:#63693b;}.cls-20{clip-path:url(#clip-path-13);}.cls-21{fill:#b5d602;}.cls-22{clip-path:url(#clip-path-14);}.cls-23{fill:#a1bb02;}.cls-24{clip-path:url(#clip-path-15);}.cls-25{fill:#676b3f;}.cls-26{fill:#552c2b;}.cls-27{fill:#231f20;}.cls-28{clip-path:url(#clip-path-16);}.cls-29{fill:#f3f3f3;}.cls-30{fill:#d8d5dd;}.cls-31{fill:#1d0201;}.cls-32{fill:#fdfeff;}.cls-33{fill:#f1edeb;}.cls-34{fill:#181819;}.cls-35{fill:#fcfcfc;}.cls-36{fill:#a4d6ff;}.cls-37{fill:#fff;}.cls-38{fill:#140a1a;}.cls-39{fill:#d99197;}.cls-40{fill:#3b1d1f;}.cls-41{fill:#b30000;}</style><clipPath id="clip-path"><path class="cls-1" d="M87.6,169.22s9.1.4,15.5-12.7c0,0,1.5,18.2-17.1,18.9s1.6-6.2,1.6-6.2"/></clipPath><clipPath id="clip-path-2"><path class="cls-1" d="M44.8,169.92c-1.6,6.5,4.8,17.5,5.3,22.7s-7.1,8.5-6.2,10.5,10.1,1.1,13.8,1,3-3.6,2.7-9.8-.1-12-.1-12h0a72.32,72.32,0,0,0,14.6.3,57.62,57.62,0,0,1,.9,11.7c-.3,6.2-1,9.7,2.7,9.8s12.9,1,13.8-1-6.4-4.9-6.9-10.1c-1.2-11.9-3.2-27.1-4.8-33.6l-35.8,10.5"/></clipPath><clipPath id="clip-path-11"><path class="cls-1" d="M84.2,165.22l3,2.2s3,.1,2.4,4.2c0,0-3.3,6.2-23,5.5s-26.3-8.7-26.3-8.7a5,5,0,0,1,2-4c2.1-1.4,22.1-3.2,22.1-3.2l12,3.8,7.8.2"/></clipPath><clipPath id="clip-path-12"><path class="cls-1" d="M47,145.92a3.39,3.39,0,0,1-3.6-3.1c-.6-3.4,4-15.1,4.6-15.3s7.4,2.4,7.4,2.4l1.4,3.2-1.7,5.5-8.1,7.3"/></clipPath><clipPath id="clip-path-13"><path class="cls-1" d="M86.1,145.92a3.39,3.39,0,0,0,3.6-3.1c.6-3.4-4-15.1-4.6-15.3s-7.4,2.4-7.4,2.4l-1.4,3.2,1.7,5.5,8.1,7.3"/></clipPath><clipPath id="clip-path-14"><path class="cls-1" d="M87.2,167.52s-4.4,5.1-19.3,4.8a52,52,0,0,1-25.6-7.7s4.3-25.7,9.5-35.6,19.5.7,19.5.7l8.9-.5,2.2-1.8,2.4,11a99.5,99.5,0,0,1,2.2,18.1l.2,11"/></clipPath><clipPath id="clip-path-15"><path class="cls-1" d="M82.6,126.92a3.48,3.48,0,0,1-2.9,3.9c-5.7,1-18.2,2.5-30.3-.8a3.54,3.54,0,0,1-2.3-4.7l.1-.3a3.6,3.6,0,0,1,3.4-2.2l28.6,1.1a3.37,3.37,0,0,1,3.4,3"/></clipPath><clipPath id="clip-path-16"><path class="cls-1" d="M27.5,99c-9.2-21.1-10.8-46.8-11.3-51.5-.9-8.2,31.7-25.6,34.3-15.6,2,7.6-13.1,19.3-20.2,24.4h0a12.8,12.8,0,0,0,.8,3.5h.1a190.54,190.54,0,0,1,21-7c12.4-3.4,16.1-8.7,16.1-8.7-2,3.2-1.6,8.1-1.6,8.1a17.19,17.19,0,0,1,15.5-1.7c-5.8.8-7.5,3.1-7.5,3.1,17.2-2,20.1.4,25.5,20.6a92.18,92.18,0,0,1,3.1,17c2.3-1.4,7.8-4.5,10.1-2.6,3,2.4-6.3,5.7-6.3,5.7s7.8,1.8,6.9,4.7c-.7,2-7.1,1.2-10.7.5-1.4,15.3-11,27.7-39.8,28.1-13.4.2-22.9-7.1-29.8-17.3-2.5,1.7-7.6,4.8-10.2,3.1-3.5-2.3,5.9-7.8,5.9-7.8s-8,.5-9.1-3.6c-.9-2.9,3.8-3.2,7.2-3"/></clipPath></defs><g id="Layer_2" data-name="Layer 2"><g id="Layer_1-2" data-name="Layer 1"><path class="cls-2" d="M44.7,130.62a44.2,44.2,0,0,0-5.7,4.9,38,38,0,0,0-4.2,5.2,16.82,16.82,0,0,0-1.6,3.3,12.27,12.27,0,0,0-.7,3.9,9.83,9.83,0,0,0,1.3,5,4.48,4.48,0,0,0,7.8-4.4,1.08,1.08,0,0,1-.1-.6,2.4,2.4,0,0,1,.2-1,13.35,13.35,0,0,1,1.7-2.9,28.66,28.66,0,0,1,4.2-4.3,12.9,12.9,0,0,1,1.7-1.3.91.91,0,0,1,.5-.3l.1-.1h0l-1.6-2.2,1.6,2.2h0l-1.6-2.2,1.6,2.2a4.52,4.52,0,0,0-5.2-7.4"/><path class="cls-2" d="M82.6,137.82l.9-1.2-.9,1.2h0l.9-1.2-.9,1.2a50.84,50.84,0,0,1,4.5,4.3,17.35,17.35,0,0,1,2.7,3.7,7.09,7.09,0,0,1,.7,1.6,5.07,5.07,0,0,1,.2.9v.2l-.1.2a4.53,4.53,0,1,0,6.4,6.4,8.49,8.49,0,0,0,2.1-3.2,9.1,9.1,0,0,0,.7-3.5,11.66,11.66,0,0,0-.7-3.8,20,20,0,0,0-2.9-5.4,39.54,39.54,0,0,0-5.2-5.9,35.46,35.46,0,0,0-2.8-2.5,4.46,4.46,0,0,0-6.3.7,4.55,4.55,0,0,0,.7,6.3h0"/><path class="cls-3" d="M81.8,50.32c-5.5.8-7.2,3-7.2,3,2.5-.3,4.8-.5,6.8-.6a14.77,14.77,0,0,1,.4-2.4m42.9,13.5a3.68,3.68,0,0,1-3.3-3.1,3.61,3.61,0,0,1,2.3-4.3h.5a3.68,3.68,0,0,1,3.3,3.1,3.61,3.61,0,0,1-2.3,4.3h-.5M66.6.92a65.32,65.32,0,0,0-41.4,14.7,65.25,65.25,0,0,0-4.6,24.3v.5c6.3-5.7,18.1-11.5,24.9-11.5a6.27,6.27,0,0,1,3.5.8,3.31,3.31,0,0,1,1.6,2.2,6.75,6.75,0,0,1,.2,1.4c0,7.6-13.7,18.2-20.4,23h0l.3.4c-.1,0-.1.1-.2.1A14.19,14.19,0,0,0,31,59a6.37,6.37,0,0,0,.2.7h.1a190.54,190.54,0,0,1,21-7c10.5-2.9,14.8-7.2,15.9-8.4h0l.3-.3h0a14.3,14.3,0,0,0-1.6,7v1h0a17.3,17.3,0,0,1,9.5-2.8,16.47,16.47,0,0,1,5.7,1c.9-4.4,3.3-10.8,8.8-12.7a77.12,77.12,0,0,1,13-2.8c-.5-2.7.1-4.9,2.5-6.3a6.86,6.86,0,0,1,3.7-1c3.7,0,7.9,2.6,10.4,6.9,3.4,5.8,2.7,12.6-1.6,15.2a5.6,5.6,0,0,1-2.7.8c-2.1,0-4.1-1.4-6-3.7a43.28,43.28,0,0,1-14.3,4.1l.1-.5a20,20,0,0,0-3.6,5.2c3.4,2.9,5.4,8.6,8,18.4a92.18,92.18,0,0,1,3.1,17c1.8-1.1,5.5-3.2,8.1-3.2a3.17,3.17,0,0,1,2,.6c3,2.4-6.3,5.7-6.3,5.7s7.8,1.8,6.9,4.7c-.3,1-1.9,1.3-3.8,1.3a38.33,38.33,0,0,1-6.9-.8,30.34,30.34,0,0,1-.6,4.2,66,66,0,0,0,25.2-12.7h0a65.25,65.25,0,0,0,4.6-24.3A66.22,66.22,0,0,0,66.6.92"/><path class="cls-4" d="M127.6,90.82a66,66,0,0,1-25.2,12.7c-2,9.6-7.9,17.6-20.8,21.5a3.37,3.37,0,0,1,.9,2,2.88,2.88,0,0,1-.1,1.3,14.74,14.74,0,0,1,2.6-.7h.1a5,5,0,0,1,.9,1.8,66.18,66.18,0,0,0,41.6-38.6M25.2,15.72a65.67,65.67,0,0,0,21.9,113.6c.1-.3.2-.5.3-.8a3.2,3.2,0,0,1-.5-1.9,3.08,3.08,0,0,1,.3-1.3l.1-.3a4.13,4.13,0,0,1,.7-1.1c-5.8-3.1-10.5-7.9-14.4-13.8-2,1.4-5.6,3.6-8.3,3.6a3.2,3.2,0,0,1-1.9-.5,1.7,1.7,0,0,1-.8-1.3c0-2.6,6.6-6.5,6.6-6.5h-.9c-2.1,0-7.3-.3-8.2-3.7,0-.2-.1-.3-.1-.5,0-1.9,3.2-2.4,6.2-2.4h1.3C18.3,77.72,16.7,52,16.2,47.32V47c0-1.9,1.7-4.3,4.4-6.7v-.5h0a62.67,62.67,0,0,1,4.6-24.1"/><path class="cls-5" d="M87.6,169.22s9.1.4,15.5-12.7c0,0,1.5,18.2-17.1,18.9s1.6-6.2,1.6-6.2"/><g class="cls-6"><path class="cls-7" d="M103.2,158.32a18.63,18.63,0,0,1-13.9,13.8c-.6.7-2.2,2.2-6,3.4h.2a22.63,22.63,0,0,0,2.5-.1c15.1-.5,17-12.5,17.2-17.1"/></g><path class="cls-8" d="M107.2,203.62c0,3.9-17.2,7.1-38.4,7.1s-38.4-3.2-38.4-7.1,17.2-7.1,38.4-7.1,38.4,3.1,38.4,7.1"/><path class="cls-2" d="M44.8,169.92c-1.6,6.5,4.8,17.5,5.3,22.7s-7.1,8.5-6.2,10.5,10.1,1.1,13.8,1,3-3.6,2.7-9.8-.1-12-.1-12h0a72.32,72.32,0,0,0,14.6.3,57.62,57.62,0,0,1,.9,11.7c-.3,6.2-1,9.7,2.7,9.8s12.9,1,13.8-1-6.4-4.9-6.9-10.1c-1.2-11.9-3.2-27.1-4.8-33.6l-35.8,10.5"/><g class="cls-9"><path class="cls-10" d="M87.6,192.22s-4.3,3.3-14,.7-10.1,1-10.1,1-10.2,2.5-17.4-2-11.2,22-11.2,22,37.8-3,38.8-3,20,.4,20,.4l4.2-11.4-10.3-7.7"/></g><g class="cls-9"><path class="cls-11" d="M53.1,199.82a3.83,3.83,0,0,0-1.3,2.4A5.36,5.36,0,0,0,52,205c0,.1-.9.4-.9.2a6.51,6.51,0,0,1,.1-3.1,4.89,4.89,0,0,1,1.7-2.5Z"/></g><g class="cls-9"><path class="cls-11" d="M49.3,199.82a3.83,3.83,0,0,0-1.3,2.4,5.36,5.36,0,0,0,.2,2.8c0,.1-.9.4-.9.2a6.51,6.51,0,0,1,.1-3.1,4.89,4.89,0,0,1,1.7-2.5Z"/></g><g class="cls-9"><path class="cls-11" d="M83.3,199.62a4.36,4.36,0,0,1,1.7,2.5,6.51,6.51,0,0,1,.1,3.1c0,.2-.9,0-.9-.2a8.63,8.63,0,0,0,.2-2.8,4.37,4.37,0,0,0-1.3-2.4Z"/></g><g class="cls-9"><path class="cls-11" d="M87,199.62a4.36,4.36,0,0,1,1.7,2.5,6.51,6.51,0,0,1,.1,3.1c0,.2-.9,0-.9-.2a8.63,8.63,0,0,0,.2-2.8,4.37,4.37,0,0,0-1.3-2.4Z"/></g><g class="cls-9"><path class="cls-12" d="M77.9,181.22l-3,1.4h0a54.07,54.07,0,0,1,.9,9.7v1a15.17,15.17,0,0,0,2.1.3c-.1-7,0-12.4,0-12.4"/></g><g class="cls-9"><path class="cls-13" d="M75.8,193.32v.9c0,.8-.1,1.6-.1,2.3-.1,1.2-.1,2.2-.1,3.1,0,2.8.5,4.3,2.9,4.4a8.64,8.64,0,0,1,1.5.1c-1-1.2-2-3.4-2-7.7v-2.8a8.33,8.33,0,0,1-2.2-.3h0"/></g><g class="cls-9"><path class="cls-12" d="M44.5,171.72v.5a7.57,7.57,0,0,0,.1,1.5c3.2,1.8,8.2,3.6,15.7,4.7a65.3,65.3,0,0,0,23.2-1,11,11,0,0,1-.2-1.8c-3,1-7.3,1.7-13.6,1.7-1,0-2,0-3.1-.1-11.2-.5-18.1-3.2-22.1-5.5"/></g><g class="cls-9"><path class="cls-12" d="M54.2,180.82c.6,2.7,4.1,5.1,6,6.3,0-2.8.1-4.7.1-4.7h0l-6.1-1.6"/></g><path class="cls-14" d="M84.2,165.22l3,2.2s3,.1,2.4,4.2c0,0-3.3,6.2-23,5.5s-26.3-8.7-26.3-8.7a5,5,0,0,1,2-4c2.1-1.4,22.1-3.2,22.1-3.2l12,3.8,7.8.2"/><g class="cls-15"><path class="cls-16" d="M42.2,164.52h0a4.88,4.88,0,0,0-2,3.9h0s2.5,3,8.9,5.4a11.55,11.55,0,0,1,1.7-5.1,46.62,46.62,0,0,1-8.6-4.2"/></g><path class="cls-17" d="M47,145.92a3.39,3.39,0,0,1-3.6-3.1c-.6-3.4,4-15.1,4.6-15.3s7.4,2.4,7.4,2.4l1.4,3.2-1.7,5.5-8.1,7.3"/><g class="cls-18"><path class="cls-19" d="M47.4,128.52c-1.3,2.7-4,10.2-4,13.6a1.48,1.48,0,0,0,.1.7,3.52,3.52,0,0,0,2.7,3.1,96.79,96.79,0,0,1,4.9-15.4c-.5-.1-1.1-.3-1.6-.4a3.52,3.52,0,0,1-2.1-1.6"/></g><path class="cls-17" d="M86.1,145.92a3.39,3.39,0,0,0,3.6-3.1c.6-3.4-4-15.1-4.6-15.3s-7.4,2.4-7.4,2.4l-1.4,3.2,1.7,5.5,8.1,7.3"/><g class="cls-20"><path class="cls-19" d="M85.1,127.52a14.74,14.74,0,0,0-2.6.7v.2l2.1,9.9c.5,2.5,1,5,1.3,7.5l.2.2h.2a3.38,3.38,0,0,0,3.4-3.1c0-.2.1-.5.1-.7,0-4.2-4.2-14.6-4.7-14.7h0"/></g><path class="cls-21" d="M87.2,167.52s-4.4,5.1-19.3,4.8a52,52,0,0,1-25.6-7.7s4.3-25.7,9.5-35.6,19.5.7,19.5.7l8.9-.5,2.2-1.8,2.4,11a99.5,99.5,0,0,1,2.2,18.1l.2,11"/><g class="cls-22"><path class="cls-23" d="M51,130.42c-4.9,10.7-8.8,34.1-8.8,34.1a46,46,0,0,0,8.6,4.3h0l7.2-37.1a61.1,61.1,0,0,1-7-1.3"/></g><path class="cls-14" d="M82.6,126.92a3.48,3.48,0,0,1-2.9,3.9c-5.7,1-18.2,2.5-30.3-.8a3.54,3.54,0,0,1-2.3-4.7l.1-.3a3.6,3.6,0,0,1,3.4-2.2l28.6,1.1a3.37,3.37,0,0,1,3.4,3"/><g class="cls-24"><path class="cls-25" d="M47.9,123.92a4.13,4.13,0,0,0-.7,1.1l-.1.3a3.08,3.08,0,0,0-.3,1.3,3.51,3.51,0,0,0,2.6,3.4,54,54,0,0,0,8.6,1.6l.8-4.3a30.87,30.87,0,0,1-10.9-3.4"/></g><path class="cls-26" d="M60.2,182.52a24.27,24.27,0,0,1-7.8-2c-.2-.1.3-.9.4-.8a23.12,23.12,0,0,0,7.4,2.5Z"/><path class="cls-5" d="M81.2,54.42s.8-14,9.4-16.9,26.5-5.3,28.9-.7-12.1,12.9-23.9,14l.1-.5a20.17,20.17,0,0,0-4.2,6.6l-10.3-2.5"/><path class="cls-27" d="M26.8,59.22s1.5-1,3.7-2.5l-.5-.8a31.14,31.14,0,0,1-2.7,1.8c-.6.4-1,.7-1,.7l.5.8h0"/><path class="cls-27" d="M33.7,64.32h0a23.55,23.55,0,0,1-2.2-4.7l-.9.3a21.4,21.4,0,0,0,2.3,5l.8-.6h0"/><path class="cls-2" d="M27.5,99c-9.2-21.1-10.8-46.8-11.3-51.5-.9-8.2,31.7-25.6,34.3-15.6,2,7.6-13.1,19.3-20.2,24.4h0a12.8,12.8,0,0,0,.8,3.5h.1a190.54,190.54,0,0,1,21-7c12.4-3.4,16.1-8.7,16.1-8.7-2,3.2-1.6,8.1-1.6,8.1a17.19,17.19,0,0,1,15.5-1.7c-5.8.8-7.5,3.1-7.5,3.1,17.2-2,20.1.4,25.5,20.6a92.18,92.18,0,0,1,3.1,17c2.3-1.4,7.8-4.5,10.1-2.6,3,2.4-6.3,5.7-6.3,5.7s7.8,1.8,6.9,4.7c-.7,2-7.1,1.2-10.7.5-1.4,15.3-11,27.7-39.8,28.1-13.4.2-22.9-7.1-29.8-17.3-2.5,1.7-7.6,4.8-10.2,3.1-3.5-2.3,5.9-7.8,5.9-7.8s-8,.5-9.1-3.6c-.9-2.9,3.8-3.2,7.2-3"/><g class="cls-28"><path class="cls-29" d="M87.6,95.32s6.9-34.2-16.1-32.4c-21.5,1.7-11.8,37.6-11.8,37.6s-20.7-5-26.3,9.6c-3.6,9.5,7.2,14.1,14.9,19.8s34.8-2.6,45.1-8.7c16.3-9.6,12.8-32.7-5.8-25.9"/></g><g class="cls-28"><path class="cls-12" d="M19.9,73.92h0v0"/></g><g class="cls-28"><path class="cls-12" d="M20.1,75a129.7,129.7,0,0,0,7.4,24H26.2c-3,0-6.2.4-6.2,2.4a.9.9,0,0,0,.1.5c.9,3.3,6.1,3.7,8.2,3.7h.9s-6.6,3.9-6.6,6.5a1.47,1.47,0,0,0,.8,1.3,3.83,3.83,0,0,0,1.9.5c2.7,0,6.3-2.2,8.3-3.6h0a13.35,13.35,0,0,1,1.1-2.4C25,95,21.1,79.22,20.1,75"/></g><g class="cls-28"><path class="cls-30" d="M34.7,107.82a13.35,13.35,0,0,0-1.1,2.4h0c6.7,10.1,16.1,17.3,29.2,17.3h.6A73.88,73.88,0,0,0,77.7,126H75.9a96.15,96.15,0,0,1-14.8-1.2c-11.7-1.8-20.3-8.8-26.4-17"/></g><g class="cls-28"><path class="cls-5" d="M31,59.72s1.1,5.6-7.5,6.8-11.4-9.6-11.4-9.6l4-24.3,21.5-10.8,19.1,2.4,1.6,8.6L46.7,50.22,31,59.72"/></g><g class="cls-28"><path class="cls-12" d="M68.3,44l-.3.3c-1.4,1.8-8.1,10.4-5.5,10.5h.3a3.79,3.79,0,0,0,3.1-1.6,4.14,4.14,0,0,0,.7-1.2V51a13.48,13.48,0,0,1,1.7-7"/></g><g class="cls-28"><path class="cls-12" d="M79.2,50.12c-2.9,0-7.2.5-8.6,3.1-.7,1.4-.5,1.9.1,1.9,1.2,0,3.9-1.7,3.9-1.7h0s1.7-2.3,7.5-3.1h0a19.5,19.5,0,0,0-2.9-.2"/></g><g class="cls-28"><path class="cls-7" d="M48.9,29.62a21.89,21.89,0,0,1-7.5,12.1c-9,7.6-15.3,8.6-12.2,18l1.6-.7a14.19,14.19,0,0,1-.5-2.2,4.33,4.33,0,0,0-.1-.5h0c6.8-4.8,20.4-15.4,20.4-23a5.9,5.9,0,0,0-.2-1.4,3.18,3.18,0,0,0-1.5-2.3"/></g><path class="cls-11" d="M78.9,111.52l-1.3-7.6c0-.2.9-.3.9-.1l.7,7.7Z"/><path class="cls-31" d="M95.6,50.22a28,28,0,0,1,3.9-3.8c.1-.1.6.7.5.8a26.52,26.52,0,0,0-4.2,3.3Z"/><path class="cls-32" d="M109.8,27.42a6.86,6.86,0,0,0-3.7,1c-2.4,1.4-3,3.6-2.5,6.3a57.63,57.63,0,0,1,7-.5c4.4,0,7.8.7,8.8,2.6,1.4,2.7-3.1,6.8-9.6,9.9,1.9,2.2,3.9,3.7,6,3.7a4.69,4.69,0,0,0,2.7-.8c4.3-2.6,5.1-9.4,1.6-15.2-2.4-4.4-6.6-7-10.3-7"/><path class="cls-33" d="M110.6,34.22a57.63,57.63,0,0,0-7,.5,22.56,22.56,0,0,0,3.2,7.5,26.13,26.13,0,0,0,3.1,4.4c6.5-3.1,11-7.1,9.6-9.9-1-1.8-4.5-2.5-8.9-2.5"/><path class="cls-32" d="M124.3,56.42h-.5c-1.7.3-2.7,2.2-2.3,4.3a3.68,3.68,0,0,0,3.3,3.1h.5c1.7-.3,2.7-2.2,2.3-4.3a3.68,3.68,0,0,0-3.3-3.1"/><path class="cls-34" d="M68.6,104.12c.4,2.6,5.2,3.6,9.8,2.8s8.1-3.5,7.6-6.1-4.5-4.1-9.2-3.3S68.2,101.52,68.6,104.12Z"/><path class="cls-35" d="M77.3,100c0,.9,1.5,1,3.2,1.1s3.1.1,3.1-.8-1.4-1.7-3.2-1.7S77.4,99.12,77.3,100Z"/><path class="cls-36" d="M2.1,63.92a62.71,62.71,0,0,1,5.8-24.1A64.57,64.57,0,0,1,43.4,6.42a64.6,64.6,0,0,1,69.3,14.9A62.33,62.33,0,0,1,126.4,42a63.53,63.53,0,0,1,4.9,24.3,65.68,65.68,0,0,1-4.6,24.4,64.84,64.84,0,0,1-13.5,20.8,63.67,63.67,0,0,1-20.3,14.2,65.19,65.19,0,0,1-24.2,5.5,64,64,0,0,1-24.5-4,66.28,66.28,0,0,1-21.2-13A64.77,64.77,0,0,1,2.2,70.12c-.1-4.6-2.2-4.7-2.1.1a65.4,65.4,0,0,0,6.3,24.9,67.07,67.07,0,0,0,37,34,68.3,68.3,0,0,0,25.3,4.2,66.07,66.07,0,0,0,46-20.3,66.26,66.26,0,0,0,13.9-21.5,68,68,0,0,0,4.8-25.2,65.46,65.46,0,0,0-5.1-25.1,66.26,66.26,0,0,0-14.2-21.3A66.61,66.61,0,0,0,67.8,0a65.67,65.67,0,0,0-25.2,4.4,67.64,67.64,0,0,0-21.7,13.7A65.14,65.14,0,0,0,6,38.92a66.91,66.91,0,0,0-6,24.9C-.1,67.52,2,67.52,2.1,63.92Z"/><path class="cls-37" d="M43.8,100.52c-8.3-3.9-10-26.5,6.5-25,13.5,1.2,14.3,17.2,14.1,23a2.76,2.76,0,0,1-2.1,2.6C58.5,102,50,103.52,43.8,100.52Zm55.9-9c1.1-3.9-5.4-18.5-11.4-16.6-4.7,1.5-3.8,14-3.1,19.6a2.8,2.8,0,0,0,3.1,2.4C92.7,96.32,98.9,94.62,99.7,91.52Z"/><path class="cls-38" d="M86,87.72a2.5,2.5,0,0,0,0-5,3,3,0,0,0-1,.2,4,4,0,0,1,3.1-2.8c2.5-.3,5,2.7,5.5,6.7s-1.1,7.5-3.6,7.8-5-2.7-5.5-6.7c0-.3-.1-.7-.1-1A1.82,1.82,0,0,0,86,87.72Z"/><path class="cls-38" d="M46.5,89.52a2.5,2.5,0,0,0,0-5H46a3.82,3.82,0,0,1,2.9-2.1c2.7-.4,5.4,2.9,6,7.2s-1.2,8.2-3.9,8.5-5.4-2.9-6-7.2a14.77,14.77,0,0,1-.1-2.1A2.13,2.13,0,0,0,46.5,89.52Z"/><path class="cls-38" d="M43.8,100.52l.1-.3c-1.8-.8-3.2-2.6-4.3-4.8a18.78,18.78,0,0,1-1.6-7.6,13.61,13.61,0,0,1,2.5-8.3,10,10,0,0,1,8.3-3.7,6.6,6.6,0,0,1,1.4.1,13,13,0,0,1,7.4,2.9A17.16,17.16,0,0,1,62.9,88a38.25,38.25,0,0,1,1.1,9.4v1.2a2.46,2.46,0,0,1-1.8,2.3,42.54,42.54,0,0,1-9.5,1.2,20.05,20.05,0,0,1-8.8-1.7l-.1.1-.1.3a22.07,22.07,0,0,0,9.1,1.8,44.61,44.61,0,0,0,9.7-1.2,3.09,3.09,0,0,0,2.4-2.9v-1.2a35.83,35.83,0,0,0-2.3-13.1,15.35,15.35,0,0,0-4.4-6,14.08,14.08,0,0,0-7.7-3c-.5,0-1-.1-1.5-.1a10.79,10.79,0,0,0-8.9,4,14.06,14.06,0,0,0-2.7,8.7,19,19,0,0,0,1.7,7.9,10.74,10.74,0,0,0,4.6,5.2Zm55.9-9,.3.1a3.75,3.75,0,0,0,.1-1.1c0-2.4-1.3-6.4-3.3-9.8a17.14,17.14,0,0,0-3.4-4.4,6.48,6.48,0,0,0-4.1-1.9,5,5,0,0,0-1.2.2,3.89,3.89,0,0,0-2,1.6c-1.5,2.2-1.9,6.1-1.9,10,0,3.1.3,6.2.5,8.4a3.13,3.13,0,0,0,3.1,2.8h.4a30.85,30.85,0,0,0,7.1-1.8c2.2-.9,4.1-2.1,4.6-3.9l-.2-.2-.3-.1c-.4,1.4-2,2.5-4.2,3.4a30.22,30.22,0,0,1-6.9,1.7H88a2.46,2.46,0,0,1-2.4-2.1c-.2-2.1-.5-5.2-.5-8.3a30.49,30.49,0,0,1,.7-7.1,7.25,7.25,0,0,1,1.1-2.5,2.84,2.84,0,0,1,1.6-1.3,3.55,3.55,0,0,1,1-.2,5.46,5.46,0,0,1,3.6,1.7,21.41,21.41,0,0,1,4.6,6.8,18.49,18.49,0,0,1,1.9,6.9,2.22,2.22,0,0,1-.1.9Z"/><path class="cls-39" d="M74.8,115.22a6.65,6.65,0,0,0-5.2,2.8,6.11,6.11,0,0,0,5,1.1,9.76,9.76,0,0,0,4.5-1.9A6,6,0,0,0,74.8,115.22Z"/><path class="cls-40" d="M83.3,110.62c-9.7,4.2-16.6,1.4-16.6,1.4s.3,3.9,2.9,6c1.2-1.4,3-2.9,5.2-2.8a6,6,0,0,1,4.3,2A12.92,12.92,0,0,0,83.3,110.62Z"/><path class="cls-41" d="M83.3,136.32c-2-3-5-1-6,1a3.83,3.83,0,0,1-2.1,1.7l-3.3-9.8a1.93,1.93,0,0,0-2.5-1.2l-8.8,2.9c-.5-2.2,1.3-4-.4-6.5s-5.6-2.8-7,0c-1,2,0,4,2,6a3.82,3.82,0,0,1,1.2,1.9l-10.5,3.5a1.93,1.93,0,0,0-1.2,2.5l2.8,8.3c1.5-1.6,3.8-2.5,5.8-.1,2.8,3.3,2,7-1.6,7.4a10.28,10.28,0,0,1-1.7.1l2.6,7.6a1.93,1.93,0,0,0,2.5,1.2l8-2.7c-2-1.7-3.4-5.1.2-6.9,3.9-1.9,7.2-.3,6.8,3.3-.1.5-.1.9-.2,1.4l8.5-2.8a1.93,1.93,0,0,0,1.2-2.5l-3.5-10.5c1.5-.4,2.6.3,5.1.3C84.3,142.32,85.3,139.32,83.3,136.32Z"/><path class="cls-10" d="M65,149.32a4.61,4.61,0,0,0-5.8-2.7,51.63,51.63,0,0,1-8.5,2.3c-.6,2.2-1.1,6.3,3,8.7a62.3,62.3,0,0,0,8.7-2.5A4.69,4.69,0,0,0,65,149.32Z"/><path class="cls-2" d="M50.7,148.92c-4.7.8-8.4.7-9-.3a4.48,4.48,0,1,0-7.8,4.4c2.3,4.1,6.9,5.4,11.9,5.4a40.66,40.66,0,0,0,7.9-.9C49.6,155.22,50,151.12,50.7,148.92Z"/><path class="cls-10" d="M80,140.92c-1.8-1.4-3.5-2.9-5.2-4.4a4.53,4.53,0,1,0-6.1,6.7c.1.1,2.7,2.5,6.2,5.2A11.13,11.13,0,0,0,80,140.92Z"/><path class="cls-2" d="M96.9,148.62a4.56,4.56,0,0,0-5.5-.7c-2-.4-6.6-3.3-11.4-7.1-.9,4.2-3.2,6.4-5.1,7.4,1.2.9,2.4,1.8,3.7,2.7,4.2,3,9.2,6,13.3,6a6.79,6.79,0,0,0,5-2A4.35,4.35,0,0,0,96.9,148.62Z"/></g></g></svg>