<svg xmlns="http://www.w3.org/2000/svg" xmlns:xlink="http://www.w3.org/1999/xlink" viewBox="0 0 1278.18 927.21"><defs><style>.cls-1{fill:none;}.cls-2{fill:#341a7d;}.cls-3{fill:#1a1333;}.cls-4{fill:#f5dfb5;}.cls-5{fill:#ebedf7;}.cls-6{fill:#c9d1ed;}.cls-7{fill:#fff;}.cls-8{fill:#e0e7ff;}.cls-9{fill:#ed335b;}.cls-10{fill:#ffde30;}.cls-11{fill:#130929;}.cls-12{fill:#ffcdb5;}.cls-13{clip-path:url(#clip-path);}.cls-14{clip-path:url(#clip-path-2);}.cls-15{fill:#f3b09e;}.cls-16{fill:#0e3887;}.cls-17{clip-path:url(#clip-path-4);}.cls-18{fill:#0d3076;}.cls-19{fill:#59277d;}.cls-20{fill:#943a3a;}.cls-21{fill:#7232a1;}.cls-22{clip-path:url(#clip-path-5);}.cls-23{fill:#6d2b8d;}.cls-24{clip-path:url(#clip-path-6);}.cls-25{clip-path:url(#clip-path-7);}.cls-26{fill:#1e0e42;}.cls-27{fill:#242c51;}.cls-28{fill:#cc7750;}.cls-29{fill:#26b3b7;}.cls-30{fill:#472316;}.cls-31{fill:#363d4a;}.cls-32{clip-path:url(#clip-path-8);}.cls-33{fill:#303543;}.cls-34{fill:#1a91ff;}.cls-35{clip-path:url(#clip-path-9);}.cls-36{fill:#1679e0;}.cls-37{fill:#efab8b;}.cls-38{clip-path:url(#clip-path-10);}.cls-39{fill:#e49379;}.cls-40{fill:#627180;}.cls-41{fill:#93a9bf;}.cls-42{clip-path:url(#clip-path-11);}.cls-43{fill:#8394ae;}.cls-44{fill:#a9c2dc;}.cls-45{clip-path:url(#clip-path-13);}.cls-46{clip-path:url(#clip-path-14);}.cls-47{fill:#40a3ff;}.cls-48{clip-path:url(#clip-path-15);}.cls-49{fill:#3788e0;}.cls-50{fill:#6c7c8c;}.cls-51{fill:#19192b;}.cls-52{clip-path:url(#clip-path-16);}.cls-53{fill:#161627;}.cls-54{fill:#38162b;}.cls-55{fill:#f7f7f7;}.cls-56{fill:#ffb8e5;}.cls-57{clip-path:url(#clip-path-17);}.cls-58{clip-path:url(#clip-path-19);}.cls-59{fill:#010001;}.cls-60{fill:#c74b78;}.cls-61{fill:#e382a5;}.cls-62{clip-path:url(#clip-path-25);}.cls-63{fill:#de7599;}.cls-64{clip-path:url(#clip-path-28);}.cls-65{clip-path:url(#clip-path-31);}.cls-66{fill:#341873;}.cls-67{fill:#f5f2b5;}.cls-68{fill:#8f96c2;}.cls-69{fill:#b5bef5;}.cls-70{fill:#a894e3;}.cls-71{fill:#f7f4f4;}.cls-72{fill:#e8e5e5;}</style><clipPath id="clip-path"><path class="cls-1" d="M950.84,638.31v78.4c-6.8,2.4-14.1,2.1-20.6.7l-4.5-79.1h25.1m83.4,70.3-15.9-82.9-25.1,12.6,17.9,73.9a48.53,48.53,0,0,0,23.1-3.6"/></clipPath><clipPath id="clip-path-2"><path class="cls-1" d="M1023,650a241.35,241.35,0,0,1-26.2,3.3l3.1,12.7,26.6,2.1L1023,650"/></clipPath><clipPath id="clip-path-4"><path class="cls-1" d="M930.14,500.11l-18.6,155.5s119.4,1.6,126.5-11.8c.7-34.2-20.8-149.1-20.8-149.1l-33.4-8.8-53.7,14.2"/></clipPath><clipPath id="clip-path-5"><path class="cls-1" d="M964.14,354.61s-9.4-6.3-22,12.6c-6.1,9.1-1.6,40.4-4,70.9-2.5,32.6-11.8,64.2-11.8,64.2s62.9,17.3,91.1-7.9a229.41,229.41,0,0,1-11.2-55.5c-2.1-33,2.8-70.8-3-76.6-10.8-10.8-39.1-7.7-39.1-7.7"/></clipPath><clipPath id="clip-path-6"><path class="cls-1" d="M962.64,337.31s-1.6,23.6-3.1,29.9c0,0,15.7,15.7,26.7,0,0,0-3.1-18.9-1.6-28.3s-22-1.6-22-1.6"/></clipPath><clipPath id="clip-path-7"><path class="cls-1" d="M1010.44,314.61c2,.6,4.8.3,8.4-1.9,8.4-5,8.3-20.7,0-21.7-6-.8-9.3,4-10.7,6.6a2.35,2.35,0,0,1-2.6,1.2,2.37,2.37,0,0,1-1.7-2.8c1.1-4.5,3.6-14.5,3.6-18.5,0-5.2-33.1-13.5-51.8-10.4,0,0-34.2,67.3,8.3,80.7,24.1,7.6,39.8-15.4,46.6-33.1l-.1-.1"/></clipPath><clipPath id="clip-path-8"><path class="cls-1" d="M303.14,608.81s5.7,10.5,10.5,13.9,57.4,1,69.9,18.2,21.1,127.3,21.1,127.3-11,7.2-23,7.7c0,0-12.3-106.4-24.4-113.9-10.5-6.5-28.4-3.9-46.6-1.3-19.1,2.8-38.6,5.5-50.4-2.3-17.3-11.5-3.4-37.8-3.4-37.8l46.3-11.8"/></clipPath><clipPath id="clip-path-9"><path class="cls-1" d="M272.54,494.61s18.6,20.9,28.1,50.1,10.1,71.3,10.1,71.3-37.3,11.5-54.1,4.3c0,0-.5-40.7-9.6-64.6s-10.1-52.6,0-66.5,25.5,5.4,25.5,5.4"/></clipPath><clipPath id="clip-path-10"><path class="cls-1" d="M269.64,475.81s1,14.8,3.8,21.1-21.1-3.4-25.4-7.7c0,0,.5-14.8-1-25.4s22.6,12,22.6,12"/></clipPath><clipPath id="clip-path-11"><path class="cls-1" d="M542.14,581.11,537,784.21a1.05,1.05,0,1,1-2.1,0l-5.2-203.1h12.4m-145.5,0,5.2,203.1a1.05,1.05,0,1,0,2.1,0l5.2-203.1h-12.5"/></clipPath><clipPath id="clip-path-13"><polyline class="cls-1" points="291.14 773.51 303.14 773.51 303.14 664.81 291.14 664.81 291.14 773.51"/></clipPath><clipPath id="clip-path-14"><path class="cls-1" d="M355.74,562.91s13.4-9.6,29.2-9.6,30.6,13.9,17.2,13.9H371l-9.6,4.8-5.7-9.1"/></clipPath><clipPath id="clip-path-15"><path class="cls-1" d="M359.14,555.21s4.3,11,4.8,22c0,0-44.5,23.9-55.5,16.8s-69.4-68.4-53.1-81.4c17-13.5,61.3,59.8,61.3,59.8l42.5-17.2"/></clipPath><clipPath id="clip-path-16"><path class="cls-1" d="M215.64,570.11h3a13.14,13.14,0,0,0,13.1-13.1v-48.1a19.67,19.67,0,0,0-19.7-19.7h-3.4a6.06,6.06,0,0,0-6.1,6.1V557a13.21,13.21,0,0,0,13.1,13.1"/></clipPath><clipPath id="clip-path-17"><path class="cls-1" d="M240,415.31c8.1,1.2,7.7,9.6,7.7,9.6,4.9,2.7,5.7,1.7,5.7,1.7-1.1-6.7,12.3-24.6,12.3-24.6,8.1,2.8,16.3,1.7,23.6.7,4.6-.7,8.9-1.3,12.6-1a4.73,4.73,0,0,1,4.3,4.9,108.54,108.54,0,0,0,7,42.6,52.37,52.37,0,0,1-10.8,3.4,65.72,65.72,0,0,1-2.5,13c-5.4-.7-17.2-3.6-25.1-10.7,0,0-4.7,19.8,19.8,21.9-4.3,6.1-10.8,10.5-20.9,8.8-26.4-4.3-34-14.1-28.3-42.8,0,0-8.7-3.9-12.1-9.2-2.8-4.2-1.5-19.5,6.7-18.3"/></clipPath><clipPath id="clip-path-19"><path class="cls-1" d="M701.14,159a143.6,143.6,0,1,1-143.6-143.6A143.61,143.61,0,0,1,701.14,159"/></clipPath><clipPath id="clip-path-25"><path class="cls-1" d="M580.54,170.61s-10-6.7-23.4,13.4c-6.5,9.7-1.7,43.1-4.2,75.6-2.7,34.7-12.5,68.4-12.5,68.4s67,18.4,97.1-8.4a243.91,243.91,0,0,1-11.9-59.1c-2.3-35.2,3-75.4-3.2-81.6-11.8-11.6-41.9-8.3-41.9-8.3"/></clipPath><clipPath id="clip-path-28"><path class="cls-1" d="M575.24,151.81c.5,11.3,1.3,22.5.6,33.7,11.5,8.4,19.5,7.8,28.3-3.7-3.7-9.8-4-21.5-5.9-31.3s-17.7-1.1-23,1.3"/></clipPath><clipPath id="clip-path-31"><path class="cls-1" d="M609,116.61c2.2-.1,4.9-1.3,7.8-4.8,6.7-8,1.1-23.7-7.6-21.9-6.4,1.4-8,7.3-8.4,10.4a2.47,2.47,0,0,1-4.9-.1c-.4-4.9-1.5-15.9-2.9-19.8-5.5-15.7-48.5-22.4-55.7,7.7,0,0,2.4,34,3.4,51.2.9,15.4,19.7,25.8,40.2,25.8,26.9,0,34.4-30.6,28.3-48.3l-.2-.2"/></clipPath></defs><g id="Layer_2" data-name="Layer 2"><g id="Layer_1-2" data-name="Layer 1"><path class="cls-2" d="M189,700c-9.2-21.3-25.4-48.6-43.2-64.2-18.5-16.2-48.7-18.7-70.7-29.6-23.7-11.7-45.6-28.4-59.2-51-49.4-82.3,26.1-156.8,89-199.7,38.5-26.2,79.3-51.6,105.9-89.9,52.4-75.5,43-191.8,118.9-243.8,45.2-31,107.4-26.1,157.1-3.1s90.2,61.6,131.4,97.8,85.7,71.4,138.7,85.3c70.1,18.4,143.6-2.9,215.8-9.1s157.4,10.6,190.2,75.2c26.3,51.7,9,113.9-7.3,169.6s-30,119.9,1.7,168.5c25.2,38.6,73.7,57.8,97,97.6,30.2,51.4,4.6,122.6-44.6,156.2s-114.4,35.4-172.2,21-110.8-43.3-165.1-67.9-112.4-45.5-171.9-42.3c-57,3.1-110.3,27.9-161.7,52.9s-103.9,50.8-160.8,56.2-119.9-14.4-149.8-63C206.74,781.61,205.34,737.81,189,700Z"/><path class="cls-3" d="M189,700c-9.2-21.3-25.4-48.6-43.2-64.2-18.5-16.2-48.7-18.7-70.7-29.6-23.7-11.7-45.6-28.4-59.2-51-49.4-82.3,26.1-156.8,89-199.7,38.5-26.2,79.3-51.6,105.9-89.9,52.4-75.5,43-191.8,118.9-243.8,45.2-31,107.4-26.1,157.1-3.1s90.2,61.6,131.4,97.8,85.7,71.4,138.7,85.3c70.1,18.4,143.6-2.9,215.8-9.1s157.4,10.6,190.2,75.2c26.3,51.7,9,113.9-7.3,169.6s-30,119.9,1.7,168.5c25.2,38.6,73.7,57.8,97,97.6,30.2,51.4,4.6,122.6-44.6,156.2s-114.4,35.4-172.2,21-110.8-43.3-165.1-67.9-112.4-45.5-171.9-42.3c-57,3.1-110.3,27.9-161.7,52.9s-103.9,50.8-160.8,56.2-119.9-14.4-149.8-63C206.74,781.61,205.34,737.81,189,700Z"/><polygon class="cls-4" points="1146.04 573.31 1142.14 604.01 1161.34 585.71 1146.04 573.31"/><polyline class="cls-5" points="1086.34 104.21 226.34 104.21 226.34 784.61 1086.34 784.61 1086.34 104.21"/><polyline class="cls-6" points="1085.94 176.51 226.84 176.51 226.84 104.61 1085.94 104.61 1085.94 176.51"/><polyline class="cls-7" points="994.34 785.11 318.34 785.11 318.34 176.51 994.34 176.51 994.34 785.11"/><path class="cls-5" d="M826.94,156.71h-553a16.2,16.2,0,1,1,0-32.4h553a16.2,16.2,0,0,1,0,32.4"/><path class="cls-5" d="M1038.74,156.71H897.84a16.2,16.2,0,0,1,0-32.4h140.9a16.2,16.2,0,1,1,0,32.4Z"/><polyline class="cls-6" points="665.74 480.81 665.74 480.01 355.04 480.01 355.04 203.21 665.04 203.21 665.04 480.81 665.74 480.81 665.74 480.01 665.74 480.81 666.54 480.81 666.54 201.71 353.54 201.71 353.54 481.51 666.54 481.51 666.54 480.81 665.74 480.81"/><polyline class="cls-8" points="702.14 294.01 964.94 294.01 964.94 282.01 702.14 282.01 702.14 294.01"/><polyline class="cls-8" points="702.14 315.01 964.94 315.01 964.94 302.91 702.14 302.91 702.14 315.01"/><polyline class="cls-8" points="702.14 335.91 964.94 335.91 964.94 323.91 702.14 323.91 702.14 335.91"/><polyline class="cls-8" points="822.24 415.11 964.94 415.11 964.94 403.11 822.24 403.11"/><polyline class="cls-8" points="822.24 436.11 964.94 436.11 964.94 424.01 822.24 424.01"/><polyline class="cls-8" points="822.24 457.01 964.94 457.01 964.94 445.01 822.24 445.01"/><path class="cls-9" d="M777.64,450.81h-67.7a13.08,13.08,0,0,1-13.1-13.1v-15.6a13.08,13.08,0,0,1,13.1-13.1h67.7a13.08,13.08,0,0,1,13.1,13.1v15.6A13,13,0,0,1,777.64,450.81Z"/><path class="cls-10" d="M1062,292.81s11.6-12.6,15.1-25.3a23,23,0,0,1,10-43.7h82.3a23,23,0,0,1,0,46h-72C1090.84,277.41,1078,289.61,1062,292.81Z"/><path class="cls-7" d="M1147.84,241.21a5.6,5.6,0,1,1-5.6,5.6A5.59,5.59,0,0,1,1147.84,241.21Zm-26.2,5.6a5.6,5.6,0,1,0,5.6-5.6A5.59,5.59,0,0,0,1121.64,246.81Zm-20.5,0a5.6,5.6,0,1,0,5.6-5.6A5.59,5.59,0,0,0,1101.14,246.81Z"/><path class="cls-11" d="M930.24,717.41l3.3,57.6s-60.2,22.1-40.9,20.4c31.2-2.7,58.1-2.7,58.1-2.7v-76C944,719.11,936.74,718.81,930.24,717.41Z"/><path class="cls-12" d="M950.84,638.31v78.4c-6.8,2.4-14.1,2.1-20.6.7l-4.5-79.1h25.1m83.4,70.3-15.9-82.9-25.1,12.6,17.9,73.9a48.53,48.53,0,0,0,23.1-3.6"/><g class="cls-13"><g class="cls-14"><rect class="cls-15" x="996.84" y="650.01" width="29.6" height="18"/></g></g><g class="cls-13"><path class="cls-15" d="M950.84,655.31c-9.2.2-17.5.3-24.1.3l.3,4.6,23.9,1.9v-6.8"/></g><path class="cls-11" d="M1046.74,773.41l-12.4-64.8c-8.2,3.7-16.7,4.1-23.1,3.6l18.3,75.4a429.82,429.82,0,0,0,56.6,3.1C1094.84,790.71,1046.74,773.41,1046.74,773.41Z"/><path class="cls-16" d="M930.14,500.11l-18.6,155.5s119.4,1.6,126.5-11.8c.7-34.2-20.8-149.1-20.8-149.1l-33.4-8.8-53.7,14.2"/><g class="cls-17"><path class="cls-18" d="M1017.24,494.81a47.52,47.52,0,0,1-15.2,8.6c4.9,32.5,14.4,102.3,12.9,147.9,12.4-1.7,21.3-4.2,23.1-7.5V642c0-35.5-20-143.1-20.8-147.2"/></g><path class="cls-12" d="M867.54,265.81s1.6-15.7-4.7-18.9-31.4,8.3-25.1,16.1,22,12.2,23.6,12.2S867.54,265.81,867.54,265.81Z"/><path class="cls-12" d="M1057.84,529.21s-6.5,11.7-3.3,14.8,6.3-7.9,6.3-7.9-3.1,25.1,6.3,22,6.3-28.3,1.6-34.6S1057.84,529.21,1057.84,529.21Z"/><path class="cls-19" d="M942.94,396.31s-70.7-61.3-91.1-119.4l15.7-15.7s47.1,97.4,83.3,102.1S942.94,396.31,942.94,396.31Z"/><path class="cls-20" d="M944,303.91c-5.3-3.2-8-9.6-8.3-15.8s1.6-12.3,3.3-18.2c3.1-10.1,6.6-21,15-27.4,11-8.5,26.5-6.7,40.3-4.4,8.3,1.3,16.7,2.7,24.3,6.3s14.5,9.5,17.1,17.5c3.2,9.6-.2,20.3,2,30.2,3.1,13.8,16.1,23.2,21.5,36.3,8.7,21.3-5,46.5,2.4,68.4,4.7,14,17.4,24.4,20.7,38.7,3.6,15.5-5.1,32.1-18.5,40.7s-30.1,10.4-45.9,8.4c-11.1-1.4-22.7-5.2-29.2-14.3-7.5-10.6-5.8-24.9-5-37.9,1.7-26.2-1.8-52.5-5.2-78.5-1.3-9.9-3.5-21.2-12-26.3L944,303.91"/><path class="cls-19" d="M1002.64,364.81s42.4,48.7,55,94.3,12.6,67.6,12.6,67.6l-15.7,3.1s-14.1-110-56.6-130.4,4.7-34.6,4.7-34.6"/><path class="cls-21" d="M964.14,354.61s-9.4-6.3-22,12.6c-6.1,9.1-1.6,40.4-4,70.9-2.5,32.6-11.8,64.2-11.8,64.2s62.9,17.3,91.1-7.9a229.41,229.41,0,0,1-11.2-55.5c-2.1-33,2.8-70.8-3-76.6-10.8-10.8-39.1-7.7-39.1-7.7"/><g class="cls-22"><path class="cls-23" d="M984.64,354.91c.1,1.4.3,2.8.4,4.1h0c3.3,2.5,13,11.2,11.5,26.2-1.8,18-1.6,86.6,5.5,118.3h0a46.08,46.08,0,0,0,15.5-9,229.41,229.41,0,0,1-11.2-55.5c-.4-6.7-.6-13.5-.6-20.3,0-13,.5-25.6.5-35.7,0-10.5-.6-18.2-2.9-20.6-4.3-4.4-11.6-6.5-18.7-7.5"/></g><path class="cls-12" d="M962.64,337.31s-1.6,23.6-3.1,29.9c0,0,15.7,15.7,26.7,0,0,0-3.1-18.9-1.6-28.3s-22-1.6-22-1.6"/><g class="cls-24"><path class="cls-15" d="M984.24,347.11a26.62,26.62,0,0,1-10.9,2.3,32.14,32.14,0,0,1-9.3-1.5c-.7-.2-1.4-.5-2.1-.7a24.58,24.58,0,0,0-.2,2.8l22.4,8.3a9.32,9.32,0,0,1,1.1.7,75.37,75.37,0,0,1-1-11.9"/></g><path class="cls-12" d="M1010.44,314.61c2,.6,4.8.3,8.4-1.9,8.4-5,8.3-20.7,0-21.7-6-.8-9.3,4-10.7,6.6a2.35,2.35,0,0,1-2.6,1.2,2.37,2.37,0,0,1-1.7-2.8c1.1-4.5,3.6-14.5,3.6-18.5,0-5.2-33.1-13.5-51.8-10.4,0,0-34.2,67.3,8.3,80.7,24.1,7.6,39.8-15.4,46.6-33.1l-.1-.1"/><g class="cls-25"><path class="cls-15" d="M961.24,266.61a46.29,46.29,0,0,0-5.5.6s-13,25.6-13,48.4c0,14.2,5,27.2,21.3,32.4a31.12,31.12,0,0,0,9.3,1.5c7.6,0,14.3-3.2,19.8-8a59.53,59.53,0,0,1-15.3,2.1c-14,0-28.9-5.4-30.3-22.8-2-24.8,11.6-46.1,13.7-54.2"/></g><path class="cls-26" d="M990.24,298.31c-.3,2.6-1.9,4.5-3.6,4.3s-2.8-2.4-2.6-5,1.9-4.5,3.6-4.3S990.54,295.71,990.24,298.31Zm-33.4-8.6c-1.7-.2-3.3,1.7-3.6,4.3s.8,4.8,2.6,5,3.3-1.7,3.6-4.3S958.54,289.91,956.84,289.71Z"/><path class="cls-27" d="M955.54,278.71a6.7,6.7,0,0,1,3-3,9,9,0,0,1,4.2-1,7.48,7.48,0,0,1-.1,2.6,9.71,9.71,0,0,0-3.4,0,5.52,5.52,0,0,0-2.9,1.8C956.24,279.21,955.44,278.81,955.54,278.71Z"/><path class="cls-20" d="M995.84,285.21a5.43,5.43,0,0,0-2.1-2.6,7.65,7.65,0,0,0-3.2-1.1c-.2,0,.5-2.7.7-2.5a10.55,10.55,0,0,1,3.6,2.3,7.24,7.24,0,0,1,1.9,3.8C996.74,285.21,995.84,285.31,995.84,285.21Z"/><path class="cls-28" d="M1010.24,314.91a9.08,9.08,0,0,1-3.4-1.7,10.34,10.34,0,0,1-2.4-3.1c-.1-.2,1.8-.8,1.8-.7a7.68,7.68,0,0,0,4.1,4.9Z"/><path class="cls-28" d="M1011.24,307.41a13.59,13.59,0,0,0-.7-3.5,6.89,6.89,0,0,0-.3-.8l-.3-.6c-.1-.1,0-.2,0-.3s.1-.2.1-.3c.1-.3.2-.3.3-.5l.3-.4a5.55,5.55,0,0,1,.6-.8,8.07,8.07,0,0,1,3.3-2.4,9.47,9.47,0,0,1,4.1-.5c.5,0,.1,2-.3,2a7.36,7.36,0,0,0-3.3.1,6.24,6.24,0,0,0-2.8,1.7l-.6.6-.3.3-.2.3-.1.2.1.3.3.9a16.37,16.37,0,0,1,.4,3.8C1011.94,307.61,1011.24,307.61,1011.24,307.41Z"/><path class="cls-28" d="M970.74,285.81l-7.1,16.8h.1l.1.1.6.5,1.1,1.1,2.2,2.1c.5.5-.9,1.9-1.4,1.4l-4.6-4.9,8.5-17.4C970.24,285.31,970.84,285.51,970.74,285.81Z"/><path class="cls-20" d="M946.94,279.21s31.4,4.7,48.7-6.3-29.9-15.7-29.9-15.7l-17.3,14.1Z"/><rect class="cls-29" x="707.57" y="215.97" width="266.2" height="45.8" transform="translate(-32.35 279.18) rotate(-18.51)"/><path class="cls-12" d="M864.64,258.61h-1.1c-3,0-13.3-4.5-11.5-9,2.9-7.2,15.9,2.1,15.3,6.3"/><path class="cls-30" d="M968.74,316.91s11.7-.9,14.4-4.5c0,0,.9,12.6-5.4,13.5S968.74,316.91,968.74,316.91Z"/><path class="cls-11" d="M398.84,768.21s69.6,13.6,65.6,17.7c-1,1-78,1-79-1.4s0-13.9,0-13.9l13.4-2.4"/><path class="cls-31" d="M303.14,608.81s5.7,10.5,10.5,13.9,57.4,1,69.9,18.2,21.1,127.3,21.1,127.3-11,7.2-23,7.7c0,0-12.3-106.4-24.4-113.9-10.5-6.5-28.4-3.9-46.6-1.3-19.1,2.8-38.6,5.5-50.4-2.3-17.3-11.5-3.4-37.8-3.4-37.8l46.3-11.8"/><g class="cls-32"><path class="cls-33" d="M351.84,649.11c-10.1,0-24.2,1.1-38.9,2.2s-29.9,2.2-42.2,2.2a92.06,92.06,0,0,1-16.2-1.1,18.73,18.73,0,0,0,5.7,5.9c5.8,3.8,13.4,5.1,21.9,5.1,8.9,0,18.7-1.4,28.5-2.8s19.4-2.8,27.9-2.8c7.3,0,13.8,1.1,18.7,4.1,12.1,7.5,24.4,113.9,24.4,113.9a36.25,36.25,0,0,0,10.6-2c-2.8-25-14.4-119.1-28.1-123.7-2.5-.7-6.8-1-12.3-1"/></g><path class="cls-34" d="M272.54,494.61s18.6,20.9,28.1,50.1,10.1,71.3,10.1,71.3-37.3,11.5-54.1,4.3c0,0-.5-40.7-9.6-64.6s-10.1-52.6,0-66.5,25.5,5.4,25.5,5.4"/><g class="cls-35"><path class="cls-36" d="M290.84,577.71c1.7,18.6,2.6,36.4,2.9,42.5,9.7-1.9,17.1-4.2,17.1-4.2s-.1-8.9-1.1-21.4c-.5-.2-.9-.4-1.3-.6-3.1-2-9.9-8.2-17.6-16.3M274.64,497l-.9.6c.1.9-.7,1.3-2,1.3h-.2l-.2.1a243.35,243.35,0,0,1,9.6,25.3c7.7,8,15.5,18.2,21.9,27.3-.6-2.3-1.3-4.6-2-6.9-7.8-23.3-21.2-41.4-26.2-47.7"/></g><path class="cls-37" d="M269.64,475.81s1,14.8,3.8,21.1-21.1-3.4-25.4-7.7c0,0,.5-14.8-1-25.4s22.6,12,22.6,12"/><g class="cls-38"><path class="cls-39" d="M255.74,480.31a59.8,59.8,0,0,0,15.2,7.4,25.12,25.12,0,0,1-.4-2.7,51.56,51.56,0,0,1-14.8-4.7m-7.8-6.4h0a.1.1,0,0,0,.1.1l-.1-.1"/></g><rect class="cls-40" x="437.17" y="516.17" width="110.6" height="9.1" transform="translate(-157.63 822.44) rotate(-71.49)"/><path class="cls-41" d="M542.14,581.11,537,784.21a1.05,1.05,0,1,1-2.1,0l-5.2-203.1h12.4m-145.5,0,5.2,203.1a1.05,1.05,0,1,0,2.1,0l5.2-203.1h-12.5"/><g class="cls-42"><polyline class="cls-43" points="542.14 581.11 529.74 581.11 530.24 602.31 541.64 603.41 542.14 581.11"/></g><g class="cls-42"><polyline class="cls-43" points="409.14 581.11 396.64 581.11 396.84 589.41 408.84 590.61 409.14 581.11"/></g><path class="cls-44" d="M255.74,659.81c-2.7,0-5.3.1-7.8.1s-4.8-.1-6.9-.3a22.92,22.92,0,0,1-4.1-.8,10.39,10.39,0,0,1-4.3-2.3,12.17,12.17,0,0,1-2.8-4.7,14.56,14.56,0,0,1-.6-2.6c-.4-2.2-.9-5.3-1.3-9.1-1.6-13.1-3.1-33.4-4.2-50.4-.6-8.5-1-16.2-1.3-21.8-.2-2.8-.3-5-.4-6.6s-.1-2.4-.1-2.4l-7.2.4s1.1,20.5,2.6,42.5c.8,11,1.7,22.4,2.6,31.8.5,4.7,1,8.9,1.5,12.4a43.37,43.37,0,0,0,.8,4.6c.3,1.3.5,2.5.8,3.4a18.27,18.27,0,0,0,4,7.1,14.54,14.54,0,0,0,4.5,3.3,23.28,23.28,0,0,0,7.8,2.2,59.79,59.79,0,0,0,8.6.4c2.5,0,5.1-.1,7.8-.1v-7.1"/><polyline class="cls-41" points="291.14 773.51 303.14 773.51 303.14 664.81 291.14 664.81 291.14 773.51"/><g class="cls-45"><polyline class="cls-43" points="303.14 664.81 291.14 664.81 291.14 674.21 303.14 676.51 303.14 664.81"/></g><path class="cls-12" d="M355.74,562.91s13.4-9.6,29.2-9.6,30.6,13.9,17.2,13.9H371l-9.6,4.8-5.7-9.1"/><g class="cls-46"><path class="cls-15" d="M402.34,558.61c-1.1,2.1-3.5,4.1-9,4.1h-.9c-4.9-.2-8.8-.7-12.6-.7-4.9,0-9.9.9-17.4,4.3.3,1.5.7,3.1.9,4.8l7.8-3.9h31.1c3.7,0,5.2-1,5.2-2.5,0-1.7-2-4-5.1-6.1"/></g><path class="cls-47" d="M359.14,555.21s4.3,11,4.8,22c0,0-44.5,23.9-55.5,16.8s-69.4-68.4-53.1-81.4c17-13.5,61.3,59.8,61.3,59.8l42.5-17.2"/><g class="cls-48"><path class="cls-49" d="M253.14,515.41a9.37,9.37,0,0,0-.7,3.9c0,20.3,46.3,68.4,56,74.7a10.84,10.84,0,0,0,5.8,1.3c16,0,49.7-18.1,49.7-18.1-.1-1.8-.3-3.6-.5-5.4-10.9,6.4-30.7,16.8-45,16.8-4.2,0-7.9-.9-10.8-3.1-15.1-11.5-47.2-53.7-54.5-70.1"/></g><path class="cls-34" d="M316.54,572.51s-5.7,1.4-9.1,5.3"/><rect class="cls-50" x="371.04" y="567.21" width="110.6" height="9.1"/><rect class="cls-44" x="368.64" y="576.31" width="201.5" height="9.1"/><path class="cls-51" d="M254.24,668.71h85.7a5.3,5.3,0,1,0,0-10.6h-85.7a5.34,5.34,0,0,0-5.3,5.3A5.4,5.4,0,0,0,254.24,668.71Z"/><polygon class="cls-44" points="297.14 767.01 336.64 777.51 335.44 783.81 297.14 780.41 258.84 783.81 257.64 777.51 297.14 767.01"/><path class="cls-51" d="M215.64,570.11h3a13.14,13.14,0,0,0,13.1-13.1v-48.1a19.67,19.67,0,0,0-19.7-19.7h-3.4a6.06,6.06,0,0,0-6.1,6.1V557a13.21,13.21,0,0,0,13.1,13.1"/><g class="cls-52"><path class="cls-53" d="M225.24,494.21c1.5,19.2,3.9,59.6-.8,64.7-1.3,1.4-3.4,2-5.8,2-4.9,0-11.2-2.3-16-4.4v.5a13.14,13.14,0,0,0,13.1,13.1h3a13.14,13.14,0,0,0,13.1-13.1v-48.1a20,20,0,0,0-5.4-13.6,12,12,0,0,0-1.2-1.1"/></g><path class="cls-26" d="M328,782.61a11.5,11.5,0,1,0,11.5-11.5A11.5,11.5,0,0,0,328,782.61Z"/><path class="cls-26" d="M243.24,782.61a11.5,11.5,0,1,0,11.5-11.5A11.5,11.5,0,0,0,243.24,782.61Z"/><path class="cls-44" d="M339.44,775.91a6.7,6.7,0,1,1-6.7,6.7A6.7,6.7,0,0,1,339.44,775.91Zm-91.4,6.7a6.7,6.7,0,1,0,6.7-6.7A6.7,6.7,0,0,0,248,782.61Z"/><path class="cls-54" d="M292.14,477.31s.3-8.6,4.9-13.2-27.1-16-27.1-16-3.3,10.1-3.3,11.8,5.9,15.4,8,15.9,17.5,1.5,17.5,1.5"/><path class="cls-55" d="M299.14,464.41l-1.9,3.7s-20.4-1.2-25.3-12.4c-5.7-12.9,4.9-10.5,4.9-10.5l11.1,7.4,11.2,11.8"/><path class="cls-56" d="M291,478.41s1.4-7.5-4.3-9.3-12.8.9-12.8.9l5.1,7.8,12,.6"/><path class="cls-26" d="M306,407.91a27.67,27.67,0,0,0,7.1-30.8,26.6,26.6,0,0,0-7.7-10.4c-9.1-7.5-21.1-4.6-32.3-1.7-7.1,1.9-13.9,3.7-19.4,2.9-20-3-23.9,10.4-28,28.6-11.1,48.8,6.2,57,16.1,66.8s8.2-4.2,8.2-4.2l56-51.2"/><path class="cls-12" d="M240,415.31c8.1,1.2,7.7,9.6,7.7,9.6,4.9,2.7,5.7,1.7,5.7,1.7-1.1-6.7,12.3-24.6,12.3-24.6,8.1,2.8,16.3,1.7,23.6.7,4.6-.7,8.9-1.3,12.6-1a4.73,4.73,0,0,1,4.3,4.9,108.54,108.54,0,0,0,7,42.6,52.37,52.37,0,0,1-10.8,3.4,65.72,65.72,0,0,1-2.5,13c-5.4-.7-17.2-3.6-25.1-10.7,0,0-4.7,19.8,19.8,21.9-4.3,6.1-10.8,10.5-20.9,8.8-26.4-4.3-34-14.1-28.3-42.8,0,0-8.7-3.9-12.1-9.2-2.8-4.2-1.5-19.5,6.7-18.3"/><g class="cls-57"><path class="cls-15" d="M302.34,453.81h-1.9a76.67,76.67,0,0,1-2.6,11.4l2,.3a58.82,58.82,0,0,0,2.5-11.7"/></g><g class="cls-57"><path class="cls-15" d="M244,464c2,12.9,11.2,18.6,29.7,21.6a29.9,29.9,0,0,0,4.1.4c7.8,0,13.1-4,16.8-9.2-.7-.1-1.3-.1-2-.2a14,14,0,0,1-6.7,5.4,29,29,0,0,1-9.4,1.6c-13.9,0-25.9-10.2-32.5-19.6"/></g><path class="cls-28" d="M240.74,432.11l-2.1-2.6,1.6-1.6.3-.3.2-.3c.1-.1,0-.1.1-.2l.1-.4a7.48,7.48,0,0,0,.2-3.3,2.28,2.28,0,0,0-.6-1.2c-.1-.2-.3-.2-.5-.3l-.3-.1-.3-.1a2.57,2.57,0,0,0-2.3,1c-.1.2-2.1-1.1-1.6-1.5a4.74,4.74,0,0,1,1.9-1.2,3.94,3.94,0,0,1,2.4-.1l.6.2.5.3a7,7,0,0,1,1,.8,3.68,3.68,0,0,1,.8,2.1,12.28,12.28,0,0,1-.5,3.9l-.2.5-.1.3c0,.1-.1.2-.2.3l-.8.7-.7.6-.4.3c.2.3.8,1.3,1.4,2.1C241.44,431.81,240.84,432.21,240.74,432.11Z"/><path class="cls-26" d="M284.64,421.71a25.27,25.27,0,0,1,4.9-4.9,16.89,16.89,0,0,1,3.2-1.9,11.74,11.74,0,0,1,4-1c.3,0,.3,1.2.1,2.3a17.18,17.18,0,0,0-.4,2.2,7,7,0,0,0-2.5,0,15.18,15.18,0,0,0-2.8.9,22.2,22.2,0,0,0-5.4,3.4C285.64,422.81,284.64,421.81,284.64,421.71Z"/><path class="cls-26" d="M291.14,435.51c0,2.1,1.1,3.8,2.4,3.8s2.4-1.7,2.4-3.8-1.1-3.8-2.4-3.8S291.14,433.41,291.14,435.51Z"/><path class="cls-26" d="M291.14,435.51c0,2.1,1.1,3.8,2.4,3.8s2.4-1.7,2.4-3.8-1.1-3.8-2.4-3.8S291.14,433.41,291.14,435.51Z"/><path class="cls-10" d="M361.24,421.21s11.6-12.6,15.1-25.3a23,23,0,0,1,10-43.7h82.3a23,23,0,0,1,0,46h-72C390,405.81,377.24,417.91,361.24,421.21Z"/><path class="cls-7" d="M447,369.61a5.6,5.6,0,1,1-5.6,5.6A5.66,5.66,0,0,1,447,369.61Zm-26.1,5.6a5.6,5.6,0,1,0,5.6-5.6A5.59,5.59,0,0,0,420.94,375.21Zm-20.6,0a5.6,5.6,0,1,0,5.6-5.6A5.59,5.59,0,0,0,400.34,375.21Z"/><polyline class="cls-9" points="491.74 538.01 497.14 538.01 497.14 536.21 491.74 536.21"/><path class="cls-9" d="M529.84,538h10.9v-1.8h-10.9ZM508,538h10.9v-1.8H508Z"/><polygon class="cls-9" points="551.64 538.01 557.94 538.01 557.94 531.71 556.14 531.71 556.14 536.21 551.64 536.21 551.64 538.01"/><path class="cls-9" d="M557.94,324.91V314h-1.8v10.9Zm0,21.7v-10.9h-1.8v10.9Zm0,21.8v-10.9h-1.8v10.9Zm0,21.8v-10.9h-1.8v10.9Zm0,21.8v-10.9h-1.8V412Zm0,21.7v-10.9h-1.8v10.9Zm0,21.8v-10.9h-1.8v10.9Zm0,21.8v-10.9h-1.8v10.9Zm0,21.8v-10.9h-1.8v10.9Zm0,21.7v-10.9h-1.8v10.9Z"/><polyline class="cls-9" points="557.94 303.11 557.94 297.71 556.14 297.71 556.14 303.11"/><polyline class="cls-9" points="487.44 559.41 492.84 559.41 492.84 557.61 487.44 557.61"/><path class="cls-9" d="M547.64,559.51h11v-1.8h-11Zm-21.9-.1h11v-1.8h-11Zm-21.9,0h11v-1.8h-11Z"/><polygon class="cls-9" points="569.64 559.51 575.94 559.61 575.94 553.31 574.14 553.31 574.14 557.81 569.64 557.71 569.64 559.51"/><path class="cls-9" d="M575.94,326.91v-10.8h-1.8v10.8Zm0,21.5v-10.8h-1.8v10.8Zm0,21.6v-10.8h-1.8V370Zm0,21.6v-10.8h-1.8v10.8Zm0,21.5v-10.8h-1.8v10.8Zm0,21.6v-10.8h-1.8v10.8Zm0,21.5v-10.8h-1.8v10.8Zm0,21.6V467h-1.8v10.8Zm0,21.6v-10.8h-1.8v10.8Zm0,21.5v-10.8h-1.8v10.8Zm0,21.6v-10.8h-1.8v10.8Z"/><polyline class="cls-9" points="575.94 305.31 575.94 299.91 574.14 299.91 574.14 305.31"/><path class="cls-7" d="M701.14,159a143.6,143.6,0,1,1-143.6-143.6A143.61,143.61,0,0,1,701.14,159"/><g class="cls-58"><path class="cls-59" d="M527.14,70.41a30.28,30.28,0,0,1,18.2-20.3c11.2-4.5,29.6-9.5,46.1-2.8,25.8,10.5,46.9,28.7,44,57.4s15.3,35.4,18.2,53.6,20.1,33.7,0,59.4,1,42-28.7,42-62.2-58.4-62.2-58.4-31.6,2.9-29.7-24.9-19.1-10.5-16.3-48.8,13.4-40.2,13.4-40.2-5.9-5.4-3-17"/></g><g class="cls-58"><path class="cls-60" d="M492.94,215.71s17.2,51.7,38.3,48.8,39.2-63.1,39.2-63.1l-6.7-25.8s-23,34.4-30.6,64.1c0,0-10.5,1.9-22-27.7S492.94,215.71,492.94,215.71Z"/></g><g class="cls-58"><path class="cls-12" d="M680.34,356.61s-6.9,12.4-3.5,15.8,6.7-8.4,6.7-8.4-3.3,26.8,6.7,23.4,6.7-30.1,1.7-36.8S680.34,356.61,680.34,356.61Z"/></g><g class="cls-58"><path class="cls-60" d="M621.54,181.51s45.2,51.9,58.6,100.5,13.4,72,13.4,72l-16.7,3.3s-15.1-117.2-60.3-139,5-36.8,5-36.8"/></g><g class="cls-58"><path class="cls-61" d="M580.54,170.61s-10-6.7-23.4,13.4c-6.5,9.7-1.7,43.1-4.2,75.6-2.7,34.7-12.5,68.4-12.5,68.4s67,18.4,97.1-8.4a243.91,243.91,0,0,1-11.9-59.1c-2.3-35.2,3-75.4-3.2-81.6-11.8-11.6-41.9-8.3-41.9-8.3"/></g><g class="cls-58"><g class="cls-62"><path class="cls-63" d="M601.24,170.81c.2,1.1.4,2.3.7,3.4h0a4.33,4.33,0,0,0,.1.5c2.4,1.7,14.7,11.1,13,28.4-1.3,13.3-1.6,52.9.9,87.1a132.78,132.78,0,0,0,12.5-6.3,200.11,200.11,0,0,1-2.8-23.4c-.5-7.1-.6-14.4-.6-21.6,0-13.9.6-27.3.6-38,0-11.2-.6-19.4-3.1-21.9-5.1-5-13.4-7.2-21.3-8.2"/></g></g><g class="cls-58"><path class="cls-12" d="M575.24,151.81c.5,11.3,1.3,22.5.6,33.7,11.5,8.4,19.5,7.8,28.3-3.7-3.7-9.8-4-21.5-5.9-31.3s-17.7-1.1-23,1.3"/></g><g class="cls-58"><g class="cls-64"><path class="cls-15" d="M599.44,158.51a27.69,27.69,0,0,1-18.5,6.5c-1.7,0-3.5-.1-5.2-.2a6.15,6.15,0,0,0,.1,1.3c8.4,3.9,16.2-.7,24.8,7.1a10.59,10.59,0,0,0,1.2,1c-1.1-5.1-1.7-10.5-2.4-15.7"/></g></g><g class="cls-58"><path class="cls-12" d="M609,116.61c2.2-.1,4.9-1.3,7.8-4.8,6.7-8,1.1-23.7-7.6-21.9-6.4,1.4-8,7.3-8.4,10.4a2.47,2.47,0,0,1-4.9-.1c-.4-4.9-1.5-15.9-2.9-19.8-5.5-15.7-48.5-22.4-55.7,7.7,0,0,2.4,34,3.4,51.2.9,15.4,19.7,25.8,40.2,25.8,26.9,0,34.4-30.6,28.3-48.3l-.2-.2"/></g><g class="cls-58"><g class="cls-65"><path class="cls-15" d="M541,79.31a27.84,27.84,0,0,0-3.6,8.6s2.4,34,3.4,51.2c.9,15.4,19.7,25.8,40.2,25.8a27.56,27.56,0,0,0,23.9-12.7c-8,4.2-19.2,7.7-29.9,7.7-11.5,0-22.3-4.1-27.5-16.1-5.7-12.8-6.7-42.3-6.5-64.5"/></g></g><g class="cls-58"><path class="cls-26" d="M584.24,110c.5,2.7-.6,5.1-2.4,5.5s-3.6-1.6-4.1-4.3.6-5.1,2.4-5.5S583.74,107.31,584.24,110Zm-36.7,1.5c-1.8.3-2.9,2.8-2.4,5.5s2.3,4.6,4.1,4.3,2.9-2.8,2.4-5.5S549.34,111.21,547.54,111.51Z"/></g><g class="cls-58"><path class="cls-27" d="M541.34,99.71a7,7,0,0,1,2-4,10.21,10.21,0,0,1,3.8-2.4,5.13,5.13,0,0,1,.7,2.4,8.3,8.3,0,0,0-3.4,1.3,6,6,0,0,0-2.3,2.9S541.34,99.81,541.34,99.71Z"/></g><g class="cls-58"><path class="cls-59" d="M584.14,92.11a6.43,6.43,0,0,0-3.1-2,9.18,9.18,0,0,0-3.7-.1,5.33,5.33,0,0,1-.2-2.5,10.9,10.9,0,0,1,4.4,1,6.87,6.87,0,0,1,3.2,3.1C584.94,91.81,584.24,92.21,584.14,92.11Z"/></g><g class="cls-58"><path class="cls-28" d="M609,116.91a7.93,7.93,0,0,1-4-.5,11.17,11.17,0,0,1-3.5-2.3c-.2-.2,1.6-1.5,1.6-1.4a8.25,8.25,0,0,0,5.8,3.5Z"/></g><g class="cls-58"><path class="cls-28" d="M607.44,109.11a13.5,13.5,0,0,0-1.9-3.3,4.35,4.35,0,0,0-.6-.7l-.5-.5a.37.37,0,0,1-.1-.3v-.4c0-.3.1-.4.1-.6l.1-.5c.1-.3.2-.7.3-1a8.69,8.69,0,0,1,2.5-3.5,8.39,8.39,0,0,1,3.9-1.9c.5-.1.8,2,.4,2.1a9.33,9.33,0,0,0-3.3,1.2,7.54,7.54,0,0,0-2.3,2.7,6.89,6.89,0,0,1-.3.8l-.1.4-.1.4v.2l.2.2.6.9A17.64,17.64,0,0,1,608,109C608.14,109,607.54,109.21,607.44,109.11Z"/></g><g class="cls-58"><path class="cls-28" d="M564.14,103.21l.3,19.4a9.44,9.44,0,0,0-.9.3l-.2.1-.1.1-.2.1a2.41,2.41,0,0,0-.8.6,2.65,2.65,0,0,0-.9,1.5,3.19,3.19,0,0,0,.3,1.9,3.66,3.66,0,0,0,1,1.6c.8.7,2.2.5,3.4-.1a10.47,10.47,0,0,0,3.2-2.7c.5-.7,2.4.4,1.6,1.3a13.45,13.45,0,0,1-4,3.1,7.71,7.71,0,0,1-2.6.7,4.1,4.1,0,0,1-2.8-.9,6.09,6.09,0,0,1-1.6-5.1,4.52,4.52,0,0,1,1.4-2.4,6.73,6.73,0,0,1,1.1-.7.37.37,0,0,1,.3-.1l.2-.1h.1c.1,0,.1,0,.2-.1l.4-18.3C563.44,102.81,564.14,102.81,564.14,103.21Z"/></g><g class="cls-58"><path class="cls-28" d="M573.44,138.81a17.17,17.17,0,0,0,8.6-3.7,10.35,10.35,0,0,0,2.7-3.6l.4-1.1a3.59,3.59,0,0,0,.2-1.1,8.2,8.2,0,0,0,.2-2.2c0-.5,2.2-.5,2.1.1a10.87,10.87,0,0,1-.4,2.6,6.47,6.47,0,0,1-.4,1.3l-.6,1.2a11.91,11.91,0,0,1-3.4,4,19,19,0,0,1-9.5,3.3S573.24,138.91,573.44,138.81Z"/></g><g class="cls-58"><path class="cls-26" d="M513.74,229.11h-20.5a7,7,0,0,1-7-7v-58.8a7,7,0,0,1,7-7h20.5a7,7,0,0,1,7,7v58.9A6.94,6.94,0,0,1,513.74,229.11Z"/></g><g class="cls-58"><path class="cls-12" d="M477,205.51a14.81,14.81,0,0,1,7.9-10c6.7-3.2,18.2-7,25.3.1,10.5,10.5-11.5,29.7-25.8,24.9C476.14,217.81,475.74,210.91,477,205.51Z"/></g><g class="cls-58"><rect class="cls-66" x="492.04" y="161.21" width="11.5" height="11.5"/></g><g class="cls-58"><path class="cls-59" d="M537,72.21c1,1,4.8,9.6,14.3,9.6s16.3-7.6,16.3-7.6,11.5,7.7,17.2-7.7-26.8-9.6-26.8-9.6Z"/></g><path class="cls-6" d="M701.14,159h-1.3a142.37,142.37,0,1,1-41.7-100.6A141.52,141.52,0,0,1,699.84,159h2.6a145,145,0,1,0-145,145,145,145,0,0,0,145-145Z"/><polygon class="cls-9" points="575.44 301.21 568.74 312.81 582.14 312.81 575.44 301.21"/><polygon class="cls-9" points="491.44 536.91 503.04 543.61 503.04 530.31 491.44 536.91"/><polygon class="cls-67" points="1120.64 564.81 1182.14 600.81 1202.84 540.11 1120.64 564.81"/><polygon class="cls-4" points="1146.64 580.51 1202.84 540.11 1151.34 582.81 1146.64 580.51"/><polygon class="cls-68" points="162.84 256.11 176.94 283.71 152.64 272.91 162.84 256.11"/><polygon class="cls-69" points="183.84 239.41 138.34 294.21 98.04 244.31 183.84 239.41"/><polygon class="cls-68" points="164.74 263.11 98.04 244.31 161.04 266.81 164.74 263.11"/><path class="cls-70" d="M107,435.31a3.1,3.1,0,1,1-3.1-3.1A3.12,3.12,0,0,1,107,435.31Z"/><path class="cls-70" d="M178.74,534.81l-9.1-7.1a1.57,1.57,0,0,0-1.9,2.5l9.1,7.1a1.57,1.57,0,1,0,1.9-2.5"/><path class="cls-70" d="M170.84,538l7.1-9.1a1.57,1.57,0,0,0-2.5-1.9l-7.1,9.1a1.58,1.58,0,0,0,.3,2.2,1.68,1.68,0,0,0,2.2-.3"/><path class="cls-70" d="M397.44,817.31l-2.5-7.6a1.11,1.11,0,1,0-2.1.7l2.5,7.6a1.11,1.11,0,1,0,2.1-.7"/><path class="cls-70" d="M391.74,816.11l7.6-2.5a1.11,1.11,0,1,0-.7-2.1L391,814a1.11,1.11,0,1,0,.7,2.1"/><path class="cls-70" d="M387.44,70.51a1.6,1.6,0,1,1-1.6-1.6A1.58,1.58,0,0,1,387.44,70.51Z"/><path class="cls-70" d="M1117,321.41a2.6,2.6,0,1,1-2.6-2.6A2.58,2.58,0,0,1,1117,321.41Z"/><path class="cls-70" d="M1107.64,801.81a2.1,2.1,0,1,1-2.1-2.1A2.05,2.05,0,0,1,1107.64,801.81Z"/><path class="cls-70" d="M1167.44,717.81l7.3,7.3a1.56,1.56,0,1,0,2.2-2.2l-7.3-7.3a1.56,1.56,0,1,0-2.2,2.2"/><path class="cls-70" d="M1174.74,715.61l-7.3,7.3a1.56,1.56,0,1,0,2.2,2.2l7.3-7.3a1.56,1.56,0,1,0-2.2-2.2"/><polygon class="cls-70" points="183.74 385.91 185.34 389.11 188.84 389.61 186.24 392.11 186.84 395.61 183.74 393.91 180.54 395.61 181.14 392.11 178.64 389.61 182.14 389.11 183.74 385.91"/><polygon class="cls-70" points="311.94 833.61 308.34 832.81 305.64 835.31 305.24 831.61 302.04 829.81 305.44 828.41 306.14 824.71 308.54 827.51 312.24 827.01 310.34 830.21 311.94 833.61"/><polygon class="cls-70" points="1116.44 469.31 1113.74 466.81 1110.24 467.61 1111.74 464.31 1109.94 461.21 1113.44 461.71 1115.84 459.01 1116.54 462.51 1119.94 463.91 1116.74 465.71 1116.44 469.31"/><polyline class="cls-29" points="139.94 742.31 159.24 760.21 134.04 777.31 124.64 752.71"/><path class="cls-29" d="M150.74,743.61l14.2-9.6a1,1,0,0,0,.2-1.3c-3.1-4-18.6-22.6-37.8-18.6C105.84,718.61,150.74,743.61,150.74,743.61Zm-47.7-13c-10.8,16.3.7,37.6,3.3,42a1,1,0,0,0,1.3.3l14.2-9.6C121.74,763.31,115.14,712.31,103,730.61Z"/><path class="cls-29" d="M74.24,697.51l-.6-29a4.55,4.55,0,0,1,7-4.7l26.7,11.3Z"/><rect class="cls-71" x="95" y="678.82" width="40" height="86.5" transform="translate(-385.28 188.85) rotate(-34.13)"/><path class="cls-2" d="M118.84,706.91a11.3,11.3,0,1,1-15.7-3A11.27,11.27,0,0,1,118.84,706.91Z"/><path class="cls-6" d="M413.94,913.21c2.4-.8,4.9-1.7,7.3-2.6l-.5-1.4c-2.4.9-4.9,1.8-7.3,2.6Zm-20.7,6.2c3.4-.9,6.9-1.8,10.4-2.9l-.4-1.4c-3.5,1-6.9,2-10.4,2.9l.4,1.4Zm-21.1,4.5c3.5-.6,7-1.3,10.6-2l-.3-1.5c-3.5.8-7.1,1.4-10.5,2Zm-21.5,2.6c3.5-.3,7.1-.6,10.7-1.1l-.2-1.5c-3.6.4-7.2.8-10.7,1.1l.2,1.5Zm-21.6.7h3.5c2.4,0,4.9,0,7.3-.1v-1.5c-2.4.1-4.9.1-7.3.1H329Zm-21.5-1.4c3.5.4,7.1.7,10.8,1l.1-1.5c-3.6-.2-7.2-.6-10.7-1l-.2,1.5Zm-21.3-3.6c3.5.8,7,1.5,10.6,2.1l.3-1.5q-5.4-.9-10.5-2.1l-.4,1.5Zm-20.8-5.9c3.3,1.2,6.8,2.3,10.3,3.3l.4-1.4c-3.5-1-6.9-2.1-10.2-3.2Zm-20-8.4c3.2,1.6,6.4,3.1,9.8,4.5l.6-1.4c-3.4-1.4-6.6-2.9-9.8-4.5l-.6,1.4Zm-18.6-11c2.9,2,5.9,4,9.1,5.8l.8-1.3c-3.2-1.9-6.2-3.8-9-5.8l-.9,1.3Zm-16.7-13.8c2.5,2.5,5.1,4.9,8,7.3l1-1.2c-2.8-2.4-5.5-4.8-7.9-7.2l-1.1,1.1Zm-13.2-17.2a68.06,68.06,0,0,0,6.1,9l1.2-.9a64.41,64.41,0,0,1-5.9-8.8l-1.4.7Zm-6.4-20.7a37.34,37.34,0,0,0,2,10.7l1.4-.5a38.76,38.76,0,0,1-1.9-10.3Zm6.9-20.4a27,27,0,0,0-5.4,9.6l1.4.5a27.83,27.83,0,0,1,5.2-9.1l-1.2-1Zm17.3-13.1a43.41,43.41,0,0,0-9.4,5.5l.9,1.2a37.08,37.08,0,0,1,9.1-5.3Zm21.6-2.4a38.22,38.22,0,0,0-6.8-.6c-1.4,0-2.7.1-4.1.2l.2,1.5c1.3-.1,2.6-.2,3.9-.2a36.83,36.83,0,0,1,6.6.6l.2-1.5Zm19.3,9.9a34.3,34.3,0,0,0-8.9-6.4l-.7,1.3a34.25,34.25,0,0,1,8.5,6.1l1.1-1Zm6.5,20.2a15.77,15.77,0,0,0,.7-4.7,17.59,17.59,0,0,0-1.2-6.3l-1.4.5a17,17,0,0,1,1.1,5.8,12.91,12.91,0,0,1-.7,4.3Zm-16.3,13.9a35.09,35.09,0,0,0,9.7-5l-.9-1.2a36.58,36.58,0,0,1-9.3,4.8l.5,1.4Zm-21.6,1.3a41.16,41.16,0,0,0,8.6.9,17,17,0,0,0,2.3-.1l-.1-1.5c-.7,0-1.5.1-2.2.1a37.46,37.46,0,0,1-8.2-.9Zm-19.8-9a68.81,68.81,0,0,0,9.4,5.4l.6-1.4a77.85,77.85,0,0,1-9.2-5.3l-.8,1.3ZM188,831.51q3.75,3.9,7.8,7.5l1-1.1c-2.7-2.3-5.2-4.8-7.7-7.4Zm-13.9-16.6c2.1,2.8,4.3,5.7,6.7,8.5l1.2-1q-3.45-4.2-6.6-8.4Zm-12.1-18c1.8,2.9,3.7,5.9,5.8,9.1l1.2-.8c-2.1-3.2-4.1-6.2-5.8-9.1l-1.2.8Zm-10.5-19s1.8,3.8,5.1,9.6l1.3-.7c-1.6-2.9-2.9-5.3-3.7-7a15.42,15.42,0,0,0-1-1.9,6,6,0,0,1-.3-.7l-1.4.7Z"/><rect class="cls-71" x="1152.14" y="344.86" width="115.4" height="91.2" transform="translate(266.88 1243.1) rotate(-60.01)"/><rect class="cls-72" x="1229.32" y="313.79" width="6" height="75.3" transform="translate(311.92 1243.05) rotate(-60.01)"/><rect class="cls-9" x="1222.24" y="370.68" width="30.8" height="31" transform="translate(284.56 1265.12) rotate(-60.01)"/><rect class="cls-72" x="1207.45" y="335.31" width="4.4" height="39.6" transform="translate(297.4 1225.26) rotate(-60.01)"/><rect class="cls-72" x="1203.33" y="342.94" width="4.4" height="39.6" transform="translate(288.73 1225.5) rotate(-60.01)"/><rect class="cls-72" x="1199.02" y="350.41" width="4.4" height="39.6" transform="translate(280.1 1225.51) rotate(-60.01)"/><rect class="cls-72" x="1194.71" y="357.89" width="4.4" height="39.6" transform="translate(271.47 1225.52) rotate(-60.01)"/><rect class="cls-72" x="1205.58" y="356.31" width="4.4" height="75.3" transform="translate(262.82 1243.07) rotate(-60.01)"/><rect class="cls-72" x="1201.47" y="363.94" width="4.4" height="75.3" transform="translate(254.15 1243.32) rotate(-60.01)"/><rect class="cls-72" x="1197.16" y="371.42" width="4.4" height="75.3" transform="translate(245.52 1243.33) rotate(-60.01)"/><rect class="cls-72" x="1192.8" y="378.98" width="4.4" height="75.3" transform="translate(236.79 1243.34) rotate(-60.01)"/><rect class="cls-72" x="1188.77" y="386.66" width="4.4" height="75.3" transform="translate(228.13 1243.68) rotate(-60.01)"/></g></g></svg>