<svg xmlns="http://www.w3.org/2000/svg" xmlns:xlink="http://www.w3.org/1999/xlink" viewBox="0 0 709.1 799.6"><defs><style>.cls-1{fill:none;}.cls-2{fill:#fff;}.cls-3{fill:url(#radial-gradient);}.cls-4{fill:#e1f5ff;}.cls-5{fill:url(#radial-gradient-17);}.cls-6{fill:#e9f9ff;}.cls-7{fill:url(#radial-gradient-23);}.cls-8{fill:#b7d802;}.cls-9{clip-path:url(#clip-path);}.cls-10{fill:#a3bd02;}.cls-11{fill:#b01a93;}.cls-12{clip-path:url(#clip-path-2);}.cls-13{fill:#751062;}.cls-14{fill:#9c1786;}.cls-15{fill:#680e59;}.cls-16{fill:#bf9999;}.cls-17{clip-path:url(#clip-path-6);}.cls-18{fill:#aa868b;}.cls-19{fill:#fafafa;}.cls-20{clip-path:url(#clip-path-7);}.cls-21{fill:#bdbdbd;}.cls-22{fill:#dedbe3;}.cls-23{fill:#a8a5ac;}.cls-24{clip-path:url(#clip-path-12);}.cls-25{fill:#848d4c;}.cls-26{fill:#b50000;}.cls-27{fill:#a10000;}.cls-28{fill:#e3dfe8;}.cls-29{clip-path:url(#clip-path-19);}.cls-30{fill:#757b45;}.cls-31{fill:#543426;}.cls-32{clip-path:url(#clip-path-20);}.cls-33{fill:#b4c9d1;}.cls-34{fill:#4b2e23;}.cls-35{fill:#a0b0be;}.cls-36{clip-path:url(#clip-path-26);}.cls-37{fill:#754835;}.cls-38{fill:#140a1a;}.cls-39{clip-path:url(#clip-path-27);}.cls-40{fill:#683f30;}.cls-41{clip-path:url(#clip-path-29);}.cls-42{fill:#183900;}.cls-43{clip-path:url(#clip-path-31);}.cls-44{fill:#a6d8ff;}.cls-45{clip-path:url(#clip-path-33);}.cls-46{fill:#fdfeff;}.cls-47{fill:url(#radial-gradient-31);}.cls-48{fill:#f1edeb;}.cls-49{fill:#f0eceb;}.cls-50{fill:#424242;}.cls-51{fill:#434343;}.cls-52{fill:#cc3752;}.cls-53{fill:#fa4444;}.cls-54{fill:#fefefe;}</style><radialGradient id="radial-gradient" cx="-1074.8" cy="941.9" r="1" gradientTransform="translate(315672.2 -275980.84) scale(293.42)" gradientUnits="userSpaceOnUse"><stop offset="0" stop-color="#9cffff"/><stop offset="0.12" stop-color="#9cffff"/><stop offset="0.19" stop-color="#a9ffff"/><stop offset="0.41" stop-color="#c9ffff"/><stop offset="0.63" stop-color="#e0ffff"/><stop offset="0.83" stop-color="#eff"/><stop offset="1" stop-color="#f3ffff"/></radialGradient><radialGradient id="radial-gradient-17" cx="-1074.8" cy="941.9" r="1" gradientTransform="translate(315672.2 -275980.84) scale(293.42)" gradientUnits="userSpaceOnUse"><stop offset="0" stop-color="#b0f5ff"/><stop offset="0.12" stop-color="#b0f5ff"/><stop offset="0.16" stop-color="#b4f5ff"/><stop offset="0.46" stop-color="#caf5ff"/><stop offset="0.74" stop-color="#d7f5ff"/><stop offset="1" stop-color="#dbf5ff"/></radialGradient><radialGradient id="radial-gradient-23" cx="-1074.8" cy="941.9" r="1" gradientTransform="translate(315672.2 -275980.84) scale(293.42)" gradientUnits="userSpaceOnUse"><stop offset="0" stop-color="#b8f9ff"/><stop offset="0.12" stop-color="#b8f9ff"/><stop offset="0.16" stop-color="#bcf9ff"/><stop offset="0.45" stop-color="#d1f9ff"/><stop offset="0.74" stop-color="#dff9ff"/><stop offset="1" stop-color="#e3f9ff"/></radialGradient><clipPath id="clip-path"><path class="cls-1" d="M375.7,484.2a21,21,0,0,0-31.8,4.9h0a20.9,20.9,0,0,0,6.9,28.7c13.9,8.5,33.4,20.2,49.2,28.3a80.76,80.76,0,0,0,17.2-25.3l-41.5-36.6"/></clipPath><clipPath id="clip-path-2"><path class="cls-1" d="M434,535.5l-16.7-14.7a82,82,0,0,1-17.2,25.3c12.2,6.2,22.2,10.2,25.7,9,11.2-4.2,8.2-19.6,8.2-19.6"/></clipPath><clipPath id="clip-path-6"><path class="cls-1" d="M212.1,576.7c7.9-15.5,19.6-34.2,38.7-48.6A20.27,20.27,0,0,0,227,495.3a86.4,86.4,0,0,0-30.8,38.8c-3.6,8.7-6.4,16.3-8.8,22.7a51.07,51.07,0,0,0,24.7,19.9"/></clipPath><clipPath id="clip-path-7"><path class="cls-1" d="M212.1,576.7a51.53,51.53,0,0,1-24.7-19.8c-5.1,14-7.5,22.8-8.7,27.4a10.23,10.23,0,0,0,.9,7.3c3.2,6,10.2,17.1,16.6,14.6,3.9-1.6,8-13.9,15.9-29.5"/></clipPath><clipPath id="clip-path-12"><path class="cls-1" d="M253,456.3s-25.7-7.2-45.2,0-36,20.6-36,57.8c0,31,31.9,45.4,74,46.5,40.3,1,95.6-6.2,116.2-43.4s14.4-60.9,14.4-60.9H253"/></clipPath><clipPath id="clip-path-19"><path class="cls-1" d="M243.7,450.1s-9.9,2.2-8.2,10.3c3.1,14.4,30.8,28.8,78.1,30.8,28,1.2,47.8-8.8,59.2-17.1a24.79,24.79,0,0,0,9.9-23.5l-.2-1.5-138.8,1"/></clipPath><clipPath id="clip-path-20"><path class="cls-1" d="M198.5,343.2l29.3,10.1s42.7,37.2-.5,27.9S181,358.3,181,358.3l17.5-15.1M359.9,334l7.2-20.6L364,300s-14.4-32.9-30.7-27.6-29.9,36.8-29.9,36.8L359.9,334"/></clipPath><clipPath id="clip-path-26"><path class="cls-1" d="M404,433.9c23.3-15.5,37.2-42,36.1-57.8-1.8-26.4-22.6-21.6-36-23.6s-16.5-6.2-45.2-29.8-60.6-24.6-89.5-9.3c-32.9,17.5-49.4,40.1-49.4,79.2s12.3,72,67.9,82.3,118.2-26.7,116.2-41.1l-.1.1"/></clipPath><clipPath id="clip-path-27"><path class="cls-1" d="M218,309.3c13.4,3.1,33.9,37,29.8,45.2s-56.5,11.3-63.7,8.2-1-20.6,8.2-35c0,.1,12.4-21.5,25.7-18.4m112.1-35s39.1,50.4,46.3,46.3,16.5-33.9,7.2-42.2-56.6-8.2-53.5-4.1"/></clipPath><clipPath id="clip-path-29"><path class="cls-1" d="M290.4,568.5a100.19,100.19,0,0,0,5.1,19.6,9.31,9.31,0,0,0,5.8,5.5c5.7,1.9,16,4.3,19.6-1.5,2.3-3.6,2.5-10.3,4.3-20.4-15.3,2.7-27.2-.1-34.8-3.2"/></clipPath><clipPath id="clip-path-31"><path class="cls-1" d="M246,570.5A51.49,51.49,0,0,1,218.4,586a271.68,271.68,0,0,0,22.2,18.2,10.64,10.64,0,0,0,7.1,1.9c6.7-.8,19.7-3.1,19.7-10,0-4.1-9.9-12.4-21.4-25.6"/></clipPath><clipPath id="clip-path-33"><path class="cls-1" d="M244.9,256.4a60.49,60.49,0,0,0-6.6,4.2c-7.7,5.5-13.2,11.1-16.3,16.4l16,19.6c5.6-1.3,12.2-4.3,19.1-9.2,1-.7,2-1.4,2.9-2.1l-15.1-28.9m30.5-4.4,2.9,10.1c.7-3.2.4-6-1.2-8.2a5.19,5.19,0,0,0-1.7-1.9"/></clipPath><radialGradient id="radial-gradient-31" cx="-1074.8" cy="941.9" r="1" gradientTransform="translate(315672.2 -275980.84) scale(293.42)" gradientUnits="userSpaceOnUse"><stop offset="0" stop-color="#f8feff"/><stop offset="0.12" stop-color="#f8feff"/><stop offset="1" stop-color="#fcfeff"/></radialGradient></defs><g id="Layer_2" data-name="Layer 2"><g id="Layer_1-2" data-name="Layer 1"><path class="cls-2" d="M345.5,681.7a303.47,303.47,0,0,1-40.7,2.8c-5.9,0-11.7-.2-17.4-.5L275.8,799.6h81.4L345.5,681.7"/><path class="cls-2" d="M535.9,572a296.59,296.59,0,0,1-39,41l78.7,96.2,57.6-57.6L535.9,572"/><path class="cls-2" d="M575.6,75.9l-77.3,94.5a294.5,294.5,0,0,1,39,41.5l95.9-78.4L575.6,75.9"/><path class="cls-2" d="M57.6,75.9,0,133.5l81.8,66.9a301.05,301.05,0,0,1,43.6-41.6L57.6,75.9"/><path class="cls-2" d="M83.3,583.4,0,651.5l57.6,57.6,69.3-84.8a291.06,291.06,0,0,1-43.6-40.9"/><path class="cls-2" d="M173.8,653.7l-53.5,97.8,75,31.8L229,674.7a300.71,300.71,0,0,1-55.2-21"/><path class="cls-2" d="M450,646.1a292.71,292.71,0,0,1-52.3,23.4l33.9,115.6,75.5-30.6L450,646.1"/><path class="cls-2" d="M585.8,476.1a296.06,296.06,0,0,1-21.4,52l111.1,60.7,31.8-75L585.8,476.1"/><path class="cls-2" d="M678.5,202,567.6,260.4a295.89,295.89,0,0,1,20.2,52.7l121.3-35.6L678.5,202"/><path class="cls-2" d="M437.8,1.9,402.9,114.5a297.45,297.45,0,0,1,52.3,24.6L512.8,33.7l-75-31.8"/><path class="cls-2" d="M201.5,0,126,30.6,176.8,127a290.07,290.07,0,0,1,56-20.4L201.5,0"/><path class="cls-3" d="M331.8,545.1A126.92,126.92,0,0,1,300.2,556L287.4,683.9c5.8.3,11.6.5,17.4.5a303.47,303.47,0,0,0,40.7-2.8L331.8,545.1"/><path class="cls-3" d="M405.5,465.3a139.36,139.36,0,0,1-16,11.7c-.8.5-1.7,1-2.5,1.6l45.4,55.5,1.6,1.4a4.18,4.18,0,0,0,.1.7L496.9,613a296.59,296.59,0,0,0,39-41L405.5,465.3"/><path class="cls-3" d="M597.1,364.5,453.4,378.9c-.6,2-1.4,3-2.1,3h-.1c1,.2,1.5,2.8.5,7.8a152.4,152.4,0,0,1-4.5,16l149.6,15a287,287,0,0,0,1.5-29.5q0-13.65-1.2-26.7"/><path class="cls-3" d="M498.3,170.4,418,268.5c1.6,1.7,3.2,3.5,4.7,5.3a136.74,136.74,0,0,1,14.2,20.3L537.3,212a301.19,301.19,0,0,0-39-41.6"/><path class="cls-3" d="M304.8,97.7c-6,0-11.9.2-17.7.5l12.4,124.1c3.2-.2,6.3-.3,9.5-.3a149.89,149.89,0,0,1,18.9,1.2c1.8.2,3.7.5,5.5.8l12.3-123.4a275.42,275.42,0,0,0-40.9-2.9"/><path class="cls-3" d="M125.4,158.9a290.9,290.9,0,0,0-43.6,41.6l104.8,85.7a141.69,141.69,0,0,1,22-25.6L125.4,158.9"/><path class="cls-3" d="M12.8,362.1c-.9,9.5-1.4,19.2-1.4,28.9a302.07,302.07,0,0,0,1.7,31.8l158.8-15.9c-1.6-4.4-3-8.9-4.2-13.4a112.57,112.57,0,0,1-3-16.2L12.8,362.1"/><path class="cls-3" d="M171.8,511,83.2,583.5a297,297,0,0,0,43.6,41L190.2,547c-11.6-7.6-18.5-18.4-18.5-32.8.1-1.1.1-2.2.1-3.2"/><path class="cls-3" d="M225.6,558.9l-51.8,94.7A293.35,293.35,0,0,0,229,674.5l35.4-114.2q-6,.3-11.7.3c-2.3,0-4.7,0-6.9-.1a143.8,143.8,0,0,1-20.2-1.6"/><path class="cls-3" d="M358.7,522.6c-.9,1.3-1.9,2.6-2.9,3.8l41.9,143.1A292.71,292.71,0,0,0,450,646.1l-53.7-102c-12.1-6.4-26-14.5-37.6-21.5"/><path class="cls-3" d="M435.9,429.6a107.86,107.86,0,0,1-6.6,10,129.3,129.3,0,0,1-8.1,10.2l143.1,78.3a292.94,292.94,0,0,0,21.4-52L435.9,429.6"/><path class="cls-3" d="M567.6,260.4,449.2,322.7a127.87,127.87,0,0,1,5.3,29.4l133.2-39a281,281,0,0,0-20.1-52.7"/><path class="cls-3" d="M402.9,114.4,366.1,232.9a137.07,137.07,0,0,1,14,6.5,164.21,164.21,0,0,1,15.1,9.2l60-109.7a304.35,304.35,0,0,0-52.3-24.5"/><path class="cls-3" d="M232.8,106.6a292.51,292.51,0,0,0-56,20.4l59.8,113.5a151,151,0,0,1,31.7-13L232.8,106.6"/><path class="cls-3" d="M49.5,246.5a293.6,293.6,0,0,0-24.3,55.6l139.5,43.3c.3-2.2.6-4.3.9-6.5a128.52,128.52,0,0,1,6.8-25.2L49.5,246.5"/><path class="cls-3" d="M183.8,431.4,24.5,478.1a291.88,291.88,0,0,0,23.8,55.6l152.3-80.2c-3.2-3.4-6.2-7-9.1-10.7-2.6-3.7-5.2-7.5-7.7-11.4"/><path class="cls-4" d="M378.6,468.3a13.93,13.93,0,0,1-1.5,1.9q-.3,4.35-1.2,9.9c2.9-1.5,5.7-3,8.5-4.7l-5.8-7.1m23.8-28.8c-2.4,3.7-7,8-13.3,12.4l13.3,10.9a134.6,134.6,0,0,0,15.3-14.9l-15.3-8.4m29.4-35.4a91.15,91.15,0,0,1-15.2,19.5l15.3,4.8A137.4,137.4,0,0,0,443,405.2l-11.2-1.1m18.8-50.8-17.9,5.2c4,3.3,6.8,8.6,7.4,17.6a28,28,0,0,1,0,4.1l9.7-1a13.33,13.33,0,0,1,.1-3.4,130.24,130.24,0,0,0,.7-22.5m-16.9-56.6-41.6,34.1a128.74,128.74,0,0,1-1.6,16.2h0c0,.2-.1.3-.1.5v.2a32,32,0,0,0,5.9,2.9l49.3-26c-.2-.6-.3-1.1-.5-1.7a126.79,126.79,0,0,0-11.4-26.2m-40.4-44.4L381.5,274c.6,1.4,1.2,2.8,1.7,4.2a.78.78,0,0,1,.4.4c2.8,2.5,3.9,6.9,3.9,11.9v.6c1.1,3.8,1.9,7.7,2.7,11.6l25.3-31a136.07,136.07,0,0,0-22.2-19.4m-39.4-19.5a125.17,125.17,0,0,1,9,10.3l2-6.3c-3.6-1.5-7.3-2.8-11-4"/><path class="cls-5" d="M389.1,451.8c-1.9,1.3-3.9,2.6-6.1,3.9a24.84,24.84,0,0,1-4.4,12.6l5.8,7.1,3-1.8a133.39,133.39,0,0,0,15-10.9l-13.3-10.9"/><path class="cls-5" d="M449.8,379.2l-9.7,1c-.5,7-3.4,15.4-8.3,23.9l11.2,1.1a133.4,133.4,0,0,0,4.7-16.4c.9-4.6,2.3-6.9,3.3-6.9h.1c-.6-.1-1.1-1-1.3-2.7"/><path class="cls-5" d="M415.4,271.7l-25.3,31a127.52,127.52,0,0,1,2.1,23.2c0,1.6,0,3.3-.1,4.9l41.6-34.1a136.13,136.13,0,0,0-14.1-20.3,61.42,61.42,0,0,0-4.2-4.7"/><path class="cls-5" d="M416.7,423.6a88.28,88.28,0,0,1-12.5,10.2,8.8,8.8,0,0,1-1.8,5.7l15.3,8.4a122.08,122.08,0,0,0,8.4-10.6c2.1-2.9,4-5.8,5.9-8.9l-15.3-4.8"/><path class="cls-5" d="M445.6,324.6l-49.3,26a40.5,40.5,0,0,0,7.8,1.9c8.8,1.4,20.9-.3,28.6,6l17.9-5.2a126.94,126.94,0,0,0-5-28.7"/><path class="cls-5" d="M364.9,236.8l-2,6.3a137.69,137.69,0,0,1,18.5,30.8l11.8-21.7a128.23,128.23,0,0,0-15-9.2,133.59,133.59,0,0,0-13.3-6.2"/><path class="cls-6" d="M229.5,438.4l-25.1,13.2c1.4,1.5,2.9,3,4.4,4.4a61.7,61.7,0,0,1,19.4-2.9,88.05,88.05,0,0,1,9.2.5,10,10,0,0,1,2-1.6,61.38,61.38,0,0,1-9.9-13.6m-9.1-36.2-44.3,4.4a131,131,0,0,0,11.8,23.7l34.9-10.2a105.64,105.64,0,0,1-2.4-17.9m-51.8-55.6a124.51,124.51,0,0,0,.3,31.1l51.6,5.2c.1-1.1.2-2.1.3-3.2-23.6-5.8-33.3-12.9-37.2-17.3a5,5,0,0,1-2.2-3.2,2.32,2.32,0,0,1-.3-.9h0l.1-.1a20.77,20.77,0,0,1,.6-7.6l-13.2-4M238.8,329c1,1.5,1.9,3,2.8,4.5l1.2-1.2-4-3.3m-49.1-40.3c-.3.5-.6.9-.9,1.4A129.5,129.5,0,0,0,176,315.6l17.9,9.8a57.53,57.53,0,0,1,9.3-10.9,6.1,6.1,0,0,1-1.5-1.3c-2.3-2.9-1.4-7.5,2.1-10.3a7.61,7.61,0,0,1,1.9-1.2l-16-13m70.4-3.4c-.9.7-1.9,1.4-2.9,2.1-6.9,4.9-13.5,7.9-19.1,9.2l19.5,23.8a133.33,133.33,0,0,1,11.9-7c1.4-.8,2.9-1.5,4.3-2.2l-13.7-25.9m121.3-11.4-1.3,2.4a13.94,13.94,0,0,1,3,1.7c-.5-1.3-1.1-2.7-1.7-4.1m-143-29.8a128,128,0,0,0-12.7,7.9,149.57,149.57,0,0,0-14.6,11.7L222,277c3.1-5.2,8.5-10.9,16.3-16.4a60.49,60.49,0,0,1,6.6-4.2l-6.5-12.3M333,227.9l-4.7,47c.5-.3,1.1-.7,1.6-1,.1-.6,1.3-1.1,3.4-1.5a11.33,11.33,0,0,1,3.6-.6h.9c2.3-.2,5.1-.3,8.1-.3,2.6,0,5.3.1,8.1.2l8.9-28.7a125.17,125.17,0,0,0-9-10.3,162.5,162.5,0,0,0-20.9-4.8m-33.1-1.7a139,139,0,0,0-25.6,3.9c-1.7.4-3.3.8-4.9,1.3l6,20.5a7.69,7.69,0,0,1,1.8,1.8c1.6,2.2,1.9,5,1.2,8.2l12.7,43.2a73,73,0,0,1,15.3-2,21.16,21.16,0,0,1,1.1-2.1l-7.6-74.8"/><path class="cls-7" d="M309,226c-3,0-6.1.1-9.1.3l7.5,74.8c3.9-7.2,10.2-17.5,17.7-23.8h0a33.35,33.35,0,0,1,3.2-2.4l4.7-47c-1.9-.3-3.7-.6-5.6-.8A160.84,160.84,0,0,0,309,226"/><path class="cls-7" d="M211.1,263.7a139.2,139.2,0,0,0-21.5,25.1l16,13.1a9.37,9.37,0,0,1,3.6-.8,6.47,6.47,0,0,1,5.1,2.3,6.12,6.12,0,0,1,1,5.7h.1a12.41,12.41,0,0,1,2.7.3c6.5,1.5,14.6,10.2,20.8,19.7l4,3.3a104,104,0,0,1,14.7-11.8l-19.5-23.8a28.51,28.51,0,0,1-6.2.8c-5,0-8.8-1.7-11-4.8-2.8-4-2.4-9.5,1.2-15.6l-11-13.5"/><path class="cls-7" d="M168.9,377.8a148.42,148.42,0,0,0,2.8,14.8,141.69,141.69,0,0,0,4.4,14l44.3-4.4q-.3-4.8-.3-9.6c0-3.3.1-6.5.4-9.6l-51.6-5.2"/><path class="cls-7" d="M362.9,243.1,354,271.8c9.6.5,19.7,1.9,25.7,4.4h0c.1,0,.2.1.3.1l1.3-2.4a132.27,132.27,0,0,0-18.4-30.8"/><path class="cls-7" d="M278.3,262c-1.6,6.9-8.1,15.5-18.2,23.2l13.7,26a80,80,0,0,1,17.2-6L278.3,262m-8.9-30.6a145.69,145.69,0,0,0-30.9,12.7l6.5,12.4c8.1-4.5,15.8-6.8,21.9-6.8a14.14,14.14,0,0,1,8.6,2.4l-6.1-20.7"/><path class="cls-7" d="M175.9,315.7a134,134,0,0,0-6.4,23.9c-.4,2.3-.7,4.7-1,7l13.2,4.1c1.6-6.8,5.7-15.3,10.6-22.9,0,0,.5-.9,1.5-2.4l-17.9-9.7"/><path class="cls-7" d="M222.8,420l-34.9,10.2c2.2,3.5,4.5,6.8,7,10.1,3,3.9,6.2,7.7,9.5,11.2l25.1-13.2a70.2,70.2,0,0,1-6.7-18.3"/><path class="cls-6" d="M392.1,330.7l-11.7,9.6a86.32,86.32,0,0,0,10,7.3v-.2c0-.2.1-.3.1-.5h0a126.93,126.93,0,0,0,1.6-16.2m-25.7-15.3-3.7,10.5c1.8,1.5,3.4,2.8,5,4.1l7.5-9.1c-1.9-.2-5.1-2.3-8.8-5.5M387.5,291a56.12,56.12,0,0,1-4.9,20.8l7.5-9.2c-.7-3.9-1.6-7.8-2.6-11.6"/><path class="cls-7" d="M390.1,302.6l-7.5,9.2c-1.9,4.3-4.2,7.6-6.2,8.8a1.64,1.64,0,0,1-1,.2h-.2l-7.5,9.1,12.6,10.4,11.7-9.6c.1-1.6.1-3.3.1-4.9a119.85,119.85,0,0,0-2-23.2"/><path class="cls-8" d="M375.7,484.2a21,21,0,0,0-31.8,4.9h0a20.9,20.9,0,0,0,6.9,28.7c13.9,8.5,33.4,20.2,49.2,28.3a80.76,80.76,0,0,0,17.2-25.3l-41.5-36.6"/><g class="cls-9"><path class="cls-10" d="M365.2,511.1c-1,2-2.1,4.1-3.2,6.2a47.21,47.21,0,0,1-3.3,5.3c12.8,7.8,28.4,16.9,41.4,23.5h0a83.5,83.5,0,0,0,6.5-7.4,254.17,254.17,0,0,1-41.4-27.6"/></g><path class="cls-11" d="M434,535.5l-16.7-14.7a82,82,0,0,1-17.2,25.3c12.2,6.2,22.2,10.2,25.7,9,11.2-4.2,8.2-19.6,8.2-19.6"/><g class="cls-12"><path class="cls-13" d="M421.9,540.4a43.29,43.29,0,0,1,7,3.9,18.91,18.91,0,0,1,5.7,5.9c.3.4-1.5,1.2-1.7.9a20.38,20.38,0,0,0-4.8-5.8,34.87,34.87,0,0,0-6.5-4.3c-.1-.1.1-.7.3-.6"/></g><g class="cls-12"><path class="cls-13" d="M425,535.2a43.29,43.29,0,0,1,7,3.9,18.91,18.91,0,0,1,5.7,5.9c.3.4-1.5,1.2-1.7.9a20.38,20.38,0,0,0-4.8-5.8,34.87,34.87,0,0,0-6.5-4.3C424.5,535.8,424.8,535.2,425,535.2Z"/></g><g class="cls-12"><path class="cls-14" d="M406.6,538.6h0c-2.2,2.8-4.5,5.3-6.5,7.4,10.7,5.4,19.7,9.2,24.1,9.2a7.77,7.77,0,0,0,1.6-.2,11.61,11.61,0,0,0,6.4-5.4c0-.1-.1-.1-.1-.2a156.16,156.16,0,0,1-25.5-10.8"/></g><g class="cls-12"><path class="cls-15" d="M432,549.4c0,.1.1.1.1.2a.1.1,0,0,1,.1-.1.31.31,0,0,1-.2-.1"/></g><path class="cls-16" d="M212.1,576.7c7.9-15.5,19.6-34.2,38.7-48.6A20.27,20.27,0,0,0,227,495.3a86.4,86.4,0,0,0-30.8,38.8c-3.6,8.7-6.4,16.3-8.8,22.7a51.07,51.07,0,0,0,24.7,19.9"/><g class="cls-17"><path class="cls-18" d="M191,547.4c-1.3,3.4-2.5,6.6-3.5,9.5a51.53,51.53,0,0,0,24.7,19.8h0a160.34,160.34,0,0,1,10.6-18.2c-12.6-2.1-23.4-5.8-31.8-11.1"/></g><path class="cls-19" d="M212.1,576.7a51.53,51.53,0,0,1-24.7-19.8c-5.1,14-7.5,22.8-8.7,27.4a10.23,10.23,0,0,0,.9,7.3c3.2,6,10.2,17.1,16.6,14.6,3.9-1.6,8-13.9,15.9-29.5"/><g class="cls-20"><path class="cls-21" d="M194.2,588.7a55.1,55.1,0,0,1-2.2,8.9,29.77,29.77,0,0,1-4.5,8.4c-.3.5-3.3-2.6-3-2.8a23,23,0,0,0,5-6.7,44.68,44.68,0,0,0,3.4-8.1c0-.2,1.3,0,1.3.3"/></g><g class="cls-20"><path class="cls-21" d="M199.4,593.2a55.1,55.1,0,0,1-2.2,8.9,29.77,29.77,0,0,1-4.5,8.4c-.3.5-3.3-2.6-3-2.8a23,23,0,0,0,5-6.7,47.87,47.87,0,0,0,3.4-8.1c0-.1,1.3.1,1.3.3"/></g><g class="cls-20"><path class="cls-22" d="M187.4,556.9c-5.1,14-7.5,22.8-8.7,27.4a10.07,10.07,0,0,0-.3,2.5,10.74,10.74,0,0,0,1.2,4.9,55.23,55.23,0,0,0,6.5,9.8,42,42,0,0,0,3.3-4.9,44.68,44.68,0,0,0,3.4-8.1.35.35,0,0,1,.2-.1c.4,0,1.1.2,1.1.4a55.1,55.1,0,0,1-2.2,8.9,35.06,35.06,0,0,1-3.1,6.5,12.84,12.84,0,0,0,2.6,1.7,26.31,26.31,0,0,0,3.1-4.8,47.87,47.87,0,0,0,3.4-8.1.35.35,0,0,1,.2-.1c.4,0,1.1.2,1.1.4a55.1,55.1,0,0,1-2.2,8.9,39.29,39.29,0,0,1-1.8,4.3l.9-.3c3.8-1.5,7.9-13.9,15.8-29.4a52.54,52.54,0,0,1-24.5-19.9h0"/></g><g class="cls-20"><path class="cls-23" d="M193.1,588.3c-.1,0-.2,0-.2.1a47.87,47.87,0,0,1-3.4,8.1,24.71,24.71,0,0,1-3.3,4.9,34.37,34.37,0,0,0,2.7,2.7,29.67,29.67,0,0,0,3.1-6.5,55.1,55.1,0,0,0,2.2-8.9c0-.2-.7-.4-1.1-.4"/></g><g class="cls-20"><path class="cls-23" d="M198.3,592.9c-.1,0-.2,0-.2.1a47.87,47.87,0,0,1-3.4,8.1,39.41,39.41,0,0,1-3.1,4.8,5.81,5.81,0,0,0,2.8.7,3.4,3.4,0,0,0,1-.1,32.51,32.51,0,0,0,1.8-4.3,55.1,55.1,0,0,0,2.2-8.9c0-.2-.8-.4-1.1-.4"/></g><path class="cls-8" d="M253,456.3s-25.7-7.2-45.2,0-36,20.6-36,57.8c0,31,31.9,45.4,74,46.5,40.3,1,95.6-6.2,116.2-43.4s14.4-60.9,14.4-60.9H253"/><g class="cls-24"><path class="cls-16" d="M267.4,570.9s-50.8-46.6-20.8-112.6-46.1-52.6-46.1-52.6L82.3,489.3l40.1,93.9,111,21.7Z"/></g><g class="cls-24"><path class="cls-25" d="M259.2,566.3c-47.3-50.4-21.6-108-21.6-108l8.2,6.2s-22.6,50.4,21.6,101.8Z"/></g><g class="cls-24"><path class="cls-26" d="M361.8,490l14.2,2a2.18,2.18,0,0,1,1.8,2.3l-2.3,16.8a2.18,2.18,0,0,1-2.3,1.8l-14.2-2a2.18,2.18,0,0,1-1.8-2.3l2.3-16.8a2.11,2.11,0,0,1,2.3-1.8"/></g><g class="cls-24"><path class="cls-2" d="M363.6,493.6l-.1.9,1.1.2-1.9,13.5,1.1.2,1.9-13.5,1.5.2-1.9,13.5,1.1.2.4-3,.7.1a4.83,4.83,0,0,0,2.7-.4,3.84,3.84,0,0,0,2-1.8,6.66,6.66,0,0,0,1-3,6,6,0,0,0-.8-4.3,5.64,5.64,0,0,0-3.8-2l-1.4-.2-3.6-.6m4.8,1.6.9.1a3.2,3.2,0,0,1,2.4,1.6,5.58,5.58,0,0,1,.4,3.6,8.23,8.23,0,0,1-.7,2.5,3.42,3.42,0,0,1-1.4,1.5,2.54,2.54,0,0,1-1.7.4l-1.2-.2,1.3-9.5"/></g><g class="cls-24"><path class="cls-10" d="M359.5,491.4c-.1,0-.2.1-.3.1-8.6,22.4-29.8,50.3-81.1,67.9,33.5-3.4,68.4-14.4,83.8-42.2,1-1.9,2-3.7,2.9-5.5l-6-.8a2.18,2.18,0,0,1-1.8-2.3l2.3-16.8c.2-.1.2-.2.2-.4m15.3-6.3c-3.9,1.9-7.8,3.6-11.8,5.1l10.1,1.4c.6-2.3,1.2-4.4,1.7-6.5m2.3-14.9a20,20,0,0,1-4.3,3.9,82.5,82.5,0,0,1-10.2,6.4c-.5,2-1,4-1.7,6.1,5.1-1.9,10-4.1,14.9-6.5a84.59,84.59,0,0,0,1.3-9.9"/></g><g class="cls-24"><path class="cls-27" d="M367,505.6l-.3,2.5c.4-.8.7-1.6,1.1-2.4h0l-.8-.1m1.4-10.4-1.3,9.5,1,.1q1.95-4.35,3.3-8.4a3.09,3.09,0,0,0-2.1-1.1l-.9-.1m-5.4-5c-1.1.4-2.3.8-3.4,1.3,0,.1-.1.2-.1.3l-2.3,16.8a2,2,0,0,0,1.8,2.3l6,.8c.5-1,1-2.1,1.5-3.1l-1-.1,1.9-13.5-1.5-.2L364,508.3l-1.1-.2,1.9-13.5-1.1-.2.1-.9,3.8.5,1.4.2a5.88,5.88,0,0,1,2.9,1.1c.5-1.3.9-2.6,1.3-3.9L363,490.2"/></g><g class="cls-24"><path class="cls-28" d="M363.6,493.6l-.1.9,1.1.2-1.9,13.5,1.1.2,1.9-13.5,1.5.2-1.9,13.5,1,.1c.1-.2.2-.3.2-.5l.3-2.5.7.1h0a2,2,0,0,1,.4-.8l-1-.1,1.3-9.5.9.1a3.09,3.09,0,0,1,2.1,1.1c.1-.3.2-.6.3-1a6.29,6.29,0,0,0-2.9-1.1l-1.4-.2-3.6-.7"/></g><path class="cls-25" d="M243.7,450.1s-9.9,2.2-8.2,10.3c3.1,14.4,30.8,28.8,78.1,30.8,28,1.2,47.8-8.8,59.2-17.1a24.79,24.79,0,0,0,9.9-23.5l-.2-1.5-138.8,1"/><g class="cls-29"><path class="cls-30" d="M383,455.7a152.61,152.61,0,0,1-18.1,9,77.48,77.48,0,0,1-2.2,15.9,90.79,90.79,0,0,0,10.2-6.4A25,25,0,0,0,383,455.7"/></g><path class="cls-31" d="M198.5,343.2l29.3,10.1s42.7,37.2-.5,27.9S181,358.3,181,358.3l17.5-15.1M359.9,334l7.2-20.6L364,300s-14.4-32.9-30.7-27.6-29.9,36.8-29.9,36.8L359.9,334"/><g class="cls-32"><path class="cls-33" d="M227.3,353.5s23.6,32.9,0,22.6-30.8-16.5-30.8-16.5l30.8-6.1m125.4-29.8c7.2-10.3,11.3-27.8,11.3-27.8s-6.2-23.6-20.6-16.5-23.6,29.8-23.6,29.8,25.7,24.8,32.9,14.5"/></g><g class="cls-32"><path class="cls-34" d="M330,273.9a14,14,0,0,0-1.6,1,24.28,24.28,0,0,0-3.2,2.4c1.4,2.8,3.7,7.2,6.6,12.2a46.25,46.25,0,0,1,5.8-5.9c-4.4-5.4-7.4-9.2-7.4-9.2a.65.65,0,0,1-.2-.5m6.9-2a11.33,11.33,0,0,0-3.6.6,43.94,43.94,0,0,1,4.5-.5,2.22,2.22,0,0,0-.9-.1"/></g><g class="cls-32"><path class="cls-34" d="M359.9,309.2a76.88,76.88,0,0,1-4.8,10.6c1.2.9,2.5,1.9,3.7,2.9l3.3,2.7a2.09,2.09,0,0,1,.6.4l3.6-10.3c-1.9-1.9-4.1-4-6.4-6.3"/></g><g class="cls-32"><path class="cls-35" d="M337.5,283.5a53.86,53.86,0,0,0-5.8,5.9c5.3,9.2,12.9,20.5,21.4,28.7l2.1,1.5A76.88,76.88,0,0,0,360,309c-7.8-7.8-16.5-18.1-22.5-25.5"/></g><g class="cls-32"><path class="cls-34" d="M183.5,362.5c2.6,2.9,7.7,7,17.7,11.1a104.26,104.26,0,0,0,17.4-1.3c-7.4-3.5-12.5-6.3-16-8.4-2,.1-3.9.1-5.7.1-6.2,0-11-.4-12.8-1.2l-.6-.3m-2.4-4.2-.1.1.3.9a3.55,3.55,0,0,1-.2-1"/></g><g class="cls-32"><path class="cls-35" d="M224.4,362a204.71,204.71,0,0,1-21.7,1.8c3.5,2.1,8.7,4.9,16,8.4,1.1-.2,2.2-.4,3.3-.7a73.35,73.35,0,0,1,2.4-9.5"/></g><path class="cls-16" d="M404,433.9c23.3-15.5,37.2-42,36.1-57.8-1.8-26.4-22.6-21.6-36-23.6s-16.5-6.2-45.2-29.8-60.6-24.6-89.5-9.3c-32.9,17.5-49.4,40.1-49.4,79.2s12.3,72,67.9,82.3,118.2-26.7,116.2-41.1l-.1.1"/><g class="cls-36"><path class="cls-19" d="M305.4,382.3s-13.4-20.6,4.1-39.1,45.9,6.2,45.9,6.2,13.8,14.4,20,9.2,17.5-14.4,33.9-9.3,25.7-21.6,30.8-2.1,4.1,89.5,4.1,89.5-64.8,56.5-66.8,54.5-113.1-3.1-113.1-3.1l-24.7-23.6s-3.1-31.9,17.5-46.3,52.1-9.8,52.1-9.8,11.4,4.3,8.5-8.4Z"/></g><path class="cls-37" d="M300.5,375.9a138.45,138.45,0,0,1,12.7,13.8,51,51,0,0,1,5.2,8.1,18.19,18.19,0,0,1,1.7,4.8,8.68,8.68,0,0,1,.1,2.8l-.1.8-.2.8a3.69,3.69,0,0,1-.7,1.4,6.28,6.28,0,0,1-1.1,1.2,6,6,0,0,1-1.3.9,8,8,0,0,1-3,.9,11.87,11.87,0,0,1-5.4-1.1,33.93,33.93,0,0,1-8.4-5.2,106.83,106.83,0,0,1-13.6-13.3c-1.4-1.6,3-5,4.2-3.5a119.62,119.62,0,0,0,12.3,13.3,33.87,33.87,0,0,0,7.1,5,7.11,7.11,0,0,0,3.6.9,3.65,3.65,0,0,0,1.5-.3c.2-.1.4-.3.6-.4s.4-.3.5-.5a4.07,4.07,0,0,0,.6-3.2,15.24,15.24,0,0,0-1.2-4,50.81,50.81,0,0,0-4.5-7.8,121.72,121.72,0,0,0-11.8-14.2C298.7,376.7,299.9,375.4,300.5,375.9Z"/><path class="cls-37" d="M360.3,331.3a99.36,99.36,0,0,1,11.9,11.5c.9,1.1,1.8,2.2,2.6,3.3a27.74,27.74,0,0,1,2.2,3.7,12.46,12.46,0,0,1,1.3,4.5,6.43,6.43,0,0,1-.3,2.7c-.2.4-.4.9-.6,1.3a4.81,4.81,0,0,1-.9,1.1,5.38,5.38,0,0,1-1.2.9,4.35,4.35,0,0,1-.7.4l-.7.2a8.61,8.61,0,0,1-2.7.3,16.35,16.35,0,0,1-4.6-1.2,41.32,41.32,0,0,1-7.4-4.4,111.34,111.34,0,0,1-12.7-11c-1.3-1.3,2.9-5.1,4-3.7A108.25,108.25,0,0,0,361.9,352a32.61,32.61,0,0,0,6.4,4.3,11.08,11.08,0,0,0,3.2,1.1,2.56,2.56,0,0,0,2.3-.6,2.87,2.87,0,0,0,.9-2.3,8.38,8.38,0,0,0-.8-3.3,36.56,36.56,0,0,0-4.1-6.7,94.61,94.61,0,0,0-11-11.9C358.6,332.3,359.7,330.9,360.3,331.3Z"/><path class="cls-38" d="M390.8,372c-13.4,12.3-26.7,28.8-14.4,37s35-1,38-5.1,17.5-38,7.2-44.2S390.8,372,390.8,372Z"/><path class="cls-37" d="M218,309.3c13.4,3.1,33.9,37,29.8,45.2s-56.5,11.3-63.7,8.2-1-20.6,8.2-35c0,.1,12.4-21.5,25.7-18.4m112.1-35s39.1,50.4,46.3,46.3,16.5-33.9,7.2-42.2-56.6-8.2-53.5-4.1"/><g class="cls-39"><path class="cls-40" d="M379.8,276.2c.9,11.5.9,32.5-10,41.9h0c2.3,1.7,4.3,2.7,5.6,2.7a3,3,0,0,0,1-.2c5-2.9,11.1-18.4,11.1-30.2,0-5.1-1.1-9.5-3.9-11.9-.1-.1-.3-.2-.4-.4h0a17.9,17.9,0,0,0-3.4-1.9"/></g><g class="cls-39"><path class="cls-40" d="M215.4,309h-.1a9.23,9.23,0,0,1-3.1,4.6,6.07,6.07,0,0,1-1,.7c11.4,6.6,27.4,19.9,31.4,43.8,2.8-1.1,4.7-2.2,5.4-3.6a5.44,5.44,0,0,0,.5-2.7c0-4.4-2.7-11.3-6.8-18.4-6.4-11.1-16.1-22.4-23.6-24.2a26.45,26.45,0,0,0-2.7-.2"/></g><path class="cls-21" d="M403.7,434.9a76.55,76.55,0,0,1-20.6,9.8,69.46,69.46,0,0,1-22.7,2.9,79.32,79.32,0,0,1-22.6-4.3l-2.7-.9-2.7-1.1-2.7-1.1c-.4-.2-.9-.4-1.3-.6l-1.3-.7-5.1-2.6-4.9-3c-2.2-1.3.2-4.8,2.2-3.5l4.7,3,4.9,2.7,1.2.7c.4.2.8.4,1.3.6l2.5,1.2,2.5,1.2,2.6,1a76.11,76.11,0,0,0,21.5,4.8,65.45,65.45,0,0,0,22-2.2,74.26,74.26,0,0,0,20.4-9C403.8,433.2,404.6,434.3,403.7,434.9Z"/><path class="cls-37" d="M179,465.6s-18.5-6.2-22.6-26.7,1-35,7.2-26.7S167.7,448.1,179,465.6Z"/><path class="cls-11" d="M290.4,568.5a100.19,100.19,0,0,0,5.1,19.6,9.31,9.31,0,0,0,5.8,5.5c5.7,1.9,16,4.3,19.6-1.5,2.3-3.6,2.5-10.3,4.3-20.4C309.9,574.4,298,571.6,290.4,568.5Z"/><g class="cls-41"><path class="cls-13" d="M307.8,582.7c2.9,4.9,3.5,10.8,2.7,16.3,0,.5-2,.1-1.9-.3a30.2,30.2,0,0,0,.7-7.9,19.94,19.94,0,0,0-2-7.7C307.2,582.9,307.7,582.6,307.8,582.7Z"/></g><g class="cls-41"><path class="cls-13" d="M316.1,582.8a42,42,0,0,1,.6,17.3c-.1.5-2,0-1.8-.4a42.68,42.68,0,0,0,.6-16.7C315.4,582.8,316,582.7,316.1,582.8Z"/></g><path class="cls-8" d="M289,501.6s-3.7,36.6,1.4,66.9c7.6,3.1,19.5,5.9,34.8,3.1,2.2-12.6,6.7-30.6,20.4-54.7Z"/><path class="cls-42" d="M331.5,545.3a184.86,184.86,0,0,1,12.2-28.6c.4-.8,3.4,1,2.9,1.7a181.66,181.66,0,0,0-14.1,27.4C332.5,546,331.5,545.7,331.5,545.3Z"/><path class="cls-42" d="M288.3,557.7a252.24,252.24,0,0,1-1.8-27.5q-.3-13.8.6-27.6c.1-1.5,3.6-1.2,3.4.3-1,9.1-1.5,18.2-1.8,27.3a250.69,250.69,0,0,0,.7,27.4C289.5,558.2,288.4,558.3,288.3,557.7Z"/><path class="cls-16" d="M246,570.5c-11.4-13.1-24.4-30.9-30.7-54a20.21,20.21,0,0,0-39.2,9.8,85.59,85.59,0,0,0,24.6,43c6.8,6.6,12.7,12,17.8,16.6A50.67,50.67,0,0,0,246,570.5Z"/><path class="cls-19" d="M246,570.5A51.49,51.49,0,0,1,218.4,586a271.68,271.68,0,0,0,22.2,18.2,10.64,10.64,0,0,0,7.1,1.9c6.7-.8,19.7-3.1,19.7-10C267.4,592,257.5,583.7,246,570.5Z"/><g class="cls-43"><path class="cls-21" d="M250.4,591.5a48.28,48.28,0,0,1,7.4,5.4,27.27,27.27,0,0,1,6.1,7.3c.3.5-3.6,2.1-3.7,1.7a25,25,0,0,0-4.3-7.1,60.48,60.48,0,0,0-6.2-6.2C249.5,592.6,250.2,591.5,250.4,591.5Z"/></g><g class="cls-43"><path class="cls-21" d="M256.6,588.5a48.28,48.28,0,0,1,7.4,5.4,27.27,27.27,0,0,1,6.1,7.3c.3.5-3.6,2.1-3.7,1.7a25,25,0,0,0-4.3-7.1,60.48,60.48,0,0,0-6.2-6.2C255.7,589.5,256.4,588.4,256.6,588.5Z"/></g><path class="cls-37" d="M194.4,481c-4.1,4.1-4.1,20.6,5.1,25.7s25.7-19.5,24.7-29.8S201.6,473.8,194.4,481Z"/><path class="cls-37" d="M194.4,515.9c-3.5,4.3,10.3,9.3,12.3,4.1S198.5,510.8,194.4,515.9Z"/><path class="cls-44" d="M453.9,376.2a134.12,134.12,0,0,0-5-54.5,136.65,136.65,0,0,0-26.3-48A144.45,144.45,0,0,0,380,239.4a151,151,0,0,0-156.7,9.3A142.58,142.58,0,0,0,185.2,288a133.82,133.82,0,0,0,6.3,154.8,142,142,0,0,0,40.9,36.3,147.91,147.91,0,0,0,51.4,18.7,150.12,150.12,0,0,0,54.7-.7,148.25,148.25,0,0,0,50.8-20.2,143.66,143.66,0,0,0,39.9-37.4,135.37,135.37,0,0,0,22.3-49.9c2-10-2.1-10.5-3.9-.9a130.72,130.72,0,0,1-21.7,48.4,140.24,140.24,0,0,1-38.8,36.4,145.36,145.36,0,0,1-49.5,19.6,148.61,148.61,0,0,1-53.2.6,144,144,0,0,1-50-18.2,140,140,0,0,1-39.8-35.3,133.66,133.66,0,0,1-23.2-47.8,128,128,0,0,1-2.1-53,130.43,130.43,0,0,1,19.2-49.5,137,137,0,0,1,37-38.1A146.7,146.7,0,0,1,274,229.9a148.69,148.69,0,0,1,103.9,12.9,139.48,139.48,0,0,1,41.4,33.4,131.87,131.87,0,0,1,25.5,46.6,127.45,127.45,0,0,1,4.8,52.8c-.7,7.8,3.3,8.6,4.3.6"/><g class="cls-45"><rect class="cls-46" x="222" y="252" width="57" height="44.6"/></g><path class="cls-47" d="M222,277c-3.6,6.1-4,11.6-1.2,15.6,2.2,3.1,6,4.8,11,4.8a23.46,23.46,0,0,0,6.2-.8L222,277"/><path class="cls-47" d="M266.8,249.6c-6,0-13.8,2.3-21.9,6.8l15.2,28.8c10.1-7.8,16.6-16.4,18.2-23.2l-2.9-10.1a14.84,14.84,0,0,0-8.6-2.3"/><path class="cls-46" d="M205.6,301.8a7.61,7.61,0,0,0-1.9,1.2c-3.5,2.8-4.4,7.4-2.1,10.3a4.71,4.71,0,0,0,1.5,1.3,29.72,29.72,0,0,1,3.5-2.7h0a16.91,16.91,0,0,1,7.9-2.9l-8.9-7.2"/><path class="cls-47" d="M209.2,301a9.37,9.37,0,0,0-3.6.8l8.8,7.2h.8a6.41,6.41,0,0,0-1-5.7,6.27,6.27,0,0,0-5-2.3"/><path class="cls-48" d="M206.6,311.9a29.72,29.72,0,0,0-3.5,2.7,6.3,6.3,0,0,0,3.6,1,8,8,0,0,0,4.4-1.3q-2.4-1.35-4.5-2.4"/><path class="cls-49" d="M215.3,309a16.11,16.11,0,0,0-8.6,2.9q2.1,1.05,4.5,2.4a3.59,3.59,0,0,0,1-.7,9.93,9.93,0,0,0,3.1-4.6"/><path class="cls-50" d="M283.8,169a46,46,0,0,0-4.9,7.5,53.66,53.66,0,0,0-3.4,8.3,58.73,58.73,0,0,0-2.5,17.7c.2,12,3.9,23.7,9.2,34.4.9,1.7-2.5,3.4-3.3,1.6-5.2-11.2-8.6-23.5-8.4-36a57.28,57.28,0,0,1,3.2-18.3,53.8,53.8,0,0,1,3.8-8.5,39.83,39.83,0,0,1,5.3-7.6A.67.67,0,0,1,283.8,169Z"/><path class="cls-51" d="M253,193.6a5.35,5.35,0,0,1,3-3.1,15.38,15.38,0,0,1,4.7-1.6,34.81,34.81,0,0,1,10.2-.4,36.91,36.91,0,0,1,9.9,2.5,16.42,16.42,0,0,1,4.2,2.6,6.55,6.55,0,0,1,1.5,1.8,4.49,4.49,0,0,1,.5,1.9,3.26,3.26,0,0,1-.8,1.8,9,9,0,0,1-1.8,1.5,18.34,18.34,0,0,1-4.6,1.8,31.73,31.73,0,0,1-10.2.6,38.24,38.24,0,0,1-10-2.3,18,18,0,0,1-4.3-2.5,5.55,5.55,0,0,1-2.4-3.6c0-.6-2.1-1.2-2.1.2a5.8,5.8,0,0,0,1.2,2.9,5.24,5.24,0,0,0,1,1.1c.4.3.7.7,1.1,1a19.42,19.42,0,0,0,4.8,2.8,35.62,35.62,0,0,0,10.6,2.5,36.37,36.37,0,0,0,10.9-.6,16.49,16.49,0,0,0,5.2-2,10.1,10.1,0,0,0,2.3-1.9,6.27,6.27,0,0,0,1.3-3,6.43,6.43,0,0,0-.7-3.1,5.38,5.38,0,0,0-.9-1.2,9.43,9.43,0,0,0-1-1,18.43,18.43,0,0,0-4.8-3,35.34,35.34,0,0,0-10.5-2.7,36.28,36.28,0,0,0-10.9.4,20.75,20.75,0,0,0-5.3,1.8,13.09,13.09,0,0,0-2.4,1.7,6.09,6.09,0,0,0-1.6,2.7C250.8,194.1,252.9,194.1,253,193.6Z"/><path class="cls-52" d="M292.5,159.7a14.15,14.15,0,0,1,.5,4.6,11.7,11.7,0,0,1-13.6,10.5,12.31,12.31,0,0,1-7.5-4,13.5,13.5,0,0,0,10.8,9.6,11.7,11.7,0,0,0,13.6-10.5A13.31,13.31,0,0,0,292.5,159.7Z"/><path class="cls-53" d="M292.9,164.3a10.23,10.23,0,0,0-.5-4.6,14.11,14.11,0,0,0-7.5-4,11.7,11.7,0,0,0-13.6,10.5,10.23,10.23,0,0,0,.5,4.6,14.11,14.11,0,0,0,7.5,4A11.63,11.63,0,0,0,292.9,164.3Z"/><path class="cls-54" d="M275.5,160.9c1.5-1.9,4-2.5,5.7-1.1s.5,2.9-.9,4.8-2.6,3.6-4.3,2.2A4.29,4.29,0,0,1,275.5,160.9Z"/><path class="cls-50" d="M283.8,169a46,46,0,0,0-4.9,7.5,53.66,53.66,0,0,0-3.4,8.3,58.73,58.73,0,0,0-2.5,17.7c.2,12,3.9,23.7,9.2,34.4.9,1.7-2.5,3.4-3.3,1.6-5.2-11.2-8.6-23.5-8.4-36a57.28,57.28,0,0,1,3.2-18.3,53.8,53.8,0,0,1,3.8-8.5,39.83,39.83,0,0,1,5.3-7.6A.67.67,0,0,1,283.8,169Z"/><path class="cls-51" d="M253,193.6a5.35,5.35,0,0,1,3-3.1,15.38,15.38,0,0,1,4.7-1.6,34.81,34.81,0,0,1,10.2-.4,36.91,36.91,0,0,1,9.9,2.5,16.42,16.42,0,0,1,4.2,2.6,6.55,6.55,0,0,1,1.5,1.8,4.49,4.49,0,0,1,.5,1.9,3.26,3.26,0,0,1-.8,1.8,9,9,0,0,1-1.8,1.5,18.34,18.34,0,0,1-4.6,1.8,31.73,31.73,0,0,1-10.2.6,38.24,38.24,0,0,1-10-2.3,18,18,0,0,1-4.3-2.5,5.55,5.55,0,0,1-2.4-3.6c0-.6-2.1-1.2-2.1.2a5.8,5.8,0,0,0,1.2,2.9,5.24,5.24,0,0,0,1,1.1c.4.3.7.7,1.1,1a19.42,19.42,0,0,0,4.8,2.8,35.62,35.62,0,0,0,10.6,2.5,36.37,36.37,0,0,0,10.9-.6,16.49,16.49,0,0,0,5.2-2,10.1,10.1,0,0,0,2.3-1.9,6.27,6.27,0,0,0,1.3-3,6.43,6.43,0,0,0-.7-3.1,5.38,5.38,0,0,0-.9-1.2,9.43,9.43,0,0,0-1-1,18.43,18.43,0,0,0-4.8-3,35.34,35.34,0,0,0-10.5-2.7,36.28,36.28,0,0,0-10.9.4,20.75,20.75,0,0,0-5.3,1.8,13.09,13.09,0,0,0-2.4,1.7,6.09,6.09,0,0,0-1.6,2.7C250.8,194.1,252.9,194.1,253,193.6Z"/><path class="cls-51" d="M255,221.6a5,5,0,0,1,1-2.4,7.61,7.61,0,0,1,2-2,18.57,18.57,0,0,1,5.2-2.8,39.52,39.52,0,0,1,23.9-.5,20.1,20.1,0,0,1,5.3,2.6,9.48,9.48,0,0,1,2,2,4.31,4.31,0,0,1,.8,2.4,5.56,5.56,0,0,1-2.4,4.5,15.06,15.06,0,0,1-5.1,2.9,39.59,39.59,0,0,1-23.9,1.1,20.22,20.22,0,0,1-5.4-2.4c-1.6-1.1-3-2.5-3.3-4.2-.1-.8-2.2-1-2,.4a6.93,6.93,0,0,0,1.6,3.2,6.81,6.81,0,0,0,1.2,1.2,11.32,11.32,0,0,0,1.3,1,23,23,0,0,0,6,2.7,38.76,38.76,0,0,0,12.7,1.4,38.1,38.1,0,0,0,12.5-2.5,19.26,19.26,0,0,0,5.7-3.3,9.22,9.22,0,0,0,2.2-2.6,7,7,0,0,0,.9-3.5,7.69,7.69,0,0,0-1.2-3.4,10.92,10.92,0,0,0-2.4-2.4,21.6,21.6,0,0,0-5.9-2.9,39,39,0,0,0-12.7-1.7,41.72,41.72,0,0,0-12.6,2.2,20.39,20.39,0,0,0-5.8,3.1,13.63,13.63,0,0,0-2.4,2.4,6.4,6.4,0,0,0-1.3,3.3C252.9,222.5,255,222.2,255,221.6Z"/><path class="cls-52" d="M292.5,159.7a14.15,14.15,0,0,1,.5,4.6,11.7,11.7,0,0,1-13.6,10.5,12.31,12.31,0,0,1-7.5-4,13.5,13.5,0,0,0,10.8,9.6,11.7,11.7,0,0,0,13.6-10.5A13.31,13.31,0,0,0,292.5,159.7Z"/><path class="cls-53" d="M292.9,164.3a10.23,10.23,0,0,0-.5-4.6,14.11,14.11,0,0,0-7.5-4,11.7,11.7,0,0,0-13.6,10.5,10.23,10.23,0,0,0,.5,4.6,14.11,14.11,0,0,0,7.5,4A11.63,11.63,0,0,0,292.9,164.3Z"/><path class="cls-54" d="M275.5,160.9c1.5-1.9,4-2.5,5.7-1.1s.5,2.9-.9,4.8-2.6,3.6-4.3,2.2A4.29,4.29,0,0,1,275.5,160.9Z"/></g></g></svg>