<svg xmlns="http://www.w3.org/2000/svg" xmlns:xlink="http://www.w3.org/1999/xlink" viewBox="0 0 131.5 211"><defs><style>.cls-1{fill:none;}.cls-2{fill:#bd9797;}.cls-3{clip-path:url(#clip-path);}.cls-4{fill:#a88489;}.cls-5{fill:#e8f8ff;}.cls-6{fill:#4f7018;}.cls-7{fill:#e0f4ff;}.cls-8{fill:#754835;}.cls-9{clip-path:url(#clip-path-2);}.cls-10{fill:#683f30;}.cls-11{fill:#e8e8eb;}.cls-12{clip-path:url(#clip-path-3);}.cls-13{fill:#f0f0f0;}.cls-14{fill:#bbb;}.cls-15{fill:#d5d2da;}.cls-16{fill:#828b4c;}.cls-17{clip-path:url(#clip-path-12);}.cls-18{fill:#747a45;}.cls-19{fill:#6f7841;}.cls-20{clip-path:url(#clip-path-13);}.cls-21{fill:#63693b;}.cls-22{fill:#b5d602;}.cls-23{clip-path:url(#clip-path-14);}.cls-24{fill:#b30000;}.cls-25{fill:#fff;}.cls-26{fill:#a1bb02;}.cls-27{fill:#9f0000;}.cls-28{fill:#e3dfe8;}.cls-29{clip-path:url(#clip-path-19);}.cls-30{fill:#676b3f;}.cls-31{fill:#552c2b;}.cls-32{clip-path:url(#clip-path-20);}.cls-33{clip-path:url(#clip-path-21);}.cls-34{clip-path:url(#clip-path-22);}.cls-35{fill:#231f20;}.cls-36{clip-path:url(#clip-path-23);}.cls-37{fill:#f3f3f3;}.cls-38{fill:#d8d5dd;}.cls-39{fill:#1d0201;}.cls-40{fill:#181819;}.cls-41{fill:#fcfcfc;}.cls-42{fill:#a4d6ff;}.cls-43{clip-path:url(#clip-path-26);}.cls-44{fill:#140a1a;}.cls-45{fill:#541d26;}.cls-46{fill:#77861d;}.cls-47{fill:#cdcdcd;}.cls-48{clip-path:url(#clip-path-27);}.cls-49{clip-path:url(#clip-path-28);}.cls-50{clip-path:url(#clip-path-31);}.cls-51{fill:#b6b3ba;}.cls-52{fill:#53583c;}.cls-53{clip-path:url(#clip-path-32);}.cls-54{clip-path:url(#clip-path-33);}.cls-55{fill:#f8f8f8;}.cls-56{fill:#dcd9e1;}.cls-57{fill:#aeaeae;}.cls-58{clip-path:url(#clip-path-36);}.cls-59{fill:#a4a4a4;}.cls-60{fill:#cacaca;}.cls-61{clip-path:url(#clip-path-37);}.cls-62{clip-path:url(#clip-path-38);}.cls-63{fill:#fcfeff;}.cls-64{fill:#eeefec;}.cls-65{fill:#f1edeb;}.cls-66{fill:#f0eceb;}.cls-67{fill:#e9e6e6;}</style><clipPath id="clip-path"><path class="cls-1" d="M77.6,139.3h-.5l.2-8c.1,0,14,.3,23.1-8.8l5.7,5.71c-10.6,10.5-25.5,11.09-28.5,11.09"/></clipPath><clipPath id="clip-path-2"><path class="cls-1" d="M45.1,166.91s-8.9.4-15.3-12.5c0,0-1.5,17.9,16.9,18.7s-1.6-6.2-1.6-6.2"/></clipPath><clipPath id="clip-path-3"><path class="cls-1" d="M87.3,167.6c1.6,6.4-4.7,17.2-5.2,22.4s7,8.41,6.1,10.3-10,1.1-13.6,1-2.9-3.5-2.7-9.59.1-11.8.1-11.8h0a70.37,70.37,0,0,1-14.4.3,55.63,55.63,0,0,0-.9,11.5c.3,6.09,1,9.5-2.7,9.59s-12.7,1-13.6-1,6.3-4.8,6.8-10c1.2-11.7,3.2-26.7,4.8-33.09L87.3,167.6"/></clipPath><clipPath id="clip-path-12"><path class="cls-1" d="M48.4,163l-2.9,2.21s-3,.09-2.4,4.2c0,0,3.2,6.09,22.6,5.4s25.9-8.6,25.9-8.6a4.86,4.86,0,0,0-1.9-3.9c-2-1.4-21.8-3.2-21.8-3.2l-11.8,3.7-7.7.19"/></clipPath><clipPath id="clip-path-13"><path class="cls-1" d="M85.1,144a3.31,3.31,0,0,0,3.5-3.09c.6-3.41-4-14.91-4.5-15.1s-7.2,2.3-7.2,2.3l-1.4,3.1,1.7,5.4L85.1,144"/></clipPath><clipPath id="clip-path-14"><path class="cls-1" d="M45.5,165.21s4.3,5,19,4.7a51.78,51.78,0,0,0,25.3-7.6s-4.2-25.4-9.4-35.1-19.2.7-19.2.7l-8.8-.5-2.9,3.9L46,145.21l-.5,20"/></clipPath><clipPath id="clip-path-19"><path class="cls-1" d="M50,125.3a3.44,3.44,0,0,0,2.8,3.8c5.6,1,17.9,2.4,29.9-.8a3.47,3.47,0,0,0,2.3-4.7l-.1-.3a3.44,3.44,0,0,0-3.3-2.09l-28.2,1A3.53,3.53,0,0,0,50,125.3"/></clipPath><clipPath id="clip-path-20"><path class="cls-1" d="M58.9,137.21c0,6-3.3,10.79-7.3,10.79-10.3,0-6.4-4.79-6.4-10.79s2.8-10.5,6.9-10.5,6.8,4.59,6.8,10.5"/></clipPath><clipPath id="clip-path-21"><path class="cls-1" d="M55.9,137.21c0,6-3.3,10.79-7.3,10.79s-3.8-4.29-3.8-10.29,1-9,5-9,6.1,2.59,6.1,8.5"/></clipPath><clipPath id="clip-path-22"><path class="cls-1" d="M51.4,53.71s-.8-13.8-9.3-16.61S16,31.9,13.6,36.4,25.5,49.1,37.2,50.2l-.1-.5a17.63,17.63,0,0,1,4.1,6.6l10.2-2.59"/></clipPath><clipPath id="clip-path-23"><path class="cls-1" d="M104.3,97.71c9-20.71,8.9-30.3,9.5-34.9.9-8.1-9.5-15.8-12-6-1,4-3,2-3.6,0-.5-1.8.1-3.5,3.4-1.21h0a12,12,0,0,1-.8,3.4h-.1A177.36,177.36,0,0,0,80,52.1c-12.2-3.29-15.9-8.6-15.9-8.6,2,3.21,1.6,7.9,1.6,7.9a16.91,16.91,0,0,0-15.2-1.7c5.7.8,7.4,3,7.4,3-17-2-19.8.4-25.1,20.3a88.42,88.42,0,0,0-3,16.8c-2.2-1.4-7.7-4.4-9.9-2.5C17,89.71,26.1,93,26.1,93s-7.7,1.8-6.8,4.6c.7,2,7,1.2,10.6.5,1.4,15.1,10.8,27.3,39.2,27.7,13.2.2,22.6-7,29.3-17.09,2.5,1.7,7.5,4.7,10.1,3,3.4-2.3-5.8-7.71-5.8-7.71s7.9.5,8.9-3.59c.7-2.61-3.9-2.81-7.3-2.7"/></clipPath><clipPath id="clip-path-26"><path class="cls-1" d="M70,99.8a2.78,2.78,0,0,1-2.1-2.59c-.2-5.71.6-21.5,13.9-22.61,16.3-1.39,14.6,20.81,6.5,24.7-6.1,2.91-14.6,1.41-18.3.5M44.4,95.71a2.8,2.8,0,0,0,3.1-2.41c.6-5.5,1.5-17.9-3.1-19.3-5.9-1.9-12.3,12.6-11.2,16.41.8,3,6.9,4.69,11.2,5.3"/></clipPath><clipPath id="clip-path-27"><path class="cls-1" d="M92.4,31.5a81.35,81.35,0,0,0-15.1-3.2C41.6,23.8,37.8,58.8,37.8,58.8a99,99,0,0,1,64,4.9c1.7-8,2.7-22.9-9.4-32.2"/></clipPath><clipPath id="clip-path-28"><polyline class="cls-1" points="54.2 51.3 54.3 36.91 67.5 35.01 67.5 49.41 54.2 51.3"/></clipPath><clipPath id="clip-path-31"><path class="cls-1" d="M69.7,27.9c-16.4.6-24.4,10.5-28.4,18.9a43.25,43.25,0,0,0-2.1,5.5,37.81,37.81,0,0,0-1.5,6.5c2.9-.8,5.8-1.4,8.6-1.9.6-3.4,1.4-7.2,2.4-11.1,2.8-11.4,13.9-16,21-17.9"/></clipPath><clipPath id="clip-path-32"><path class="cls-1" d="M99.4,40.9S77.1,23,82.2,16.7s29.5,8.4,30.7,16.3c1,6.2-1.7,22-6.8,22.2s-11.7-3-9.9-7.7a34.28,34.28,0,0,1,3.2-6.6"/></clipPath><clipPath id="clip-path-33"><path class="cls-1" d="M48.9,146.21c2.7,0,4.9-3.71,4.9-8.21,0-2.9-.1-3.5-1-5.29a4,4,0,0,0-5.7-1.1c-5.6,4.5-11.3,13.3-11.6,16.8-.4,4.3,10.2,11.09,10.2,11.09s-3.2,0-4.1,2.41,4.8,2.7,7.2,0,4-9.81.1-15.7"/></clipPath><clipPath id="clip-path-36"><path class="cls-1" d="M109.8,97.8l-4.5-.5a9.94,9.94,0,0,0-8,9c-1,7.91,5,11,5,11l-4,19a5.1,5.1,0,0,0,4.8,5.41c5.2.7,6.2-25.41,6.2-25.41l-4-8,4.5-10.5"/></clipPath><clipPath id="clip-path-37"><path class="cls-1" d="M99.3,121.3c-.6,1.3-2,4-1,5s6,0,7-3-4-6-6-2"/></clipPath><clipPath id="clip-path-38"><path class="cls-1" d="M104.3,124.3c-2.8,2.3-4.3,6.2-2.6,8.5,2.6,3.5,11.6.5,11.6-5.5s-4.6-6.59-9-3"/></clipPath></defs><g id="Layer_2" data-name="Layer 2"><g id="Layer_1-2" data-name="Layer 1"><path class="cls-2" d="M77.6,139.3h-.5l.2-8c.1,0,14,.3,23.1-8.8l5.7,5.71c-10.6,10.5-25.5,11.09-28.5,11.09"/><g class="cls-3"><path class="cls-4" d="M88,129.71a12.09,12.09,0,0,1-1.8.5,44.75,44.75,0,0,1,2.3,7.7,38.47,38.47,0,0,0,10.4-4.2l.5-2.5a21.42,21.42,0,0,1-6.6,1.7,3.08,3.08,0,0,1-1-.1,9.2,9.2,0,0,1-3.8-3.1"/></g><path class="cls-5" d="M65.8,2.1H64.6A63.25,63.25,0,0,0,40.7,7.21,65,65,0,0,0,20.5,21,62.08,62.08,0,0,0,7,41.4a63.65,63.65,0,0,0-.2,48l.6,1.5a64.48,64.48,0,0,0,23.1,11.2,27,27,0,0,1-.6-4.1,47,47,0,0,1-6.8.8c-1.9,0-3.5-.3-3.8-1.3-.9-2.8,6.8-4.6,6.8-4.6s-9.1-3.3-6.2-5.7a3.17,3.17,0,0,1,2-.6c2.6,0,6.3,2,8,3.1a93.22,93.22,0,0,1,2.7-15.5c-3.7-2.7-8-6.9-6.2-11.1,1.4-3.2,6.4-4.3,11.5-4.6a43.47,43.47,0,0,1,1.5-6.4,29.62,29.62,0,0,0-2.1-2.6l.1.5h0c-10.8-1-23.9-8.1-23.9-12.7a2.28,2.28,0,0,1,.3-1.1,4.32,4.32,0,0,1,2.7-1.8h0a21,21,0,0,1,6-.7,71.37,71.37,0,0,1,19.8,3.2,9.31,9.31,0,0,1,3.7,2.3c4.7-6,12.2-11.1,23.8-11.5h1.4a43.54,43.54,0,0,1,6.1.4,99.42,99.42,0,0,1,10.8,2c-3.6-3.9-6.6-8.2-6.6-11.3a3.24,3.24,0,0,1,.8-2.3,4.79,4.79,0,0,1,3-1.5h0c.3,0,.6-.1,1-.1,6.8,0,18.7,6.9,24.1,13.1a62.24,62.24,0,0,0-2.8-10.7A62.46,62.46,0,0,0,88.9,6.11a70.35,70.35,0,0,0-23.1-4"/><path class="cls-6" d="M37.3,77.3s-14-7-11-14,24-4,24-4l-13,18"/><path class="cls-7" d="M97.4,110.21A38.17,38.17,0,0,1,84.2,122.3a6.07,6.07,0,0,1,.7,1l.1.3a3.08,3.08,0,0,1,.3,1.3,2.93,2.93,0,0,1-.4,1.6c1.1-.3,2.1-.7,3.2-1.1a60.48,60.48,0,0,0,14-7.4l.2-.8a9.52,9.52,0,0,1-4.9-7M7.3,91A63.92,63.92,0,0,0,20,110a62.42,62.42,0,0,0,20.1,14,53.63,53.63,0,0,0,9.6,3.3,6.35,6.35,0,0,1,.7-.3,5.21,5.21,0,0,1-.3-1.79,3.38,3.38,0,0,1,.9-1.91c-12.7-3.8-18.5-11.7-20.5-21.09A64.16,64.16,0,0,1,7.3,91M117.6,63a3.49,3.49,0,0,1-3.2-3.1c-.4-2,.6-3.9,2.3-4.2h.5a3.5,3.5,0,0,1,3.2,3.1c.4,2-.6,3.9-2.3,4.2h-.5M107.4,17.6a62.11,62.11,0,0,1,2.8,10.71,9.69,9.69,0,0,1,2.6,4.7c0,.2.1.4.1.6s.1.2.2.3c3.1,5.3,2.8,11.4-.7,14.3a29,29,0,0,1,1.3,13v1.5c-.5,4.6-.5,14.1-9.4,34.7a2.68,2.68,0,0,1,.9-.2l4.5.5h0l-.1.29c1.2.3,2,.91,2,1.91a.9.9,0,0,1-.1.5,4.57,4.57,0,0,1-2.8,2.8l-.9,4.79a7,7,0,0,1,1.3,2,4.52,4.52,0,0,0,1.7.71c1.4-1.41,2.7-2.8,4-4.3l1-7.7a11.29,11.29,0,0,1,2.9,2.4,52.14,52.14,0,0,0,4.7-8.3,64.75,64.75,0,0,0,6-23.7c.1-2.3.6-3.4,1.1-3.4h0c-.5,0-1-.9-1.1-2.7a63.42,63.42,0,0,0-5.7-23.8,62.76,62.76,0,0,0-14.3-19.9c-.6-.51-1.3-1.1-2-1.71"/><path class="cls-8" d="M45.1,166.91s-8.9.4-15.3-12.5c0,0-1.5,17.9,16.9,18.7s-1.6-6.2-1.6-6.2"/><g class="cls-9"><path class="cls-10" d="M29.8,156.21c.2,4.5,2.1,16.29,16.9,16.9.9,0,1.7.1,2.4.1h.2c-3.7-1.21-5.3-2.71-5.9-3.41a18.6,18.6,0,0,1-13.6-13.59"/></g><path class="cls-11" d="M25.8,200.8c0,3.91,16.9,7,37.8,7s37.8-3.09,37.8-7-16.9-7-37.8-7-37.8,3.11-37.8,7"/><path class="cls-2" d="M87.3,167.6c1.6,6.4-4.7,17.2-5.2,22.4s7,8.41,6.1,10.3-10,1.1-13.6,1-2.9-3.5-2.7-9.59.1-11.8.1-11.8h0a70.37,70.37,0,0,1-14.4.3,55.63,55.63,0,0,0-.9,11.5c.3,6.09,1,9.5-2.7,9.59s-12.7,1-13.6-1,6.3-4.8,6.8-10c1.2-11.7,3.2-26.7,4.8-33.09L87.3,167.6"/><g class="cls-12"><path class="cls-13" d="M45.1,189.6s4.2,3.2,13.8.6,10,1,10,1,10,2.4,17.1-1.9S97.1,211,97.1,211s-37.3-3-38.2-3-19.8.4-19.8.4L35,197.2l10.1-7.6"/></g><g class="cls-12"><path class="cls-14" d="M79.3,196.8a4.36,4.36,0,0,1,1.7,2.5,6.1,6.1,0,0,1,.1,3c0,.2-.9,0-.9-.2a8.22,8.22,0,0,0,.2-2.7,4.37,4.37,0,0,0-1.3-2.4Z"/></g><g class="cls-12"><path class="cls-14" d="M83,196.8a4.36,4.36,0,0,1,1.7,2.5,6.1,6.1,0,0,1,.1,3c0,.2-.9,0-.9-.2a8.22,8.22,0,0,0,.2-2.7,4.37,4.37,0,0,0-1.3-2.4Z"/></g><g class="cls-12"><path class="cls-14" d="M49.5,197.1a4.46,4.46,0,0,0-1.3,2.3,5,5,0,0,0,.2,2.7c0,.1-.9.4-.9.2a6.1,6.1,0,0,1,.1-3,4.89,4.89,0,0,1,1.7-2.5Z"/></g><g class="cls-12"><path class="cls-14" d="M45.8,197.1a4.46,4.46,0,0,0-1.3,2.3,5,5,0,0,0,.2,2.7c0,.1-.9.4-.9.2a6.1,6.1,0,0,1,.1-3,4.89,4.89,0,0,1,1.7-2.5Z"/></g><g class="cls-12"><path class="cls-4" d="M54.6,178.71s.1,5.29,0,12.29c.7-.09,1.3-.2,2.1-.29v-1a52.22,52.22,0,0,1,.9-9.6h0l-3-1.4"/></g><g class="cls-12"><path class="cls-15" d="M56.7,190.71h0l-2.1.29v2.71c-.1,4.2-1.1,6.4-2,7.59a7.34,7.34,0,0,0,1.5-.09c2.4-.1,2.9-1.6,2.9-4.3,0-.91-.1-1.91-.1-3.1,0-.7-.1-1.5-.1-2.3a2,2,0,0,1-.1-.8"/></g><g class="cls-12"><path class="cls-4" d="M87.6,169.41c-3.9,2.3-10.8,5-21.8,5.4-1.1,0-2.1.1-3,.1-6.2,0-10.5-.7-13.4-1.7a10.9,10.9,0,0,0-.2,1.79,67.36,67.36,0,0,0,14.3,1.6,65.53,65.53,0,0,0,8.6-.6,45.86,45.86,0,0,0,15.5-4.59c0-.5.1-1,.1-1.41a1.71,1.71,0,0,1-.1-.59"/></g><g class="cls-12"><path class="cls-4" d="M78,178.3l-6,1.5s.1,1.91.1,4.7c1.9-1.09,5.4-3.5,5.9-6.2"/></g><path class="cls-16" d="M48.4,163l-2.9,2.21s-3,.09-2.4,4.2c0,0,3.2,6.09,22.6,5.4s25.9-8.6,25.9-8.6a4.86,4.86,0,0,0-1.9-3.9c-2-1.4-21.8-3.2-21.8-3.2l-11.8,3.7-7.7.19"/><g class="cls-17"><path class="cls-18" d="M89.8,162.3a43.42,43.42,0,0,1-8.5,4.2,11.55,11.55,0,0,1,1.7,5.1c6.3-2.4,8.7-5.4,8.7-5.4h0a4.68,4.68,0,0,0-1.9-3.9h0"/></g><path class="cls-19" d="M85.1,144a3.31,3.31,0,0,0,3.5-3.09c.6-3.41-4-14.91-4.5-15.1s-7.2,2.3-7.2,2.3l-1.4,3.1,1.7,5.4L85.1,144"/><g class="cls-20"><path class="cls-21" d="M85.5,128.5c-1.3.41-2.6.8-3.9,1.1A101.36,101.36,0,0,1,86,143.9a3.5,3.5,0,0,0,2.7-3c0-.2.1-.5.1-.7a11.15,11.15,0,0,0-.3-2.3,60.74,60.74,0,0,0-2.3-7.7c-.3-.6-.5-1.2-.7-1.7"/></g><path class="cls-22" d="M45.5,165.21s4.3,5,19,4.7a51.78,51.78,0,0,0,25.3-7.6s-4.2-25.4-9.4-35.1-19.2.7-19.2.7l-8.8-.5-2.9,3.9L46,145.21l-.5,20"/><g class="cls-23"><path class="cls-24" d="M70.9,134.6l8.7-2a1.24,1.24,0,0,1,1.4.9l2,8.71a1.25,1.25,0,0,1-.9,1.4l-8.7,2a1.24,1.24,0,0,1-1.4-.9L70,136a1.19,1.19,0,0,1,.9-1.4"/></g><g class="cls-23"><path class="cls-25" d="M72.8,136l.1.5.7-.2,1.6,7.1.7-.2-1.6-7.1.9-.2,1.6,7.1.7-.2-.4-1.6.4-.1a2.75,2.75,0,0,0,1.5-.8,2.22,2.22,0,0,0,.8-1.3,4.84,4.84,0,0,0,0-1.7,3.25,3.25,0,0,0-1.3-2,3.75,3.75,0,0,0-2.6-.2l-.9.2-2.2.7m3.1-.29.6-.1a2,2,0,0,1,1.7.3,2.7,2.7,0,0,1,1,1.7,3.44,3.44,0,0,1,.1,1.4,2.22,2.22,0,0,1-.5,1.1,1.19,1.19,0,0,1-.9.5l-.7.2-1.3-5.1"/></g><g class="cls-23"><path class="cls-26" d="M81.6,129.6a55.52,55.52,0,0,1-7.1,1.3l.5,2.7,4.7-1.1H80a1.18,1.18,0,0,1,1.1.91l2,8.7a1.24,1.24,0,0,1-.9,1.4l-5.1,1.2,4.2,21.7h0a43.42,43.42,0,0,0,8.5-4.2s-3.6-21.71-8.2-32.61"/></g><g class="cls-23"><path class="cls-27" d="M77,135.6a1.27,1.27,0,0,0-.6.1l-.6.1,1.2,5.1.7-.2a1.93,1.93,0,0,0,.9-.5,1.88,1.88,0,0,0,.5-1.1,3.44,3.44,0,0,0-.1-1.4,2.7,2.7,0,0,0-1-1.7,1.19,1.19,0,0,0-1-.4m2.9-3.1h-.3l-4.7,1.1.3,1.8.6-.1a5,5,0,0,1,1.1-.09,3.65,3.65,0,0,1,1.5.29,2.69,2.69,0,0,1,1.3,2,4.9,4.9,0,0,1,0,1.71,2.17,2.17,0,0,1-.8,1.29,3.5,3.5,0,0,1-1.5.8l-.4.1.4,1.6h-.6l-.2-.79.5,2.5,5.1-1.21a1.22,1.22,0,0,0,.9-1.4l-2-8.7a1.31,1.31,0,0,0-1.2-.9"/></g><g class="cls-23"><path class="cls-28" d="M77,140.8l-1.2-5.09.6-.1c.2,0,.4-.1.6-.1a1.5,1.5,0,0,1,1.1.4,2.7,2.7,0,0,1,1,1.7,3.44,3.44,0,0,1,.1,1.4,2.22,2.22,0,0,1-.5,1.1,1.19,1.19,0,0,1-.9.5l-.8.19m.1-5.7a4.48,4.48,0,0,0-1.1.1l-.6.1,1.3,6.8.2.8.7-.2-.4-1.6.4-.1a2.75,2.75,0,0,0,1.5-.8,2.22,2.22,0,0,0,.8-1.3,4.84,4.84,0,0,0,0-1.7,3.22,3.22,0,0,0-1.3-2c-.5,0-1-.1-1.5-.1"/></g><path class="cls-16" d="M50,125.3a3.44,3.44,0,0,0,2.8,3.8c5.6,1,17.9,2.4,29.9-.8a3.47,3.47,0,0,0,2.3-4.7l-.1-.3a3.44,3.44,0,0,0-3.3-2.09l-28.2,1A3.53,3.53,0,0,0,50,125.3"/><g class="cls-29"><path class="cls-30" d="M84.2,122.3a28.86,28.86,0,0,1-10.8,3.3l.6,3.3a65,65,0,0,0,10.8-2.4,2.93,2.93,0,0,0,.4-1.6,3.08,3.08,0,0,0-.3-1.3l-.1-.3a2.12,2.12,0,0,0-.6-1"/></g><path class="cls-31" d="M72.1,179.71a26.1,26.1,0,0,0,7.3-2.41c.2-.09.6.7.4.8a25.71,25.71,0,0,1-7.6,1.9Z"/><path class="cls-19" d="M58.9,137.21c0,6-3.3,10.79-7.3,10.79-10.3,0-6.4-4.79-6.4-10.79s2.8-10.5,6.9-10.5,6.8,4.59,6.8,10.5"/><g class="cls-32"><path class="cls-21" d="M58.8,135a6.56,6.56,0,0,1-2.5.41h-.5c0,.5.1,1.09.1,1.8h0c0,5.29-2.6,9.7-6,10.59a.1.1,0,0,0,.1.1c.5,0,1.1.1,1.7.1,4,0,7.3-4.8,7.3-10.8-.1-.7-.1-1.49-.2-2.2"/></g><path class="cls-16" d="M55.9,137.21c0,6-3.3,10.79-7.3,10.79s-3.8-4.29-3.8-10.29,1-9,5-9,6.1,2.59,6.1,8.5"/><g class="cls-33"><path class="cls-18" d="M53.7,135.21a21,21,0,0,1,.1,2.79c0,4.5-2.2,8.21-4.9,8.21a13.48,13.48,0,0,1,1,1.7c3.4-.91,6-5.3,6-10.6a10.87,10.87,0,0,0-.1-1.8c-.8-.1-1.6-.21-2.1-.3"/></g><path class="cls-8" d="M51.4,53.71s-.8-13.8-9.3-16.61S16,31.9,13.6,36.4,25.5,49.1,37.2,50.2l-.1-.5a17.63,17.63,0,0,1,4.1,6.6l10.2-2.59"/><g class="cls-34"><path class="cls-10" d="M16.4,34.6a4.32,4.32,0,0,0-2.7,1.8,2,2,0,0,0-.3,1.1c0,4.6,13.1,11.71,23.9,12.71l-.1-.5h0a28.2,28.2,0,0,1,2.1,2.6,42.68,42.68,0,0,1,2.1-5.5c-4.1-4.4-12.3-6.3-17.6-7a9.47,9.47,0,0,1-7.4-5.21"/></g><path class="cls-35" d="M105.5,57.71a6.44,6.44,0,0,1-1-.71c-.6-.5-1.5-1-2.6-1.79l-.5.79c2.2,1.6,3.7,2.5,3.7,2.5l.4-.79h0"/><path class="cls-35" d="M99,64.1a24.69,24.69,0,0,0,2.3-4.89l-.9-.3a19.52,19.52,0,0,1-1.4,3.4,9.25,9.25,0,0,0-.5,1c-.1.1-.1.2-.2.2l-.1.1.8.49Z"/><path class="cls-2" d="M104.3,97.71c9-20.71,8.9-30.3,9.5-34.9.9-8.1-9.5-15.8-12-6-1,4-3,2-3.6,0-.5-1.8.1-3.5,3.4-1.21h0a12,12,0,0,1-.8,3.4h-.1A177.36,177.36,0,0,0,80,52.1c-12.2-3.29-15.9-8.6-15.9-8.6,2,3.21,1.6,7.9,1.6,7.9a16.91,16.91,0,0,0-15.2-1.7c5.7.8,7.4,3,7.4,3-17-2-19.8.4-25.1,20.3a88.42,88.42,0,0,0-3,16.8c-2.2-1.4-7.7-4.4-9.9-2.5C17,89.71,26.1,93,26.1,93s-7.7,1.8-6.8,4.6c.7,2,7,1.2,10.6.5,1.4,15.1,10.8,27.3,39.2,27.7,13.2.2,22.6-7,29.3-17.09,2.5,1.7,7.5,4.7,10.1,3,3.4-2.3-5.8-7.71-5.8-7.71s7.9.5,8.9-3.59c.7-2.61-3.9-2.81-7.3-2.7"/><g class="cls-36"><path class="cls-37" d="M45.1,94.1S38.3,60.4,61,62.2c21.1,1.6,11.6,37.1,11.6,37.1s20.4-5,25.9,9.5c3.5,9.41-7.1,13.91-14.6,19.5s-34.3-2.59-44.5-8.59c-16.1-9.61-12.6-32.3,5.7-25.61"/></g><g class="cls-36"><path class="cls-4" d="M107.9,108.1l-.1.7a5.85,5.85,0,0,0,1.4,1.3,5.78,5.78,0,0,0-1.3-2m1.8-10-.9,5.2a4.14,4.14,0,0,0,2.8-2.8c0-.2.1-.29.1-.5,0-1-.8-1.5-2-1.9M111.8,73a93.63,93.63,0,0,1-9.3,25.3,14.42,14.42,0,0,1,1.9-.8c4.6-10.59,6.8-18.2,7.9-23.79l-.5-.71"/></g><g class="cls-36"><path class="cls-38" d="M97.3,106.41c-6.1,8.09-14.5,15-25.9,16.8a95.9,95.9,0,0,1-14.6,1.2H55a72.58,72.58,0,0,0,14.1,1.5h.6c12.2,0,21.2-6.41,27.7-15.6a12.61,12.61,0,0,1-.1-3.9"/></g><path class="cls-14" d="M53.4,110l.7-7.59c0-.2.9-.1.9.09L53.7,110Z"/><path class="cls-39" d="M37,49.8a33.92,33.92,0,0,0-4.2-3.3c-.1-.1.4-.79.5-.7a28,28,0,0,1,3.9,3.8Z"/><path class="cls-40" d="M63.8,102.8c-.4,2.6-5.1,3.5-9.7,2.8s-8-3.4-7.5-6,4.5-4,9-3.3S64.2,100.21,63.8,102.8Z"/><path class="cls-41" d="M55.2,98.71c0,.9-1.4,1-3.2,1.09s-3.1.1-3.1-.8,1.4-1.59,3.1-1.7S55.2,97.8,55.2,98.71Z"/><path class="cls-42" d="M131.5,63a67.24,67.24,0,0,0-5.9-24.6,66.48,66.48,0,0,0-14.7-20.5A67.48,67.48,0,0,0,89.5,4.4,66.07,66.07,0,0,0,64.6,0,63.69,63.69,0,0,0,39.9,5.3,65.52,65.52,0,0,0,0,65.3,65.47,65.47,0,0,0,4.7,90.1a67.79,67.79,0,0,0,13.7,21.2,65.62,65.62,0,0,0,45.3,20.1,63.93,63.93,0,0,0,24.9-4.1,67.1,67.1,0,0,0,21.5-13.2,65.78,65.78,0,0,0,15-20.4,67.1,67.1,0,0,0,6.2-24.5c.1-4.7-1.9-4.6-2-.1a62.83,62.83,0,0,1-6,23.7,64.11,64.11,0,0,1-14.5,19.7A62.29,62.29,0,0,1,88,125.3a63.78,63.78,0,0,1-68.1-15.4A63,63,0,0,1,6.6,89.4a63.63,63.63,0,0,1,.2-48A63.63,63.63,0,0,1,40.5,7.2,63.24,63.24,0,0,1,64.4,2.1,64.12,64.12,0,0,1,88.5,6.3a63.29,63.29,0,0,1,20.7,13.1,62.76,62.76,0,0,1,14.3,19.9,63.42,63.42,0,0,1,5.7,23.8c.3,3.5,2.4,3.61,2.3-.1"/><path class="cls-25" d="M70,99.8a2.78,2.78,0,0,1-2.1-2.59c-.2-5.71.6-21.5,13.9-22.61,16.3-1.39,14.6,20.81,6.5,24.7C82.2,102.21,73.7,100.71,70,99.8ZM44.4,95.71a2.8,2.8,0,0,0,3.1-2.41c.6-5.5,1.5-17.9-3.1-19.3-5.9-1.9-12.3,12.6-11.2,16.41C34,93.41,40.1,95.1,44.4,95.71Z"/><g class="cls-43"><path class="cls-44" d="M47.2,86.1a2.4,2.4,0,0,1,0-4.8,3,3,0,0,1,1,.2,4.18,4.18,0,0,0-3-2.8c-2.5-.3-4.9,2.6-5.4,6.6s1.1,7.4,3.6,7.7,4.9-2.6,5.4-6.6c0-.3.1-.6.1-1A2.84,2.84,0,0,1,47.2,86.1Z"/></g><path class="cls-44" d="M70,99.8l.1-.3a2.43,2.43,0,0,1-1.8-2.2V96.1a33.12,33.12,0,0,1,2.3-12.6,14.64,14.64,0,0,1,4.1-5.7A12.39,12.39,0,0,1,82,75c.5,0,1-.1,1.4-.1a10,10,0,0,1,8.2,3.6,13.57,13.57,0,0,1,2.5,8.21,18.73,18.73,0,0,1-1.6,7.5A10,10,0,0,1,88.3,99a19.62,19.62,0,0,1-8.7,1.71,41.44,41.44,0,0,1-9.4-1.21l-.2.3-.1.3a42.54,42.54,0,0,0,9.5,1.2,20.15,20.15,0,0,0,9-1.8,9.88,9.88,0,0,0,4.5-5.09,18.2,18.2,0,0,0,1.7-7.8A14.13,14.13,0,0,0,92,78c-1.8-2.4-4.7-3.9-8.7-3.9a7.57,7.57,0,0,0-1.5.1,13.45,13.45,0,0,0-7.6,3,17.75,17.75,0,0,0-5.5,9.4A38.77,38.77,0,0,0,67.6,96v1.2a3,3,0,0,0,2.3,2.9ZM44.4,95.71V96h.4a3.11,3.11,0,0,0,3-2.7c.2-2.09.5-5.09.5-8.2a32,32,0,0,0-.7-7.2,9.53,9.53,0,0,0-1.1-2.7,3.48,3.48,0,0,0-1.9-1.5,5,5,0,0,0-1.2-.2,5.79,5.79,0,0,0-4,1.9,21.59,21.59,0,0,0-4.7,6.9,18.44,18.44,0,0,0-1.9,7,3.75,3.75,0,0,0,.1,1.1c.5,1.7,2.3,2.9,4.5,3.8a30.07,30.07,0,0,0,7,1.8v-.59a34.53,34.53,0,0,1-6.8-1.7c-2.1-.91-3.8-2-4.1-3.41a2.46,2.46,0,0,1-.1-.9c0-2.1,1.3-6,3.2-9.3a20.17,20.17,0,0,1,3.2-4.2,5.45,5.45,0,0,1,3.5-1.7,3.75,3.75,0,0,1,1,.1,3.2,3.2,0,0,1,1.6,1.3c1.3,1.9,1.8,5.7,1.8,9.5,0,3.1-.3,6.1-.5,8.2a2.36,2.36,0,0,1-2.3,2.1h-.3Z"/><path class="cls-44" d="M84.1,89.41a2.41,2.41,0,0,1,0-4.81h.5a3.84,3.84,0,0,0-2.8-2.1c-2.7-.4-5.3,2.8-5.9,7.1s1.2,8,3.9,8.4,5.3-2.79,5.9-7.09a14.15,14.15,0,0,0,.1-2A3.37,3.37,0,0,1,84.1,89.41Z"/><path class="cls-45" d="M53.8,112.91a23.47,23.47,0,0,0,16.1-3.6s.8,7.9-5.4,8.7S53.8,112.91,53.8,112.91Z"/><path class="cls-46" d="M37.8,58.8a69.59,69.59,0,0,1,18.5,7.5c10.5,6.5,19,4.7,23.5,2.5,10-5,10.5-11.5,10.5-11.5l-23-8-26,6-3.5,3.5"/><path class="cls-47" d="M92.4,31.5a81.35,81.35,0,0,0-15.1-3.2C41.6,23.8,37.8,58.8,37.8,58.8a99,99,0,0,1,64,4.9c1.7-8,2.7-22.9-9.4-32.2"/><g class="cls-48"><g class="cls-49"><path class="cls-24" d="M61.4,39.21l-.7,6.1h1a1.89,1.89,0,0,0,.9-.4,3.33,3.33,0,0,0,.9-1.1,4.19,4.19,0,0,0,.4-1.6A3.28,3.28,0,0,0,63.5,40a1.81,1.81,0,0,0-1.6-.79h-.5M58.7,47.8h-.8l1-8.6h-.8l.1-.6h3.5a3.57,3.57,0,0,1,2.6.9,2.81,2.81,0,0,1,.6,2.6,5.31,5.31,0,0,1-.6,1.9A3.25,3.25,0,0,1,63,45.3a5,5,0,0,1-1.3.5h-1l-.2,1.9h-.8l1-8.6h-1l-1,8.7m-2-11.2A1.74,1.74,0,0,0,55.4,38L54.2,48.5a1.15,1.15,0,0,0,1.1,1.4l9.6-.1h.2a1.71,1.71,0,0,0,1.3-1.4l1.2-10.5a1.15,1.15,0,0,0-1.1-1.4l-9.6.1h-.2"/></g><g class="cls-49"><path class="cls-25" d="M61.8,45.21h-1l.7-6.11h.6a1.7,1.7,0,0,1,1.6.8,3.25,3.25,0,0,1,.4,2.2,6.2,6.2,0,0,1-.4,1.61,2.5,2.5,0,0,1-.9,1.1,1.68,1.68,0,0,1-1,.4M58.2,38.6l-.1.61h.8l-1,8.6h.8l1-8.6h1l-1,8.6h.8l.2-1.9h1a3,3,0,0,0,1.3-.5,3.25,3.25,0,0,0,1.3-1.3,6,6,0,0,0,.6-1.9,3.5,3.5,0,0,0-.6-2.6,3.42,3.42,0,0,0-2.6-.9h-1l-2.5-.11"/></g></g><g class="cls-48"><g class="cls-50"><rect class="cls-51" x="37.8" y="27.9" width="32" height="30.9"/></g></g><path class="cls-52" d="M92.4,31.5c12,9.3,11.1,24.21,9.4,32.21a73.58,73.58,0,0,1,10.5,5.6c4.9-18-.3-31.41-19.9-37.81"/><path class="cls-8" d="M99.4,40.9S77.1,23,82.2,16.7s29.5,8.4,30.7,16.3c1,6.2-1.7,22-6.8,22.2s-11.7-3-9.9-7.7a34.28,34.28,0,0,1,3.2-6.6"/><g class="cls-53"><path class="cls-10" d="M85.2,15.3a4,4,0,0,0-3,1.5,3.57,3.57,0,0,0-.8,2.3c0,7.5,18,21.9,18,21.9h0a31.31,31.31,0,0,0-3.1,6.6,5,5,0,0,0-.3,1.6c0,3.6,4.9,5.9,9.2,6.1a18,18,0,0,0,2.6-5.6c-2.8-.7-5.4-3.8-7.8-7.8a.35.35,0,0,0-.1-.2l-.5-.5.1-.1c-1.8-3.2-3-6.2-2.8-8.7-4.1-4.5-8.1-8.8-9.9-11.5-1.9-2.9-2-4.6-1.6-5.6"/></g><path class="cls-39" d="M99.5,40.8a46,46,0,0,1,5.2,5.6c.1.2-.6.7-.7.5A38,38,0,0,0,99.3,41l.2-.2"/><path class="cls-2" d="M48.9,146.21c2.7,0,4.9-3.71,4.9-8.21,0-2.9-.1-3.5-1-5.29a4,4,0,0,0-5.7-1.1c-5.6,4.5-11.3,13.3-11.6,16.8-.4,4.3,10.2,11.09,10.2,11.09s-3.2,0-4.1,2.41,4.8,2.7,7.2,0,4-9.81.1-15.7"/><g class="cls-54"><path class="cls-55" d="M37.9,154.5s9.6.41,17-3.59,2.2,9.7,2.2,9.7l-15.3,9.5-6.2-3.3,2.3-12.31"/></g><g class="cls-54"><path class="cls-4" d="M53.7,139.71A30.75,30.75,0,0,1,45.1,144a22.65,22.65,0,0,1,3.4,9.3,27.59,27.59,0,0,0,2.7-.8,13.92,13.92,0,0,0-2.3-6.4h0c2.3.11,4.3-2.69,4.8-6.39"/></g><g class="cls-54"><path class="cls-56" d="M51.2,152.6h0a27.59,27.59,0,0,1-2.7.8,19,19,0,0,1-.9,9.5h0l1.2-.9a12.36,12.36,0,0,0,2.4-7.7,4.82,4.82,0,0,0,0-1.7"/></g><polygon class="cls-57" points="115.8 98.81 112.3 99.31 110.3 111.31 114.3 112.31 117.3 109.31 115.8 98.81"/><path class="cls-57" d="M109.8,97.8l-4.5-.5a9.94,9.94,0,0,0-8,9c-1,7.91,5,11,5,11l-4,19a5.1,5.1,0,0,0,4.8,5.41c5.2.7,6.2-25.41,6.2-25.41l-4-8,4.5-10.5"/><g class="cls-58"><polyline class="cls-59" points="108.8 116.81 94.8 117.81 93.8 142.81 106.8 146.81 112.8 138.81 108.8 116.81"/></g><path class="cls-60" d="M109.8,97.8l-2,11a5.13,5.13,0,0,0,6.5,1.5l1.5-11.5a9.78,9.78,0,0,1,5,10c-1,7-9,9-9,9l-4.4,21.3a3.37,3.37,0,1,1-6.6-1.39l5-20.91s-5.8-4-5-10c1-8,9-9,9-9"/><path class="cls-57" d="M105.8,138.6l4-19a1.53,1.53,0,0,0-3-.6l-4,19a1.48,1.48,0,0,0,1.2,1.8,1.63,1.63,0,0,0,1.8-1.2"/><path class="cls-55" d="M99.3,121.3c-.6,1.3-2,4-1,5s6,0,7-3-4-6-6-2"/><g class="cls-61"><path class="cls-56" d="M105.4,122.8a31.44,31.44,0,0,1-3.6,2,3.39,3.39,0,0,1-1.5.41,2.23,2.23,0,0,1-2-1.71,6,6,0,0,0-.4,1.71,1.17,1.17,0,0,0,.4,1,2,2,0,0,0,1.4.4,7.91,7.91,0,0,0,3.1-.8,12.09,12.09,0,0,1,1.6-1.6c.3-.2.6-.5.9-.7a.37.37,0,0,0,.1-.3c-.1-.11,0-.21,0-.41"/></g><path class="cls-55" d="M104.3,124.3c-2.8,2.3-4.3,6.2-2.6,8.5,2.6,3.5,11.6.5,11.6-5.5s-4.6-6.59-9-3"/><g class="cls-62"><path class="cls-56" d="M102.1,126.71a7.69,7.69,0,0,0-1.2,3.7,4,4,0,0,0,.7,2.4,4.26,4.26,0,0,0,3.5,1.5,7.84,7.84,0,0,0,3.3-.7c-4-.31-5.7-4.4-6.3-6.9"/></g><path class="cls-63" d="M113,33.6a40.7,40.7,0,0,1-1.2,12.9,13.89,13.89,0,0,1,.7,1.8c3.4-2.9,3.8-9,.7-14.3a.73.73,0,0,1-.2-.4"/><path class="cls-64" d="M111.8,46.5a22.88,22.88,0,0,1-.8,2.8l.6-.3a3.11,3.11,0,0,0,.9-.7c-.2-.59-.5-1.2-.7-1.8"/><path class="cls-65" d="M102.9,27.21a6.45,6.45,0,0,0-3.6,1,4.86,4.86,0,0,0-2.6,4.1c5.2,5.79,10.5,11.7,11.1,14.5a6.63,6.63,0,0,1-.1,2.79,4.59,4.59,0,0,0,1.2.21,3.72,3.72,0,0,0,2-.5,22.88,22.88,0,0,0,.8-2.8,40.49,40.49,0,0,0,1.2-12.9c-2.5-4-6.4-6.4-10-6.4"/><path class="cls-66" d="M96.7,32.3c-.2,2.4,1,5.5,2.8,8.7l.1-.1a46,46,0,0,1,5.2,5.6c.1.1-.4.6-.7.6H104a55.5,55.5,0,0,0-4.2-5.39.35.35,0,0,0,.1.2c2.4,4,5,7.1,7.8,7.8a6.67,6.67,0,0,0,.1-2.8C107.2,44,101.9,38,96.7,32.3"/><path class="cls-67" d="M99.5,40.8h0a.91.91,0,0,0,.3.7,44.2,44.2,0,0,1,4.2,5.4h.1c.2,0,.8-.4.7-.6a45.64,45.64,0,0,0-5.3-5.5"/><path class="cls-63" d="M117.2,55.71h-.5c-1.7.29-2.7,2.2-2.3,4.2a3.5,3.5,0,0,0,3.2,3.1h.5c1.7-.3,2.7-2.2,2.3-4.2a3.67,3.67,0,0,0-3.2-3.1"/></g></g></svg>