<svg xmlns="http://www.w3.org/2000/svg" xmlns:xlink="http://www.w3.org/1999/xlink" viewBox="0 0 359.1 522.16"><defs><style>.cls-1{fill:none;}.cls-2{fill:#2d2d33;}.cls-3{fill:#39aef8;}.cls-4{fill:#60d4ad;}.cls-5{clip-path:url(#clip-path);}.cls-6{fill:#55ba9d;}.cls-7{fill:#eb335b;}.cls-8{clip-path:url(#clip-path-3);}.cls-9{fill:#8a1e36;}.cls-10{fill:#53535e;}.cls-11{clip-path:url(#clip-path-6);}.cls-12{fill:#828385;}.cls-13{fill:#b3b3b3;}.cls-14{clip-path:url(#clip-path-8);}.cls-15{fill:#9f9da3;}.cls-16{fill:#dfdff8;}.cls-17{fill:#d6d6ee;}.cls-18{clip-path:url(#clip-path-9);}.cls-19{fill:#61616e;}.cls-20{clip-path:url(#clip-path-14);}.cls-21{fill:gray;}.cls-22{fill:#cacaca;}.cls-23{fill:#cdebff;}</style><clipPath id="clip-path"><path class="cls-1" d="M74.8,224.9s-30.7-2.7-33.4-38.7c-2.1-28.1,24-40,24-40l9.4,78.7m234.9-22.7s30.7-12,26.7-45.4-30.7-32-30.7-32l4,77.4"/></clipPath><clipPath id="clip-path-3"><path class="cls-1" d="M141.5,305c-1.3,18.7-5.3,41.4-10.7,61.4s-10.7,26.7-6.7,33.4c2.4,4,8.2,3.7,14.4,3.4,4.2-.2,8.5-.4,12.3.6,9.3,2.7,16,5.3,32,4s30.7,4,49.4,5.3,34.7-5.3,40-10.7-2.7-24-4-45.4-10.7-72.1-10.7-72.1L141.5,305"/></clipPath><clipPath id="clip-path-6"><path class="cls-1" d="M288,325.7c-24.4,0-37.8,0-41.3-10.4-1.6-4.8-1.1-14.9-.4-22.5a9.33,9.33,0,1,1,18.6,1.6c-.4,4.2-.6,8.7-.6,11.8,5.5.7,16.1.7,23.6.7a9.28,9.28,0,0,1,9.3,9.3,9.18,9.18,0,0,1-9.2,9.5"/></clipPath><clipPath id="clip-path-8"><path class="cls-1" d="M61.4,126.1c0,41.5,2.2,102.9,12,110.8,13.3,10.7,98.5,6.1,136.1,2.7,44-4,97.4-10.7,104.1-29.4,5.5-15.3,6.7-108.1-26.7-121.4C254.8,75.9,61.4,78.1,61.4,126.1"/></clipPath><clipPath id="clip-path-9"><path class="cls-1" d="M132.5,295.9a9.31,9.31,0,0,1-7.7-4c-22.3-32.1-33.1-102.4-33.6-105.4a9.31,9.31,0,1,1,18.4-2.8c.1.7,10.6,68.9,30.5,97.5a9.4,9.4,0,0,1-2.3,13,8.8,8.8,0,0,1-5.3,1.7"/></clipPath><clipPath id="clip-path-14"><path class="cls-1" d="M140.2,267.6c16-8,54.7-30.7,117.4-6.7,0,0-12,85.4-14.7,90.8s-10.7,14.7-33.4,16-33.4-2.7-40-12-26.7-73.4-26.7-73.4l-2.6-14.7"/></clipPath></defs><g id="Layer_2" data-name="Layer 2"><g id="Layer_1-2" data-name="Layer 1"><path class="cls-2" d="M174.7,12.7A145.37,145.37,0,0,0,176,30.3a5.46,5.46,0,0,0,1,2.6,5.71,5.71,0,0,0,1.4,1.3,7.94,7.94,0,0,0,2.7,1,14.17,14.17,0,0,0,3,.2c1.7,0,3.4-.2,5.2-.3a46.29,46.29,0,0,1,5.1-.3,11.21,11.21,0,0,1,4.8.8,4.33,4.33,0,0,1,2.3,2.9,2,2,0,0,1,.1.7,2.92,2.92,0,0,1-.2.9,4.53,4.53,0,0,1-1.9,1.6,30.26,30.26,0,0,1-8.1,2.1c-5,.8-10.8,1.3-15.6,2.3a19.87,19.87,0,0,0-6.1,2.1,7.56,7.56,0,0,0-2.1,1.9,5.12,5.12,0,0,0-.9,2.7,4.06,4.06,0,0,0,.4,1.9,6.36,6.36,0,0,0,2.2,2.4,13.24,13.24,0,0,0,5.2,1.4c2,.2,4.2.3,6.5.3,3.3,0,6.7-.1,9.9-.1a34.23,34.23,0,0,1,7.8.6,5.38,5.38,0,0,1,2.1.8l.4.4c.1.1.1.3.2.5v.5a1.48,1.48,0,0,1-.1.7,2.39,2.39,0,0,1-1,1.1,16.32,16.32,0,0,1-4.5,1.9c-2.9.9-6.4,1.8-9.3,3.7a10.1,10.1,0,0,0-3.7,3.7,10.53,10.53,0,0,0-1.5,5.7V97h3V78.3a8.69,8.69,0,0,1,.7-3.5,8.23,8.23,0,0,1,1.6-2.2,14.71,14.71,0,0,1,4.6-2.7c2.7-1.1,5.7-1.8,8.2-2.8a10.53,10.53,0,0,0,3.4-2,4.81,4.81,0,0,0,1.2-1.6,4.48,4.48,0,0,0,.4-2,2.77,2.77,0,0,0-.1-.9,4.42,4.42,0,0,0-.6-1.6,6.25,6.25,0,0,0-2.2-1.8,15.46,15.46,0,0,0-4.7-1.1,54.3,54.3,0,0,0-5.8-.2c-3.2,0-6.7.1-9.9.1a40.11,40.11,0,0,1-8.6-.7,7.66,7.66,0,0,1-2.2-1,2.09,2.09,0,0,1-.4-.6,1.48,1.48,0,0,1-.1-.7,1.88,1.88,0,0,1,.2-.8,4.46,4.46,0,0,1,1.9-1.5,30.26,30.26,0,0,1,8.1-2.1c5-.8,10.8-1.3,15.6-2.3a19,19,0,0,0,6.1-2.2,7.56,7.56,0,0,0,2.1-1.9,5,5,0,0,0,.8-2.7,6.75,6.75,0,0,0-.2-1.4,7.08,7.08,0,0,0-1.5-3,7.73,7.73,0,0,0-3.8-2.4,17.55,17.55,0,0,0-4.6-.5c-1.8,0-3.6.2-5.4.3a45.71,45.71,0,0,1-4.9.3,9.4,9.4,0,0,1-3.8-.6,2.18,2.18,0,0,1-.9-.7,3.2,3.2,0,0,1-.5-1.3c-.7-4.6-1-8.9-1.2-12-.1-1.6-.1-2.8-.1-3.7V13.2h-3Z"/><circle class="cls-3" cx="176.9" cy="12" r="12"/><path class="cls-2" d="M11.9,150.3s1.3,18.7,4,40.1a1.6,1.6,0,0,0,.5,1,2.52,2.52,0,0,0,1.2.7,6,6,0,0,0,2,.3,19.29,19.29,0,0,0,2.5.1c4.3,0,10.4-.6,15.6-1.1s9.2-1.1,9.3-1.1l-.4-2.9a3.2,3.2,0,0,0-.7.1c-1.6.2-5.8.7-10.4,1.2s-9.8.9-13.3.9a22.79,22.79,0,0,1-3.1-.2,1.76,1.76,0,0,0-.6-.1l-.1.3.2-.2h0l-.1.3.2-.2-.5.7.7-.5-.2-.2-.5.7.7-.5-.9.6,1.1-.1a.76.76,0,0,0-.2-.5l-.9.6,1.1-.1c-1.3-10.7-2.3-20.6-3-28-.3-3.7-.6-6.7-.7-8.7-.1-1-.1-1.9-.2-2.4a2,2,0,0,0-.1-.8H11.9"/><path class="cls-2" d="M331.4,160.9l21.1-5.6v-1.1c0-1.8-.3-4.8-.6-8.4-1.1-10.7-3.4-26.5-3.4-26.5l-2.9.4a11.31,11.31,0,0,1,.2,1.2c.4,2.7,1.3,9.6,2.2,16.6.4,3.5.8,7,1.1,9.9s.5,5.4.5,6.8h1.5l-.4-1.4-20,5.3.7,2.8Z"/><path class="cls-4" d="M74.8,224.9s-30.7-2.7-33.4-38.7c-2.1-28.1,24-40,24-40l9.4,78.7m234.9-22.7s30.7-12,26.7-45.4-30.7-32-30.7-32l4,77.4"/><g class="cls-5"><path class="cls-6" d="M336.2,169.7a54.23,54.23,0,0,1-19.6,7,208.18,208.18,0,0,1-.9,22.4c7-4.5,17.9-13.7,20.5-29.4"/></g><g class="cls-5"><path class="cls-6" d="M41.8,189.7c2.9,22.2,17.1,30.5,25.9,33.5a179.3,179.3,0,0,1-3.3-22.5c-8.5-1.1-16.3-5.9-22.6-11"/></g><path class="cls-7" d="M141.5,305c-1.3,18.7-5.3,41.4-10.7,61.4s-10.7,26.7-6.7,33.4c2.4,4,8.2,3.7,14.4,3.4,4.2-.2,8.5-.4,12.3.6,9.3,2.7,16,5.3,32,4s30.7,4,49.4,5.3,34.7-5.3,40-10.7-2.7-24-4-45.4-10.7-72.1-10.7-72.1L141.5,305"/><g class="cls-8"><path class="cls-9" d="M158.6,358.2c-.7,8.3-1.7,16.5-2.9,24.7s-2.6,16.4-4.3,24.6c-.2,1.3-3.3.6-3-.7,1.9-8,3.7-16.1,5.2-24.2s2.9-16.3,3.9-24.5A.56.56,0,0,1,158.6,358.2Z"/></g><g class="cls-8"><path class="cls-9" d="M193.4,388.1a224.86,224.86,0,0,1,1,24.6c0,.7-3.1.5-3-.2.7-8.1,1.1-16.2,1-24.4C192.4,387.9,193.4,387.8,193.4,388.1Z"/></g><g class="cls-8"><path class="cls-9" d="M234.7,373c1.1,8.4,2.6,16.8,4.5,25.1,1,4.1,2,8.2,3.2,12.3a119.7,119.7,0,0,0,4.2,11.9c.6,1.2-2.3,2.5-2.8,1.1-1.5-4.1-2.7-8.2-3.8-12.4s-2-8.3-2.8-12.6c-1.6-8.4-2.7-16.9-3.5-25.4C233.6,372.5,234.6,372.4,234.7,373Z"/></g><path class="cls-10" d="M288,325.7c-24.4,0-37.8,0-41.3-10.4-1.6-4.8-1.1-14.9-.4-22.5a9.33,9.33,0,1,1,18.6,1.6c-.4,4.2-.6,8.7-.6,11.8,5.5.7,16.1.7,23.6.7a9.28,9.28,0,0,1,9.3,9.3A9.18,9.18,0,0,1,288,325.7Z"/><g class="cls-11"><path class="cls-2" d="M274.9,331.4h0c-.2-.3-3.3-5.9-3.3-15.3a50.65,50.65,0,0,1,3.3-17.6l-1.4-.5a51.62,51.62,0,0,0-3.4,18.1c0,10.1,3.5,16,3.5,16.1l1.3-.8Z"/></g><g class="cls-11"><path class="cls-2" d="M249.3,322.2h0c.2-.5,3.2-9.9,15.5-17.2l-.8-1.3c-13.2,7.8-16.2,18-16.2,18.1l1.5.4Z"/></g><path class="cls-4" d="M127.5,286.3s1.3-16,13.3-18.7,24.5,34.9,12.2,45.5-25.6-13.4-25.6-17.4S127.5,286.3,127.5,286.3Zm118.1,20s21.4-5.3,22.7-22.7-10.7-22.7-10.7-22.7l-10.7,6.7Z"/><path class="cls-12" d="M70.6,232.8s12.2,29.5,14.9,30.8,70.7,1.3,120.1-1.3,96.1-12,100.1-18.7,10.8-33.6,9.4-39.5S299,184.9,299,184.9L70.6,232.8"/><path class="cls-13" d="M61.4,126.1c0,41.5,2.2,102.9,12,110.8,13.3,10.7,98.5,6.1,136.1,2.7,44-4,97.4-10.7,104.1-29.4,5.5-15.3,6.7-108.1-26.7-121.4C254.8,75.9,61.4,78.1,61.4,126.1"/><g class="cls-14"><path class="cls-15" d="M87.9,99.9c-16.2,6.6-26.4,15.2-26.4,26.3,0,41.5,2.2,102.9,12,110.8,3.1,2.5,10,4.1,19.2,5.2-13.5-23.1-18.2-86.1-15.9-113.9A51.58,51.58,0,0,1,87.9,99.9"/></g><path class="cls-16" d="M85.2,156.8l-18,2a48.07,48.07,0,0,1-.8-7.6l17.4-1.9A38.92,38.92,0,0,0,85.2,156.8Zm43.9-12.4-19,2a47.52,47.52,0,0,1,.1,7.6l19.9-2.2A51.31,51.31,0,0,0,129.1,144.4Z"/><path class="cls-17" d="M306.4,304.4l-.8-12.7a35.26,35.26,0,0,1,5.4-.3l.8,12.2A54.24,54.24,0,0,0,306.4,304.4Zm7.2,31.1-.8-13.3a24,24,0,0,1-5.3-.2l.9,14A37.08,37.08,0,0,0,313.6,335.5Z"/><path class="cls-13" d="M307.5,322c-4.3-.6-8.6-2.8-8.8-8.6-.2-5.5,3.7-7.9,7.6-8.9l-.8-12.7c-8.3,1-23.4,5.4-22.8,23.7.6,18.6,17,20.7,25.7,20.5Z"/><path class="cls-10" d="M132.5,295.9a9.31,9.31,0,0,1-7.7-4c-22.3-32.1-33.1-102.4-33.6-105.4a9.31,9.31,0,1,1,18.4-2.8c.1.7,10.6,68.9,30.5,97.5a9.4,9.4,0,0,1-2.3,13A8.8,8.8,0,0,1,132.5,295.9Z"/><g class="cls-18"><path class="cls-2" d="M85.8,210.5A48.43,48.43,0,0,0,99,212.3a40.85,40.85,0,0,0,12.4-1.8,35.59,35.59,0,0,0,13-7.1l-1.9-2.2a31.53,31.53,0,0,1-12,6.5,42.7,42.7,0,0,1-20.3.7,15.31,15.31,0,0,1-2.5-.6,6.37,6.37,0,0,1-.7-.2h-.2l-1,2.9Z"/></g><g class="cls-18"><path class="cls-2" d="M88.8,231.1a48.43,48.43,0,0,0,13.2,1.8,40.85,40.85,0,0,0,12.4-1.8,35.59,35.59,0,0,0,13-7.1l-1.9-2.2a31.53,31.53,0,0,1-12,6.5,42.7,42.7,0,0,1-20.3.7,15.31,15.31,0,0,1-2.5-.6,6.37,6.37,0,0,1-.7-.2h-.2l-1,2.9Z"/></g><g class="cls-18"><path class="cls-2" d="M91.9,251.7a48.43,48.43,0,0,0,13.2,1.8,40.85,40.85,0,0,0,12.4-1.8,35.59,35.59,0,0,0,13-7.1l-1.9-2.2a31.53,31.53,0,0,1-12,6.5,42.7,42.7,0,0,1-20.3.7,15.31,15.31,0,0,1-2.5-.6,6.37,6.37,0,0,1-.7-.2h-.2l-1,2.9Z"/></g><g class="cls-18"><path class="cls-2" d="M97.2,272.4a48.43,48.43,0,0,0,13.2,1.8,40.85,40.85,0,0,0,12.4-1.8,35.59,35.59,0,0,0,13-7.1l-1.9-2.2a31.53,31.53,0,0,1-12,6.5,42.7,42.7,0,0,1-20.3.7,15.31,15.31,0,0,1-2.5-.6,6.37,6.37,0,0,1-.7-.2h-.2l-1,2.9Z"/></g><g class="cls-18"><path class="cls-2" d="M109.5,286.9a48.43,48.43,0,0,0,13.2,1.8,40.85,40.85,0,0,0,12.4-1.8,35.59,35.59,0,0,0,13-7.1l-1.9-2.2a31.53,31.53,0,0,1-12,6.5,42.7,42.7,0,0,1-20.3.7,15.31,15.31,0,0,1-2.5-.6,6.37,6.37,0,0,1-.7-.2h-.2l-1,2.9Z"/></g><path class="cls-19" d="M134,144.6a22.85,22.85,0,0,1,.5-8.6,9.72,9.72,0,0,1,2.3-4.2,8.55,8.55,0,0,1,2.2-1.5,7.51,7.51,0,0,1,2.6-.5,11.53,11.53,0,0,1,2.6.3,9,9,0,0,1,2.4,1.2,11.39,11.39,0,0,1,3.1,3.9A25.51,25.51,0,0,1,152,144c.1,1.1-5,1-4.9.2a21.89,21.89,0,0,0-1.1-7.3,6.6,6.6,0,0,0-1.7-2.7,8.34,8.34,0,0,0-1.2-.8,3.34,3.34,0,0,0-1.5-.3,7.57,7.57,0,0,0-1.5.1,3.29,3.29,0,0,0-1.3.7,7.29,7.29,0,0,0-1.9,2.8,21.81,21.81,0,0,0-1.2,7.7C135.6,144.8,134,145,134,144.6Z"/><path class="cls-19" d="M238.1,135.3a22.85,22.85,0,0,1,.5-8.6,9.72,9.72,0,0,1,2.3-4.2,8.55,8.55,0,0,1,2.2-1.5,7.51,7.51,0,0,1,2.6-.5,11.53,11.53,0,0,1,2.6.3,9,9,0,0,1,2.4,1.2,11.39,11.39,0,0,1,3.1,3.9,25.51,25.51,0,0,1,2.3,8.8c.1,1.1-5,1-4.9.2a21.89,21.89,0,0,0-1.1-7.3,6.6,6.6,0,0,0-1.7-2.7,8.34,8.34,0,0,0-1.2-.8,3.34,3.34,0,0,0-1.5-.3,7.57,7.57,0,0,0-1.5.1,3.29,3.29,0,0,0-1.3.7,7.29,7.29,0,0,0-1.9,2.8,21.81,21.81,0,0,0-1.2,7.7C239.7,135.5,238.1,135.7,238.1,135.3Z"/><path class="cls-19" d="M172.9,145.6a29.33,29.33,0,0,0,20.8,3.2l2-.6,1-.3,1-.4,1.9-.8,1.8-1.1.9-.5a5.55,5.55,0,0,0,.8-.6l1.7-1.3c.7-.6,3.9,3.5,2.9,4l-2.1,1.3c-.3.2-.7.4-1,.6l-1.1.5-2.2,1c-.8.3-1.5.5-2.3.8l-1.1.4-1.2.3c-.8.2-1.6.3-2.4.5a38.54,38.54,0,0,1-4.8.2,34.05,34.05,0,0,1-17.6-5.7C171.6,146.8,172.6,145.5,172.9,145.6Z"/><path class="cls-3" d="M25.4,149.5a12.7,12.7,0,1,1-12.7-12.7A12.72,12.72,0,0,1,25.4,149.5Zm321-46a12.7,12.7,0,1,0,12.7,12.7A12.72,12.72,0,0,0,346.4,103.5Z"/><path class="cls-13" d="M140.2,267.6c16-8,54.7-30.7,117.4-6.7,0,0-12,85.4-14.7,90.8s-10.7,14.7-33.4,16-33.4-2.7-40-12-26.7-73.4-26.7-73.4l-2.6-14.7"/><g class="cls-20"><path class="cls-15" d="M215.2,339a72.23,72.23,0,0,0-12.6,1.2c-16.4,2.9-26.7,10.3-32.6,16.1,5.8,7.8,14.7,11.7,31.6,11.7,2.5,0,5.1-.1,8-.3,22.7-1.3,30.7-10.7,33.4-16a17,17,0,0,0,1-3.7c-5.9-4.9-15.7-9-28.8-9"/></g><path class="cls-21" d="M173.5,352.2a40.81,40.81,0,0,1,7-5.4,44.63,44.63,0,0,1,7.9-3.9,61.94,61.94,0,0,1,17.1-4.1,86.23,86.23,0,0,1,17.6-.1c5.9.7,11.8,2,17.2,5.4a1.46,1.46,0,0,1,.1,2.3c-.7.6-1.5,1.1-2.1.6a29,29,0,0,0-7.3-3.5,54.39,54.39,0,0,0-8.2-1.9,80.41,80.41,0,0,0-17-.5,63.58,63.58,0,0,0-16.7,3.4,48.92,48.92,0,0,0-7.7,3.5,31.21,31.21,0,0,0-6.9,5C173.8,353.5,173,352.8,173.5,352.2Z"/><path class="cls-22" d="M198.6,521.6l-.6-66.2c0-1.8,1.8-1.8,1.8,0l-.6,66.2C199.2,522.3,198.6,522.4,198.6,521.6Z"/><path class="cls-22" d="M208.6,485.8c.8-11.3,1.9-22.6,3.3-33.8.1-.9,1.9-.7,1.8.2q-2.7,16.8-4.5,33.6C209.2,486.3,208.6,486.2,208.6,485.8Z"/><path class="cls-22" d="M188.5,485.9Q186.7,469,184,452.3c-.2-.9,1.7-1.2,1.8-.2,1.4,11.3,2.5,22.5,3.3,33.8C189.2,486.2,188.6,486.3,188.5,485.9Z"/><path class="cls-22" d="M110.2,154c-.6,6.3-3.4,12.4-11.8,13.1-7.8.6-11.5-4.7-13.3-10.3l-18,2c2,11.8,9.2,33,35.3,31.1,26.5-2,28.5-25.6,27.6-37.9Z"/><path class="cls-23" d="M19.4,144.2a4,4,0,1,1-4-4A4,4,0,0,1,19.4,144.2Z"/><path class="cls-23" d="M183.5,6.7a4,4,0,1,1-4-4A4,4,0,0,1,183.5,6.7Z"/><circle class="cls-23" cx="350.4" cy="110.8" r="4"/></g></g></svg>