<?xml version="1.0" encoding="utf-8"?>
<!-- Generator: Adobe Illustrator 24.0.1, SVG Export Plug-In . SVG Version: 6.00 Build 0)  -->
<svg version="1.1" id="Layer_1" xmlns="http://www.w3.org/2000/svg" xmlns:xlink="http://www.w3.org/1999/xlink" x="0px" y="0px"
	 viewBox="0 0 1920 1080" style="enable-background:new 0 0 1920 1080;" xml:space="preserve">
<style type="text/css">
	.st0{fill:#53535E;}
	.st1{clip-path:url(#SVGID_2_);fill:#202024;}
	.st2{fill:#4EAB8C;}
	.st3{fill:#2D2D33;}
	.st4{fill:#398BF8;}
	.st5{fill:#39AEF8;}
	.st6{fill:#FCFCFC;}
	.st7{fill:#B3B3B3;}
	.st8{clip-path:url(#SVGID_4_);fill:#B50000;}
	.st9{clip-path:url(#SVGID_4_);fill:#FFFFFF;}
	.st10{clip-path:url(#SVGID_4_);fill:#9F9DA3;}
	.st11{clip-path:url(#SVGID_4_);fill:#A10000;}
	.st12{clip-path:url(#SVGID_4_);fill:#E3DFE8;}
	.st13{fill:#60D4AD;}
	.st14{clip-path:url(#SVGID_6_);fill:#56BF9D;}
	.st15{clip-path:url(#SVGID_8_);fill:#9F9DA3;}
	.st16{fill:#34343B;}
	.st17{fill:#61616E;}
	.st18{clip-path:url(#SVGID_10_);fill:#202024;}
	.st19{clip-path:url(#SVGID_10_);}
	.st20{clip-path:url(#SVGID_12_);fill:#4A4955;}
	.st21{clip-path:url(#SVGID_10_);fill:#1C1C21;}
	.st22{fill:#6C7C8A;}
	.st23{clip-path:url(#SVGID_14_);fill:#606D7D;}
	.st24{fill:#98AEC5;}
	.st25{fill:#78889A;}
	.st26{clip-path:url(#SVGID_16_);fill:#3D464F;}
	.st27{clip-path:url(#SVGID_18_);fill:#D6D6EE;}
	.st28{clip-path:url(#SVGID_20_);fill:#D6D6EE;}
	.st29{fill:#F0F0F0;}
	.st30{clip-path:url(#SVGID_22_);fill:#202024;}
	.st31{clip-path:url(#SVGID_22_);fill:#4A4955;}
	.st32{clip-path:url(#SVGID_22_);fill:#1C1C21;}
	.st33{clip-path:url(#SVGID_24_);fill:#D6D6EE;}
	.st34{fill:#F7C000;}
	.st35{clip-path:url(#SVGID_26_);fill:#DBA800;}
	.st36{clip-path:url(#SVGID_28_);fill:#DBA800;}
	.st37{fill:#DC2750;}
	.st38{clip-path:url(#SVGID_30_);fill:#F7C000;}
	.st39{clip-path:url(#SVGID_30_);fill:#C32249;}
	.st40{clip-path:url(#SVGID_30_);fill:#DBA800;}
	.st41{clip-path:url(#SVGID_32_);fill:#9F9DA3;}
	.st42{clip-path:url(#SVGID_34_);fill:#56BF9D;}
	.st43{clip-path:url(#SVGID_36_);fill:#9F9DA3;}
	.st44{clip-path:url(#SVGID_38_);fill:#202024;}
	.st45{clip-path:url(#SVGID_38_);fill:#4A4955;}
	.st46{clip-path:url(#SVGID_38_);fill:#1C1C21;}
	.st47{clip-path:url(#SVGID_40_);fill:#D6D6EE;}
	.st48{fill:#D2D2FF;}
	.st49{fill:#1E0E42;}
	.st50{font-family:'KozGoPr6N-Regular-90ms-RKSJ-H';}
	.st51{font-size:44.3402px;}
</style>
<g>
	<path class="st0" d="M753.1,682.6c-0.5,0-1.1-0.1-1.6-0.2c-68.4-15.7-91.9-45.1-92.8-46.3c-2.4-3.1-1.9-7.7,1.3-10.1
		c3.1-2.4,7.6-1.9,10.1,1.2c0.3,0.4,22.1,26.7,84.7,41.1c3.9,0.9,6.3,4.8,5.4,8.6C759.4,680.4,756.4,682.6,753.1,682.6"/>
	<g>
		<defs>
			<path id="SVGID_1_" d="M753.1,682.6c-0.5,0-1.1-0.1-1.6-0.2c-68.4-15.7-91.9-45.1-92.8-46.3c-2.4-3.1-1.9-7.7,1.3-10.1
				c3.1-2.4,7.6-1.9,10.1,1.2c0.3,0.4,22.1,26.7,84.7,41.1c3.9,0.9,6.3,4.8,5.4,8.6C759.4,680.4,756.4,682.6,753.1,682.6"/>
		</defs>
		<clipPath id="SVGID_2_">
			<use xlink:href="#SVGID_1_"  style="overflow:visible;"/>
		</clipPath>
		<polyline class="st1" points="692.4,666.3 702.3,641.1 700.4,640.3 690.4,665.6 		"/>
		<polyline class="st1" points="716.5,649.5 711.1,673.8 713.2,674.3 718.6,650 		"/>
		<polyline class="st1" points="736.4,656.5 725.6,682.7 727.5,683.5 738.3,657.3 		"/>
	</g>
	<path class="st2" d="M695.6,640.7c0,11.9-8.5,21.6-19,21.6c-10.5,0-19-9.7-19-21.6s8.5-21.6,19-21.6
		C687.1,619.1,695.6,628.8,695.6,640.7"/>
	<polyline class="st3" points="798.8,445.9 804.7,484.2 761.9,491.6 762.3,493.7 807.2,486 801,445.5 798.8,445.9 	"/>
	<path class="st4" d="M808.8,437.7c0.4,1.5,0.6,3.2,0.5,4.8c-0.7,7.2-7.1,12.1-14.3,11c-3.1-0.5-5.8-2-7.9-4.1
		c1.4,5.1,5.8,9.3,11.4,10.1c7.2,1.1,13.6-3.9,14.3-11C813.1,444.4,811.5,440.5,808.8,437.7z"/>
	<path class="st5" d="M809.3,442.5c0.2-1.7,0-3.3-0.5-4.8c-2.1-2.1-4.8-3.7-7.9-4.1c-7.2-1.1-13.6,3.9-14.3,11
		c-0.2,1.7,0,3.3,0.5,4.8c2.1,2.1,4.8,3.7,7.9,4.1C802.2,454.6,808.6,449.7,809.3,442.5z"/>
	<path class="st6" d="M791,439c1.5-2,4.2-2.6,6-1.2c1.8,1.4,0.5,3-1,5.1c-1.5,2-2.7,3.7-4.5,2.3C789.7,443.8,789.5,441,791,439z"/>
	<path class="st7" d="M563.8,612.9c0,0,71.3-7.8,130.8,0.3c0,0-19.9,122.7-67.4,125.7C563,743,563.8,612.9,563.8,612.9"/>
	<g>
		<defs>
			<path id="SVGID_3_" d="M563.8,612.9c0,0,71.3-7.8,130.8,0.3c0,0-19.9,122.7-67.4,125.7C563,743,563.8,612.9,563.8,612.9"/>
		</defs>
		<clipPath id="SVGID_4_">
			<use xlink:href="#SVGID_3_"  style="overflow:visible;"/>
		</clipPath>
		<path class="st8" d="M660.7,627.1l20.7,0.1c1.5,0,2.7,1.2,2.7,2.7l-0.1,20.7c0,1.5-1.2,2.7-2.7,2.7l-20.7-0.1
			c-1.5,0-2.7-1.2-2.7-2.7l0.1-20.7C658,628.3,659.2,627.1,660.7,627.1"/>
		<path class="st9" d="M664.1,631.3l0,1.1l1.6,0l-0.1,16.9l1.6,0l0.1-16.9l2.2,0l-0.1,16.9l1.6,0l0-3.8l1,0c1.4,0,2.7-0.3,3.8-0.9
			c1.1-0.5,1.9-1.4,2.5-2.5c0.5-1.1,0.9-2.3,0.9-3.8c0-2.2-0.6-3.9-2-5.1c-1.4-1.2-3.3-1.8-5.7-1.8l-2.1,0L664.1,631.3 M671.2,632.4
			l1.3,0c1.6,0,2.8,0.6,3.6,1.5c0.9,1.2,1.4,2.8,1.3,4.4c0,1.2-0.2,2.3-0.6,3.2c-0.4,0.9-0.9,1.6-1.6,2.1c-0.7,0.5-1.5,0.8-2.3,0.8
			l-1.7,0L671.2,632.4"/>
		<path class="st10" d="M653.6,703.7c-4,12.6-9.9,24.3-18.4,33.5c-0.1,0.1-0.1,0.1-0.2,0.2c12.1-4.3,22.1-16.3,30.3-31.4
			c-0.4,0.1-0.9,0.1-1.3,0.1c-0.5,0-1.1-0.1-1.6-0.2C659.3,705.2,656.4,704.4,653.6,703.7 M658.8,610.1c0.6,4.6,1.2,10.4,1.6,17
			c0.1,0,0.2,0,0.3,0c0,0,0,0,0,0l20.7,0.1c1.5,0,2.7,1.2,2.7,2.7l-0.1,20.7c0,1.5-1.2,2.7-2.7,2.7c0,0,0,0,0,0l-20.3-0.1
			c-0.3,11.8-1.4,24.3-3.9,36.4c2.8,0.8,5.5,1.5,8.4,2.1c2.2,0.5,3.9,2,4.8,3.8c16.7-36.4,24.2-82.4,24.2-82.4
			C682.9,611.6,670.8,610.7,658.8,610.1"/>
		<path class="st11" d="M671.2,632.4l0,12l1.7,0c0,0,0,0,0,0c0.8,0,1.7-0.3,2.3-0.8c0.7-0.5,1.3-1.2,1.6-2.1c0.4-0.9,0.6-2,0.6-3.2
			c0.1-1.6-0.4-3.1-1.3-4.4c-0.8-1-2-1.5-3.6-1.5L671.2,632.4 M667.3,649.2l-1.6,0l0.1-16.9l-1.6,0l0-1.1l5.4,0l2.1,0
			c2.4,0,4.3,0.6,5.7,1.8c1.4,1.2,2,2.9,2,5.1c0,1.5-0.3,2.7-0.9,3.8c-0.6,1.1-1.4,2-2.5,2.5c-1,0.6-2.3,0.9-3.7,0.9c0,0,0,0,0,0
			l-1,0l0,3.8l-1.6,0l0.1-16.9l-2.2,0L667.3,649.2 M660.7,627.1c-0.1,0-0.2,0-0.3,0c0.5,7.8,0.8,16.7,0.6,26.1l20.3,0.1c0,0,0,0,0,0
			c1.5,0,2.7-1.2,2.7-2.7l0.1-20.7c0-1.5-1.2-2.7-2.7-2.7L660.7,627.1C660.7,627.1,660.7,627.1,660.7,627.1"/>
		<path class="st12" d="M672.9,644.4C672.9,644.4,672.9,644.4,672.9,644.4l-1.7,0l0-12l1.3,0c1.6,0,2.8,0.6,3.6,1.5
			c0.9,1.2,1.4,2.8,1.3,4.4c0,1.2-0.2,2.3-0.6,3.2c-0.4,0.9-0.9,1.6-1.6,2.1C674.6,644.1,673.8,644.4,672.9,644.4 M664.1,631.3
			l0,1.1l1.6,0l-0.1,16.9l1.6,0l0.1-16.9l2.2,0l-0.1,16.9l1.6,0l0-3.8l1,0c0,0,0,0,0,0c1.4,0,2.7-0.3,3.7-0.9
			c1.1-0.5,1.9-1.4,2.5-2.5c0.5-1.1,0.9-2.3,0.9-3.8c0-2.2-0.6-3.9-2-5.1c-1.4-1.2-3.3-1.8-5.7-1.8l-2.1,0L664.1,631.3"/>
	</g>
	<path class="st3" d="M607.6,282.3v15.4c0,1.8,0.8,3.4,2,4.4c1.2,1.1,2.8,1.7,4.6,1.7c0.1,0,0.3,0,0.4,0c3.5,0,6.5-0.1,9.1-0.1
		c1.7,0,3.1,0.1,4.3,0.3c0.9,0.1,1.7,0.4,2.3,0.7c1,0.5,1.7,1.1,2.3,2c0.6,1,1,2.4,1.2,4.3c0,0.2,0,0.4,0,0.6c0,0.6-0.1,1-0.3,1.4
		c-0.2,0.4-0.4,0.7-0.8,1c-0.7,0.6-1.8,1.1-3.1,1.5c-2.4,0.7-5.7,1-9.2,1.2c-5.3,0.3-11.1,0.5-15.8,1.8c-2.3,0.7-4.4,1.6-5.9,3.1
		c-1.5,1.5-2.5,3.6-2.4,6.2c0,0.3,0,0.6,0,1c0.1,1.5,0.4,2.7,0.9,3.8c0.7,1.6,1.9,2.7,3.4,3.4c1.4,0.7,3,0.9,4.7,0.9
		c3.3,0,7-0.9,10.5-1.7c3.6-0.8,7-1.7,9.6-1.7c1.5,0,2.6,0.3,3.3,0.8c0.4,0.3,0.6,0.6,0.9,1.1c0.2,0.5,0.4,1.1,0.4,1.9
		c0,0.3,0,0.6,0,0.9c0,1.5-0.3,2.7-0.8,3.6c-0.4,0.8-1.1,1.4-1.8,1.9c-1.3,0.9-3.2,1.5-5.3,2c-3.1,0.8-6.6,1.3-9.5,2.7
		c-1.4,0.7-2.7,1.7-3.7,3.1c-0.9,1.4-1.4,3.2-1.4,5.4c0,0.2,0,0.3,0,0.5c0.3,7.6,1.6,18.7,2.8,28c1.3,9.2,2.4,16.6,2.4,16.6l2.2-0.4
		c0,0-0.1-0.5-0.2-1.3c-0.5-2.9-1.6-10.4-2.7-18.8c-1.1-8.4-2.1-17.7-2.3-24.2c0-0.1,0-0.3,0-0.4c0-1.6,0.3-2.8,0.8-3.7
		c0.5-0.8,1.1-1.5,1.8-2c1.3-1,3.2-1.6,5.3-2.1c3.1-0.8,6.6-1.3,9.4-2.6c1.4-0.7,2.7-1.6,3.7-3c0.9-1.4,1.5-3.1,1.5-5.2
		c0-0.3,0-0.7,0-1c-0.1-1-0.3-1.9-0.7-2.7c-0.6-1.2-1.5-2-2.6-2.5c-1.1-0.5-2.3-0.6-3.6-0.6c-3,0-6.5,0.9-10.1,1.7
		c-3.6,0.8-7.1,1.7-10,1.7c-2,0-3.6-0.4-4.7-1.3c-0.6-0.4-1-1-1.4-1.8c-0.4-0.8-0.6-1.8-0.7-3c0-0.3,0-0.5,0-0.8
		c0-1.8,0.5-3.1,1.4-4.1c0.8-0.9,1.8-1.7,3.2-2.3c2.4-1.1,5.6-1.6,9.1-2c5.2-0.5,11-0.5,15.5-1.3c2.3-0.4,4.3-0.9,5.8-1.9
		c0.8-0.5,1.4-1.1,1.9-1.9c0.5-0.8,0.7-1.7,0.7-2.7c0-0.3,0-0.5,0-0.8c-0.2-1.9-0.6-3.4-1.3-4.7c-0.5-1-1.1-1.7-1.9-2.4
		c-1.1-0.9-2.5-1.5-4-1.8c-1.5-0.3-3.3-0.4-5.2-0.4c-2.6,0-5.6,0.1-9.1,0.1c-0.1,0-0.3,0-0.4,0c-1.2,0-2.3-0.4-3.1-1.1
		c-0.8-0.7-1.2-1.6-1.3-2.8v-15.4H607.6L607.6,282.3z"/>
	<polyline class="st3" points="435.8,479.8 437.8,515.4 484.5,510.6 484.3,508.4 439.9,513 438,479.6 435.8,479.8 435.8,479.8 	"/>
	<path class="st4" d="M447.8,468.7c0.4,1.5,0.6,3.2,0.5,4.8c-0.7,7.2-7.1,12.1-14.3,11c-3.1-0.5-5.8-2-7.9-4.2
		c1.4,5.1,5.8,9.3,11.4,10.1c7.2,1.1,13.6-3.9,14.3-11C452.1,475.4,450.5,471.5,447.8,468.7z"/>
	<path class="st5" d="M448.2,473.6c0.2-1.7,0-3.3-0.5-4.8c-2.1-2.1-4.8-3.7-7.9-4.1c-7.2-1.1-13.6,3.9-14.3,11
		c-0.2,1.7,0,3.3,0.5,4.8c2.1,2.1,4.8,3.7,7.9,4.2C441.1,485.7,447.5,480.7,448.2,473.6z"/>
	<path class="st13" d="M518.4,506.5c0,20,1.7,36.6-17,36.6c-18.8,0-34-16.2-34-36.1c0-20,15.2-36.1,34-36.1
		C520.2,470.7,518.4,486.5,518.4,506.5 M747.7,444.9c-18.8,0-34,18.2-34,40.7c0,22.5,15.2,40.7,34,40.7s34-18.2,34-40.7
		C781.6,463.1,766.4,444.9,747.7,444.9"/>
	<g>
		<defs>
			<path id="SVGID_5_" d="M518.4,506.5c0,20,1.7,36.6-17,36.6c-18.8,0-34-16.2-34-36.1c0-20,15.2-36.1,34-36.1
				C520.2,470.7,518.4,486.5,518.4,506.5 M747.7,444.9c-18.8,0-34,18.2-34,40.7c0,22.5,15.2,40.7,34,40.7s34-18.2,34-40.7
				C781.6,463.1,766.4,444.9,747.7,444.9"/>
		</defs>
		<clipPath id="SVGID_6_">
			<use xlink:href="#SVGID_5_"  style="overflow:visible;"/>
		</clipPath>
		<path class="st14" d="M488,489.9c-7.7,4.2-14.9,10.3-20.6,15.7c0,0.4,0,0.9,0,1.3c0,16.7,10.7,30.8,25.1,34.9
			C488.8,525.9,487.8,507.9,488,489.9"/>
		<path class="st14" d="M775.6,466.7c0.6,7.1,0.8,14.4,0.8,21.6c0,6.8-0.2,13.6-0.7,20.1c3.7-6.5,5.9-14.4,5.9-22.9
			c0-6.2-1.1-12-3.2-17.2C777.5,467.7,776.6,467.2,775.6,466.7"/>
	</g>
	<path class="st7" d="M626.6,391.8c-88.9,9.1-135.1,17.8-137.8,74.6c-2.8,56.9-1.6,125.6,63.6,126c65.2,0.4,208.5-9.9,218.4-49.8
		c9.9-39.9,8.3-116.9-15.8-139.4C730.9,380.7,676.6,386.6,626.6,391.8"/>
	<g>
		<defs>
			<path id="SVGID_7_" d="M626.6,391.8c-88.9,9.1-135.1,17.8-137.8,74.6c-2.8,56.9-1.6,125.6,63.6,126
				c65.2,0.4,208.5-9.9,218.4-49.8c9.9-39.9,8.3-116.9-15.8-139.4C730.9,380.7,676.6,386.6,626.6,391.8"/>
		</defs>
		<clipPath id="SVGID_8_">
			<use xlink:href="#SVGID_7_"  style="overflow:visible;"/>
		</clipPath>
		<path class="st15" d="M738.3,393.3c8.1,13.5,17.6,37,20.2,74.7c4.1,59.9,9.8,97-137.2,121.7c66.4-5.1,142.4-18.5,149.4-47.1
			c3.6-14.6,5.7-34.2,5.7-54.3c0-34.7-6.2-70.9-21.5-85.2C750.4,399,744.8,395.7,738.3,393.3"/>
	</g>
	<path class="st4" d="M617.6,271.3c0.4,1.5,0.6,3.2,0.5,4.8c-0.7,7.2-7.1,12.1-14.3,11c-3.1-0.5-5.8-2-7.9-4.1
		c1.4,5.1,5.8,9.3,11.4,10.1c7.2,1.1,13.6-3.9,14.3-11C621.9,278.1,620.3,274.2,617.6,271.3z"/>
	<path class="st5" d="M618.1,276.2c0.2-1.7,0-3.3-0.5-4.8c-2.1-2.1-4.8-3.7-7.9-4.2c-7.2-1.1-13.6,3.9-14.3,11
		c-0.2,1.7,0,3.3,0.5,4.8c2.1,2.1,4.8,3.7,7.9,4.1C611,288.3,617.4,283.4,618.1,276.2z"/>
	<path class="st6" d="M599.8,272.6c1.5-2,4.2-2.6,6-1.2c1.8,1.4,0.5,3-1,5.1c-1.5,2-2.7,3.7-4.5,2.3
		C598.5,277.5,598.3,274.7,599.8,272.6z"/>
	<polyline class="st5" points="580.5,270.3 573.2,268.3 572.6,270.4 579.9,272.4 	"/>
	<polyline class="st5" points="602,252.7 599.9,242.6 597.7,243.1 599.9,253.2 	"/>
	<polyline class="st5" points="632,259.2 636.7,253.7 635,252.2 630.3,257.7 	"/>
	<ellipse class="st16" cx="594.6" cy="506.9" rx="10.4" ry="14"/>
	<path class="st16" d="M712.1,497c0,7.7-4.6,14-10.4,14c-5.7,0-10.4-6.3-10.4-14s4.6-14,10.4-14C707.5,483,712.1,489.3,712.1,497z"
		/>
	<path class="st17" d="M663.3,545.1c-5.7,1.1-11.7,1.3-17.5-0.1c-5.8-1.5-11.4-4.5-15.4-9.6c-0.7-1,3.7-3.3,3.9-2.7
		c1.3,2.1,3.2,4,5.3,5.6c2.1,1.6,4.5,2.8,7.1,3.7c5.1,1.7,10.8,2.2,16.4,1.6C663.5,543.5,663.7,545.1,663.3,545.1z"/>
	<path class="st2" d="M586.4,640.7c0,11.9-8.5,21.6-19,21.6c-10.5,0-19-9.7-19-21.6s8.5-21.6,19-21.6
		C577.9,619.1,586.4,628.8,586.4,640.7"/>
	<path class="st13" d="M578.4,640.7c0,11.9-8.5,21.6-19,21.6c-10.5,0-19-9.7-19-21.6s8.5-21.6,19-21.6
		C570,619.1,578.4,628.8,578.4,640.7"/>
	<path class="st0" d="M663.9,706c-0.5,0-1.1-0.1-1.6-0.2c-68.1-15.6-107.5-58.9-109.2-60.8c-2.7-3-2.4-7.5,0.6-10.2
		c3-2.7,7.5-2.4,10.2,0.6c0.4,0.4,38.2,41.8,101.7,56.4c3.9,0.9,6.3,4.8,5.4,8.6C670.2,703.8,667.2,706,663.9,706"/>
	<g>
		<defs>
			<path id="SVGID_9_" d="M663.9,706c-0.5,0-1.1-0.1-1.6-0.2c-68.1-15.6-107.5-58.9-109.2-60.8c-2.7-3-2.4-7.5,0.6-10.2
				c3-2.7,7.5-2.4,10.2,0.6c0.4,0.4,38.2,41.8,101.7,56.4c3.9,0.9,6.3,4.8,5.4,8.6C670.2,703.8,667.2,706,663.9,706"/>
		</defs>
		<clipPath id="SVGID_10_">
			<use xlink:href="#SVGID_9_"  style="overflow:visible;"/>
		</clipPath>
		<polyline class="st18" points="560.7,657.5 573.4,638.6 571.6,637.4 559,656.4 560.7,657.5 		"/>
		<polyline class="st18" points="577,674.5 588.7,650.2 586.9,649.3 575.2,673.6 577,674.5 		"/>
		<path class="st18" d="M605.7,662.3h0.3H605.7L605.7,662.3h0.3H605.7L605.7,662.3c0,0.2-0.2,0.9-0.5,1.7c-0.9,3-3.1,8.8-4.9,13.8
			c-0.9,2.5-1.8,4.8-2.5,6.5s-1.1,2.8-1.1,2.8l2,0.8c0,0,2.3-5.9,4.5-12c1.1-3,2.3-6.1,3.1-8.6c0.4-1.2,0.8-2.3,1-3.1
			c0.1-0.4,0.2-0.8,0.3-1.1c0-0.2,0.1-0.3,0.1-0.4c0-0.1,0-0.2,0-0.4H605.7"/>
		<polyline class="st18" points="628.3,673.7 619.3,698 621.2,698.7 630.2,674.4 628.3,673.7 		"/>
		<polyline class="st18" points="651.7,681 642.7,709.8 644.7,710.4 653.7,681.6 651.7,681 		"/>
		<g class="st19">
			<defs>
				<path id="SVGID_11_" d="M649.5,695l-2.1,6.8c4.8,1.5,9.8,2.8,15,4c0.5,0.1,1.1,0.2,1.6,0.2c3.2,0,6-2.1,6.9-5.2
					c-2.8-0.8-5.8-1.6-9.2-2.4C657.5,697.3,653.4,696.2,649.5,695 M625.6,686.9l-2.3,6.1c6.9,3,14.2,5.8,22,8.2l2.1-6.8
					C639.6,692.1,632.3,689.5,625.6,686.9 M603,676.5c-0.7,1.9-1.4,3.7-2,5.3c6.2,3.6,13.1,7.1,20.4,10.3l2.2-6.1
					C616,683,609.2,679.8,603,676.5 M582.2,663.7l-2.2,4.6c5.6,4,12,8.3,19.2,12.5c0.3-0.9,0.7-1.9,1.1-2.9c0.3-0.8,0.6-1.6,0.9-2.4
					C593.9,671.6,587.6,667.6,582.2,663.7 M565.9,649.8l-3.1,4.7c4,3.6,9.2,7.9,15.5,12.6l2.2-4.6
					C574.5,658,569.7,653.7,565.9,649.8 M553.9,634.8c0,0-0.1,0.1-0.1,0.1c-1.6,1.4-2.4,3.4-2.4,5.4c0,1.7,0.6,3.4,1.8,4.8
					c0.4,0.5,3.1,3.5,8.1,8l3.2-4.8C558.7,642.3,555.4,637.4,553.9,634.8"/>
			</defs>
			<clipPath id="SVGID_12_">
				<use xlink:href="#SVGID_11_"  style="overflow:visible;"/>
			</clipPath>
			<rect x="551.3" y="634.8" class="st20" width="119.6" height="71.3"/>
		</g>
		<path class="st21" d="M564.4,648.3l-3.2,4.8c0.5,0.5,1,0.9,1.6,1.4l3.1-4.7C565.4,649.3,564.9,648.8,564.4,648.3"/>
		<path class="st21" d="M580.5,662.4l-2.2,4.6c0.6,0.4,1.1,0.8,1.7,1.3l2.2-4.6C581.7,663.3,581.1,662.9,580.5,662.4"/>
		<path class="st21" d="M601.1,675.5c-0.3,0.8-0.6,1.6-0.9,2.4c-0.4,1-0.7,2-1.1,2.9c0.6,0.4,1.2,0.7,1.8,1.1c0.6-1.6,1.3-3.4,2-5.3
			C602.4,676.2,601.8,675.9,601.1,675.5"/>
		<path class="st21" d="M623.7,686.1l-2.2,6.1c0.6,0.3,1.3,0.6,1.9,0.8l2.3-6.1C625,686.6,624.3,686.4,623.7,686.1"/>
		<path class="st21" d="M647.5,694.4l-2.1,6.8c0.7,0.2,1.3,0.4,2,0.6l2.1-6.8C648.8,694.8,648.1,694.6,647.5,694.4"/>
	</g>
	<path class="st0" d="M594,686.1l-0.3,0.1c0.2,0.8,0.2,1.6,0.2,2.3c0,2.1-0.6,4.1-1.6,5.6c-1,1.5-2.4,2.5-4.1,2.9
		c-0.4,0.1-0.7,0.1-1.1,0.1c-1.8,0-3.5-0.8-4.9-2.3c-1.4-1.4-2.5-3.5-3-5.9c-0.2-0.8-0.2-1.6-0.2-2.3c0-2.1,0.6-4.1,1.6-5.6
		c1-1.5,2.4-2.5,4.1-2.9c0.4-0.1,0.7-0.1,1.1-0.1c1.8,0,3.5,0.8,4.9,2.3c1.4,1.4,2.5,3.5,3,5.9L594,686.1l0.3-0.1
		c-0.5-2.5-1.6-4.7-3.2-6.2c-1.5-1.5-3.4-2.5-5.4-2.5c-0.4,0-0.8,0-1.2,0.1c-1.9,0.4-3.4,1.5-4.5,3.1c-1.1,1.6-1.7,3.7-1.7,6
		c0,0.8,0.1,1.6,0.2,2.4c0.5,2.5,1.6,4.7,3.2,6.2c1.5,1.5,3.4,2.5,5.4,2.5c0.4,0,0.8,0,1.2-0.1c1.9-0.4,3.4-1.5,4.5-3.1
		c1.1-1.6,1.7-3.7,1.7-6c0-0.8-0.1-1.6-0.2-2.4L594,686.1z"/>
	<polyline class="st22" points="669.8,723.6 712.1,749.7 804.9,724.5 804.9,711 669.8,711 669.8,723.6 	"/>
	<g>
		<defs>
			<polyline id="SVGID_13_" points="669.8,723.6 712.1,749.7 804.9,724.5 804.9,711 669.8,711 669.8,723.6 			"/>
		</defs>
		<clipPath id="SVGID_14_">
			<use xlink:href="#SVGID_13_"  style="overflow:visible;"/>
		</clipPath>
		<path class="st23" d="M804.9,711h-90.7c-0.2,0.2-0.4,0.3-0.4,0.5c-0.8,3.2-0.5,25.7-0.5,25.7h-1.1v12.6l92.8-25.2V711"/>
	</g>
	<polygon class="st24" points="762.6,685.8 804.9,711.9 712.1,737.1 669.8,711 	"/>
	<polygon class="st25" points="688.7,712.8 713.9,729 787.8,709.2 760.8,693 	"/>
	<g>
		<defs>
			<polyline id="SVGID_15_" points="688.7,712.8 713.9,729 787.8,709.2 760.8,693 688.7,712.8 			"/>
		</defs>
		<clipPath id="SVGID_16_">
			<use xlink:href="#SVGID_15_"  style="overflow:visible;"/>
		</clipPath>
		<polyline class="st26" points="690.7,710 725,731.6 725.4,730.9 691.2,709.3 		"/>
		<polyline class="st26" points="701.2,707.1 735.5,728.9 736,728.2 701.7,706.3 		"/>
		<polyline class="st26" points="711.7,704.2 746,726.2 746.5,725.5 712.2,703.4 		"/>
		<polyline class="st26" points="722.3,701.2 756.5,723.5 757,722.8 722.7,700.5 		"/>
		<polyline class="st26" points="732.8,698.3 767,720.8 767.5,720.1 733.3,697.6 		"/>
		<polyline class="st26" points="743.3,695.4 777.5,718.1 778,717.4 743.8,694.6 		"/>
		<polyline class="st26" points="753.8,692.4 788,715.4 788.5,714.7 754.3,691.7 		"/>
		<polyline class="st26" points="691.1,715.5 767.7,694.8 767.4,693.9 690.9,714.6 		"/>
		<polyline class="st26" points="700.1,721.3 776.7,700.6 776.4,699.7 699.9,720.5 		"/>
		<polyline class="st26" points="709.1,727.2 785.7,706.5 785.5,705.6 708.9,726.3 		"/>
	</g>
	<path class="st0" d="M689.5,727.4c-0.1,0-19.1,8.2-40.9,21.8c-6,3.8-14.3,8.5-23.6,12.3c-9.3,3.8-19.6,6.6-29.6,6.6
		c-7.8,0-15.3-1.7-22.3-5.8c-7-4.1-13.5-10.8-18.9-21.1c-3.8-7.2-5.3-13.2-5.3-18.4c0-3.2,0.6-6,1.5-8.6c1.7-4.5,4.7-8.3,8.4-11.4
		c5.5-4.7,12.5-8,18.1-9.9c2.8-1,5.2-1.7,6.9-2.1c0.9-0.2,1.5-0.4,2-0.5c0.2-0.1,0.4-0.1,0.5-0.1l0.1,0l0,0l0,0
		c1.5-0.3,2.4-1.7,2.2-3.2c-0.3-1.5-1.7-2.4-3.2-2.2c-0.2,0-10.3,1.9-20.7,7.5c-5.2,2.8-10.5,6.5-14.5,11.5c-2,2.5-3.7,5.3-4.9,8.5
		c-1.2,3.2-1.9,6.7-1.9,10.5c0,6.2,1.8,13.1,5.9,20.9c5.8,11,13,18.5,20.9,23.2c7.9,4.7,16.5,6.5,25,6.5c11,0,21.9-3,31.6-7
		c9.7-3.9,18.2-8.8,24.4-12.7c10.7-6.7,20.8-12.1,28.2-15.8c3.7-1.8,6.7-3.3,8.8-4.2c1-0.5,1.9-0.8,2.4-1.1c0.3-0.1,0.5-0.2,0.6-0.3
		l0.2-0.1l0,0c1.4-0.6,2-2.2,1.4-3.5C692.4,727.5,690.8,726.8,689.5,727.4L689.5,727.4z"/>
	<path class="st7" d="M701.3,689.4l-7.8,16.1c0,0-13.2-13.6-19.5-4.7c-6.3,9,12.5,16.1,12.5,16.1l-7.3,14c0,0-32.3-12-18.2-38.1
		C673.4,669.8,701.3,689.4,701.3,689.4z"/>
	<g>
		<defs>
			<path id="SVGID_17_" d="M701.3,689.4l-7.8,16.1c0,0-13.2-13.6-19.5-4.7c-6.3,9,12.5,16.1,12.5,16.1l-7.3,14
				c0,0-32.3-12-18.2-38.1C673.4,669.8,701.3,689.4,701.3,689.4"/>
		</defs>
		<clipPath id="SVGID_18_">
			<use xlink:href="#SVGID_17_"  style="overflow:visible;"/>
		</clipPath>
		<polygon class="st27" points="702.4,680.8 667.8,742.2 701.8,748.6 722,672.1 		"/>
		<path class="st27" d="M567.7,393.8l21.2,73.9c0,0-32.3-12.4-32.8-14.5s-4.3-76.6-4.3-76.6L567.7,393.8z"/>
	</g>
	<path class="st7" d="M784.2,704.4l-17.9-1.4c0,0,7.9-17.3-2.8-19.9s-10.4,17.5-10.4,17.5l-15.7-1.7c0,0-0.6-34.5,28.9-30.9
		C792.2,671.3,784.2,704.4,784.2,704.4z"/>
	<g>
		<defs>
			<path id="SVGID_19_" d="M784.2,704.4l-17.9-1.4c0,0,7.9-17.3-2.8-19.9c-10.6-2.6-10.4,17.5-10.4,17.5l-15.7-1.7
				c0,0-0.6-34.5,28.9-30.9C792.2,671.3,784.2,704.4,784.2,704.4"/>
		</defs>
		<clipPath id="SVGID_20_">
			<use xlink:href="#SVGID_19_"  style="overflow:visible;"/>
		</clipPath>
		<polygon class="st28" points="792.6,702.3 722.7,692.5 729.2,726.5 807.8,717.4 		"/>
		<path class="st28" d="M1010.6,472.2l-61.1,46.7c0,0-0.2-34.6,1.5-35.8c1.7-1.2,69.8-31.9,69.8-31.9L1010.6,472.2z"/>
	</g>
	<path class="st29" d="M632,830.8c0,3.5-10.3,6.3-23,6.3s-23-2.8-23-6.3s10.3-6.3,23-6.3S632,827.3,632,830.8z"/>
	<path class="st0" d="M1062.2,564.2c3.2-2.4,7.7-1.7,10.1,1.5c38.6,52.5,91.5,70.8,92.1,71c3.8,1.3,5.8,5.3,4.5,9.1
		c-1.3,3.8-5.3,5.8-9.1,4.6c-2.3-0.8-57.7-19.8-99.1-76.1c-0.3-0.4-0.6-0.9-0.8-1.4C1058.6,569.9,1059.5,566.2,1062.2,564.2"/>
	<g>
		<defs>
			<path id="SVGID_21_" d="M1062.2,564.2c3.2-2.4,7.7-1.7,10.1,1.5c38.6,52.5,91.5,70.8,92.1,71c3.8,1.3,5.8,5.3,4.5,9.1
				c-1.3,3.8-5.3,5.8-9.1,4.6c-2.3-0.8-57.7-19.8-99.1-76.1c-0.3-0.4-0.6-0.9-0.8-1.4C1058.6,569.9,1059.5,566.2,1062.2,564.2"/>
		</defs>
		<clipPath id="SVGID_22_">
			<use xlink:href="#SVGID_21_"  style="overflow:visible;"/>
		</clipPath>
		<polyline class="st30" points="1147.1,649.5 1159.5,630.4 1157.7,629.3 1145.4,648.4 1147.1,649.5 		"/>
		<polyline class="st30" points="1124.9,641.5 1142.6,621.1 1141,619.8 1123.3,640.2 1124.9,641.5 		"/>
		<path class="st30" d="M1122.3,607.1c-0.1,0.1-0.2,0.1-0.4,0.2c-0.4,0.3-1,0.7-1.7,1.3c-2.5,2.2-7,6.4-10.8,10.1
			c-3.8,3.7-7.1,6.9-7.1,6.9l1.5,1.5c0,0,0.3-0.3,0.8-0.8c1.7-1.7,6.1-5.9,10.1-9.8c2-1.9,4-3.8,5.6-5.2c0.8-0.7,1.4-1.3,1.9-1.7
			c0.3-0.2,0.5-0.4,0.6-0.5l0.2-0.1l0,0l0,0l-0.2-0.3l0.1,0.3l0,0l-0.2-0.3l0.1,0.3L1122.3,607.1L1122.3,607.1"/>
		<polyline class="st30" points="1102.3,591.3 1083.5,609.2 1085,610.7 1103.7,592.8 1102.3,591.3 		"/>
		<polyline class="st30" points="1086.4,572.6 1063.5,592.3 1064.9,593.9 1087.8,574.2 1086.4,572.6 		"/>
		<path class="st31" d="M1152.4,641.4l-3.1,4.8c6.1,2.7,9.9,4,10.5,4.2c0.8,0.3,1.5,0.4,2.3,0.4c2.2,0,4.3-1,5.6-2.7
			c-0.2-0.9-0.5-1.8-0.7-2.7C1163.7,644.8,1158.7,643.7,1152.4,641.4 M1133,632.2l-3.3,3.9c6.8,4,12.9,7,17.7,9.3l3-4.7
			C1145.3,638.6,1139.5,635.9,1133,632.2 M1112.8,618.4c-1.4,1.3-2.8,2.7-4,3.9c6.7,4.9,13.1,9.1,19,12.7l3.3-3.9
			C1125.5,627.7,1119.3,623.5,1112.8,618.4 M1094.2,601.9l-4.7,4.5c5.9,5.5,11.8,10.3,17.6,14.6c0.7-0.7,1.5-1.5,2.4-2.3
			c0.6-0.5,1.1-1.1,1.7-1.6C1105.7,612.8,1100,607.7,1094.2,601.9 M1077.1,583.4l-5.4,4.6c5.3,6.2,10.8,11.8,16.3,16.9l4.7-4.5
			C1087.6,595.4,1082.4,589.7,1077.1,583.4 M1061.9,564.4c-1.7,1.4-2.6,3.5-2.6,5.6c0,1,0.2,1.9,0.6,2.9c0.2,0.5,0.5,1,0.8,1.4
			c3.1,4.3,6.4,8.3,9.6,12.2l5.4-4.7c-2.6-3.1-5.3-6.4-7.9-9.9C1065.7,569.2,1063.8,566.7,1061.9,564.4"/>
		<path class="st32" d="M1150.4,640.6l-3,4.7c0.7,0.3,1.3,0.6,1.9,0.9l3.1-4.8C1151.7,641.1,1151.1,640.9,1150.4,640.6"/>
		<path class="st32" d="M1131.2,631.1l-3.3,3.9c0.6,0.4,1.2,0.7,1.8,1.1l3.3-3.9C1132.4,631.8,1131.8,631.5,1131.2,631.1"/>
		<path class="st32" d="M1111.1,617.1c-0.6,0.6-1.1,1.1-1.7,1.6c-0.8,0.8-1.6,1.6-2.4,2.3c0.6,0.4,1.1,0.8,1.7,1.3
			c1.2-1.2,2.6-2.5,4-3.9C1112.2,618,1111.7,617.6,1111.1,617.1"/>
		<path class="st32" d="M1092.7,600.5l-4.7,4.5c0.5,0.5,1,1,1.5,1.4l4.7-4.5C1093.7,601.5,1093.2,601,1092.7,600.5"/>
		<path class="st32" d="M1075.7,581.8l-5.4,4.7c0.5,0.5,0.9,1.1,1.4,1.6l5.4-4.6C1076.6,582.9,1076.2,582.3,1075.7,581.8"/>
	</g>
	<path class="st7" d="M1068.6,576.1c-25,15.9-39.3-15.4-39.3-15.4l13.4-8.3c0,0,8.5,18.2,17,11.3c8.5-6.9-6.1-19.1-6.1-19.1l15.5-9
		C1069.2,535.5,1090.7,562,1068.6,576.1z"/>
	<g>
		<defs>
			<path id="SVGID_23_" d="M1068.6,576.1c-25,15.9-39.3-15.4-39.3-15.4l13.4-8.3c0,0,8.5,18.2,17,11.3c8.5-6.9-6.1-19.1-6.1-19.1
				l15.5-9C1069.2,535.5,1090.7,562,1068.6,576.1"/>
		</defs>
		<clipPath id="SVGID_24_">
			<use xlink:href="#SVGID_23_"  style="overflow:visible;"/>
		</clipPath>
		<polygon class="st33" points="1077.7,533.8 1018.9,572.8 1010.1,539.3 1084.9,513.6 		"/>
		<path class="st33" d="M1373.6,647.5l-75.3-15.8c0,0,14.7,31.3,16.8,31.7c2.1,0.4,76.7-1.3,76.7-1.3L1373.6,647.5z"/>
	</g>
	<path class="st34" d="M1187.4,371.9c-10.5,11.1-15.7,21.5-15.7,21.5l144.8,31.3c0,0,0.3-11.3-3.5-25.4
		C1260.6,382.7,1206.4,374.4,1187.4,371.9"/>
	<g>
		<defs>
			<path id="SVGID_25_" d="M1187.4,371.9c-10.5,11.1-15.7,21.5-15.7,21.5l144.8,31.3c0,0,0.3-11.3-3.5-25.4
				C1260.6,382.7,1206.4,374.4,1187.4,371.9"/>
		</defs>
		<clipPath id="SVGID_26_">
			<use xlink:href="#SVGID_25_"  style="overflow:visible;"/>
		</clipPath>
		<path class="st35" d="M1287.2,391.8c0.6,2.2,1.2,4.4,1.6,6.8c9.2,1.5,17.6,3.1,25.3,5c-0.3-1.4-0.7-2.8-1.1-4.3
			C1304.4,396.6,1295.8,394.1,1287.2,391.8"/>
	</g>
	<path class="st34" d="M1271.9,347.4c-0.8,5.9-6.3,10-12.2,9.2c-5.9-0.8-10-6.3-9.2-12.2c0.8-5.9,6.3-10,12.2-9.2
		S1272.7,341.5,1271.9,347.4"/>
	<g>
		<defs>
			<path id="SVGID_27_" d="M1271.9,347.4c-0.8,5.9-6.3,10-12.2,9.2c-5.9-0.8-10-6.3-9.2-12.2c0.8-5.9,6.3-10,12.2-9.2
				S1272.7,341.5,1271.9,347.4"/>
		</defs>
		<clipPath id="SVGID_28_">
			<use xlink:href="#SVGID_27_"  style="overflow:visible;"/>
		</clipPath>
		<path class="st36" d="M1265.2,335.9c1,3.1,1.5,7.7-1.2,12.6c2.4,0.6,4.7,1.3,6.9,2.1c0.5-1,0.8-2.1,1-3.2c0.1-0.5,0.1-1,0.1-1.5
			C1272,341.5,1269.3,337.5,1265.2,335.9"/>
	</g>
	<path class="st37" d="M1313.1,399.3c-5.4-19.9-19.1-45.3-53.9-51.8c-34-6.3-57.7,9.6-71.8,24.4
		C1206.4,374.4,1260.6,382.7,1313.1,399.3"/>
	<g>
		<defs>
			<path id="SVGID_29_" d="M1313.1,399.3c-5.4-19.9-19.1-45.3-53.9-51.8c-34-6.3-57.7,9.6-71.8,24.4
				C1206.4,374.4,1260.6,382.7,1313.1,399.3"/>
		</defs>
		<clipPath id="SVGID_30_">
			<use xlink:href="#SVGID_29_"  style="overflow:visible;"/>
		</clipPath>
		<polyline class="st38" points="1196.7,350.7 1214.9,355 1211.7,364.6 1226.6,366.7 1228,357 1242.6,359.8 1240.9,372.4 
			1251.2,373.8 1251.8,363.1 1267.1,366.9 1265.9,375.9 1280.5,378 1282,367.4 1290.4,369.2 1287.6,382.6 1297.9,384 1299.3,374.1 
			1313.9,373.5 1313.8,371.3 1297.4,371.9 1296,381.5 1290.2,380.7 1293,367.6 1280.2,364.7 1278.7,375.5 1268.4,374 1269.6,365.2 
			1249.7,360.3 1249.1,371.3 1243.4,370.5 1245.1,358.1 1226.1,354.4 1224.7,364.2 1214.7,362.8 1217.8,353.4 1197.2,348.5 
			1196.7,350.7 		"/>
		<path class="st39" d="M1257.4,347.1c5.9,4.4,14.7,12.5,21.8,25l1.1-7.5l12.8,2.9l-2.8,13.2l5.8,0.8l1.4-9.6l2.6-0.1
			c-6.7-8.8-16-16.5-29.1-21.2c-2.2-0.8-4.5-1.5-6.9-2.1c-1.6-0.4-3.2-0.8-4.9-1.1C1258.6,347.3,1258,347.2,1257.4,347.1"/>
		<path class="st39" d="M1282,367.4l-1.1,8.1c2.4,4.8,4.6,10.2,6.3,16.3c8.6,2.3,17.2,4.8,25.9,7.5c-2.2-8.1-5.7-17.1-11.5-25.3
			l-2.3,0.1l-1.4,10l-10.3-1.4l2.8-13.4L1282,367.4"/>
		<path class="st40" d="M1280.2,364.7l-1.1,7.5c0.6,1.1,1.2,2.2,1.8,3.3l1.1-8.1l8.3,1.9l-2.8,13.4l10.3,1.4l1.4-10l2.3-0.1
			c-0.5-0.7-1-1.4-1.6-2.2l0,0l-2.6,0.1l-1.4,9.6l-5.8-0.8l2.8-13.2L1280.2,364.7"/>
	</g>
	<path class="st13" d="M1159.1,641.2c0,11.9,8.5,21.6,19,21.6s19-9.7,19-21.6s-8.5-21.6-19-21.6S1159.1,629.2,1159.1,641.2z"/>
	<polyline class="st3" points="1062.7,446 1056.5,486.5 1101.4,494.2 1101.8,492 1059,484.7 1064.9,446.3 1062.7,446 	"/>
	<path class="st4" d="M1054.9,438.2c-0.4,1.5-0.6,3.2-0.5,4.8c0.7,7.2,7.1,12.1,14.3,11c3.1-0.5,5.8-2,7.9-4.1
		c-1.4,5.1-5.8,9.3-11.4,10.1c-7.2,1.1-13.6-3.9-14.3-11C1050.6,444.9,1052.2,441,1054.9,438.2z"/>
	<path class="st5" d="M1054.5,443c-0.2-1.7,0-3.3,0.5-4.8c2.1-2.1,4.8-3.7,7.9-4.1c7.2-1.1,13.6,3.9,14.3,11c0.2,1.7,0,3.3-0.5,4.8
		c-2.1,2.1-4.8,3.7-7.9,4.1C1061.5,455.1,1055.1,450.2,1054.5,443z"/>
	<path class="st6" d="M1072.7,439.4c-1.5-2-4.2-2.6-6-1.2c-1.8,1.4-0.5,3,1,5.1c1.5,2,2.7,3.7,4.5,2.3
		C1074,444.3,1074.2,441.5,1072.7,439.4z"/>
	<path class="st7" d="M1290.9,613.4c0,0-71.3-7.8-130.8,0.3c0,0,19.9,122.7,67.4,125.7C1291.7,743.5,1290.9,613.4,1290.9,613.4"/>
	<g>
		<defs>
			<path id="SVGID_31_" d="M1290.9,613.4c0,0-71.3-7.8-130.8,0.3c0,0,19.9,122.7,67.4,125.7C1291.7,743.5,1290.9,613.4,1290.9,613.4
				"/>
		</defs>
		<clipPath id="SVGID_32_">
			<use xlink:href="#SVGID_31_"  style="overflow:visible;"/>
		</clipPath>
		<path class="st41" d="M1269,647.1c0,30.3-4.9,67.7-25.8,90.3c26-8.7,37.9-44,43.3-74.7C1278.1,662.4,1271.2,655.9,1269,647.1
			 M1266.8,611.5c0.8,6.5,1.6,15,2,24.8c2-9.5,9.5-16.7,18.5-16.7c1.2,0,2.4,0.1,3.5,0.4c0.1-3.4,0.1-5.6,0.1-6.3c0,0,0,0,0,0
			c0,0,0,0,0,0c0-0.1,0-0.2,0-0.2S1281.6,612.4,1266.8,611.5"/>
	</g>
	<polyline class="st3" points="1425.7,480.1 1423.8,513.4 1379.4,508.8 1379.2,511 1425.9,515.9 1427.9,480.2 1425.7,480.1 
		1425.7,480.1 	"/>
	<path class="st4" d="M1416,469.2c-0.4,1.5-0.6,3.2-0.5,4.8c0.7,7.2,7.1,12.1,14.3,11c3.1-0.5,5.8-2,7.9-4.2
		c-1.4,5.1-5.8,9.3-11.4,10.1c-7.2,1.1-13.6-3.9-14.3-11C1411.6,475.9,1413.2,472,1416,469.2z"/>
	<path class="st5" d="M1415.5,474c-0.2-1.7,0-3.3,0.5-4.8c2.1-2.1,4.8-3.7,7.9-4.1c7.2-1.1,13.6,3.9,14.3,11c0.2,1.7,0,3.3-0.5,4.8
		c-2.1,2.1-4.8,3.7-7.9,4.2C1422.6,486.1,1416.2,481.2,1415.5,474z"/>
	<path class="st13" d="M1362.3,471.2c18.8,0,34,16.2,34,36.1c0,20-15.2,36.1-34,36.1c-18.8,0-17-16.6-17-36.6
		C1345.3,487,1343.6,471.2,1362.3,471.2 M1082.1,486c0,22.5,15.2,40.7,34,40.7c18.8,0,34-18.2,34-40.7c0-22.5-15.2-40.7-34-40.7
		C1097.3,445.4,1082.1,463.6,1082.1,486"/>
	<g>
		<defs>
			<path id="SVGID_33_" d="M1362.3,471.2c18.8,0,34,16.2,34,36.1c0,20-15.2,36.1-34,36.1c-18.8,0-17-16.6-17-36.6
				C1345.3,487,1343.6,471.2,1362.3,471.2 M1082.1,486c0,22.5,15.2,40.7,34,40.7c18.8,0,34-18.2,34-40.7c0-22.5-15.2-40.7-34-40.7
				C1097.3,445.4,1082.1,463.6,1082.1,486"/>
		</defs>
		<clipPath id="SVGID_34_">
			<use xlink:href="#SVGID_33_"  style="overflow:visible;"/>
		</clipPath>
		<path class="st42" d="M1375.7,490.4c0,1.4,0,2.8,0,4.2c0,16.6-1.1,33.1-4.6,47.7c14.5-4.1,25.1-18.2,25.1-34.9c0-0.4,0-0.9,0-1.3
			C1390.6,500.6,1383.5,494.6,1375.7,490.4"/>
		<path class="st42" d="M1088.1,467.2c-0.9,0.5-1.9,1-2.8,1.6c-2,5.2-3.2,11.1-3.2,17.2c0,8.5,2.2,16.4,5.9,22.9
			C1087,495.5,1087,481.1,1088.1,467.2"/>
	</g>
	<path class="st7" d="M1237.1,392.2c88.9,9.1,135.1,17.8,137.8,74.6c2.8,56.9,1.6,125.6-63.6,126c-65.2,0.4-208.5-9.9-218.4-49.8
		c-9.9-39.9-8.3-116.9,15.8-139.4C1132.9,381.2,1187.1,387.1,1237.1,392.2"/>
	<g>
		<defs>
			<path id="SVGID_35_" d="M1237.1,392.2c88.9,9.1,135.1,17.8,137.8,74.6c2.8,56.9,1.6,125.6-63.6,126
				c-65.2,0.4-208.5-9.9-218.4-49.8c-9.9-39.9-8.3-116.9,15.8-139.4C1132.9,381.2,1187.1,387.1,1237.1,392.2"/>
		</defs>
		<clipPath id="SVGID_36_">
			<use xlink:href="#SVGID_35_"  style="overflow:visible;"/>
		</clipPath>
		<path class="st43" d="M1339.9,412.4c7.7,13.8,16.4,36.7,18.8,72.3c3.4,49.6,7.9,83.5-74,107.8c8.3,0.3,16.1,0.4,23,0.4
			c1.2,0,2.4,0,3.6,0c54.8-0.3,64.4-49,64.4-98.3c0-9.3-0.3-18.6-0.8-27.7C1373.6,439.1,1361.9,422.8,1339.9,412.4"/>
	</g>
	<path class="st16" d="M1272,484c0,7.7,4.6,14,10.4,14s10.4-6.3,10.4-14s-4.6-14-10.4-14S1272,476.3,1272,484z"/>
	<ellipse class="st16" cx="1167.9" cy="474.1" rx="10.4" ry="14"/>
	<path class="st13" d="M1268.3,641.2c0,11.9,8.5,21.6,19,21.6c10.5,0,19-9.7,19-21.6s-8.5-21.6-19-21.6
		C1276.8,619.6,1268.3,629.2,1268.3,641.2"/>
	<path class="st2" d="M1276.3,641.2c0,11.9,8.5,21.6,19,21.6c10.5,0,19-9.7,19-21.6s-8.5-21.6-19-21.6
		C1284.8,619.6,1276.3,629.2,1276.3,641.2"/>
	<path class="st0" d="M1400.4,580.1c-0.3,0.5-0.6,0.9-0.9,1.3c-46.6,52.1-103.6,65.7-106,66.2c-3.9,0.9-7.7-1.5-8.6-5.4
		c-0.9-3.9,1.5-7.7,5.4-8.6c0.5-0.1,55-13.2,98.5-61.8c2.7-3,7.2-3.2,10.2-0.6C1401.5,573.6,1402,577.2,1400.4,580.1"/>
	<g>
		<defs>
			<path id="SVGID_37_" d="M1400.4,580.1c-0.3,0.5-0.6,0.9-0.9,1.3c-46.6,52.1-103.6,65.7-106,66.2c-3.9,0.9-7.7-1.5-8.6-5.4
				c-0.9-3.9,1.5-7.7,5.4-8.6c0.5-0.1,55-13.2,98.5-61.8c2.7-3,7.2-3.2,10.2-0.6C1401.5,573.6,1402,577.2,1400.4,580.1"/>
		</defs>
		<clipPath id="SVGID_38_">
			<use xlink:href="#SVGID_37_"  style="overflow:visible;"/>
		</clipPath>
		<polyline class="st44" points="1308.1,647 1297.6,626.8 1295.8,627.8 1306.2,648 1308.1,647 		"/>
		<polyline class="st44" points="1330.8,641 1315.2,619 1313.5,620.2 1329.1,642.2 1330.8,641 		"/>
		<path class="st44" d="M1334,610l0.2-0.3L1334,610L1334,610l0.2-0.3L1334,610L1334,610c0.1,0.1,0.3,0.2,0.5,0.4
			c0.8,0.8,2.3,2.4,4.1,4.4c2.6,3,5.9,6.7,8.4,9.7c1.3,1.5,2.4,2.8,3.2,3.8c0.8,0.9,1.3,1.5,1.3,1.5l1.6-1.3c0,0-4-4.8-8.3-9.7
			c-2.1-2.5-4.3-4.9-6-6.9c-0.9-1-1.6-1.8-2.2-2.4c-0.3-0.3-0.6-0.6-0.8-0.8c-0.1-0.1-0.2-0.2-0.3-0.3c-0.1-0.1-0.2-0.2-0.3-0.2
			L1334,610L1334,610"/>
		<polyline class="st44" points="1354.9,595.7 1371.8,615.4 1373.4,614 1356.5,594.4 1354.9,595.7 		"/>
		<polyline class="st44" points="1372.6,578.7 1393.4,600.6 1395,599.1 1374.1,577.3 1372.6,578.7 		"/>
		<path class="st45" d="M1301.8,639.4c-8,2.1-13.9,2.6-16.9,2.7c0,0.1,0,0.1,0,0.2c0.8,3.3,3.7,5.6,7,5.6c0.5,0,1.1-0.1,1.6-0.2
			c0.6-0.1,4.5-1.1,10.9-3.2L1301.8,639.4 M1322,632.1c-6.8,3.1-12.9,5.2-18.1,6.7l2.6,5c5.1-1.8,11.4-4.2,18.5-7.5L1322,632.1
			 M1343.4,620.4c-7,4.5-13.5,8-19.5,10.8l3,4.2c6.2-2.9,13-6.5,20.2-10.8c0,0,0,0,0,0C1345.9,623.3,1344.7,621.8,1343.4,620.4
			 M1363.5,605.7c-6.4,5.2-12.5,9.6-18.4,13.5c1.3,1.5,2.6,3,3.7,4.3c6.1-3.7,12.5-8,18.9-12.9L1363.5,605.7 M1382.3,589
			c-5.9,5.8-11.6,10.9-17.2,15.5l4.3,4.9c5.9-4.6,11.9-9.7,17.8-15.3L1382.3,589 M1399.2,571.5c-2,2.1-4.2,4.3-6.6,6.9
			c-3,3.2-5.9,6.2-8.8,9.1l4.9,5.2c3.6-3.5,7.2-7.2,10.7-11.2c0.4-0.4,0.7-0.9,0.9-1.3c0.6-1.1,0.9-2.3,0.9-3.5
			C1401.3,574.8,1400.6,572.9,1399.2,571.5"/>
		<path class="st46" d="M1303.8,638.8c-0.7,0.2-1.4,0.4-2.1,0.6l2.6,5.1c0.6-0.2,1.3-0.4,2-0.7L1303.8,638.8"/>
		<path class="st46" d="M1323.9,631.2c-0.7,0.3-1.3,0.6-1.9,0.9l3,4.2c0.6-0.3,1.3-0.6,1.9-0.9L1323.9,631.2"/>
		<path class="st46" d="M1345.2,619.2c-0.6,0.4-1.2,0.8-1.8,1.1c1.3,1.5,2.5,2.9,3.6,4.2c0,0,0,0,0,0c0.6-0.4,1.2-0.7,1.8-1.1
			C1347.7,622.2,1346.5,620.7,1345.2,619.2"/>
		<path class="st46" d="M1365.2,604.4c-0.5,0.4-1.1,0.9-1.6,1.3l4.2,4.9c0.6-0.4,1.1-0.8,1.7-1.3L1365.2,604.4"/>
		<path class="st46" d="M1383.8,587.5c-0.5,0.5-1,1-1.5,1.5l4.9,5.1c0.5-0.5,1-1,1.5-1.4L1383.8,587.5"/>
	</g>
	<path class="st7" d="M1394.8,542l14.6,10.4c0,0-15.6,10.7-7.9,18.5s18-9.6,18-9.6l12.6,9.6c0,0-17.3,29.8-40.6,11.6
		C1370.8,566.3,1394.8,542,1394.8,542z"/>
	<g>
		<defs>
			<path id="SVGID_39_" d="M1394.8,542l14.6,10.4c0,0-15.6,10.7-7.9,18.5s18-9.6,18-9.6l12.6,9.6c0,0-17.3,29.8-40.6,11.6
				C1370.8,566.3,1394.8,542,1394.8,542"/>
		</defs>
		<clipPath id="SVGID_40_">
			<use xlink:href="#SVGID_39_"  style="overflow:visible;"/>
		</clipPath>
		<polygon class="st47" points="1386.5,539.5 1441.3,584 1453.2,551.5 1381.2,518.8 		"/>
		<path class="st47" d="M1081,624.2l76.4-8.4c0,0-17.7,29.7-19.8,29.9c-2.1,0.2-76.2-8.7-76.2-8.7L1081,624.2z"/>
	</g>
	<path class="st48" d="M1195.7,522.2c4.1,6.6,10,11.8,18.6,11.8c10.8,0,17.6-8.2,21.7-17.1C1218.9,506.6,1203.3,515.9,1195.7,522.2z
		"/>
	<path class="st16" d="M1187.3,495.2c0,0,1.5,15.6,8.5,27c7.6-6.3,23.1-15.6,40.3-5.3c4.9-10.4,6.2-21.7,6.2-21.7
		C1212.5,512.3,1187.3,495.2,1187.3,495.2z"/>
	<path class="st29" d="M1494.5,313.7c0-37.6-39.9-68-89.2-68c-49.3,0-89.2,30.5-89.2,68c0,33,30.9,60.5,71.8,66.7
		c-3.8,7.6-10.4,16.1-21.3,19.3c0,0,26.9-3.3,40.9-18C1455.7,380.8,1494.5,350.7,1494.5,313.7z"/>
	<text transform="matrix(1 0 0 1 1362.5801 326.5723)" class="st49 st50 st51">你好</text>
	<path class="st29" d="M1259.3,830.8c0,3.5-10.3,6.3-23,6.3c-12.7,0-23-2.8-23-6.3s10.3-6.3,23-6.3
		C1249.1,824.5,1259.3,827.3,1259.3,830.8z"/>
</g>
</svg>
