<svg xmlns="http://www.w3.org/2000/svg" xmlns:xlink="http://www.w3.org/1999/xlink" viewBox="0 0 387.41 530.8"><defs><style>.cls-1{fill:none;}.cls-2{fill:#53535e;}.cls-3{clip-path:url(#clip-path);}.cls-4{fill:#202024;}.cls-5{fill:#4eab8c;}.cls-6{fill:#2d2d33;}.cls-7{fill:#398bf8;}.cls-8{fill:#39aef8;}.cls-9{fill:#fcfcfc;}.cls-10{fill:#b3b3b3;}.cls-11{clip-path:url(#clip-path-4);}.cls-12{fill:#b50000;}.cls-13{fill:#fff;}.cls-14{fill:#9f9da3;}.cls-15{fill:#a10000;}.cls-16{fill:#e3dfe8;}.cls-17{fill:#60d4ad;}.cls-18{clip-path:url(#clip-path-9);}.cls-19{fill:#56bf9d;}.cls-20{clip-path:url(#clip-path-11);}.cls-21{fill:#34343b;}.cls-22{fill:#61616e;}.cls-23{clip-path:url(#clip-path-12);}.cls-24{clip-path:url(#clip-path-18);}.cls-25{fill:#4a4955;}.cls-26{fill:#1c1c21;}.cls-27{fill:#6c7c8a;}.cls-28{clip-path:url(#clip-path-24);}.cls-29{fill:#606d7d;}.cls-30{fill:#98aec5;}.cls-31{fill:#78889a;}.cls-32{clip-path:url(#clip-path-25);}.cls-33{fill:#3d464f;}.cls-34{clip-path:url(#clip-path-35);}.cls-35{fill:#d6d6ee;}.cls-36{clip-path:url(#clip-path-37);}</style><clipPath id="clip-path"><path class="cls-1" d="M327.68,440a8.75,8.75,0,0,1-1.6-.2c-68.4-15.7-91.9-45.1-92.8-46.3a7.18,7.18,0,0,1,1.3-10.1,7.27,7.27,0,0,1,10.1,1.2c.3.4,22.1,26.7,84.7,41.1a7.25,7.25,0,0,1-1.7,14.3"/></clipPath><clipPath id="clip-path-4"><path class="cls-1" d="M138.38,370.3s71.3-7.8,130.8.3c0,0-19.9,122.7-67.4,125.7-64.2,4.1-63.4-126-63.4-126"/></clipPath><clipPath id="clip-path-9"><path class="cls-1" d="M93,263.9c0,20,1.7,36.6-17,36.6s-34-16.2-34-36.1,15.2-36.1,34-36.1c18.8-.2,17,15.6,17,35.6m229.3-61.6c-18.8,0-34,18.2-34,40.7s15.2,40.7,34,40.7,34-18.2,34-40.7-15.3-40.7-34-40.7"/></clipPath><clipPath id="clip-path-11"><path class="cls-1" d="M201.18,149.2c-88.9,9.1-135.1,17.8-137.8,74.6s-1.6,125.6,63.6,126,208.5-9.9,218.4-49.8,8.3-116.9-15.8-139.4-78.4-16.6-128.4-11.4"/></clipPath><clipPath id="clip-path-12"><path class="cls-1" d="M238.48,463.4a8.75,8.75,0,0,1-1.6-.2c-68.1-15.6-107.5-58.9-109.2-60.8a7.22,7.22,0,1,1,10.8-9.6c.4.4,38.2,41.8,101.7,56.4a7.19,7.19,0,0,1-1.7,14.2"/></clipPath><clipPath id="clip-path-18"><path class="cls-1" d="M224.08,452.4l-2.1,6.8c4.8,1.5,9.8,2.8,15,4a8.75,8.75,0,0,0,1.6.2,7.17,7.17,0,0,0,6.9-5.2c-2.8-.8-5.8-1.6-9.2-2.4-4.2-1.1-8.3-2.2-12.2-3.4m-23.9-8.1-2.3,6.1a209.7,209.7,0,0,0,22,8.2l2.1-6.8c-7.8-2.3-15.1-4.9-21.8-7.5m-22.6-10.4c-.7,1.9-1.4,3.7-2,5.3A204.14,204.14,0,0,0,196,449.5l2.2-6.1a199.63,199.63,0,0,1-20.6-9.5m-20.8-12.8-2.2,4.6c5.6,4,12,8.3,19.2,12.5.3-.9.7-1.9,1.1-2.9l.9-2.4a166,166,0,0,1-19-11.8m-16.3-13.9-3.1,4.7c4,3.6,9.2,7.9,15.5,12.6l2.2-4.6a125.32,125.32,0,0,1-14.6-12.7m-12-15-.1.1a7.14,7.14,0,0,0-2.4,5.4,7.36,7.36,0,0,0,1.8,4.8,93.93,93.93,0,0,0,8.1,8l3.2-4.8a72.7,72.7,0,0,1-10.6-13.5"/></clipPath><clipPath id="clip-path-24"><polyline class="cls-1" points="244.38 481 286.68 507.1 379.48 481.9 379.48 468.4 244.38 468.4 244.38 481"/></clipPath><clipPath id="clip-path-25"><polyline class="cls-1" points="263.28 470.2 288.48 486.4 362.38 466.6 335.38 450.4 263.28 470.2"/></clipPath><clipPath id="clip-path-35"><path class="cls-1" d="M275.88,446.8l-7.8,16.1s-13.2-13.6-19.5-4.7,12.5,16.1,12.5,16.1l-7.3,14s-32.3-12-18.2-38.1c12.4-23,40.3-3.4,40.3-3.4"/></clipPath><clipPath id="clip-path-37"><path class="cls-1" d="M358.78,461.8l-17.9-1.4s7.9-17.3-2.8-19.9-10.4,17.5-10.4,17.5L312,456.3s-.6-34.5,28.9-30.9c25.9,3.3,17.9,36.4,17.9,36.4"/></clipPath></defs><g id="Layer_2" data-name="Layer 2"><g id="Layer_1-2" data-name="Layer 1"><path class="cls-2" d="M327.68,440a8.75,8.75,0,0,1-1.6-.2c-68.4-15.7-91.9-45.1-92.8-46.3a7.18,7.18,0,0,1,1.3-10.1,7.27,7.27,0,0,1,10.1,1.2c.3.4,22.1,26.7,84.7,41.1a7.25,7.25,0,0,1-1.7,14.3"/><g class="cls-3"><polyline class="cls-4" points="266.98 423.7 276.88 398.5 274.98 397.7 264.98 423"/></g><g class="cls-3"><polyline class="cls-4" points="291.08 406.9 285.68 431.2 287.78 431.7 293.18 407.4"/></g><g class="cls-3"><polyline class="cls-4" points="310.98 413.9 300.18 440.1 302.08 440.9 312.88 414.7"/></g><path class="cls-5" d="M270.18,398.1c0,11.9-8.5,21.6-19,21.6s-19-9.7-19-21.6,8.5-21.6,19-21.6,19,9.7,19,21.6"/><polyline class="cls-6" points="373.38 203.3 379.28 241.6 336.48 249 336.88 251.1 381.78 243.4 375.58 202.9 373.38 203.3"/><path class="cls-7" d="M383.38,195.1a15.39,15.39,0,0,1,.5,4.8,12.27,12.27,0,0,1-14.3,11,14.39,14.39,0,0,1-7.9-4.1,14,14,0,0,0,11.4,10.1,12.33,12.33,0,0,0,14.3-11A14.15,14.15,0,0,0,383.38,195.1Z"/><path class="cls-8" d="M383.88,199.9a11,11,0,0,0-.5-4.8,13.78,13.78,0,0,0-7.9-4.1,12.33,12.33,0,0,0-14.3,11,11,11,0,0,0,.5,4.8,13.78,13.78,0,0,0,7.9,4.1A12.27,12.27,0,0,0,383.88,199.9Z"/><path class="cls-9" d="M365.58,196.4a4.31,4.31,0,0,1,6-1.2c1.8,1.4.5,3-1,5.1s-2.7,3.7-4.5,2.3A4.49,4.49,0,0,1,365.58,196.4Z"/><path class="cls-10" d="M138.38,370.3s71.3-7.8,130.8.3c0,0-19.9,122.7-67.4,125.7-64.2,4.1-63.4-126-63.4-126"/><g class="cls-11"><path class="cls-12" d="M235.28,384.5l20.7.1a2.69,2.69,0,0,1,2.7,2.7l-.1,20.7a2.69,2.69,0,0,1-2.7,2.7l-20.7-.1a2.69,2.69,0,0,1-2.7-2.7l.1-20.7a2.69,2.69,0,0,1,2.7-2.7"/></g><g class="cls-11"><path class="cls-13" d="M238.68,388.7v1.1h1.6l-.1,16.9h1.6l.1-16.9h2.2l-.1,16.9h1.6v-3.8h1a7.9,7.9,0,0,0,3.8-.9,5.5,5.5,0,0,0,2.5-2.5,8.87,8.87,0,0,0,.9-3.8,6.29,6.29,0,0,0-2-5.1,8.47,8.47,0,0,0-5.7-1.8H244l-5.3-.1m7.1,1.1h1.3a4.64,4.64,0,0,1,3.6,1.5,6.74,6.74,0,0,1,1.3,4.4,7.94,7.94,0,0,1-.6,3.2,4.91,4.91,0,0,1-1.6,2.1,4,4,0,0,1-2.3.8h-1.7v-12"/></g><g class="cls-11"><path class="cls-14" d="M228.18,461.1c-4,12.6-9.9,24.3-18.4,33.5l-.2.2c12.1-4.3,22.1-16.3,30.3-31.4a5.7,5.7,0,0,1-1.3.1,8.75,8.75,0,0,1-1.6-.2c-3.1-.7-6-1.5-8.8-2.2m5.2-93.6c.6,4.6,1.2,10.4,1.6,17h.3l20.7.1a2.69,2.69,0,0,1,2.7,2.7l-.1,20.7a2.69,2.69,0,0,1-2.7,2.7h0l-20.3-.1a207.63,207.63,0,0,1-3.9,36.4c2.8.8,5.5,1.5,8.4,2.1a7.18,7.18,0,0,1,4.8,3.8c16.7-36.4,24.2-82.4,24.2-82.4-11.6-1.5-23.7-2.4-35.7-3"/></g><g class="cls-11"><path class="cls-15" d="M245.78,389.8v12h1.7a3.78,3.78,0,0,0,2.3-.8,4.25,4.25,0,0,0,1.6-2.1,7.94,7.94,0,0,0,.6-3.2,6.92,6.92,0,0,0-1.3-4.4,4.33,4.33,0,0,0-3.6-1.5h-1.3m-3.9,16.8h-1.6l.1-16.9h-1.6v-1.1h7.5a8.47,8.47,0,0,1,5.7,1.8,6.29,6.29,0,0,1,2,5.1,7.63,7.63,0,0,1-.9,3.8,5.5,5.5,0,0,1-2.5,2.5,7.24,7.24,0,0,1-3.7.9h-1v3.8h-1.6l.1-16.9h-2.2l-.3,17m-6.6-22.1H235c.5,7.8.8,16.7.6,26.1l20.3.1h0a2.69,2.69,0,0,0,2.7-2.7l.1-20.7a2.69,2.69,0,0,0-2.7-2.7l-20.7-.1h0"/></g><g class="cls-11"><path class="cls-16" d="M247.48,401.8h-1.7v-12h1.3a4.64,4.64,0,0,1,3.6,1.5,6.74,6.74,0,0,1,1.3,4.4,7.94,7.94,0,0,1-.6,3.2,4.91,4.91,0,0,1-1.6,2.1,3.57,3.57,0,0,1-2.3.8m-8.8-13.1v1.1h1.6l-.1,16.9h1.6l.1-16.9h2.2l-.1,16.9h1.6v-3.8h1a7.24,7.24,0,0,0,3.7-.9,5.5,5.5,0,0,0,2.5-2.5,8.87,8.87,0,0,0,.9-3.8,6.29,6.29,0,0,0-2-5.1,8.47,8.47,0,0,0-5.7-1.8h-2.1l-5.2-.1"/></g><path class="cls-6" d="M182.18,39.7V55.1a5.73,5.73,0,0,0,2,4.4,6.69,6.69,0,0,0,4.6,1.7h.4c3.5,0,6.5-.1,9.1-.1a26.29,26.29,0,0,1,4.3.3,6.93,6.93,0,0,1,2.3.7,5.59,5.59,0,0,1,2.3,2,10.54,10.54,0,0,1,1.2,4.3V69a2.9,2.9,0,0,1-.3,1.4,2.54,2.54,0,0,1-.8,1,9,9,0,0,1-3.1,1.5,44.78,44.78,0,0,1-9.2,1.2c-5.3.3-11.1.5-15.8,1.8a13.89,13.89,0,0,0-5.9,3.1,8.13,8.13,0,0,0-2.4,6.2v1a10.62,10.62,0,0,0,.9,3.8,6.64,6.64,0,0,0,3.4,3.4,10.39,10.39,0,0,0,4.7.9,49.89,49.89,0,0,0,10.5-1.7c3.6-.8,7-1.7,9.6-1.7a5.71,5.71,0,0,1,3.3.8,3.33,3.33,0,0,1,.9,1.1,4.88,4.88,0,0,1,.4,1.9v.9a7.38,7.38,0,0,1-.8,3.6,5.46,5.46,0,0,1-1.8,1.9,16.31,16.31,0,0,1-5.3,2c-3.1.8-6.6,1.3-9.5,2.7a9.93,9.93,0,0,0-3.7,3.1,9.83,9.83,0,0,0-1.4,5.4v.5c.3,7.6,1.6,18.7,2.8,28s2.4,16.6,2.4,16.6l2.2-.4s-.1-.5-.2-1.3c-.5-2.9-1.6-10.4-2.7-18.8s-2.1-17.7-2.3-24.2v-.4a7.53,7.53,0,0,1,.8-3.7,7,7,0,0,1,1.8-2,14.33,14.33,0,0,1,5.3-2.1c3.1-.8,6.6-1.3,9.4-2.6a9.65,9.65,0,0,0,3.7-3,9.39,9.39,0,0,0,1.5-5.2v-1a7.67,7.67,0,0,0-.7-2.7,5.25,5.25,0,0,0-2.6-2.5,8.53,8.53,0,0,0-3.6-.6c-3,0-6.5.9-10.1,1.7s-7.1,1.7-10,1.7a7.3,7.3,0,0,1-4.7-1.3,4.36,4.36,0,0,1-1.4-1.8,8.28,8.28,0,0,1-.7-3v-.8a5.81,5.81,0,0,1,1.4-4.1,8.8,8.8,0,0,1,3.2-2.3,31.46,31.46,0,0,1,9.1-2c5.2-.5,11-.5,15.5-1.3a15.24,15.24,0,0,0,5.8-1.9,5.75,5.75,0,0,0,1.9-1.9,5,5,0,0,0,.7-2.7v-.8a12.41,12.41,0,0,0-1.3-4.7,7.49,7.49,0,0,0-1.9-2.4,9.15,9.15,0,0,0-4-1.8,27.47,27.47,0,0,0-5.2-.4c-2.6,0-5.6.1-9.1.1h-.4a4.69,4.69,0,0,1-3.1-1.1,3.91,3.91,0,0,1-1.3-2.8V39.9h-2.1Z"/><polyline class="cls-6" points="10.38 237.2 12.38 272.8 59.08 268 58.88 265.8 14.48 270.4 12.58 237 10.38 237.2 10.38 237.2"/><path class="cls-7" d="M22.38,226.1a15.39,15.39,0,0,1,.5,4.8,12.27,12.27,0,0,1-14.3,11,13.91,13.91,0,0,1-7.9-4.2,14,14,0,0,0,11.4,10.1,12.33,12.33,0,0,0,14.3-11A14.07,14.07,0,0,0,22.38,226.1Z"/><path class="cls-8" d="M22.78,231a11,11,0,0,0-.5-4.8,13.78,13.78,0,0,0-7.9-4.1,12.33,12.33,0,0,0-14.3,11,11,11,0,0,0,.5,4.8,14.53,14.53,0,0,0,7.9,4.2A12.47,12.47,0,0,0,22.78,231Z"/><path class="cls-17" d="M93,263.9c0,20,1.7,36.6-17,36.6s-34-16.2-34-36.1,15.2-36.1,34-36.1c18.8-.2,17,15.6,17,35.6m229.3-61.6c-18.8,0-34,18.2-34,40.7s15.2,40.7,34,40.7,34-18.2,34-40.7-15.3-40.7-34-40.7"/><g class="cls-18"><path class="cls-19" d="M62.58,247.3c-7.7,4.2-14.9,10.3-20.6,15.7v1.3c0,16.7,10.7,30.8,25.1,34.9-3.7-15.9-4.7-33.9-4.5-51.9"/></g><g class="cls-18"><path class="cls-19" d="M350.18,224.1c.6,7.1.8,14.4.8,21.6,0,6.8-.2,13.6-.7,20.1a46.39,46.39,0,0,0,5.9-22.9,45.79,45.79,0,0,0-3.2-17.2,25.43,25.43,0,0,0-2.8-1.6"/></g><path class="cls-10" d="M201.18,149.2c-88.9,9.1-135.1,17.8-137.8,74.6s-1.6,125.6,63.6,126,208.5-9.9,218.4-49.8,8.3-116.9-15.8-139.4-78.4-16.6-128.4-11.4"/><g class="cls-20"><path class="cls-14" d="M312.88,150.7c8.1,13.5,17.6,37,20.2,74.7,4.1,59.9,9.8,97-137.2,121.7,66.4-5.1,142.4-18.5,149.4-47.1,3.6-14.6,5.7-34.2,5.7-54.3,0-34.7-6.2-70.9-21.5-85.2a50.34,50.34,0,0,0-16.6-9.8"/></g><path class="cls-7" d="M192.18,28.7a15.39,15.39,0,0,1,.5,4.8,12.27,12.27,0,0,1-14.3,11,14.39,14.39,0,0,1-7.9-4.1,14,14,0,0,0,11.4,10.1,12.33,12.33,0,0,0,14.3-11A14.44,14.44,0,0,0,192.18,28.7Z"/><path class="cls-8" d="M192.68,33.6a11,11,0,0,0-.5-4.8,14.53,14.53,0,0,0-7.9-4.2,12.33,12.33,0,0,0-14.3,11,11,11,0,0,0,.5,4.8,13.78,13.78,0,0,0,7.9,4.1A12.14,12.14,0,0,0,192.68,33.6Z"/><path class="cls-9" d="M174.38,30a4.31,4.31,0,0,1,6-1.2c1.8,1.4.5,3-1,5.1s-2.7,3.7-4.5,2.3S172.88,32.1,174.38,30Z"/><polyline class="cls-8" points="155.08 27.7 147.78 25.7 147.18 27.8 154.48 29.8"/><polyline class="cls-8" points="176.58 10.1 174.48 0 172.28 0.5 174.48 10.6"/><polyline class="cls-8" points="206.58 16.6 211.28 11.1 209.58 9.6 204.88 15.1"/><ellipse class="cls-21" cx="169.18" cy="264.3" rx="10.4" ry="14"/><path class="cls-21" d="M286.68,254.4c0,7.7-4.6,14-10.4,14s-10.4-6.3-10.4-14,4.6-14,10.4-14S286.68,246.7,286.68,254.4Z"/><path class="cls-22" d="M237.88,302.5a41.31,41.31,0,0,1-17.5-.1,28.14,28.14,0,0,1-15.4-9.6c-.7-1,3.7-3.3,3.9-2.7a21.6,21.6,0,0,0,5.3,5.6,25.24,25.24,0,0,0,7.1,3.7,39.15,39.15,0,0,0,16.4,1.6C238.08,300.9,238.28,302.5,237.88,302.5Z"/><path class="cls-5" d="M161,398.1c0,11.9-8.5,21.6-19,21.6s-19-9.7-19-21.6,8.5-21.6,19-21.6,19,9.7,19,21.6"/><path class="cls-17" d="M153,398.1c0,11.9-8.5,21.6-19,21.6s-19-9.7-19-21.6,8.5-21.6,19-21.6,19,9.7,19,21.6"/><path class="cls-2" d="M238.48,463.4a8.75,8.75,0,0,1-1.6-.2c-68.1-15.6-107.5-58.9-109.2-60.8a7.22,7.22,0,1,1,10.8-9.6c.4.4,38.2,41.8,101.7,56.4a7.19,7.19,0,0,1-1.7,14.2"/><g class="cls-23"><polyline class="cls-4" points="135.28 414.9 147.98 396 146.18 394.8 133.58 413.8 135.28 414.9"/></g><g class="cls-23"><polyline class="cls-4" points="151.58 431.9 163.28 407.6 161.48 406.7 149.78 431 151.58 431.9"/></g><g class="cls-23"><path class="cls-4" d="M180.28,419.7h0a8.17,8.17,0,0,1-.5,1.7c-.9,3-3.1,8.8-4.9,13.8-.9,2.5-1.8,4.8-2.5,6.5s-1.1,2.8-1.1,2.8l2,.8s2.3-5.9,4.5-12c1.1-3,2.3-6.1,3.1-8.6.4-1.2.8-2.3,1-3.1.1-.4.2-.8.3-1.1s.1-.3.1-.4v-.4h-2"/></g><g class="cls-23"><polyline class="cls-4" points="202.88 431.1 193.88 455.4 195.78 456.1 204.78 431.8 202.88 431.1"/></g><g class="cls-23"><polyline class="cls-4" points="226.28 438.4 217.28 467.2 219.28 467.8 228.28 439 226.28 438.4"/></g><g class="cls-23"><g class="cls-24"><rect class="cls-25" x="125.88" y="392.2" width="119.6" height="71.3"/></g></g><g class="cls-23"><path class="cls-26" d="M139,405.7l-3.2,4.8c.5.5,1,.9,1.6,1.4l3.1-4.7-1.5-1.5"/></g><g class="cls-23"><path class="cls-26" d="M155.08,419.8l-2.2,4.6a19.23,19.23,0,0,1,1.7,1.3l2.2-4.6c-.5-.4-1.1-.8-1.7-1.3"/></g><g class="cls-23"><path class="cls-26" d="M175.68,432.9l-.9,2.4c-.4,1-.7,2-1.1,2.9.6.4,1.2.7,1.8,1.1.6-1.6,1.3-3.4,2-5.3a14.19,14.19,0,0,0-1.8-1.1"/></g><g class="cls-23"><path class="cls-26" d="M198.28,443.5l-2.2,6.1a15.39,15.39,0,0,0,1.9.8l2.3-6.1c-.7-.3-1.4-.5-2-.8"/></g><g class="cls-23"><path class="cls-26" d="M222.08,451.8l-2.1,6.8,2,.6,2.1-6.8c-.7-.2-1.4-.4-2-.6"/></g><path class="cls-2" d="M168.58,443.5l-.3.1a9.34,9.34,0,0,1,.2,2.3,10.23,10.23,0,0,1-1.6,5.6,6.7,6.7,0,0,1-4.1,2.9,4.1,4.1,0,0,1-1.1.1,6.67,6.67,0,0,1-4.9-2.3,11.83,11.83,0,0,1-3-5.9,9.34,9.34,0,0,1-.2-2.3,10.23,10.23,0,0,1,1.6-5.6,6.7,6.7,0,0,1,4.1-2.9,4.1,4.1,0,0,1,1.1-.1,6.67,6.67,0,0,1,4.9,2.3,11.83,11.83,0,0,1,3,5.9l.3-.1.3-.1a11.55,11.55,0,0,0-3.2-6.2,7.8,7.8,0,0,0-5.4-2.5,4.87,4.87,0,0,0-1.2.1,7.17,7.17,0,0,0-4.5,3.1,10.59,10.59,0,0,0-1.7,6,19.42,19.42,0,0,0,.2,2.4,11.55,11.55,0,0,0,3.2,6.2,7.8,7.8,0,0,0,5.4,2.5,4.87,4.87,0,0,0,1.2-.1,7.17,7.17,0,0,0,4.5-3.1,10.59,10.59,0,0,0,1.7-6,19.42,19.42,0,0,0-.2-2.4Z"/><polyline class="cls-27" points="244.38 481 286.68 507.1 379.48 481.9 379.48 468.4 244.38 468.4 244.38 481"/><g class="cls-28"><path class="cls-29" d="M379.48,468.4h-90.7c-.2.2-.4.3-.4.5-.8,3.2-.5,25.7-.5,25.7h-1.1v12.6l92.8-25.2V468.4"/></g><polygon class="cls-30" points="337.18 443.2 379.48 469.3 286.68 494.5 244.38 468.4 337.18 443.2"/><polygon class="cls-31" points="263.28 470.2 288.48 486.4 362.38 466.6 335.38 450.4 263.28 470.2"/><g class="cls-32"><polyline class="cls-33" points="265.28 467.4 299.58 489 299.98 488.3 265.78 466.7"/></g><g class="cls-32"><polyline class="cls-33" points="275.78 464.5 310.08 486.3 310.58 485.6 276.28 463.7"/></g><g class="cls-32"><polyline class="cls-33" points="286.28 461.6 320.58 483.6 321.08 482.9 286.78 460.8"/></g><g class="cls-32"><polyline class="cls-33" points="296.88 458.6 331.08 480.9 331.58 480.2 297.28 457.9"/></g><g class="cls-32"><polyline class="cls-33" points="307.38 455.7 341.58 478.2 342.08 477.5 307.88 455"/></g><g class="cls-32"><polyline class="cls-33" points="317.88 452.8 352.08 475.5 352.58 474.8 318.38 452"/></g><g class="cls-32"><polyline class="cls-33" points="328.38 449.8 362.58 472.8 363.08 472.1 328.88 449.1"/></g><g class="cls-32"><polyline class="cls-33" points="265.68 472.9 342.28 452.2 341.98 451.3 265.48 472"/></g><g class="cls-32"><polyline class="cls-33" points="274.68 478.7 351.28 458 350.98 457.1 274.48 477.9"/></g><g class="cls-32"><polyline class="cls-33" points="283.68 484.6 360.28 463.9 360.08 463 283.48 483.7"/></g><path class="cls-2" d="M264.08,484.8a331.25,331.25,0,0,0-40.9,21.8,154,154,0,0,1-23.6,12.3c-9.3,3.8-19.6,6.6-29.6,6.6a43.23,43.23,0,0,1-22.3-5.8c-7-4.1-13.5-10.8-18.9-21.1-3.8-7.2-5.3-13.2-5.3-18.4a25.82,25.82,0,0,1,1.5-8.6,27.84,27.84,0,0,1,8.4-11.4,57,57,0,0,1,18.1-9.9,67.28,67.28,0,0,1,6.9-2.1c.9-.2,1.5-.4,2-.5a1.09,1.09,0,0,1,.5-.1h.1a2.75,2.75,0,0,0-1-5.4,76.86,76.86,0,0,0-20.7,7.5,46.68,46.68,0,0,0-14.5,11.5,31,31,0,0,0-4.9,8.5,29.7,29.7,0,0,0-1.9,10.5c0,6.2,1.8,13.1,5.9,20.9,5.8,11,13,18.5,20.9,23.2a48.19,48.19,0,0,0,25,6.5c11,0,21.9-3,31.6-7a155.27,155.27,0,0,0,24.4-12.7c10.7-6.7,20.8-12.1,28.2-15.8,3.7-1.8,6.7-3.3,8.8-4.2,1-.5,1.9-.8,2.4-1.1a1.63,1.63,0,0,0,.6-.3l.2-.1h0a2.63,2.63,0,0,0,1.4-3.5,2.47,2.47,0,0,0-3.3-1.3Z"/><path class="cls-10" d="M275.88,446.8l-7.8,16.1s-13.2-13.6-19.5-4.7,12.5,16.1,12.5,16.1l-7.3,14s-32.3-12-18.2-38.1C248,427.2,275.88,446.8,275.88,446.8Z"/><g class="cls-34"><polygon class="cls-35" points="276.98 438.2 242.38 499.6 276.38 506 296.58 429.5 276.98 438.2"/></g><g class="cls-34"><path class="cls-35" d="M142.28,151.2l21.2,73.9s-32.3-12.4-32.8-14.5-4.3-76.6-4.3-76.6Z"/></g><path class="cls-10" d="M358.78,461.8l-17.9-1.4s7.9-17.3-2.8-19.9-10.4,17.5-10.4,17.5L312,456.3s-.6-34.5,28.9-30.9C366.78,428.7,358.78,461.8,358.78,461.8Z"/><g class="cls-36"><polygon class="cls-35" points="367.18 459.7 297.28 449.9 303.78 483.9 382.38 474.8 367.18 459.7"/></g></g></g></svg>