<?xml version="1.0" encoding="utf-8"?>
<!-- Generator: Adobe Illustrator 24.0.2, SVG Export Plug-In . SVG Version: 6.00 Build 0)  -->
<svg version="1.1" id="Layer_1" xmlns="http://www.w3.org/2000/svg" xmlns:xlink="http://www.w3.org/1999/xlink" x="0px" y="0px"
	 viewBox="0 0 1257.7 746.9" style="enable-background:new 0 0 1257.7 746.9;" xml:space="preserve">
<style type="text/css">
	.st0{fill:none;stroke:#000000;stroke-width:2;stroke-linecap:round;stroke-linejoin:round;stroke-miterlimit:10;}
	.st1{fill:none;stroke:#000000;stroke-width:1.2916;stroke-linecap:round;stroke-linejoin:round;stroke-miterlimit:10;}
	.st2{fill:none;stroke:#000000;stroke-width:1.5;stroke-linecap:round;stroke-linejoin:round;stroke-miterlimit:10;}
	
		.st3{fill:none;stroke:#000000;stroke-width:1.2916;stroke-linecap:round;stroke-linejoin:round;stroke-miterlimit:10;stroke-dasharray:6.4581;}
</style>
<g>
	<g>
		<g>
			<path d="M70.5,634.9c-2.2,0.8-4.6,0.9-7,0.5c-2.3-0.4-4.6-1.5-6.4-3c-0.3-0.2,0.6-1.3,0.9-1c1.6,1.5,3.6,2.6,5.8,3.1
				c2.2,0.5,4.5,0.5,6.7-0.1C70.8,634.4,71,634.7,70.5,634.9z"/>
		</g>
	</g>
</g>
<path id="XMLID_19_" class="st0" d="M46.9,520.4c0,0-2.9-2.6-5.4-1.7c-3.5,1.3-5.1,5.8-2.2,9.9c0.6,0.8,2.6,2.3,4.7,1.8
	c0.8,4.9,5.7,12.8,12.7,14.4c5.5,1.3,8.5,0.9,14.1-1.7c4.8-2.2,8-6.9,9.2-13.5c1.5-7.6,0.6-18.1-1.2-24.7c-0.2-0.7-0.7-2.4-1.4-4.3
	c0,0-6.8,2.1-15.7-4.4c0,0-6.2,9.2-15.4,15.4L46.9,520.4z"/>
<path d="M57.2,514.2c0.7-0.3,1.6,0.4,2,1.5c0.4,1.1,0.1,2.1-0.6,2.4s-1.6-0.4-2-1.5C56.2,515.6,56.5,514.5,57.2,514.2z M71.5,511.8
	c0.4,1.1,1.3,1.7,2,1.5c0.7-0.3,1-1.3,0.6-2.4c-0.4-1.1-1.3-1.7-2-1.5C71.4,509.6,71.1,510.7,71.5,511.8z"/>
<g>
	<g>
		<g>
			<g>
				<g>
					<path d="M44.1,529.6c1.3-0.4,2.1-1.5,2.7-2.6c0-0.1,1.2,0.7,1.1,0.7c-0.9,1.1-2.2,2.1-3.7,2.3C44,530.1,43.9,529.7,44.1,529.6z
						"/>
				</g>
			</g>
		</g>
		<g>
			<g>
				<g>
					<path d="M45.2,526.8c-0.3-1-0.7-2.2-1.3-3c-0.1-0.1-0.1-0.1-0.2-0.1c0,0-0.1,0-0.2,0c-0.2,0-0.5,0-0.7,0
						c-0.5,0.1-1,0.2-1.6,0.4c-0.2,0.1-0.5-1.3-0.3-1.3c0.6-0.1,1.2-0.2,1.8-0.2c0.3,0,0.6,0,1,0.1c0.2,0,0.4,0.1,0.6,0.2
						c0.2,0.1,0.4,0.3,0.4,0.5c0.6,1.2,0.7,2.3,1,3.4C45.7,527,45.3,527.1,45.2,526.8z"/>
				</g>
			</g>
		</g>
	</g>
</g>
<path class="st1" d="M80.1,510.5c0,0,3.3-0.8,3.9,4c0.6,4.6-2.9,6.1-2.9,6.1"/>
<g>
	<g>
		<g>
			<path d="M52.6,513.5c0-0.9,0-1.8,0.3-2.7c0.3-0.9,0.7-1.8,1.6-2.4c0.1-0.1,0.8,1.1,0.7,1.1c-0.6,0.3-1.1,0.9-1.5,1.6
				c-0.3,0.7-0.6,1.6-0.7,2.4C53,513.7,52.6,513.7,52.6,513.5z"/>
		</g>
	</g>
</g>
<g>
	<g>
		<g>
			<path d="M73.1,505.9c-1.2-0.9-2.8-1-4-0.6c-0.1,0-0.4-1.3-0.3-1.3c1.7-0.2,3.5,0.3,4.6,1.5C73.5,505.7,73.2,506,73.1,505.9z"/>
		</g>
	</g>
</g>
<path class="st0" d="M57.6,545.5c0,0,0.2,5,0.1,7.2c0,0-1,8.3,5.3,8.2c4.6,0,3.7-8.7,3.7-8.7s0-2.1-0.2-7.1"/>
<path class="st1" d="M58.9,524.7c0,0,4.3,2.6,7.5,0c0,0-0.3,5-3.4,5C60,529.7,58.9,524.7,58.9,524.7z"/>
<g>
	<g>
		<g>
			<path d="M64.4,512.5l0.9,2.3l0.4,1.1l0.2,0.5c0,0.1,0.1,0.2,0.1,0.2l0.2-0.1c0.1,0,0.3-0.1,0.5-0.1c0.4-0.1,0.8-0.2,1.2-0.2
				c0.4,0,0.8,0,1.3,0.2c0.4,0.2,0.8,0.6,1,1c0.2,0.4,0.3,0.9,0.2,1.4c-0.1,0.5-0.4,1-0.7,1.3c-0.8,0.6-1.6,0.7-2.4,0.7
				c-0.4,0-0.3-1.4,0-1.3c0.6,0,1.3-0.1,1.7-0.4c0.2-0.1,0.3-0.3,0.4-0.5c0.1-0.2,0-0.5,0-0.8c-0.1-0.2-0.2-0.4-0.5-0.5
				c-0.2-0.1-0.5-0.2-0.9-0.2c-0.3,0-0.7,0-1,0.1c-0.2,0-0.3,0.1-0.5,0.1c-0.3,0.1-0.6,0.2-0.8,0.3c-0.1-0.3-0.2-0.6-0.3-0.9
				l-0.2-0.6l-0.4-1.2l-0.7-2.3C63.8,512.2,64.2,512,64.4,512.5z"/>
		</g>
	</g>
</g>
<path class="st0" d="M35.8,605.1c1,0.1,1.9,0.2,2.8,0.2c4.5,0.3,7-0.3,9.4-0.8"/>
<path class="st0" d="M82.7,511.3c0,0,1-14.1-5.2-21.5c-6.2-7.4-9.6-2.6-18.2-4.7s-22.3,4.9-27.7,22.4c-5.4,17.5-7.7,30.1-12.1,37.7
	s-5.5,12.4-6.2,21.5c-1.3,18-4.9,16.3-4.6,26.2c0.2,7,10.9,10.1,20.2,11.5"/>
<path id="XMLID_17_" class="st0" d="M217.5,507.4l-0.5,8.7c0,0,2.9-2.6,5.4-1.7c3.5,1.3,5.1,5.8,2.2,9.9c-0.6,0.8-2.6,2.3-4.7,1.8
	c-0.8,4.9-5.7,12.8-12.7,14.4c-5.5,1.3-8.5,0.9-14.1-1.7c-4.8-2.2-8-6.9-9.2-13.5c-1.5-7.6,0-21.2,5.8-30.5c0,0,25.5,3,26.9,4.6
	C217.9,501,217.5,507.4,217.5,507.4z"/>
<path d="M207.7,511.7c-0.3,1.1-1.1,1.8-1.9,1.6c-0.7-0.2-1.1-1.2-0.8-2.3c0.3-1.1,1.1-1.8,1.9-1.6
	C207.6,509.5,208,510.6,207.7,511.7z M191.6,505.8c-0.7-0.2-1.6,0.5-1.9,1.6c-0.3,1.1,0.1,2.1,0.8,2.3c0.7,0.2,1.6-0.5,1.9-1.6
	C192.7,507,192.3,506,191.6,505.8z"/>
<g>
	<g>
		<g>
			<g>
				<g>
					<path d="M219.8,525.8c-1.5-0.2-2.8-1.2-3.7-2.3c-0.1-0.1,1.1-0.8,1.1-0.7c0.6,1.1,1.4,2.2,2.7,2.6
						C220,525.4,219.9,525.8,219.8,525.8z"/>
				</g>
			</g>
		</g>
		<g>
			<g>
				<g>
					<path d="M218.3,522.4c0.1-0.6,0.2-1.2,0.4-1.8c0.1-0.3,0.2-0.6,0.3-0.9c0.1-0.3,0.2-0.6,0.5-1c0.4-0.3,0.7-0.4,1-0.4
						c0.3,0,0.6,0,0.9,0c0.6,0,1.1,0.1,1.6,0.2c0.2,0-0.2,1.4-0.3,1.3c-0.5-0.1-1-0.3-1.4-0.4c-0.2,0-0.5-0.1-0.7-0.1
						c-0.2,0-0.4,0-0.4,0.1c-0.1,0.1-0.3,0.4-0.4,0.6c-0.1,0.3-0.2,0.5-0.4,0.8c-0.2,0.6-0.4,1.1-0.6,1.7
						C218.6,522.7,218.2,522.6,218.3,522.4z"/>
				</g>
			</g>
		</g>
	</g>
</g>
<path class="st0" d="M184.8,506.8c0,0-3.1-0.8-3.8,4c-0.6,4.6,1.7,5.5,1.7,5.5"/>
<g>
	<g>
		<g>
			<path d="M210.9,508.3c-0.2-0.8-0.5-1.6-0.9-2.3c-0.4-0.7-1-1.3-1.6-1.5c-0.1,0,0.4-1.3,0.6-1.2c1,0.5,1.5,1.4,1.8,2.3
				c0.3,0.9,0.5,1.8,0.5,2.7C211.4,508.4,211,508.5,210.9,508.3z"/>
		</g>
	</g>
</g>
<g>
	<g>
		<g>
			<path d="M190,502.1c1-1.3,2.7-2,4.5-1.9c0.1,0-0.1,1.3-0.2,1.3c-1.3-0.3-2.9-0.1-4,0.9C190.2,502.5,189.9,502.3,190,502.1z"/>
		</g>
	</g>
</g>
<path class="st0" d="M206.3,541.2c0,0-0.2,3.6-0.1,5.8c0,0,0.1,6.1-5.2,5.7c-4.6-0.4-3.7-6.1-3.7-6.1s0-0.7,0.2-5.7"/>
<path class="st0" d="M57.7,551.4c0,0-7.5-0.5-7.8,5.4c-0.3,6-2.6,66.7-2.6,66.7s23.6,4.5,33.5-1.2c0,0-6.6-66.2-7.1-69.3
	s-6.9-2.4-6.9-2.4"/>
<path class="st0" d="M72.4,551.3c0,0,1.6-0.7,2.1-3.6c0.4-2.9,1.1-8.2,1.1-8.2"/>
<path class="st0" d="M53.3,552.1c0,0-19.4,7.8-25.9,62c0,0,2.7,2.3,6.8,1.5c0,0,2.6-28.1,15.3-48.7"/>
<path class="st1" d="M34.2,615.6c0,0,4.8,5.2,3.6,6.9c-1.2,1.6-4.6-3.4-4.6-3.4s2,10.5,0,10.8s-2.3-7.1-2.3-7.1s-0.2,7.8-1.6,7.1
	c-1.4-0.7,0-7.5,0-7.5s-1.9,6.5-3.2,5.3c-1.3-1.2,1.3-7.3,1.3-7.3s-2.1,4.4-2.9,2.8c-0.9-1.5,1.5-5.9,4.4-8.3"/>
<path class="st0" d="M211.7,548.9c0,0,19.4,7.8,25.9,62c0,0-2.7,2.3-6.8,1.5c0,0-3.5-35.3-18.3-52.5"/>
<path class="st1" d="M231.1,612.4c0,0-4.8,5.2-3.6,6.9s4.6-3.4,4.6-3.4s-2,10.5,0,10.8c2,0.3,2.3-7.1,2.3-7.1s0.2,7.8,1.6,7.1
	c1.4-0.7,0-7.5,0-7.5s1.9,6.5,3.2,5.3c1.3-1.2-1.3-7.3-1.3-7.3s2.1,4.4,2.9,2.8s-1.5-5.9-4.4-8.3"/>
<path class="st0" d="M73.3,552.1c0,0,23.5-10.5,38.3-57.4l6.4,5.7c0,0-14.2,48.9-43.6,59.5"/>
<path class="st0" d="M113,496c0,0,0.8-2.7,0.9-6.8c0.1-4.1-0.7-6.4,3.6-9.6"/>
<path class="st0" d="M116.5,499.1c0,0,0.6-1.8,1.8-2.6c0.9-0.6,2.8-0.9,4.2-1.9"/>
<polyline class="st0" points="149.7,491.3 149.7,494.7 117.5,494.7 117.5,491.6 "/>
<polyline class="st0" points="117.5,487.8 117.5,456 149.7,456 149.7,487.4 "/>
<line class="st1" x1="117.5" y1="459.7" x2="149.7" y2="459.7"/>
<path class="st1" d="M117.5,487.8c0,0,4.4-3.5,5.3-1.5c1,2.2-2.8,3.9-5.3,5.3"/>
<path class="st0" d="M189.9,549.2c-7.6-5.6-22.9-20.5-33.7-54.5l-6.4,5.7c0,0,12.8,44,39.1,57.6"/>
<path class="st0" d="M154.7,496c0,0-0.8-2.7-0.9-6.8c-0.1-4.1,0.7-6.4-3.6-9.6"/>
<path class="st0" d="M151.2,499.1c0,0-0.6-1.8-1.8-2.6c-0.9-0.6-2.8-0.9-4.2-1.9"/>
<path class="st1" d="M149.7,487.4c0,0-3.8-3.1-4.7-1.1c-1,2.2,2.2,3.6,4.7,5"/>
<path class="st0" d="M61.4,634.8L58.5,710c0,0-1.8,2.6-5.9,0c0,0,1.5-58.5-2.9-70.6c-3.1-8.8-2.5-15.8-2.5-15.8"/>
<path class="st0" d="M52.6,710c0,0-18.3,5.1-18.3,7.8c0,3.8,24.4-3.3,24.4-3.3l-0.2-4.6"/>
<path class="st0" d="M66.4,635.8l2.9,74.2c0,0,1.8,2.6,5.9,0c0,0-1.5-58.5,2.9-70.6c3.1-8.8,2.7-17,2.7-17"/>
<path class="st0" d="M75.2,710c0,0,18.3,5.1,18.3,7.8c0,3.8-24.4-3.3-24.4-3.3l0.2-4.6"/>
<g>
	<g>
		<g>
			<path d="M199.6,508.1l-2.2,5.7l-0.6,1.4l-0.3,0.7c-0.1,0.2,0,0.1-0.1,0.2c0,0,0,0,0,0.1c-0.1,0,0.5,0.2,0.9,0.3
				c0.4,0.1,0.9,0.1,1.3,0.1c0.3,0,0.4,1.3,0.1,1.3c-0.6,0-1.1,0-1.7-0.2c-0.3-0.1-0.6-0.2-0.8-0.3c-0.2-0.1-0.7-0.4-1-0.7l-0.1-0.1
				c0,0,0-0.1,0-0.2l0.1-0.3l0.2-0.5l0.3-0.7l0.7-1.4l2.6-5.5C199.4,507.5,199.8,507.7,199.6,508.1z"/>
		</g>
	</g>
</g>
<path class="st1" d="M195.3,522c0,0,8.8,2.1,13.8-1.3c0,0-1.6,6.5-6.9,6.3C196.9,526.8,195.3,522,195.3,522z"/>
<path class="st0" d="M223.8,515.1c0,0,6.4-18.7,4.6-22.6c-1.7-3.9-23.6-5.8-23.6-5.8s2.7-10.4-1.6-11.4s-5.5,11-5.5,11
	s-0.8-9.6-5.4-9.8c-4.6-0.2-1.2,10.4-1.2,10.4s-7.5-9-10.6-5.4c-3.1,3.6,6,9.9,6,9.9s-2.6,6.6-3,15.3"/>
<path class="st0" d="M206.2,547.7c3.2,0,5.8,0.1,5.9,2.6s3.1,69.6,3.1,69.6s-21.4,4.1-30.4-1c0,0,3.9-69.1,5.2-70
	c1.3-0.8,7.2-1.3,7.2-1.3"/>
<path class="st0" d="M186.7,619.8l3.7,86.8c0,0,3.3,1.6,5.9,0v-77.2"/>
<path class="st0" d="M190.4,706.5c0,0-19.1,7-17.7,9.6c1.5,2.6,23.5-4.8,23.5-4.8v-4.8"/>
<path class="st0" d="M214.3,620.5l-3.7,86.1c0,0-3.3,1.6-5.9,0v-78.8"/>
<path class="st0" d="M210.6,706.5c0,0,19.1,7,17.7,9.6c-1.5,2.6-23.5-4.8-23.5-4.8v-4.8"/>
<g>
	<g>
		<g>
			<path d="M194.6,628.3c2.2,0.6,4.5,0.6,6.7,0.1c2.2-0.5,4.1-1.7,5.8-3.1c0.3-0.2,1.2,0.8,0.9,1c-1.9,1.5-4.1,2.6-6.4,3
				c-2.3,0.4-4.8,0.2-7-0.5C193.9,628.5,194.1,628.1,194.6,628.3z"/>
		</g>
	</g>
</g>
<path id="XMLID_14_" class="st0" d="M1148.4,504.5c0,0,2.4-3.1,5-2.7c3.7,0.6,6.1,4.7,4,9.3c-0.4,0.9-2.1,2.7-4.3,2.6
	c0.1,5-3.3,13.6-9.8,16.5c-5.2,2.3-8.2,2.4-14.2,0.9c-5.1-1.3-9.1-5.3-11.6-11.6c-2.8-7.2-4-20.9,0.1-31.1c0,0,8.2,2.5,15.1,0.7
	c0,0,10.1,2.8,13.8,1.3L1148.4,504.5z"/>
<path d="M1139.9,510.1c0,1.1-0.5,2.1-1.3,2.1s-1.4-0.9-1.5-2c0-1.1,0.5-2.1,1.3-2.1S1139.9,509,1139.9,510.1z M1122.8,509
	c-0.8,0-1.4,1-1.3,2.1c0,1.1,0.7,2,1.5,2s1.4-1,1.3-2.1C1124.2,509.9,1123.6,509,1122.8,509z"/>
<g>
	<g>
		<g>
			<g>
				<g>
					<path d="M1152.9,513.6c-1.5,0.1-2.9-0.7-4.1-1.6c-0.1-0.1,0.9-1,0.9-0.9c0.8,1,1.8,1.9,3.1,2.1
						C1153.1,513.1,1153.1,513.5,1152.9,513.6z"/>
				</g>
			</g>
		</g>
		<g>
			<g>
				<g>
					<path d="M1150.8,510.5c0-0.6,0-1.2,0.1-1.9c0-0.3,0.1-0.6,0.1-0.9c0.1-0.3,0.1-0.6,0.3-1c0.3-0.4,0.6-0.5,0.9-0.6
						c0.3-0.1,0.6-0.1,0.8-0.2c0.6-0.1,1.1-0.1,1.6-0.1c0.2,0,0.1,1.4-0.1,1.3c-0.5-0.1-1-0.1-1.5-0.1c-0.2,0-0.5,0-0.7,0.1
						c-0.2,0-0.4,0.1-0.4,0.1c-0.1,0.1-0.2,0.4-0.3,0.7c-0.1,0.3-0.1,0.6-0.2,0.9c-0.1,0.6-0.2,1.2-0.3,1.8
						C1151.2,510.8,1150.8,510.8,1150.8,510.5z"/>
				</g>
			</g>
		</g>
	</g>
</g>
<path class="st0" d="M1115.1,501.3c0,0-3.2-0.2-3,4.6c0.2,4.6,2.7,5.1,2.7,5.1"/>
<g>
	<g>
		<g>
			<path d="M1142.1,506c-0.4-0.7-0.9-1.4-1.5-2c-0.6-0.6-1.3-0.9-1.9-1c-0.1,0,0-1.4,0.2-1.3c1.1,0.2,1.8,0.9,2.4,1.7
				c0.6,0.7,1,1.6,1.2,2.4C1142.5,506,1142.2,506.1,1142.1,506z"/>
		</g>
	</g>
</g>
<g>
	<g>
		<g>
			<path d="M1120.2,505.9c0.6-1.5,2.1-2.7,3.8-3.1c0.1-0.1,0.3,1.3,0.2,1.3c-1.4,0.1-2.8,0.8-3.6,2
				C1120.5,506.3,1120.2,506.1,1120.2,505.9z"/>
		</g>
	</g>
</g>
<path class="st0" d="M1141.1,531.7c0,0-0.2,3.6-0.1,5.8c0,0,0.1,6.1-5.2,5.7c-4.6-0.4-3.7-6.1-3.7-6.1s0,0.3,0.2-4.7"/>
<path class="st0" d="M1146.5,539.4c0,0,19.4,7.8,25.9,62c0,0-2.7,2.3-6.8,1.5c0,0-3.5-35.3-18.3-52.5"/>
<path class="st2" d="M1165.9,602.9c0,0-4.8,5.2-3.6,6.9s4.6-3.4,4.6-3.4s-2,10.5,0,10.8c2,0.3,2.3-7.1,2.3-7.1s0.2,7.8,1.6,7.1
	c1.4-0.7,0-7.5,0-7.5s1.9,6.5,3.2,5.3c1.3-1.2-1.3-7.3-1.3-7.3s2.1,4.4,2.9,2.8c0.9-1.5-1.5-5.9-4.4-8.3"/>
<g>
	<g>
		<g>
			<path d="M1131.1,508.9l-0.5,6.1l-0.1,1.5l-0.1,0.8c0,0.2,0,0.1,0,0.2c0,0,0,0.1,0,0c-0.1,0,0.5,0.1,0.9,0c0.4,0,0.9-0.2,1.3-0.3
				c0.3-0.1,0.8,1.1,0.4,1.3c-0.5,0.2-1.1,0.3-1.7,0.3c-0.3,0-0.6,0-0.9-0.1c-0.2,0-0.8-0.2-1.1-0.4l-0.1-0.1c0,0,0-0.1,0-0.2l0-0.3
				l0.1-0.6l0.1-0.8l0.2-1.5l0.9-6C1130.8,508.4,1131.2,508.5,1131.1,508.9z"/>
		</g>
	</g>
</g>
<path class="st0" d="M1141,538.2c3.2,0,5.8,0.1,5.9,2.6c0.2,2.5,4.4,99.8,4.4,99.8s-11.1-14.3-14.9-29.6c0,0-8.5,19.6-16.8,27.1
	c0,0,3.9-97.8,5.2-98.6c1.3-0.8,7.2-1.3,7.2-1.3"/>
<path class="st0" d="M1122.5,635.4l2.6,61.6c0,0,3.3,1.6,5.9,0v-75.2"/>
<path class="st0" d="M1125.2,697.1c0,0-19.1,7-17.7,9.6c1.5,2.6,23.5-4.8,23.5-4.8v-4.8"/>
<path class="st0" d="M1148,635.9l-2.6,61.2c0,0-3.3,1.6-5.9,0v-76.9"/>
<path class="st0" d="M1145.4,697.1c0,0,19.1,7,17.7,9.6c-1.5,2.6-23.5-4.8-23.5-4.8v-4.8"/>
<g>
	<g>
		<path d="M1136,618.8c-1.1,0.3-2.2,0.4-3.3,0.4c0,0,0,0,0,0c-0.1,0.2-0.3,0.5-0.4,0.7c0.1,0,0.3,0,0.4,0c1.2,0.1,2.4,0.1,3.6-0.2
			c1-0.2,1.9-0.4,2.8-0.8c-0.1-0.4-0.3-0.8-0.4-1.2C1137.8,618.2,1136.9,618.6,1136,618.8z"/>
	</g>
</g>
<line class="st1" x1="1136.4" y1="611" x2="1136.4" y2="543.1"/>
<path class="st1" d="M1165,598.4c0,0,4.9-0.1,6.7-2.2"/>
<path class="st2" d="M1086,559.4c0,0-1-0.9-2.1,0c-1.1,0.9-0.4,6.2,1.1,6.2s0.7-4.2,0.7-4.2s0.7,4.2,2.3,4.2c1.6,0,0.9-5.3,0.9-5.3
	s0.7,4.7,2.4,4.6s0.3-5,0.3-5s0.8,4.2,2.2,4c1.4-0.2,0.5-8.7-2.5-6.2c0,0-1.3-1.3-2.4,0.6C1088.8,558.3,1086.6,557.2,1086,559.4z"/>
<polyline class="st0" points="1094.1,559.8 1101.1,557.9 1110.7,593 1084.2,600.2 1074.7,565 1083.3,562.7 "/>
<g>
	<g>
		<path d="M1081.2,574.1l0.1-0.2l18-4.9l1.1,1.2l-0.1,0.2l-7.7,2.1l1.2,4.6l0.1,0c0.6-1.1,1.5-1.9,2.6-2.2c1.9-0.5,3.8,0.8,4.4,2.8
			c0.4,1.6,0,3.4-0.8,5.2l-0.1,0l-1.8-0.7c1-2,1.5-3.8,1.1-5.1c-0.2-0.7-0.7-1.1-1.5-0.9c-1.3,0.3-2.3,1.8-3.1,3.5l1.7,6.2l-0.1,0.2
			l-1.7,0l-1.1-4.4l-0.1,0c-0.7,1.1-1.7,1.7-2.7,2c-2.7,0.7-5.1-0.8-5.8-3.1c-0.6-2.2,0.9-4,3.3-4.7c1.1-0.3,2.3-0.5,3.5-0.4
			l-0.7-2.6l-8.7,2.4L1081.2,574.1z M1092.1,576.9c-0.8,0-1.5,0.2-2.3,0.4c-2.1,0.6-3.2,2.4-2.8,3.9c0.3,1.2,1.3,1.6,2.5,1.3
			c1.2-0.3,2.4-1.4,3.3-3.2L1092.1,576.9z"/>
	</g>
</g>
<path class="st0" d="M1101.7,559.9c0,0,5.2,1.6,8.5-1.5c7.7-7,10.2-18.7,14.7-19"/>
<path class="st0" d="M1103.3,566c0,0,4.8,2.7,9-0.3c4.2-3,11.5-15.6,11.5-15.6"/>
<path class="st1" d="M1136.1,521.9c0,0,4.6-0.2,5.7-4.8c0,0,2,3.4-0.1,6.2C1139.6,526.3,1136.1,521.9,1136.1,521.9z"/>
<path class="st1" d="M1139.8,524.4c0,0-0.5-3.5,2.9-3.8"/>
<path class="st0" d="M1113.1,502.2c0,0-4.9-6.6-0.9-12.1c0,0-5.8-13.5,7.1-16.3c9.2-2,8.5,3.3,12.8,3.7c7.9,0.8,14.6,0,21,4.8
	c6,4.6,6.6,14.9,3.7,21.3"/>
<path class="st3" d="M1083.3,543.1c-4.7-19.3-8.6-100.9,9.5-266.5c2.2-19.8-11.5-102.4-79.3-123.3c-40.7-12.6-65.3-52.8-78.2-69.4
	C906.9,47.6,852.1,27,745.9,29.8s-162.1,97.9-289.1,99.3c-47.1,0.5-205.2-99.3-287-57.7c-126.4,64.4-32.3,362.8-32.3,362.8"/>
<g>
	<g>
		<path d="M128.5,471.4c-0.3,0.2-1.1,0.7-1.8,1c-0.1,0.1-0.2,0.2,0,0.2c0.8,0.3,1.5,0.8,1.8,1c0.3,0.2,0.4,0.4,0.4,0.7
			c0,0.5-0.7,1.4-1,1.4c-0.3,0-0.4-0.2-0.6-0.3c-0.6-0.4-1.4-0.9-3.3-1.9c-0.3-0.2-0.5-0.4-0.5-1c0-0.6,0.2-0.9,0.6-1
			c1.7-0.8,2.6-1.4,3.1-1.7c0.5-0.3,0.5-0.5,0.8-0.5c0.4,0,0.9,0.9,0.9,1.4C129,470.9,128.7,471.2,128.5,471.4z"/>
		<path d="M137.4,465.8c-2.1,4.8-4.1,8.8-6.2,13c-0.1,0.2-0.2,0.4-0.5,0.4c-0.3,0-1.1-0.4-1.1-0.8c0-0.2,0-0.3,0.1-0.5
			c2.4-5,4.4-9.3,6.1-13c0.1-0.3,0.2-0.5,0.5-0.5c0.3,0,1.2,0.3,1.2,0.6C137.5,465.3,137.5,465.6,137.4,465.8z"/>
		<path d="M143.2,473.5c-1.9,0.9-2.7,1.4-3.3,1.8c-0.2,0.2-0.3,0.4-0.6,0.4c-0.4,0-1-0.9-1-1.3c0-0.3,0.1-0.5,0.4-0.7
			c0.3-0.2,1.1-0.7,1.8-1c0.1-0.1,0.1-0.2,0-0.3c-0.6-0.3-1.4-0.8-1.8-1c-0.2-0.2-0.5-0.4-0.5-0.7c0-0.6,0.6-1.4,1-1.4
			c0.3,0,0.3,0.1,0.8,0.5c0.5,0.3,1.4,0.9,3.1,1.7c0.4,0.2,0.6,0.5,0.6,1C143.6,473.1,143.5,473.4,143.2,473.5z"/>
	</g>
</g>
<path class="st0" d="M1146.1,681.8c13.9,1.1,27.8,1.9,41.8,2c22.8,0.2,45.6-1.4,68.2-4.8"/>
<path class="st0" d="M1131.1,680.5c2.8,0.3,5.6,0.5,8.5,0.8"/>
<path class="st0" d="M211.1,695.2c23.5,1.5,46.9,2.3,70.3,1.6c48.6-1.6,96.8-10.2,145.4-11.7c59.9-1.8,119.6,7.4,179.5,11
	c80.5,4.9,161.7-0.1,241-14.9c76.9-14.4,159.1-11.8,236.9-5.1c13.4,1.2,26.8,2.5,40.2,3.8"/>
<path class="st0" d="M196.3,694.2c2.8,0.2,5.6,0.4,8.5,0.6"/>
<path class="st0" d="M75,686.5c38.1,0.4,76.5,4.3,114.9,7.2"/>
<path class="st0" d="M59.4,686.5c3,0,6-0.1,9-0.1"/>
<path class="st0" d="M-0.2,691.3c17.6-2.8,35.3-4.2,53-4.6"/>
</svg>
