<?xml version="1.0" encoding="utf-8"?>
<!-- Generator: Adobe Illustrator 24.0.2, SVG Export Plug-In . SVG Version: 6.00 Build 0)  -->
<svg version="1.1" id="Layer_1" xmlns="http://www.w3.org/2000/svg" xmlns:xlink="http://www.w3.org/1999/xlink" x="0px" y="0px"
	 viewBox="0 0 1632.8 1224.6" style="enable-background:new 0 0 1632.8 1224.6;" xml:space="preserve">
<style type="text/css">
	.st0{fill:#F2FBFF;}
	.st1{fill:#D3F0FE;}
	
		.st2{fill:none;stroke:#B9E0FE;stroke-width:2;stroke-linecap:round;stroke-linejoin:round;stroke-miterlimit:10;stroke-dasharray:12;}
	.st3{opacity:0.3;fill:#B9E0FE;enable-background:new    ;}
	.st4{fill:#FFFFFF;}
	.st5{fill:#D9EDF1;}
	.st6{fill:#CFDCE7;}
	.st7{fill:#5AC0DF;}
	.st8{enable-background:new    ;}
	.st9{fill:#50595E;}
	.st10{fill:none;stroke:#B50000;stroke-width:0.7857;stroke-linecap:round;stroke-linejoin:round;stroke-miterlimit:10;}
	.st11{fill:#B50000;}
	.st12{fill:#D6EBF3;}
	.st13{fill:#FAE47F;}
	.st14{fill:#F15766;}
</style>
<g>
	<path class="st0" d="M334.1,507.8c-9.4,11-17.9,22.8-25.3,35.4c-26.7,45.9-37.4,101.1-35,155s17.3,106.5,38.6,155.5
		c30.7,70.6,76.1,136.1,138.6,176.8c55.7,36.3,122,51.1,187.4,53.1c89.3,2.8,181.7-12.3,269.3-29.2
		c102.6-19.8,207.1-35.3,308.2-62.2c71.5-19,129.4-63,119.9-149.2c-3.5-31.9-12.2-63.2-12.8-95.3c-0.8-39.5,10.4-78.1,20.6-116.1
		s19.4-77.6,14.5-116.8c-5.9-47.1-38.5-86.2-77.5-107.2c-44.2-23.8-98.3-17-145-32c-49.3-15.9-89.7-53.1-126.1-91.9
		C973,244.9,938.6,203,895,173.9c-43.6-29.2-99.3-44.2-147.1-23.9c-65.1,27.7-91.7,102.2-126,161c-14.2,24.4-32.8,57.4-57.1,71.4
		c-41.2,23.8-93.6,29.7-136.6,52.3C393.3,453.1,360.2,477.2,334.1,507.8z"/>
	<path class="st1" d="M1246.9,510.4c8.4,10.7,16,22.2,22.6,34.6c23.9,44.7,33.4,98.6,31.2,151.2s-15.5,103.9-34.4,151.7
		c-27.4,68.9-67.9,132.7-123.7,172.4c-49.7,35.4-108.9,49.8-167.3,51.8c-79.7,2.7-162.2-12-240.3-28.5
		c-91.6-19.3-184.8-34.5-275-60.7c-63.8-18.6-115.5-61.4-107-145.5c3.1-31.1,10.9-61.7,11.4-93c0.7-38.6-9.3-76.1-18.4-113.2
		s-17.3-75.6-13-113.9c5.3-45.9,34.3-84,69.2-104.5c39.4-23.2,87.7-16.5,129.4-31.2c44-15.5,80.1-51.8,112.5-89.7
		c32.4-37.8,63.1-78.6,102-107.1s88.6-43.1,131.3-23.3c58.1,27,81.8,99.6,112.4,157c12.7,23.8,29.3,55.9,50.9,69.6
		c36.8,23.2,83.5,29,121.9,51C1194,457.1,1223.5,480.6,1246.9,510.4z"/>
	<g>
		<rect x="664.1" y="145.6" class="st2" width="423.5" height="502.9"/>
		<g>
			<rect x="675.8" y="156.6" class="st3" width="400.2" height="481"/>
			<rect x="680.9" y="156.6" class="st4" width="395" height="472.4"/>
			<rect x="719.5" y="538.9" class="st5" width="123" height="29.5"/>
			<rect x="869.5" y="538.9" class="st5" width="123" height="29.5"/>
			<rect x="719.5" y="240.7" class="st6" width="319.8" height="5.1"/>
			<rect x="719.5" y="262.2" class="st6" width="319.8" height="5.1"/>
			<rect x="719.5" y="283.8" class="st6" width="319.8" height="5.1"/>
			<rect x="719.5" y="323.5" class="st7" width="273" height="29.5"/>
			<rect x="719.5" y="379" class="st6" width="319.8" height="5.1"/>
			<rect x="719.5" y="400.6" class="st6" width="319.8" height="5.1"/>
			<rect x="719.5" y="422.1" class="st6" width="319.8" height="5.1"/>
			<rect x="719.5" y="443.7" class="st6" width="319.8" height="5.1"/>
			<rect x="719.5" y="465.2" class="st6" width="319.8" height="5.1"/>
			<rect x="719.5" y="486.7" class="st6" width="319.8" height="5.1"/>
			<rect x="719.5" y="508.3" class="st6" width="319.8" height="5.1"/>
			<g class="st8">
				<path class="st9" d="M722.3,192.5h4.9V209c0,1.4,0.1,2.4,0.4,3c0.2,0.6,0.7,1.1,1.2,1.4c0.6,0.4,1.3,0.5,2.1,0.5
					c0.9,0,1.6-0.2,2.2-0.6c0.6-0.4,1-0.9,1.3-1.5c0.2-0.6,0.4-1.8,0.4-3.5v-15.9h4.9v15.2c0,2.6-0.1,4.3-0.4,5.3s-0.8,2-1.7,2.9
					s-1.8,1.6-2.8,2.1c-1.1,0.4-2.3,0.7-3.7,0.7c-1.8,0-3.5-0.4-4.8-1.3s-2.3-1.9-2.9-3.2c-0.6-1.3-0.9-3.4-0.9-6.5V192.5z"/>
				<path class="st9" d="M758.5,196l-3.6,3.2c-1.3-1.8-2.5-2.6-3.9-2.6c-0.6,0-1.2,0.2-1.6,0.5c-0.4,0.3-0.6,0.7-0.6,1.2
					c0,0.4,0.1,0.8,0.4,1.2c0.4,0.5,1.6,1.6,3.6,3.3c1.9,1.5,3,2.5,3.4,2.9c1,1,1.7,1.9,2.1,2.8c0.4,0.9,0.6,1.9,0.6,3
					c0,2.1-0.7,3.8-2.2,5.2c-1.4,1.4-3.3,2-5.7,2c-1.8,0-3.4-0.4-4.7-1.3c-1.3-0.9-2.5-2.3-3.5-4.2l4.1-2.5c1.2,2.3,2.6,3.4,4.2,3.4
					c0.8,0,1.5-0.2,2.1-0.7c0.6-0.5,0.8-1,0.8-1.7c0-0.6-0.2-1.2-0.6-1.7c-0.4-0.6-1.4-1.5-2.8-2.6c-2.8-2.3-4.6-4-5.4-5.2
					c-0.8-1.2-1.2-2.5-1.2-3.7c0-1.8,0.7-3.3,2-4.5s3-1.9,5-1.9c1.3,0,2.5,0.3,3.6,0.9C755.9,193.4,757.2,194.4,758.5,196z"/>
				<path class="st9" d="M763.6,192.5h13.9v4.7h-9.1v4.6h9.1v4.7h-9.1v6.7h9.1v4.8h-13.9V192.5z"/>
				<path class="st9" d="M782.4,192.5h5.1c2.8,0,4.8,0.3,6,0.8c1.2,0.5,2.2,1.3,2.9,2.5c0.7,1.2,1.1,2.5,1.1,4.1
					c0,1.7-0.4,3.1-1.2,4.2c-0.8,1.1-2,2-3.6,2.6l6,11.3h-5.3l-5.7-10.8h-0.4V218h-4.8V192.5z M787.2,202.5h1.5
					c1.5,0,2.6-0.2,3.2-0.6c0.6-0.4,0.9-1.1,0.9-2c0-0.6-0.1-1-0.4-1.5c-0.3-0.4-0.7-0.7-1.2-0.9s-1.4-0.3-2.7-0.3h-1.3V202.5z"/>
				<path class="st9" d="M836.1,196.7l-3.4,3.4c-2.2-2.3-4.7-3.4-7.6-3.4c-2.5,0-4.6,0.8-6.3,2.5c-1.7,1.7-2.5,3.7-2.5,6.1
					c0,2.5,0.9,4.5,2.6,6.3c1.8,1.7,3.9,2.6,6.5,2.6c1.7,0,3.1-0.4,4.2-1.1c1.2-0.7,2.1-1.8,2.8-3.3H825v-4.6h12.8l0,1.1
					c0,2.2-0.6,4.3-1.7,6.3c-1.2,2-2.7,3.5-4.5,4.6c-1.8,1.1-4,1.6-6.5,1.6c-2.6,0-5-0.6-7.1-1.7c-2.1-1.1-3.7-2.8-4.9-4.9
					c-1.2-2.1-1.8-4.4-1.8-6.9c0-3.4,1.1-6.3,3.3-8.8c2.6-3,6.1-4.5,10.3-4.5c2.2,0,4.3,0.4,6.2,1.2
					C832.9,193.8,834.5,195,836.1,196.7z"/>
				<path class="st9" d="M842.2,192.5h4.9V209c0,1.4,0.1,2.4,0.4,3c0.2,0.6,0.7,1.1,1.2,1.4c0.6,0.4,1.3,0.5,2.1,0.5
					c0.9,0,1.6-0.2,2.2-0.6c0.6-0.4,1-0.9,1.3-1.5c0.2-0.6,0.4-1.8,0.4-3.5v-15.9h4.9v15.2c0,2.6-0.1,4.3-0.4,5.3
					c-0.3,1-0.8,2-1.7,2.9c-0.8,0.9-1.8,1.6-2.8,2.1c-1.1,0.4-2.3,0.7-3.7,0.7c-1.8,0-3.5-0.4-4.8-1.3s-2.3-1.9-2.9-3.2
					c-0.6-1.3-0.9-3.4-0.9-6.5V192.5z"/>
				<path class="st9" d="M864.7,192.5h4.8V218h-4.8V192.5z"/>
				<path class="st9" d="M875,192.5h5.7c3.7,0,6.5,0.5,8.3,1.4s3.3,2.4,4.4,4.5c1.2,2.1,1.7,4.5,1.7,7.2c0,2-0.3,3.8-1,5.4
					c-0.7,1.6-1.6,3-2.7,4.1c-1.1,1.1-2.4,1.8-3.7,2.3c-1.3,0.4-3.7,0.6-7,0.6H875V192.5z M879.8,197.2v16.1h2.3
					c2.2,0,3.8-0.3,4.8-0.8c1-0.5,1.8-1.4,2.5-2.6s1-2.7,1-4.4c0-2.7-0.8-4.8-2.3-6.3c-1.4-1.3-3.5-2-6.6-2H879.8z"/>
				<path class="st9" d="M899.8,192.5h13.9v4.7h-9.1v4.6h9.1v4.7h-9.1v6.7h9.1v4.8h-13.9V192.5z"/>
			</g>
			<g>
				<g>
					<path class="st10" d="M1028.6,197.5c-5.9,0-10.7,4.8-10.7,10.7s4.8,10.7,10.7,10.7s10.7-4.8,10.7-10.7
						S1034.6,197.5,1028.6,197.5z"/>
				</g>
				<path class="st11" d="M1030.3,202.5h-6v1.1h1V214h1.1v-10.4h1.3V214h1.1v-2h1.4c2.3,0,3.8-2,3.8-4.8S1032.6,202.5,1030.3,202.5z
					 M1030.3,210.9h-1.4v-7.3h1.4c1.6,0,2.7,1.5,2.7,3.6S1031.9,210.9,1030.3,210.9z"/>
			</g>
		</g>
		<g>
			<rect x="475.7" y="373.3" class="st3" width="400.2" height="481"/>
			<rect x="480.8" y="373.3" class="st4" width="395" height="472.4"/>
			<rect x="519.5" y="469.1" class="st9" width="156.3" height="29.5"/>
			<rect x="519.5" y="564.4" class="st7" width="118.5" height="24.3"/>
			<rect x="519.5" y="524.4" class="st6" width="118.5" height="24.3"/>
			<g>
				<g>
					<g>
						<rect x="540.1" y="617.3" class="st12" width="69.8" height="5.1"/>
					</g>
					<g>
						<rect x="540.1" y="637.9" class="st12" width="69.8" height="5.1"/>
					</g>
					<g>
						<rect x="540.1" y="658.6" class="st12" width="69.8" height="5.1"/>
					</g>
					<g>
						<rect x="540.1" y="679.3" class="st12" width="69.8" height="5.1"/>
					</g>
					<g>
						<rect x="540.1" y="699.9" class="st12" width="69.8" height="5.1"/>
					</g>
				</g>
			</g>
			<g>
				<g>
					<g>
						<rect x="769.5" y="513.2" class="st12" width="69.8" height="11.2"/>
					</g>
					<g>
						<rect x="769.5" y="558.4" class="st12" width="69.8" height="11.2"/>
					</g>
					<g>
						<rect x="769.5" y="603.5" class="st12" width="69.8" height="11.2"/>
					</g>
					<g>
						<rect x="769.5" y="648.7" class="st12" width="69.8" height="11.2"/>
					</g>
					<g>
						<rect x="769.5" y="693.9" class="st12" width="69.8" height="11.2"/>
					</g>
				</g>
			</g>
			<g>
				<g>
					<g>
						<rect x="519.5" y="765.4" class="st12" width="319.8" height="5.1"/>
					</g>
					<g>
						<rect x="519.5" y="745.1" class="st12" width="319.8" height="5.1"/>
					</g>
					<g>
						<rect x="519.5" y="785.8" class="st12" width="319.8" height="5.1"/>
					</g>
					<g>
						<rect x="519.5" y="806.1" class="st12" width="319.8" height="5.1"/>
					</g>
				</g>
			</g>
			<g class="st8">
				<path class="st9" d="M527.3,416h3.6l7.2,18.7h-3.7l-1.5-3.8h-7.6l-1.5,3.8h-3.7L527.3,416z M529.1,421l-2.5,6.4h5L529.1,421z"/>
				<path class="st9" d="M540.8,416h3.8c2,0,3.5,0.2,4.4,0.6c0.9,0.4,1.6,1,2.1,1.8c0.5,0.8,0.8,1.9,0.8,3c0,1.3-0.3,2.4-1,3.3
					c-0.7,0.9-1.6,1.5-2.8,1.8c-0.7,0.2-1.9,0.3-3.7,0.3v7.9h-3.6V416z M544.4,423.3h1.1c0.9,0,1.5-0.1,1.9-0.2
					c0.3-0.1,0.6-0.3,0.8-0.6c0.2-0.3,0.3-0.6,0.3-1.1c0-0.7-0.3-1.2-0.8-1.6c-0.4-0.2-1.2-0.4-2.3-0.4h-1V423.3z"/>
				<path class="st9" d="M555.1,416h3.5v18.7h-3.5V416z"/>
				<path class="st9" d="M569.9,416h4.2c2.7,0,4.7,0.3,6,1c1.3,0.7,2.4,1.8,3.3,3.3c0.9,1.5,1.3,3.3,1.3,5.3c0,1.4-0.2,2.8-0.7,4
					c-0.5,1.2-1.1,2.2-2,3s-1.8,1.3-2.7,1.7c-1,0.3-2.7,0.5-5.1,0.5h-4.3V416z M573.5,419.5v11.8h1.7c1.6,0,2.8-0.2,3.5-0.6
					c0.7-0.4,1.3-1,1.8-1.9c0.5-0.9,0.7-2,0.7-3.3c0-2-0.6-3.5-1.7-4.6c-1-1-2.6-1.5-4.8-1.5H573.5z"/>
				<path class="st9" d="M597,415.6c2.6,0,4.9,1,6.8,2.9s2.9,4.2,2.9,7c0,2.7-0.9,5-2.8,6.9s-4.2,2.8-6.8,2.8c-2.8,0-5.1-1-7-2.9
					s-2.8-4.2-2.8-6.9c0-1.8,0.4-3.4,1.3-4.9s2.1-2.7,3.6-3.6C593.6,416,595.2,415.6,597,415.6z M596.9,419.1
					c-1.7,0-3.2,0.6-4.4,1.8s-1.8,2.7-1.8,4.6c0,2.1,0.7,3.7,2.2,4.9c1.2,0.9,2.5,1.4,4,1.4c1.7,0,3.1-0.6,4.3-1.8
					c1.2-1.2,1.8-2.7,1.8-4.5c0-1.8-0.6-3.3-1.8-4.5C600.1,419.7,598.6,419.1,596.9,419.1z"/>
				<path class="st9" d="M627.1,419.3l-2.5,2.4c-1.7-1.8-3.6-2.7-5.7-2.7c-1.8,0-3.3,0.6-4.5,1.8s-1.8,2.7-1.8,4.5
					c0,1.2,0.3,2.4,0.8,3.3c0.5,1,1.3,1.7,2.3,2.3c1,0.6,2.1,0.8,3.3,0.8c1,0,2-0.2,2.8-0.6c0.9-0.4,1.8-1.1,2.8-2.1l2.4,2.5
					c-1.4,1.3-2.7,2.3-3.9,2.8c-1.2,0.5-2.6,0.8-4.2,0.8c-2.9,0-5.3-0.9-7.1-2.8c-1.8-1.8-2.8-4.2-2.8-7.1c0-1.9,0.4-3.5,1.3-5
					c0.8-1.4,2-2.6,3.6-3.5c1.6-0.9,3.3-1.3,5.1-1.3c1.5,0,3,0.3,4.5,1C624.9,417.2,626.1,418.1,627.1,419.3z"/>
				<path class="st9" d="M630.1,416h3.6v12.1c0,1,0.1,1.8,0.3,2.2c0.2,0.4,0.5,0.8,0.9,1s0.9,0.4,1.5,0.4c0.6,0,1.2-0.1,1.6-0.4
					c0.5-0.3,0.8-0.7,0.9-1.1c0.2-0.4,0.3-1.3,0.3-2.5V416h3.6v11.1c0,1.9-0.1,3.2-0.3,3.9c-0.2,0.7-0.6,1.4-1.2,2.1
					s-1.3,1.2-2.1,1.5c-0.8,0.3-1.7,0.5-2.7,0.5c-1.4,0-2.5-0.3-3.5-0.9c-1-0.6-1.7-1.4-2.2-2.3c-0.4-0.9-0.6-2.5-0.6-4.7V416z"/>
				<path class="st9" d="M648.7,416h3.5l4.3,13l4.4-13h3.5l3.1,18.7H664l-2-11.8l-4,11.8h-3.1l-3.9-11.8l-2.1,11.8h-3.5L648.7,416z"
					/>
				<path class="st9" d="M670.3,416h10.2v3.5h-6.7v3.4h6.7v3.4h-6.7v4.9h6.7v3.5h-10.2V416z"/>
				<path class="st9" d="M683.8,416h3.4l8,12.3V416h3.6v18.7h-3.4l-8-12.3v12.3h-3.6V416z"/>
				<path class="st9" d="M701.2,416h10.3v3.5h-3.4v15.2h-3.6v-15.2h-3.3V416z"/>
				<path class="st9" d="M719.7,416h3.6l7.2,18.7h-3.7l-1.5-3.8h-7.6l-1.5,3.8h-3.7L719.7,416z M721.5,421l-2.5,6.4h5L721.5,421z"/>
				<path class="st9" d="M731.4,416h10.3v3.5h-3.4v15.2h-3.6v-15.2h-3.3V416z"/>
				<path class="st9" d="M743.9,416h3.5v18.7h-3.5V416z"/>
				<path class="st9" d="M760.2,415.6c2.6,0,4.9,1,6.8,2.9s2.9,4.2,2.9,7c0,2.7-0.9,5-2.8,6.9s-4.2,2.8-6.8,2.8c-2.8,0-5.1-1-7-2.9
					s-2.8-4.2-2.8-6.9c0-1.8,0.4-3.4,1.3-4.9s2.1-2.7,3.6-3.6C756.8,416,758.5,415.6,760.2,415.6z M760.2,419.1
					c-1.7,0-3.2,0.6-4.4,1.8s-1.8,2.7-1.8,4.6c0,2.1,0.7,3.7,2.2,4.9c1.2,0.9,2.5,1.4,4,1.4c1.7,0,3.1-0.6,4.3-1.8
					c1.2-1.2,1.8-2.7,1.8-4.5c0-1.8-0.6-3.3-1.8-4.5C763.3,419.7,761.9,419.1,760.2,419.1z"/>
				<path class="st9" d="M773.2,416h3.4l8,12.3V416h3.6v18.7h-3.4l-8-12.3v12.3h-3.6V416z"/>
			</g>
			<g>
				<g>
					<path class="st4" d="M575.8,486.3v2.3l-9.3-4.7v-2.1l9.3-4.7v2.3l-6.6,3.4L575.8,486.3z"/>
					<path class="st4" d="M577.9,479.4v-2.3l9.3,4.7v2.1l-9.3,4.7v-2.3l6.6-3.4L577.9,479.4z"/>
					<path class="st4" d="M608.6,486.3v2.3l-9.3-4.7v-2.1l9.3-4.7v2.3l-6.6,3.4L608.6,486.3z"/>
					<path class="st4" d="M610,492.1l6.1-16.5h1.8l-6.1,16.5H610z"/>
					<path class="st4" d="M619.5,479.4v-2.3l9.3,4.7v2.1l-9.3,4.7v-2.3l6.6-3.4L619.5,479.4z"/>
				</g>
			</g>
			<rect x="730.9" y="513.2" class="st6" width="7.4" height="209.3"/>
			<g>
				<g>
					<path class="st10" d="M831.8,416.8c-5.9,0-10.7,4.8-10.7,10.7s4.8,10.7,10.7,10.7s10.7-4.8,10.7-10.7S837.7,416.8,831.8,416.8z
						"/>
				</g>
				<path class="st11" d="M833.5,421.9h-6v1.1h1v10.4h1.1V423h1.3v10.4h1.1v-2h1.4c2.3,0,3.8-2,3.8-4.8
					C837.4,423.8,835.8,421.9,833.5,421.9z M833.5,430.3h-1.4V423h1.4c1.6,0,2.7,1.5,2.7,3.6C836.2,428.8,835.1,430.3,833.5,430.3z"
					/>
			</g>
		</g>
		<rect x="464" y="362.3" class="st2" width="423.5" height="502.9"/>
		<g>
			<rect x="756.9" y="587" class="st3" width="400.2" height="481"/>
			<rect x="762.1" y="587" class="st4" width="395" height="472.4"/>
			<rect x="800.7" y="680.2" class="st13" width="97.2" height="32.9"/>
			<rect x="956.1" y="936.6" class="st6" width="132.1" height="12.6"/>
			<rect x="800.7" y="744.8" class="st6" width="319.8" height="5.1"/>
			<rect x="800.7" y="766.4" class="st6" width="319.8" height="5.1"/>
			<rect x="800.7" y="809.4" class="st6" width="319.8" height="5.1"/>
			<rect x="800.7" y="831" class="st6" width="319.8" height="5.1"/>
			<rect x="800.7" y="852.5" class="st6" width="319.8" height="5.1"/>
			<rect x="800.7" y="874.1" class="st6" width="319.8" height="5.1"/>
			<g class="st8">
				<path class="st9" d="M811.7,633.5l-2.4,2.1c-0.9-1.2-1.7-1.8-2.6-1.8c-0.4,0-0.8,0.1-1.1,0.3c-0.3,0.2-0.4,0.5-0.4,0.8
					s0.1,0.6,0.3,0.8c0.3,0.3,1.1,1.1,2.4,2.2c1.3,1,2,1.7,2.3,2c0.7,0.7,1.1,1.3,1.4,1.9c0.3,0.6,0.4,1.3,0.4,2
					c0,1.4-0.5,2.6-1.5,3.5c-1,0.9-2.3,1.4-3.8,1.4c-1.2,0-2.3-0.3-3.2-0.9s-1.7-1.5-2.3-2.8l2.8-1.7c0.8,1.5,1.8,2.3,2.9,2.3
					c0.6,0,1-0.2,1.4-0.5c0.4-0.3,0.6-0.7,0.6-1.1c0-0.4-0.1-0.8-0.4-1.2c-0.3-0.4-0.9-1-1.9-1.8c-1.9-1.5-3.1-2.7-3.6-3.5
					s-0.8-1.7-0.8-2.5c0-1.2,0.5-2.2,1.4-3.1s2-1.3,3.4-1.3c0.9,0,1.7,0.2,2.5,0.6S810.8,632.5,811.7,633.5z"/>
				<path class="st9" d="M820.4,631.2h3.3l6.6,17.2h-3.4l-1.3-3.6h-7l-1.4,3.6h-3.4L820.4,631.2z M822.1,635.8l-2.3,5.9h4.6
					L822.1,635.8z"/>
				<path class="st9" d="M832.9,631.2h3.3v14.1h4.8v3.1h-8.1V631.2z"/>
				<path class="st9" d="M843.5,631.2h9.4v3.2h-6.2v3.1h6.2v3.2h-6.2v4.5h6.2v3.2h-9.4V631.2z"/>
				<path class="st9" d="M865,633.5l-2.4,2.1c-0.9-1.2-1.7-1.8-2.6-1.8c-0.4,0-0.8,0.1-1.1,0.3c-0.3,0.2-0.4,0.5-0.4,0.8
					s0.1,0.6,0.3,0.8c0.3,0.3,1.1,1.1,2.4,2.2c1.3,1,2,1.7,2.3,2c0.7,0.7,1.1,1.3,1.4,1.9c0.3,0.6,0.4,1.3,0.4,2
					c0,1.4-0.5,2.6-1.5,3.5c-1,0.9-2.3,1.4-3.8,1.4c-1.2,0-2.3-0.3-3.2-0.9s-1.7-1.5-2.3-2.8l2.8-1.7c0.8,1.5,1.8,2.3,2.9,2.3
					c0.6,0,1-0.2,1.4-0.5c0.4-0.3,0.6-0.7,0.6-1.1c0-0.4-0.1-0.8-0.4-1.2c-0.3-0.4-0.9-1-1.9-1.8c-1.9-1.5-3.1-2.7-3.6-3.5
					s-0.8-1.7-0.8-2.5c0-1.2,0.5-2.2,1.4-3.1s2-1.3,3.4-1.3c0.9,0,1.7,0.2,2.5,0.6S864.1,632.5,865,633.5z"/>
				<path class="st9" d="M875.1,631.2h3.9c2.5,0,4.4,0.3,5.6,0.9s2.2,1.6,3,3c0.8,1.4,1.2,3,1.2,4.9c0,1.3-0.2,2.5-0.7,3.7
					c-0.4,1.1-1,2-1.8,2.8c-0.8,0.7-1.6,1.2-2.5,1.5c-0.9,0.3-2.5,0.4-4.7,0.4h-3.9V631.2z M878.4,634.4v10.9h1.5
					c1.5,0,2.6-0.2,3.3-0.5c0.7-0.3,1.2-0.9,1.7-1.7c0.4-0.8,0.6-1.8,0.6-3c0-1.8-0.5-3.2-1.5-4.3c-0.9-0.9-2.4-1.4-4.4-1.4H878.4z"
					/>
				<path class="st9" d="M900.1,630.8c2.4,0,4.5,0.9,6.3,2.6c1.8,1.8,2.6,3.9,2.6,6.5c0,2.5-0.9,4.6-2.6,6.4
					c-1.7,1.7-3.8,2.6-6.3,2.6c-2.6,0-4.7-0.9-6.4-2.7s-2.6-3.9-2.6-6.4c0-1.6,0.4-3.2,1.2-4.5s1.9-2.5,3.3-3.3
					S898.4,630.8,900.1,630.8z M900,634c-1.6,0-2.9,0.6-4,1.7s-1.6,2.5-1.6,4.2c0,1.9,0.7,3.4,2.1,4.5c1.1,0.9,2.3,1.3,3.7,1.3
					c1.6,0,2.9-0.6,4-1.7c1.1-1.1,1.6-2.5,1.6-4.2c0-1.6-0.6-3-1.7-4.2S901.6,634,900,634z"/>
				<path class="st9" d="M927.9,634.2l-2.3,2.2c-1.6-1.6-3.3-2.5-5.3-2.5c-1.6,0-3,0.6-4.2,1.7s-1.7,2.5-1.7,4.2
					c0,1.1,0.3,2.2,0.7,3.1c0.5,0.9,1.2,1.6,2.1,2.1c0.9,0.5,1.9,0.8,3,0.8c1,0,1.8-0.2,2.6-0.5c0.8-0.4,1.7-1,2.6-1.9l2.2,2.3
					c-1.3,1.2-2.5,2.1-3.6,2.6s-2.4,0.7-3.9,0.7c-2.7,0-4.9-0.8-6.6-2.5s-2.6-3.9-2.6-6.5c0-1.7,0.4-3.2,1.2-4.6s1.9-2.4,3.3-3.2
					s3-1.2,4.7-1.2c1.4,0,2.8,0.3,4.1,0.9C925.8,632.3,927,633.1,927.9,634.2z"/>
				<path class="st9" d="M930.7,631.2h3.3v11.1c0,1,0.1,1.6,0.3,2c0.2,0.4,0.4,0.7,0.8,1c0.4,0.2,0.9,0.4,1.4,0.4
					c0.6,0,1.1-0.1,1.5-0.4c0.4-0.3,0.7-0.6,0.9-1c0.2-0.4,0.2-1.2,0.2-2.3v-10.7h3.3v10.3c0,1.7-0.1,2.9-0.3,3.6s-0.6,1.3-1.1,1.9
					s-1.2,1.1-1.9,1.4s-1.6,0.5-2.5,0.5c-1.3,0-2.3-0.3-3.3-0.9s-1.6-1.3-2-2.2s-0.6-2.3-0.6-4.4V631.2z"/>
				<path class="st9" d="M947.8,631.2h3.2l4,12l4-12h3.2l2.9,17.2H962l-1.8-10.9l-3.7,10.9h-2.9l-3.6-10.9l-1.9,10.9h-3.2
					L947.8,631.2z"/>
				<path class="st9" d="M967.8,631.2h9.4v3.2H971v3.1h6.2v3.2H971v4.5h6.2v3.2h-9.4V631.2z"/>
				<path class="st9" d="M980.2,631.2h3.1l7.4,11.3v-11.3h3.3v17.2h-3.2l-7.4-11.3v11.3h-3.3V631.2z"/>
				<path class="st9" d="M996.3,631.2h9.5v3.2h-3.1v14h-3.3v-14h-3.1V631.2z"/>
				<path class="st9" d="M1013.3,631.2h3.3l6.6,17.2h-3.4l-1.3-3.6h-7l-1.4,3.6h-3.4L1013.3,631.2z M1015,635.8l-2.3,5.9h4.6
					L1015,635.8z"/>
				<path class="st9" d="M1024.1,631.2h9.5v3.2h-3.1v14h-3.3v-14h-3.1V631.2z"/>
				<path class="st9" d="M1035.7,631.2h3.3v17.2h-3.3V631.2z"/>
				<path class="st9" d="M1050.7,630.8c2.4,0,4.5,0.9,6.3,2.6c1.8,1.8,2.6,3.9,2.6,6.5c0,2.5-0.9,4.6-2.6,6.4
					c-1.7,1.7-3.8,2.6-6.3,2.6c-2.6,0-4.7-0.9-6.4-2.7s-2.6-3.9-2.6-6.4c0-1.6,0.4-3.2,1.2-4.5s1.9-2.5,3.3-3.3
					S1049.1,630.8,1050.7,630.8z M1050.7,634c-1.6,0-2.9,0.6-4,1.7s-1.6,2.5-1.6,4.2c0,1.9,0.7,3.4,2.1,4.5c1.1,0.9,2.3,1.3,3.7,1.3
					c1.6,0,2.9-0.6,4-1.7c1.1-1.1,1.6-2.5,1.6-4.2c0-1.6-0.6-3-1.7-4.2S1052.3,634,1050.7,634z"/>
				<path class="st9" d="M1062.8,631.2h3.1l7.4,11.3v-11.3h3.3v17.2h-3.2l-7.4-11.3v11.3h-3.3V631.2z"/>
			</g>
			<g>
				<rect x="957.4" y="969.3" class="st7" width="36.5" height="36.5"/>
				<rect x="1011.8" y="969.3" class="st13" width="36.5" height="36.5"/>
				<rect x="1066.3" y="969.3" class="st14" width="36.5" height="36.5"/>
				<path class="st13" d="M911.7,969.3c0-25.8-20.9-46.7-46.7-46.7v46.7l28,37.4C904.4,998.2,911.7,984.6,911.7,969.3z"/>
				<path class="st7" d="M865,922.6c-25.8,0-46.7,20.9-46.7,46.7c0,3.1,0.3,6.1,0.9,9l45.8-9V922.6z"/>
				<path class="st14" d="M865,969.3L865,969.3l-45.8,9c4.2,21.5,23.1,37.7,45.8,37.7c10.5,0,20.2-3.5,28-9.3L865,969.3z"/>
			</g>
			<g>
				<g>
					<path class="st10" d="M1109.8,631.1c-5.9,0-10.7,4.8-10.7,10.7s4.8,10.7,10.7,10.7s10.7-4.8,10.7-10.7
						C1120.5,635.9,1115.7,631.1,1109.8,631.1z"/>
				</g>
				<path class="st11" d="M1111.5,636.1h-6v1.1h1v10.4h1.1v-10.4h1.3v10.4h1.1v-2h1.4c2.3,0,3.8-2,3.8-4.8
					C1115.3,638.1,1113.7,636.1,1111.5,636.1z M1111.5,644.5h-1.4v-7.3h1.4c1.6,0,2.7,1.5,2.7,3.6
					C1114.2,643,1113.1,644.5,1111.5,644.5z"/>
			</g>
		</g>
		<rect x="745.3" y="576.1" class="st2" width="423.5" height="502.9"/>
	</g>
</g>
</svg>
