<?xml version="1.0" encoding="utf-8"?>
<!-- Generator: Adobe Illustrator 24.0.2, SVG Export Plug-In . SVG Version: 6.00 Build 0)  -->
<svg version="1.1" id="Layer_1" xmlns="http://www.w3.org/2000/svg" xmlns:xlink="http://www.w3.org/1999/xlink" x="0px" y="0px"
	 viewBox="0 0 1632.8 1224.6" style="enable-background:new 0 0 1632.8 1224.6;" xml:space="preserve">
<style type="text/css">
	.st0{fill:#F2FBFF;}
	.st1{fill:#D3F0FE;}
	.st2{opacity:0.3;fill:#B9E0FE;}
	.st3{fill:#FFFFFF;}
	.st4{fill:#D0DDE6;}
	.st5{fill:none;stroke:#D0DDE6;stroke-width:4;stroke-miterlimit:10;}
	.st6{fill:#D6EBF3;}
	.st7{fill:#CEDCE5;}
	.st8{fill:#D6E5ED;}
	.st9{fill:#FE9900;}
	.st10{fill:none;}
	.st11{fill:none;stroke:#665E93;stroke-miterlimit:10;}
	.st12{fill:#5A5A5A;}
	.st13{fill:#CC1172;}
	.st14{fill:#074C7B;}
	.st15{fill:#EFB642;}
	.st16{fill:#59BFDF;}
	.st17{fill:none;stroke:#C2ECFF;stroke-width:3;stroke-miterlimit:10;}
	.st18{fill:#9FDDB3;}
	.st19{fill:none;stroke:#C2ECFF;stroke-width:2;stroke-miterlimit:10;}
	.st20{fill:#F47920;}
	.st21{fill:#472F91;}
</style>
<g>
	<path class="st0" d="M1402.6,492.7c11.4,12.6,21.7,26.1,30.7,40.6c32.5,52.5,45.4,115.8,42.5,177.4c-2.9,61.7-21,121.9-46.9,178
		c-37.3,80.9-92.5,155.8-168.4,202.3c-67.7,41.6-148.3,58.5-227.8,60.8c-108.6,3.2-220.8-14.1-327.3-33.4
		c-124.7-22.6-251.7-40.4-374.5-71.2c-86.9-21.8-157.3-72.1-145.7-170.8c4.3-36.5,14.8-72.4,15.6-109.2c1-45.3-12.7-89.4-25-132.9
		s-23.6-88.8-17.6-133.7c7.2-53.9,46.8-98.6,94.2-122.7c53.7-27.2,119.5-19.4,176.3-36.7c59.9-18.2,109.1-60.8,153.2-105.2
		c44.2-44.4,86-92.3,138.9-125.7C773.8,77,841.5,59.7,899.7,83c79.2,31.7,111.4,117,153.1,184.3c17.3,28,39.8,65.7,69.3,81.7
		c50.1,27.3,113.8,34,166,59.9C1330.6,430.1,1370.8,457.7,1402.6,492.7z"/>
	<path class="st1" d="M261.9,499.1c-10.8,11.9-20.6,24.7-29.1,38.4c-30.7,49.7-43,109.5-40.2,167.8c2.8,58.3,19.9,115.4,44.4,168.4
		c35.2,76.5,87.5,147.3,159.3,191.4c64.1,39.3,140.3,55.3,215.5,57.5c102.7,3,208.9-13.3,309.6-31.6c118-21.4,238.1-38.3,354.3-67.4
		c82.2-20.6,148.8-68.2,137.9-161.6c-4.1-34.6-14-68.5-14.7-103.2c-0.9-42.8,12-84.5,23.7-125.7c11.7-41.2,22.3-84,16.7-126.4
		c-6.8-51-44.2-93.3-89.1-116.1c-50.8-25.8-113-18.4-166.7-34.7c-56.7-17.2-103.2-57.6-144.9-99.6c-41.8-42-81.3-87.3-131.4-118.9
		c-50.1-31.6-114.2-47.9-169.2-25.9c-74.9,30-105.4,110.6-144.9,174.3c-16.4,26.5-37.7,62.1-65.6,77.3
		c-47.4,25.8-107.6,32.2-157,56.7C329.9,439.9,291.9,466,261.9,499.1z"/>
	<g>
		<rect x="269.5" y="243.1" class="st2" width="617.6" height="481"/>
		<rect x="277.5" y="243.1" class="st3" width="609.6" height="472.4"/>
		<rect x="437.7" y="265.9" class="st4" width="8.5" height="426.9"/>
		<rect x="488.2" y="276.7" class="st4" width="36.6" height="6.8"/>
		<rect x="540.5" y="276.7" class="st4" width="36.6" height="6.8"/>
		<rect x="592.8" y="276.7" class="st4" width="36.6" height="6.8"/>
		<rect x="645.2" y="276.7" class="st4" width="36.6" height="6.8"/>
		<rect x="292.3" y="303" class="st5" width="125" height="28.1"/>
		<path class="st5" d="M828.8,289.2h-63.2c-5,0-9.1-4.1-9.1-9.1l0,0c0-5,4.1-9.1,9.1-9.1h63.2c5,0,9.1,4.1,9.1,9.1l0,0
			C837.9,285.1,833.8,289.2,828.8,289.2z"/>
		<rect x="292.3" y="360.6" class="st6" width="101.2" height="13.6"/>
		<rect x="292.3" y="387.8" class="st6" width="74.6" height="13.6"/>
		<rect x="292.3" y="415" class="st6" width="74.6" height="13.6"/>
		<rect x="292.3" y="442.2" class="st6" width="101.2" height="13.6"/>
		<rect x="292.3" y="469.4" class="st6" width="74.6" height="13.6"/>
		<rect x="292.3" y="496.6" class="st6" width="74.6" height="13.6"/>
		<rect x="292.3" y="523.9" class="st6" width="101.2" height="13.6"/>
		<rect x="292.3" y="551.1" class="st6" width="74.6" height="13.6"/>
		<rect x="292.3" y="605.5" class="st6" width="74.6" height="13.6"/>
		<rect x="292.3" y="578.3" class="st6" width="101.2" height="13.6"/>
		<rect x="292.3" y="632.7" class="st6" width="74.6" height="13.6"/>
		<rect x="292.3" y="659.9" class="st6" width="74.6" height="13.6"/>
		<rect x="488.2" y="331.1" class="st7" width="123" height="29.5"/>
		<rect x="488.2" y="386.7" class="st8" width="349.8" height="5.1"/>
		<rect x="488.2" y="408.2" class="st8" width="349.8" height="5.1"/>
		<rect x="488.2" y="429.7" class="st8" width="349.8" height="5.1"/>
		<rect x="488.2" y="469.4" class="st7" width="123" height="29.5"/>
		<rect x="488.2" y="525" class="st8" width="349.8" height="5.1"/>
		<rect x="488.2" y="546.5" class="st8" width="349.8" height="5.1"/>
		<rect x="488.2" y="568.1" class="st8" width="349.8" height="5.1"/>
		<rect x="488.2" y="589.6" class="st8" width="349.8" height="5.1"/>
		<rect x="488.2" y="611.2" class="st8" width="349.8" height="5.1"/>
		<rect x="488.2" y="632.7" class="st8" width="349.8" height="5.1"/>
		<rect x="488.2" y="654.2" class="st8" width="349.8" height="5.1"/>
		<g>
			<path d="M347.6,268.4v9.3h9.3v-9.3H347.6z M354.6,275.4h-4.8v-4.8h4.8V275.4z M376.2,268.4v9.3h9.3v-9.3H376.2z M383.2,275.4
				h-4.8v-4.8h4.8V275.4z M386.7,275.4l5.7-4.8h-5.7v-2.3h9.3v2.3l-5.7,4.8 M396,277.7h-9.3v-2.3h9.3V277.7z M397.5,268.4v9.3h9.3
				v-9.3H397.5z M404.5,275.4h-4.8v-4.8h4.8V275.4z M417.3,277.7v-9.3H408v9.3 M410.3,277.7v-7h4.8v7 M358.5,268.4v9.3h16.3v-9.3
				H358.5z M365.5,275.4h-4.8v-4.8h4.8V275.4z M372.5,275.4h-4.8v-4.8h4.8V275.4z"/>
			<g>
				<g>
					<g>
						<path class="st9" d="M384.4,282.4c-4.6,2-9.5,3.2-14.5,3.2c-5,0-10.2-1.3-14.4-4.5c-0.7-0.6,0.7-1.9,1.2-1.5
							c1.8,1.5,3.9,2.6,6.2,3.4c2.3,0.8,4.6,1.2,7,1.3c4.8,0.2,9.7-0.8,14.3-2.5C384.4,281.7,384.7,282.2,384.4,282.4z"/>
					</g>
				</g>
			</g>
			<g>
				<g>
					<g>
						<path class="st9" d="M382.9,280.1l2.7-0.3l0.3,0l0.4,0c0.4,0,0.8-0.1,1,0c0.3,0.1,0.6,0.3,0.6,0.7c0.1,0.3,0.1,0.6-0.1,0.9
							l-0.3,0.7l-0.2,0.4l-0.4,0.8l-0.7,1.6c-0.1,0.2-1.8-0.7-1.7-0.9l1-1.5l0.5-0.8l0.2-0.4l0.1-0.1c0-0.1,0.1-0.1,0.1-0.2
							c0-0.1,0-0.2-0.1-0.2l-0.2,0l-0.1,0l-0.2,0l-0.3,0l-2.7-0.1C382.9,280.8,382.8,280.2,382.9,280.1z"/>
					</g>
				</g>
			</g>
		</g>
		<line class="st10" x1="373.3" y1="210.2" x2="387.2" y2="210.2"/>
	</g>
	<g>
		<g>
			<path class="st11" d="M843,798.2"/>
		</g>
	</g>
	<g>
		<rect x="745.7" y="571.1" class="st2" width="617.6" height="481"/>
		<rect x="753.7" y="571.1" class="st3" width="609.6" height="472.4"/>
		<rect x="913.9" y="593.8" class="st4" width="8.5" height="426.9"/>
		<rect x="768.5" y="603.8" class="st6" width="101.2" height="13.6"/>
		<rect x="768.5" y="630.8" class="st6" width="74.6" height="13.6"/>
		<rect x="768.5" y="657.9" class="st6" width="74.6" height="13.6"/>
		<rect x="768.5" y="684.9" class="st6" width="101.2" height="13.6"/>
		<rect x="768.5" y="712" class="st6" width="74.6" height="13.6"/>
		<rect x="768.5" y="739" class="st6" width="74.6" height="13.6"/>
		<rect x="768.5" y="766.1" class="st6" width="101.2" height="13.6"/>
		<rect x="768.5" y="793.1" class="st6" width="74.6" height="13.6"/>
		<rect x="768.5" y="847.2" class="st6" width="74.6" height="13.6"/>
		<rect x="768.5" y="820.1" class="st6" width="101.2" height="13.6"/>
		<rect x="768.5" y="874.2" class="st6" width="74.6" height="13.6"/>
		<rect x="768.5" y="901.3" class="st6" width="74.6" height="13.6"/>
		<rect x="768.5" y="928.3" class="st6" width="101.2" height="13.6"/>
		<rect x="768.5" y="955.4" class="st6" width="74.6" height="13.6"/>
		<rect x="768.5" y="982.4" class="st6" width="74.6" height="13.6"/>
		<rect x="768.5" y="1009.5" class="st6" width="101.2" height="13.6"/>
		<rect x="964.4" y="651.7" class="st8" width="152.5" height="5.1"/>
		<rect x="964.4" y="696" class="st8" width="224.3" height="5.1"/>
		<rect x="964.4" y="997.4" class="st8" width="349.8" height="5.1"/>
		<rect x="964.4" y="975.9" class="st8" width="349.8" height="5.1"/>
	</g>
	<rect x="964.4" y="738" class="st12" width="107.9" height="15.6"/>
	<rect x="1085.3" y="738" class="st13" width="107.9" height="15.6"/>
	<rect x="1206.2" y="738" class="st14" width="107.9" height="15.6"/>
	<g>
		<circle class="st13" cx="993.8" cy="813.3" r="14.4"/>
		<circle class="st14" cx="993.8" cy="854" r="14.4"/>
		<circle class="st15" cx="993.8" cy="894.7" r="14.4"/>
		<circle class="st16" cx="993.8" cy="935.3" r="14.4"/>
	</g>
	<circle class="st17" cx="1139.3" cy="874.3" r="47.6"/>
	<g>
		<rect x="1225.3" y="812.4" class="st15" width="69.7" height="21.2"/>
		<rect x="1225.3" y="863.7" class="st6" width="69.7" height="21.2"/>
		<rect x="1225.3" y="915" class="st18" width="69.7" height="21.2"/>
	</g>
	<polyline class="st19" points="1016,813.3 1054.5,813.3 1054.5,874.3 1080,874.3 	"/>
	<line class="st19" x1="1016" y1="854" x2="1054.5" y2="854"/>
	<polyline class="st19" points="1016,935.3 1054.5,935.3 1054.5,874.3 1091.6,874.3 	"/>
	<line class="st19" x1="1016" y1="894.7" x2="1054.5" y2="894.7"/>
	<polyline class="st19" points="1186.9,874.3 1206.2,874.3 1206.2,823 1214.4,823 	"/>
	<polyline class="st19" points="1215.7,874.3 1205.9,874.3 1205.9,925.6 1214.4,925.6 	"/>
	<g>
		<polygon class="st20" points="1076.5,619.4 1063.9,608.2 1063.9,612.9 1049.5,612.9 1049.5,625.8 1063.9,625.8 1063.9,630.5 		"/>
		<rect x="1034.4" y="607.6" class="st20" width="9.4" height="26.5"/>
		<g>
			<polygon class="st21" points="971,607.6 971,617 977.2,617 977.2,634.1 986.7,634.1 986.7,617 991.2,617 992.8,617 1013,617 
				1013,607.6 			"/>
			<rect x="991.2" y="621" class="st21" width="21.8" height="9.4"/>
			<rect x="1018.3" y="621" class="st21" width="10.9" height="9.4"/>
		</g>
	</g>
	<path class="st6" d="M1139.3,842.9c-17.4,0-31.5,14.1-31.5,31.5c0,17.4,14.1,31.5,31.5,31.5c17.4,0,31.5-14.1,31.5-31.5
		C1170.7,856.9,1156.6,842.9,1139.3,842.9z M1139.3,888.8c-8,0-14.5-6.5-14.5-14.5c0-8,6.5-14.5,14.5-14.5s14.5,6.5,14.5,14.5
		C1153.7,882.3,1147.3,888.8,1139.3,888.8z"/>
</g>
</svg>
