<?xml version="1.0" encoding="utf-8"?>
<!-- Generator: Adobe Illustrator 24.0.2, SVG Export Plug-In . SVG Version: 6.00 Build 0)  -->
<svg version="1.1" id="Layer_1" xmlns="http://www.w3.org/2000/svg" xmlns:xlink="http://www.w3.org/1999/xlink" x="0px" y="0px"
	 viewBox="0 0 1185.4 675.8" style="enable-background:new 0 0 1185.4 675.8;" xml:space="preserve">
<style type="text/css">
	.st0{fill:none;stroke:#000000;stroke-width:2.3394;stroke-linecap:round;stroke-linejoin:round;stroke-miterlimit:10;}
	.st1{fill:none;stroke:#000000;stroke-width:1.0478;stroke-linecap:round;stroke-linejoin:round;stroke-miterlimit:10;}
	.st2{fill:none;stroke:#000000;stroke-width:1.5718;stroke-linecap:round;stroke-linejoin:round;stroke-miterlimit:10;}
</style>
<path id="XMLID_5_" class="st0" d="M1024.5,284.1c0.1,3.9-0.1,8.6-1.3,11.3c0,0,7.6,11.6,17,0.7c0,0-1.7-6.6-2.5-13.3"/>
<path id="XMLID_2_" class="st0" d="M999.2,212.2c-2.5,12-5.4,31-2.1,44.8c5.2,21.8,25.2,29.6,38.1,26.4
	c12.9-3.1,20.4-10.5,24.1-31.4c4,0.8,7.6-1.8,8.6-3.3c5.3-7.4,4-20.8-3.6-20.5c-7.6,0.3-10.3,5.7-10.3,5.7l4.2-15.8
	c0,0-10.5-3-7.7-16.9c0,0-18,2.8-20.6-11.9c0,0-2,6.1-12.7,5.1c0,0-3.2,10.1-14.1,10.1C1003.2,204.7,1004.3,210.8,999.2,212.2z"/>
<path d="M1041.9,235.5c-0.3,2-1.6,3.5-3,3.3c-1.4-0.2-2.3-2-2-4c0.3-2,1.6-3.5,3-3.3C1041.3,231.6,1042.2,233.4,1041.9,235.5z
	 M1011.7,228c-1.4-0.2-2.7,1.3-3,3.3c-0.3,2,0.6,3.8,2,4c1.4,0.2,2.7-1.3,3-3.3C1013.9,230,1013.1,228.2,1011.7,228z"/>
<g>
	<g>
		<g>
			<path d="M1010.3,217.9c1.1-1.7,2.6-3.1,4.6-4.2c0.2-0.1,1,2.3,0.9,2.3c-1.7,0.3-3.4,1.2-4.8,2.4
				C1010.8,218.5,1010.2,218.1,1010.3,217.9z"/>
		</g>
	</g>
</g>
<g>
	<g>
		<g>
			<path d="M1048.3,222.5c-0.9-1.9-2.8-3.1-4.7-4c-0.5-0.2,0.7-2.5,1.3-2.1c1,0.8,1.8,1.6,2.6,2.6c0.7,1,1.3,2.1,1.6,3.2
				C1049.1,222.4,1048.4,222.6,1048.3,222.5z"/>
		</g>
	</g>
</g>
<g>
	<g>
		<g>
			<g>
				<g>
					<path d="M1024.7,217.5c-1.3,5.2-2.6,10.4-3.8,15.5c-0.6,2.6-1.2,5.2-1.7,7.8l-0.2,1l0,0.2l0,0c0,0,0,0,0,0.1c0,0,0,0,0.1,0
						c0,0,0,0,0,0l0.2,0.1c0.3,0.1,0.6,0.2,0.9,0.2c1.3,0.3,2.6,0.5,3.9,0.7c0.9,0.1,0.5,2-0.3,1.8c-1.3-0.3-2.6-0.6-4-0.9
						c-0.3-0.1-0.7-0.2-1-0.3l-0.3-0.1c-0.1,0-0.3-0.1-0.4-0.2c-0.3-0.2-0.6-0.3-0.7-0.5c-0.2-0.2-0.2-0.5-0.2-0.8
						c0-0.2,0-0.3,0.1-0.4l0-0.3l0.2-1c0.6-2.6,1.3-5.2,2-7.8c1.4-5.2,2.9-10.3,4.4-15.4C1024.4,216.2,1024.9,216.3,1024.7,217.5z"
						/>
				</g>
			</g>
		</g>
		<g>
			<g>
				<g>
					<path d="M1059.1,252.4c-1.3-0.2-2.6-0.8-3.7-1.5c-1.1-0.8-2-1.7-2.9-2.8c-0.2-0.2,1.5-1.2,1.5-1c1.1,2.1,2.8,4,5.1,4.7
						C1059.5,251.8,1059.4,252.4,1059.1,252.4z"/>
				</g>
			</g>
		</g>
		<g>
			<g>
				<g>
					<path d="M1057.2,242.1c0.2-1,0.4-1.9,0.6-2.9c0.2-1,0.5-1.9,0.9-2.9c0.1-0.2,0.3-0.5,0.6-0.8c0.2-0.1,0.3-0.2,0.5-0.3
						c0.2-0.1,0.3-0.1,0.5-0.2c0.6-0.1,1.1-0.1,1.6-0.1c1,0,2,0.2,3,0.4c0.3,0.1-0.2,1.9-0.5,1.8c-0.9-0.3-1.8-0.5-2.7-0.6
						c-0.4-0.1-0.9-0.1-1.2,0c-0.4,0.1-0.4,0.1-0.7,0.5c-0.4,0.7-0.8,1.6-1.1,2.5c-0.3,0.9-0.6,1.8-0.9,2.7
						C1057.7,242.7,1057.1,242.6,1057.2,242.1z"/>
				</g>
			</g>
		</g>
	</g>
</g>
<path class="st0" d="M996.2,231.3c0,0-5.3-0.8-6.5,7.9c-1.2,8.3,6.2,10.6,6.2,10.6"/>
<path class="st0" d="M992.6,232.5c0,0-6.7-2.8-5.9-10.1c0.8-7.3,5-8.5,5-8.5s-7.1-10.1,1.2-21c8.3-10.9,20.1-9.1,20.1-9.1
	s0.9-12.7,14.4-16c13.5-3.4,21.4,7.3,21.4,7.3s12.1-6.9,21.6,0c9.5,6.9,8.7,22.2,8.7,22.2s9.5,1,10.7,14.9s-5.3,19-5.3,19
	s8.1,10.5-3.8,20.9c0,0,2.4,12.4-12.5,13c0,0-4.2,9.6-14.9,5.7"/>
<polyline class="st0" points="1033.4,167.2 1033.4,125.4 1186.4,125.4 "/>
<path class="st0" d="M1023.1,295.4c0,0-14-2.1-15.5,5.4c-1.5,7.5-8.6,129-8.6,129s29.1,6.2,54.2,0c0,0,1.7-126.5,0.3-129
	c-3.4-6.1-13.4-4.7-13.4-4.7"/>
<path class="st0" d="M1013,295.8c-9.3,1.8-43.1,25.5-43.1,25.5s-29.3-26.9-31.1-27.7c-1.8-0.8-10.1,8.5-10.1,8.5s31.5,36,41.2,34.5
	s36.7-24.8,36.7-24.8"/>
<path class="st1" d="M1023.1,295.4c0,0,5.8,28.5,7,28.3c1.2-0.2,10-27.6,10-27.6"/>
<path class="st0" d="M1002.4,430.5l6.9,161.4c0,0,5.3,3.6,10.7,0l1.9-146.6"/>
<path class="st0" d="M1009.3,591.9c0,0-43.2,18-40.5,21.8s50.8-10.4,51.4-12.5s-0.1-9.4-0.1-9.4"/>
<path class="st0" d="M1051.1,430.5l-6.9,161.4c0,0-5.3,3.6-10.7,0l-1.9-144.8"/>
<path class="st0" d="M1044.2,591.9c0,0,43.2,18,40.5,21.8s-50.8-10.4-51.4-12.5c-0.6-2.1,0.1-9.4,0.1-9.4"/>
<g>
	<g>
		<g>
			<path d="M1015,440.1c3.3,2.5,7.1,4.1,11.1,4.6c4,0.6,8.1,0,11.8-1.3c0.6-0.2,1.6,2.5,0.8,2.6c-4.2,1.2-8.7,1.5-13,0.5
				c-4.2-0.9-8.2-2.9-11.4-5.8C1013.7,440.1,1014.3,439.6,1015,440.1z"/>
		</g>
	</g>
</g>
<g>
	<line class="st0" x1="1185.4" y1="334.1" x2="1054.1" y2="334.1"/>
	<line class="st0" x1="1178.3" y1="251.8" x2="1184.4" y2="251.8"/>
	<line class="st1" x1="1080.9" y1="251.8" x2="1138.1" y2="251.8"/>
	<g>
		<line class="st1" x1="1169.2" y1="326.6" x2="1169.2" y2="334.1"/>
		<line class="st1" x1="1134.7" y1="316.2" x2="1134.7" y2="334.1"/>
		<line class="st1" x1="1117.5" y1="321.1" x2="1117.5" y2="334.1"/>
		<line class="st1" x1="1117.5" y1="251.8" x2="1117.5" y2="307.2"/>
		<line class="st1" x1="1100.3" y1="326.6" x2="1100.3" y2="334.1"/>
		<line class="st1" x1="1100.3" y1="251.8" x2="1100.3" y2="313.4"/>
		<line class="st1" x1="1083" y1="327.6" x2="1083" y2="334.1"/>
		<line class="st1" x1="1083" y1="251.8" x2="1083" y2="313.3"/>
		<line class="st1" x1="1065.8" y1="322.2" x2="1065.8" y2="334.1"/>
		<line class="st1" x1="1065.8" y1="268.4" x2="1065.8" y2="307.5"/>
		<line class="st1" x1="1048.6" y1="276.7" x2="1048.6" y2="296.3"/>
	</g>
	<line class="st0" x1="1185.4" y1="349.8" x2="1054.1" y2="349.8"/>
</g>
<g>
	<line class="st0" x1="1186.4" y1="212.3" x2="1089.9" y2="212.3"/>
	<polyline class="st0" points="1032.8,167.2 1032.8,150.9 1186.4,150.9 	"/>
	<g>
		<line class="st1" x1="1186.4" y1="150.9" x2="1186.4" y2="212.3"/>
		<line class="st1" x1="1169.2" y1="150.9" x2="1169.2" y2="212.3"/>
		<line class="st1" x1="1151.9" y1="150.9" x2="1151.9" y2="212.3"/>
		<line class="st1" x1="1134.7" y1="150.9" x2="1134.7" y2="212.3"/>
		<line class="st1" x1="1117.5" y1="150.9" x2="1117.5" y2="212.3"/>
		<line class="st1" x1="1100.3" y1="150.9" x2="1100.3" y2="212.3"/>
		<line class="st1" x1="1083" y1="150.9" x2="1083" y2="199"/>
		<line class="st1" x1="1065.8" y1="150.9" x2="1065.8" y2="172.9"/>
		<line class="st1" x1="1048.6" y1="150.9" x2="1048.6" y2="175"/>
	</g>
	<line class="st0" x1="1184.4" y1="228" x2="1086.9" y2="228"/>
</g>
<g>
	<line class="st0" x1="1186.4" y1="435" x2="1051.1" y2="435"/>
	<line class="st0" x1="1053.9" y1="373.6" x2="1186.4" y2="373.6"/>
	<g>
		<line class="st1" x1="1186.4" y1="373.6" x2="1186.4" y2="435"/>
		<line class="st1" x1="1169.2" y1="373.6" x2="1169.2" y2="435"/>
		<line class="st1" x1="1151.9" y1="373.6" x2="1151.9" y2="435"/>
		<line class="st1" x1="1134.7" y1="373.6" x2="1134.7" y2="435"/>
		<line class="st1" x1="1117.5" y1="373.6" x2="1117.5" y2="435"/>
		<line class="st1" x1="1100.3" y1="373.6" x2="1100.3" y2="435"/>
		<line class="st1" x1="1083" y1="373.6" x2="1083" y2="435"/>
		<line class="st1" x1="1065.8" y1="373.6" x2="1065.8" y2="435"/>
	</g>
	<line class="st0" x1="1185.4" y1="450.8" x2="1050.2" y2="450.8"/>
</g>
<g>
	<line class="st1" x1="1045" y1="570.9" x2="1184.1" y2="570.9"/>
	<line class="st0" x1="1184.1" y1="570.9" x2="1045" y2="570.9"/>
	<line class="st0" x1="1048.6" y1="474.6" x2="1185.4" y2="474.6"/>
	<g>
		<line class="st1" x1="1169.2" y1="474.6" x2="1169.2" y2="570.9"/>
		<line class="st1" x1="1151.9" y1="474.6" x2="1151.9" y2="570.9"/>
		<line class="st1" x1="1134.7" y1="474.6" x2="1134.7" y2="570.9"/>
		<line class="st1" x1="1117.5" y1="474.6" x2="1117.5" y2="570.9"/>
		<line class="st1" x1="1100.3" y1="474.6" x2="1100.3" y2="570.9"/>
		<line class="st1" x1="1083" y1="474.6" x2="1083" y2="570.9"/>
		<line class="st1" x1="1065.8" y1="474.6" x2="1065.8" y2="570.9"/>
		<line class="st1" x1="1048.6" y1="474.6" x2="1048.6" y2="570.9"/>
	</g>
</g>
<path class="st0" d="M1053.5,300.8c0,0,18.7,12.4,36.3,13.4c17.7,1,35.5-11.7,35.5-11.7l5.3,10.9c0,0-19.2,14.7-40.8,14.5
	c-20.7-0.2-35.8-12.8-35.8-12.8"/>
<g>
	<path d="M1149.1,336c-0.2,0-0.3,0-0.5-0.1c-0.3-0.1-0.5-0.4-0.6-0.6l-12.8-31.6c-0.2-0.6,0-1.3,0.6-1.5c0.6-0.2,1.3,0,1.5,0.6
		l12.3,30.5l36.4-14.7c0.6-0.2,0.2,0.5,0.5,1.1c0.2,0.6,0,1.3-0.6,1.5l-36.4,14.7C1149.4,336,1149.3,336,1149.1,336z"/>
</g>
<g>
	<path d="M1131.4,292.1c-0.5,0-0.9-0.3-1.1-0.7l-12.4-30.7c-0.1-0.3-0.1-0.6,0-0.9s0.4-0.5,0.6-0.6l48.1-19.4c0.6-0.2,1.3,0,1.5,0.6
		l18.5,45.8c0.2,0.6,0.4,1.7-0.2,1.9c-0.6,0.2-0.2,3.3-0.4,2.7l-19.6-48.4l-45.9,18.5l12,29.6c0.2,0.6,0,1.3-0.6,1.5
		C1131.7,292.1,1131.6,292.1,1131.4,292.1z"/>
</g>
<rect x="1170" y="239.1" transform="matrix(0.9274 -0.3741 0.3741 0.9274 -7.4303 456.8952)" class="st0" width="6.1" height="16.9"/>
<g>
	<g>
		<path d="M1145.2,292l4.1-4.9c0.3-0.4,0.7-0.6,1.2-0.6c0.5,0,0.9,0.1,1.3,0.4c0.4,0.3,0.6,0.7,0.6,1.2c0,0.5-0.1,0.9-0.4,1.3
			l-2,2.4l3.2,0.3c0.5,0.1,0.9,0.3,1.2,0.6c0.3,0.4,0.4,0.8,0.4,1.2c-0.1,0.5-0.3,0.9-0.6,1.2c-0.4,0.3-0.8,0.4-1.3,0.4l-6.4-0.7
			c-0.3,0-0.6-0.1-0.8-0.4s-0.4-0.5-0.5-0.8c-0.1-0.3-0.2-0.6-0.1-0.9C1144.9,292.5,1145,292.2,1145.2,292z"/>
		<path d="M1157.8,279.1c0.5,0,0.9,0.1,1.3,0.4c0.4,0.3,0.6,0.7,0.6,1.2l1.1,13.7c0,0.5-0.1,0.9-0.4,1.3c-0.3,0.4-0.7,0.6-1.2,0.6
			c-0.5,0-0.9-0.1-1.3-0.4c-0.4-0.3-0.6-0.7-0.6-1.2l-1-13.7c0-0.5,0.1-0.9,0.4-1.3C1156.9,279.3,1157.3,279.1,1157.8,279.1z"/>
		<path d="M1171,282.2c0.2,0.2,0.4,0.5,0.5,0.7c0.1,0.3,0.2,0.6,0.2,0.9c0,0.3-0.1,0.6-0.3,0.8l-4.1,4.9c-0.3,0.4-0.7,0.6-1.2,0.6
			c-0.5,0-0.9-0.1-1.3-0.4c-0.4-0.3-0.6-0.7-0.6-1.2c0-0.5,0.1-0.9,0.4-1.3l2-2.4l-3.2-0.3c-0.5-0.1-0.9-0.3-1.2-0.6
			c-0.3-0.4-0.4-0.8-0.4-1.2c0.1-0.5,0.3-0.9,0.6-1.2c0.4-0.3,0.8-0.4,1.3-0.4l6.4,0.7C1170.6,281.9,1170.8,282,1171,282.2z"/>
	</g>
</g>
<path class="st0" d="M1130.7,299.1c0,0,1.4,6.7,5.6,4.1c4.3-2.6-0.2-13.8-6.8-11.4c-8.4,3.2-4.2,10.7-4.2,10.7"/>
<path class="st0" d="M1130.7,313.4c0,0,2.9,5.3,10.4,1.7"/>
<path class="st1" d="M1019.7,249.8c0,0,15.1,3.4,23.5-5.6c0,0,4.5,19.4-8.3,20.1C1022,265,1019.7,249.8,1019.7,249.8z"/>
<path class="st1" d="M1027.8,262.7c1.2-2.4,3.5-5.5,7.3-6.7c3.4-1,6.3-0.5,8.3,0.3"/>
<path class="st2" d="M937.2,294.1c0,0-2.6-1.3,0-6.2s3.5-9.7-0.6-10.2c-2.1-0.2-4.1,8.2-4.1,8.2s-4.9,3.9-4.9,8.2"/>
<path class="st2" d="M932.5,286c0,0-11.6-14.6-14.1-11.9c-2.5,2.7,7.1,12.5,7.1,12.5s-12.7-8.6-14.2-5.8c-2.2,4.3,10.6,10,10.6,10
	s-13.3-3.4-14,0c-0.7,3.4,12.3,3.5,12.3,3.5s-9.1,1.7-8,4.3c1,2.5,8.8-0.6,12.8,0c4,0.6,5.5,1.9,5.5,1.9"/>
<path id="XMLID_1_" class="st0" d="M100.4,288.9c-9-4.1-14.2-6.4-20.3-22.6c-4,0.8-7.6-1.8-8.6-3.3c-5.3-7.4-2.4-15.5,4-17.9
	c4.6-1.7,9.9,3.1,9.9,3.1L82,230.6c0,0,24-10.9,34.3-24.8c0,0,12.8,5.6,21.1,2.7c3.3,3.4,5.2,8.5,6,11.6c3.2,11.8,5.4,31,2.1,44.8
	c-2.3,9.5-7.4,16.4-13.5,20.8"/>
<path d="M101.8,234.2c1.3-0.4,2.9,0.8,3.5,2.8c0.6,2,0,3.9-1.3,4.3c-1.3,0.4-2.9-0.8-3.5-2.8C99.9,236.6,100.5,234.7,101.8,234.2z
	 M127.9,230.6c0.6,2,2.2,3.2,3.5,2.8c1.3-0.4,1.9-2.3,1.3-4.3c-0.6-2-2.2-3.2-3.5-2.8C127.8,226.7,127.2,228.7,127.9,230.6z"/>
<g>
	<g>
		<g>
			<g>
				<g>
					<path d="M80.2,265.9c2.3-0.8,4-2.7,5.1-4.7c0.1-0.2,1.7,0.9,1.5,1c-0.8,1-1.8,2-2.9,2.8c-1.1,0.8-2.3,1.3-3.7,1.5
						C80.1,266.6,80,266,80.2,265.9z"/>
				</g>
			</g>
		</g>
		<g>
			<g>
				<g>
					<path d="M82.4,259.8c-0.3-1-0.6-1.9-1-2.9c-0.4-0.9-0.8-1.9-1.3-2.6c-0.1-0.2-0.2-0.3-0.3-0.3c-0.1,0-0.1,0-0.2-0.1l-0.3,0
						c-0.4,0-0.9,0-1.4,0.1c-0.9,0.1-1.9,0.4-2.9,0.6c-0.3,0.1-0.8-1.9-0.5-1.9c1.1-0.2,2.1-0.3,3.2-0.4c0.6,0,1.1,0,1.7,0.1
						l0.5,0.1c0.2,0.1,0.3,0.1,0.5,0.2c0.4,0.2,0.6,0.6,0.7,0.8c0.6,1,0.8,2,1.1,3.1c0.3,1,0.5,2,0.7,3
						C83.1,260.1,82.5,260.3,82.4,259.8z"/>
				</g>
			</g>
		</g>
	</g>
</g>
<path class="st0" d="M145.6,230.1c0,0,6-1.4,7.2,7.3c1.1,8.3-5.3,11.1-5.3,11.1"/>
<g>
	<g>
		<g>
			<path d="M110.2,260.7c0.7-1.5,2-2.6,3.5-3.3c1.5-0.7,3.1-0.9,4.7-1c0.3,0,0.2,1.9-0.1,1.9c-1.4-0.2-2.9-0.1-4.3,0.3
				c-1.4,0.4-2.6,1.2-3.4,2.4C110.6,261.2,110.1,261.1,110.2,260.7z"/>
		</g>
	</g>
</g>
<g>
	<g>
		<g>
			<path d="M121.8,220.2c0.3-1.6,1-3.1,2.1-4.3c1.1-1.3,2.8-2.1,4.5-2.4c0.3-0.1,0.4,2.8,0.3,2.8c-1.2,0-2.5,0.3-3.5,1
				c-1.1,0.7-1.9,1.9-2.5,3.2C122.6,220.7,121.8,220.6,121.8,220.2z"/>
		</g>
	</g>
</g>
<g>
	<g>
		<g>
			<path d="M97,237.2c2.6-1.8,5-4,6.8-6.5c0.1-0.2,2.3,1.7,2.1,1.9c-2.5,2.3-5.4,4.2-8.5,5.5C97,238.1,96.7,237.4,97,237.2z"/>
		</g>
	</g>
</g>
<g>
	<g>
		<g>
			<path d="M113.9,231.2l5.2,10.5l0.2-0.1l0.1,0l0.3-0.1c0.4-0.1,0.7-0.3,1.1-0.4c0.7-0.3,1.5-0.5,2.3-0.6c0.8-0.2,1.6-0.3,2.5-0.3
				c0.8,0,1.9,0.2,2.6,1.1c0.4,0.4,0.6,0.9,0.6,1.4c0,0.2,0,0.5,0.1,0.7c0,0.3-0.1,0.5-0.1,0.8c-0.3,1-1,1.7-1.7,2.2
				c-1.4,1-3,1.5-4.5,1.9c-0.9,0.2-1.2-1.7-0.4-1.8c1.4-0.3,2.9-0.7,4-1.5c0.6-0.4,1-0.8,1.2-1.3c0.2-0.5,0.1-1.1-0.2-1.5
				c-0.3-0.4-0.9-0.6-1.5-0.6c-0.7-0.1-1.4,0-2.1,0.1c-0.7,0.1-1.5,0.3-2.2,0.5c-0.4,0.1-0.7,0.2-1.1,0.3l-0.3,0.1l-0.4,0.2
				l-0.9,0.4l-5.2-11.7C112.9,230.5,113.4,230.2,113.9,231.2z"/>
		</g>
	</g>
</g>
<path class="st0" d="M129.5,288.9c4.5-3.5,1.9-6,0.7-6.3c-1.8-0.4-13.1,8.3-19.9,7.4c-6.8-0.9-7.9-2.9-9.4-0.8
	c-2.4,3.3,5.6,5.7,5.6,5.7s0.5,4.8-1.1,7.6"/>
<path class="st1" d="M116.1,294.8c7-2.2,10.8-4.8,13.1-6.6"/>
<path class="st1" d="M129.2,293.5c-2.6,2.3-7.5,4.8-10.5,4.8"/>
<path class="st0" d="M129.5,288.9c0,0,2.6,2.8,0,5.1"/>
<path class="st0" d="M129.5,294c0,0,2.7,1.8,0,4.3c-2.7,2.5-9,2-12.1,4.2c-3.1,2.2-4.8,4.7-4.8,4.7"/>
<path class="st0" d="M105.4,302.4l8.2,5.6c0,0-18.9,55.8-43.3,54.4c-20.9-1.2,18.8-62.9,35.8-61.8"/>
<line class="st1" x1="73.4" y1="349.3" x2="104.8" y2="302.1"/>
<path class="st1" d="M95.9,315.5c0,0,0.3-9.6,1.6-11.8"/>
<path class="st1" d="M127.4,300v5.7c0,0-4.8,3.2-13.8,1.4"/>
<path class="st0" d="M128.5,299v1.7c0,0,5.9,2.7,11.9,4.5l13.4,133.6c0,0-31.2,8.4-60.7,3.1l2.4-96.9"/>
<path class="st0" d="M69.6,250.7c0,0-17.3-14.2-11.1-27.8s56.7-62.1,65.5-54.1c6.8,6.2-9.5,16.6-9.5,16.6s30-12.8,31.1-6.2
	c1.2,6.5-10.4,14-10.4,14s15.7-4.8,16,0.9c0.3,5.6-7.4,11.7-7.4,11.7s10.2-2.2,9.1,3.7c-1.1,5.9-9.5,10.6-9.5,10.6"/>
<path class="st0" d="M140.3,305.2c0,0,26.9,26.9,37,105.9h-13.7c0,0-7.5-46.8-20.1-73.3"/>
<path class="st0" d="M97.7,442.6l4.4,161.9c0,0-43.4,15.1-38.9,20.8s48.7-11,48.7-11l5.9-156.8"/>
<path class="st0" d="M147.9,440.1l-4.5,164.4c0,0,43.4,15.1,38.9,20.8s-48.7-11-48.7-11l-5.9-156.8"/>
<g>
	<g>
		<g>
			<path d="M136.3,452.1c-3.2,2.8-7.2,4.8-11.4,5.8c-4.2,1-8.8,0.7-13-0.5c-0.7-0.2,0.3-2.9,0.8-2.6c3.7,1.3,7.8,1.9,11.8,1.3
				c4-0.6,7.9-2.2,11.1-4.6C136.4,450.8,137,451.4,136.3,452.1z"/>
		</g>
	</g>
</g>
<path class="st2" d="M165.6,411.1c0,0-10.1,9.7-7.6,11.4s8.6-5.7,8.6-5.7s-8.7,18.5-4.5,20.1c4.2,1.6,7-14.1,7-14.1
	s-3.1,15.9,1.2,15.1c4.3-0.7,2.7-13.4,2.7-13.4s0.4,12.4,4.3,11.6c3.9-0.7,0-12.6,0-12.6s3.2,6.4,5.2,4c2-2.4-2.6-12.3-7.5-16.5"/>
<polygon class="st2" points="288.7,47.4 135.7,89.1 159.6,176.6 174.5,172.5 169,195.6 195.8,166.7 312.6,134.9 "/>
<rect x="186.1" y="95.2" transform="matrix(0.9647 -0.2633 0.2633 0.9647 -21.551 62.9502)" class="st2" width="76" height="33.4"/>
<g>
	<path d="M208.4,114.9l5.7-5.4c0.4-0.4,0.9-0.6,1.5-0.6c0.6,0,1.1,0.2,1.5,0.7c0.4,0.4,0.6,0.9,0.6,1.5c0,0.6-0.3,1.1-0.7,1.5
		l-2.8,2.7l3.8,0.8c0.6,0.1,1,0.4,1.3,0.9c0.3,0.5,0.4,1,0.3,1.6c-0.1,0.6-0.4,1-0.9,1.3c-0.5,0.3-1,0.4-1.6,0.3l-7.7-1.7
		c-0.4-0.1-0.7-0.3-0.9-0.6s-0.4-0.6-0.5-1c-0.1-0.4-0.1-0.7,0-1.1C208,115.4,208.2,115.2,208.4,114.9z"/>
	<path d="M224.2,101.4c0.6,0,1.1,0.2,1.5,0.7c0.4,0.4,0.6,1,0.6,1.5l-0.7,16.9c0,0.6-0.2,1.1-0.7,1.5c-0.4,0.4-1,0.6-1.5,0.6
		c-0.6,0-1.1-0.2-1.5-0.7c-0.4-0.4-0.6-1-0.6-1.6l0.7-16.9c0-0.6,0.2-1.1,0.7-1.5C223.1,101.5,223.7,101.3,224.2,101.4z"/>
	<path d="M240,107.1c0.3,0.3,0.4,0.6,0.5,1c0.1,0.4,0.1,0.7,0.1,1.1c-0.1,0.4-0.2,0.7-0.5,1l-5.8,5.4c-0.4,0.4-0.9,0.6-1.5,0.6
		c-0.6,0-1.1-0.2-1.5-0.7c-0.4-0.4-0.6-0.9-0.6-1.5c0-0.6,0.3-1.1,0.7-1.5l2.9-2.7l-3.8-0.9c-0.6-0.1-1-0.4-1.3-0.9
		c-0.3-0.5-0.4-1-0.3-1.6c0.1-0.6,0.4-1,0.9-1.3c0.5-0.3,1-0.4,1.6-0.3l7.7,1.7C239.5,106.6,239.8,106.8,240,107.1z"/>
</g>
<path class="st1" d="M101.6,582.7c0,0,3.1,2.6,11.6,0"/>
<path class="st1" d="M132.5,582.7c0,0,3.1,2.6,11.6,0"/>
<path class="st0" d="M1044.6,582.9c3.1,0.2,6.3,0.3,9.5,0.5c51.3,3.2,95.2-1,130-6.1"/>
<path class="st0" d="M1020.1,582.2c4.4,0,8.8,0.1,13.3,0.3"/>
<path class="st0" d="M143.7,591.3c6.7,0,12.5-0.3,17.1-0.7c32.1-3.1,212.7-20.5,295.6-9.8s240.1,26.7,339.9,19.6
	c82.8-5.9,142-17.7,212.6-18.2"/>
<path class="st0" d="M112.9,590.6c7,0.3,13.7,0.5,19.8,0.6"/>
<path class="st0" d="M3.8,584.5c32.6,1.8,68,4.2,98,5.6"/>
</svg>
