<?xml version="1.0" encoding="utf-8"?>
<!-- Generator: Adobe Illustrator 24.0.2, SVG Export Plug-In . SVG Version: 6.00 Build 0)  -->
<svg version="1.1" id="Layer_1" xmlns="http://www.w3.org/2000/svg" xmlns:xlink="http://www.w3.org/1999/xlink" x="0px" y="0px"
	 viewBox="0 0 1259.2 767.1" style="enable-background:new 0 0 1259.2 767.1;" xml:space="preserve">
<style type="text/css">
	.st0{fill:none;stroke:#000000;stroke-width:1.8704;stroke-linecap:round;stroke-linejoin:round;stroke-miterlimit:10;}
	.st1{fill:none;stroke:#000000;stroke-width:0.8378;stroke-linecap:round;stroke-linejoin:round;stroke-miterlimit:10;}
	.st2{fill:none;stroke:#000000;stroke-width:2.0945;stroke-linecap:round;stroke-linejoin:round;stroke-miterlimit:10;}
</style>
<path id="XMLID_8_" class="st0" d="M78.3,502.1c0,0-4.2-3.8-7.9-2.5c-5.1,1.9-7.4,8.4-3.2,14.3c0.8,1.2,3.7,3.3,6.9,2.6
	c1.2,7.2,5.2,13.8,11.9,17.1c8.6,4.2,20.3,4.3,28.2,0.2c5.3-2.8,10.4-10.8,12.2-18.4c2.6-11,0.9-26.4-1.7-35.8
	c-0.7-2.5-4.1-12.7-6.7-15.4c0,0-9,8.4-26.4,7.3c0,0-2.8,9-15,10.9C76.6,482.4,83.1,494.2,78.3,502.1z"/>
<path d="M96.4,493.3c1.1-0.1,2.1,1.2,2.2,2.8c0.1,1.6-0.7,3-1.8,3.1c-1.1,0.1-2.1-1.2-2.2-2.8C94.5,494.7,95.3,493.3,96.4,493.3z
	 M117.3,495.3c0.1,1.6,1.1,2.9,2.2,2.8c1.1-0.1,1.9-1.5,1.8-3.1s-1.1-2.9-2.2-2.8C118,492.2,117.2,493.6,117.3,495.3z"/>
<g>
	<g>
		<g>
			<g>
				<g>
					<path d="M74.2,515.6c1.9-0.6,3.2-2.1,4.1-3.8c0.1-0.1,1.4,0.7,1.2,0.8c-1.3,1.7-3.1,3.1-5.2,3.4
						C74.1,516.2,74,515.7,74.2,515.6z"/>
				</g>
			</g>
		</g>
		<g>
			<g>
				<g>
					<path d="M76,511.4c-0.2-0.8-0.5-1.6-0.8-2.3c-0.3-0.7-0.6-1.5-1-2.1c-0.1-0.2-0.2-0.2-0.3-0.3c-0.1,0-0.3-0.1-0.4-0.1
						c-0.3,0-0.7,0-1.1,0c-0.8,0.1-1.6,0.3-2.3,0.5c-0.2,0.1-0.6-1.2-0.3-1.3c0.8-0.2,1.7-0.3,2.5-0.3c0.4,0,0.9,0,1.3,0.1
						c0.2,0.1,0.5,0.1,0.7,0.3c0.3,0.2,0.5,0.4,0.6,0.6c0.4,0.8,0.7,1.6,0.9,2.4c0.2,0.8,0.4,1.6,0.6,2.4
						C76.5,511.7,76.1,511.8,76,511.4z"/>
				</g>
			</g>
		</g>
	</g>
</g>
<path class="st0" d="M126.5,487.7c0,0,4.8-1.1,5.7,5.8c0.9,6.6-4.2,8.9-4.2,8.9"/>
<g>
	<g>
		<g>
			<path d="M91.4,488.6c0.3-1.2,0.8-2.5,1.5-3.6c0.7-1.1,1.7-2.2,3.1-2.6c0.2-0.1,0.5,1.3,0.3,1.3c-1,0.2-2,0.9-2.8,1.9
				c-0.7,0.9-1.3,2-1.8,3.2C91.8,489,91.4,488.9,91.4,488.6z"/>
		</g>
	</g>
</g>
<g>
	<g>
		<g>
			<path d="M119.1,481.7c-1.3-1.8-3.5-2.7-5.5-2.6c-0.2,0-0.1-1.4,0.1-1.3c2.4,0.2,4.7,1.6,5.8,3.7
				C119.6,481.7,119.2,481.9,119.1,481.7z"/>
		</g>
	</g>
</g>
<g>
	<g>
		<g>
			<path d="M109.4,489.6c1,4.6,2,9.1,2.7,13.8c0.1,0.6,0.2,1.2,0.2,1.8c0,0.6,0.1,1.2,0,1.9c0,0.3-0.2,0.8-0.6,1
				c-0.3,0.3-0.7,0.4-1,0.5c-0.7,0.2-1.3,0.2-1.9,0.2c-1.2,0-2.4-0.2-3.6-0.5c-1.2-0.3-2.3-0.7-3.4-1.3c-0.8-0.5,0.2-1.5,0.7-1.1
				c0.9,0.5,2,0.9,3.1,1.3c1.1,0.3,2.2,0.5,3.3,0.6c0.5,0,1.1,0,1.6-0.1c0.2-0.1,0.5-0.1,0.6-0.3c0.1-0.1,0.2-0.2,0.2-0.5
				c0.1-0.4,0.1-1.1,0-1.6c0-0.6-0.1-1.1-0.1-1.7c-0.5-4.6-1.4-9.2-2.2-13.8C108.8,488.7,109.1,488.6,109.4,489.6z"/>
		</g>
	</g>
</g>
<path class="st1" d="M90.9,504.5c0,0,6.3,9.6,19,9.2c0,0-3.2,9.6-14,6.9C87,518.3,90.9,504.5,90.9,504.5z"/>
<path class="st1" d="M90.2,513.6c0,0,3.7-1.2,6.7,1.5c3,2.7,3.1,6,3.1,6"/>
<path class="st0" d="M78.7,527.5c0,0-5.9,0.3-6.6-5.8c0,0-4.1-1.4-2.8-6.1"/>
<path class="st0" d="M66.7,502.4c0,0-6.2-3.9-6-15.8c0.2-11.4,10-14.1,10-14.1s-0.9-22.7,26.7-24.1c27.2-1.4,33.8,18.6,31.3,39.5"/>
<path class="st0" d="M95.1,536.5c0,0-0.9,9.4-1.1,12.6c0,0,0.9,5.5,7.5,4.5c6.6-1,5.2-3.1,5.2-3.1s-0.3-7.4,0.3-14.1"/>
<path class="st0" d="M178.9,589.5c-16.2,9.5-32.7,14.9-54.2,10.3c-35.5-7.6-50.6-40.3-42.7-45c8.1-4.7,15,10,29.3,21.8
	c18.5,15.4,41.5,11.2,65.1-2.7L178.9,589.5z"/>
<path class="st0" d="M176.9,577.4c0,0,10.4-11.2,18.4-12c8-0.9,12.1,2,10,6s-10.7,3.3-15.4,6.9c-4.7,3.6-3.1,7.4-11.5,8.1"/>
<polyline class="st0" points="185,584.4 372.8,584.4 372.8,592.2 174.5,592.2 "/>
<path class="st0" d="M347.4,751.4V592.2h7.8v159.2H347.4z M178.8,675.9v75.5h7.8V592.2h-7.8V656"/>
<line class="st0" x1="10.5" y1="751.4" x2="411.6" y2="751.4"/>
<rect x="169.5" y="442.2" class="st0" width="194.9" height="117.2"/>
<rect x="178.8" y="451.9" class="st1" width="176.3" height="98"/>
<g>
	<g>
		<path d="M234.7,499.7l6.6-3.5c0.5-0.3,1-0.3,1.5-0.2c0.5,0.2,0.9,0.5,1.2,1c0.3,0.5,0.3,1,0.1,1.5c-0.2,0.5-0.5,0.9-1,1.2
			l-3.3,1.7l3.3,1.7c0.5,0.3,0.8,0.7,1,1.2c0.2,0.5,0.1,1-0.1,1.5c-0.3,0.5-0.7,0.8-1.2,1c-0.5,0.2-1,0.1-1.5-0.2l-6.6-3.5
			c-0.3-0.2-0.6-0.4-0.7-0.7c-0.2-0.3-0.2-0.7-0.2-1c0-0.4,0.1-0.7,0.3-1C234.2,500.1,234.4,499.9,234.7,499.7z"/>
		<path d="M258.6,500.4c0.2,0.3,0.2,0.7,0.3,1c0,0.4-0.1,0.7-0.2,1c-0.2,0.3-0.4,0.6-0.7,0.7l-6.6,3.5c-0.5,0.3-1,0.3-1.5,0.2
			c-0.5-0.2-0.9-0.5-1.2-1c-0.3-0.5-0.3-1-0.1-1.5c0.2-0.5,0.5-0.9,1-1.2l3.3-1.7l-3.3-1.7c-0.5-0.3-0.8-0.7-1-1.2
			c-0.2-0.5-0.1-1,0.1-1.5c0.3-0.5,0.7-0.8,1.2-1c0.5-0.2,1-0.1,1.5,0.2l6.6,3.5C258.3,499.9,258.5,500.1,258.6,500.4z"/>
		<path d="M267.4,499.7l6.6-3.5c0.5-0.3,1-0.3,1.5-0.2c0.5,0.2,0.9,0.5,1.2,1c0.3,0.5,0.3,1,0.1,1.5c-0.2,0.5-0.5,0.9-1,1.2
			l-3.3,1.7l3.3,1.7c0.5,0.3,0.8,0.7,1,1.2c0.2,0.5,0.1,1-0.1,1.5c-0.3,0.5-0.7,0.8-1.2,1c-0.5,0.2-1,0.1-1.5-0.2l-6.6-3.5
			c-0.3-0.2-0.6-0.4-0.7-0.7c-0.2-0.3-0.2-0.7-0.2-1c0-0.4,0.1-0.7,0.3-1C266.9,500.1,267.1,499.9,267.4,499.7z"/>
		<path d="M287,491.3c0.5,0.2,0.9,0.5,1.2,1c0.3,0.5,0.3,1,0.2,1.5l-4.8,15.2c-0.2,0.5-0.5,0.9-1,1.2c-0.5,0.3-1,0.3-1.5,0.2
			c-0.5-0.2-0.9-0.5-1.2-1c-0.3-0.5-0.3-1-0.2-1.6l4.8-15.2c0.2-0.5,0.5-0.9,1-1.2C286,491.2,286.5,491.1,287,491.3z"/>
		<path d="M299.9,500.4c0.2,0.3,0.2,0.7,0.3,1c0,0.4-0.1,0.7-0.2,1c-0.2,0.3-0.4,0.6-0.7,0.7l-6.6,3.5c-0.5,0.3-1,0.3-1.5,0.2
			c-0.5-0.2-0.9-0.5-1.2-1c-0.3-0.5-0.3-1-0.1-1.5c0.2-0.5,0.5-0.9,1-1.2l3.3-1.7l-3.3-1.7c-0.5-0.3-0.8-0.7-1-1.2
			c-0.2-0.5-0.1-1,0.1-1.5c0.3-0.5,0.7-0.8,1.2-1c0.5-0.2,1-0.1,1.5,0.2l6.6,3.5C299.6,499.9,299.8,500.1,299.9,500.4z"/>
	</g>
</g>
<rect x="258.9" y="559.4" class="st0" width="16.2" height="18.3"/>
<rect x="233.1" y="577.8" class="st0" width="67.8" height="6.6"/>
<path class="st0" d="M203.6,573.1c0,0,11.3,0.8,11.9,11.3"/>
<polyline class="st1" points="200.8,574.3 200.8,579.6 214.3,579.6 "/>
<path class="st0" d="M355.2,615.8c52.3,14.4,57,0.3,140,34.8c64.7,26.9,62.8,79.1,151.8,107.6c11.9,3.8,22.4,6.7,31.9,8.9"/>
<path class="st0" d="M287.9,592.2c7.9,2.9,16.3,6,25,9.3c13.4,5.2,24.7,9.1,34.4,12"/>
<path class="st0" d="M169.5,559.4c0,0,25.7,3,75.3,18.3"/>
<path class="st0" d="M118.4,598.2c0.9,24.3,1.7,49.2,1.7,49.2s-23,6-44.3-12.2c0,0,2.5-16.9,2.2-39.1c-0.3-22.2-3.1-50.8,16.2-50.2"
	/>
<path class="st0" d="M106.7,547.6c0,0,8.5,2.8,9.5,4.7c0.3,0.7,1,13.2,1.6,28.9"/>
<path class="st0" d="M128,600.5c2.9,22.5,6,46.6,6,46.6"/>
<path class="st0" d="M116.1,552.4c0,0,5.9,0.8,8.2,19.8c0.4,3.3,1,7.6,1.6,12.6"/>
<path class="st0" d="M75.8,635.2c0,0-3.2,8.1,0,16.5c4.3,11.6,19.3,16.5,31.2,16.5s50.3,0,50.3,0"/>
<path class="st0" d="M161.3,664l-37.8,61.9c0,0-9.2,4.7-7.3,9s17.1,16.5,17.1,16.5"/>
<path class="st0" d="M120.1,647.4c0,0,39.9-1.9,52.6,4.4c12.7,6.3,13.3,17.5,0.8,31c-12.5,13.5-42.9,50.5-42.9,50.5"/>
<path class="st0" d="M130.6,733.1c4.9,4.7,10.9,10,14,10.7c5.7,1.3,17.9-1.1,19,7.6"/>
<path class="st1" d="M123.4,725.9c0,0,1.3,3.3,6.8,7.5"/>
<rect x="63.9" y="668.3" class="st0" width="78.2" height="10.4"/>
<path class="st0" d="M43.9,562.3c-11.4,0.9-6,28.6-1.7,49.2c5.2,25.2,7.8,38.9,18.8,37.8c11.7-1.1,7.5-14,2.8-37.5
	C59.3,588.8,56.1,561.4,43.9,562.3z"/>
<g>
	<line class="st0" x1="66.6" y1="668.3" x2="60.1" y2="649.5"/>
	<line class="st0" x1="65.7" y1="647.8" x2="72.8" y2="668.3"/>
</g>
<g>
	<g>
		<line class="st0" x1="63.9" y1="751.4" x2="83" y2="678.8"/>
		<line class="st0" x1="73.4" y1="751.4" x2="92.5" y2="678.8"/>
	</g>
	<g>
		<line class="st0" x1="129.2" y1="716.4" x2="119.3" y2="678.8"/>
		<line class="st0" x1="134.6" y1="736.8" x2="132.9" y2="730.3"/>
		<line class="st0" x1="122.3" y1="726.5" x2="109.8" y2="678.8"/>
		<line class="st0" x1="128.9" y1="751.4" x2="127.7" y2="746.8"/>
	</g>
</g>
<path class="st0" d="M178.8,682.8c-0.7-1.4-1.4-2.8-2-4"/>
<path class="st0" d="M211,736.8c0,0-13.8-21.5-24.5-39.9"/>
<line class="st1" x1="200" y1="736.8" x2="211" y2="736.8"/>
<path class="st0" d="M186.6,720.1c6.6,7.9,11.7,14.2,13.4,16.8"/>
<path class="st0" d="M163.9,693.4c4.9,5.6,10,11.6,14.9,17.4"/>
<path class="st0" d="M142.1,668.3c0,0,3.9,4.5,9.7,11.1"/>
<line class="st0" x1="200" y1="736.8" x2="200" y2="751.4"/>
<path class="st0" d="M211,736.8c0,0,3.4,4,12.1,5.4c9.4,1.5,21.6,0.8,21.8,9.1"/>
<g>
	
		<rect x="1053.2" y="329.8" transform="matrix(0.9632 -0.2689 0.2689 0.9632 -57.5333 310.4762)" class="st0" width="102.6" height="70.8"/>
	<g>
		<g>
			<g>
				<path class="st1" d="M1109.9,363.7c-3.3-11.8-15.6-18.8-27.4-15.5l6,21.4l15.3,16.2C1109.5,380.5,1112.2,372,1109.9,363.7z"/>
				<path class="st1" d="M1088.4,369.7l-19.1,11.5c5,8.4,15.2,12.7,25.1,10c3.6-1,6.7-2.8,9.3-5.2L1088.4,369.7z"/>
				<path class="st1" d="M1088.4,369.7l-6-21.4c-11.8,3.3-18.8,15.6-15.5,27.4c0.5,2,1.4,3.8,2.4,5.5L1088.4,369.7L1088.4,369.7z"/>
			</g>
			<g>
				
					<rect x="1120.5" y="344.6" transform="matrix(0.9632 -0.2689 0.2689 0.9632 -52.1236 316.7742)" class="st1" width="19.5" height="8.1"/>
				
					<rect x="1125.3" y="362.1" transform="matrix(0.9632 -0.2689 0.2689 0.9632 -56.6455 318.731)" class="st1" width="19.5" height="8.1"/>
			</g>
		</g>
	</g>
</g>
<circle class="st2" cx="441" cy="434.5" r="4.4"/>
<circle class="st2" cx="853.2" cy="165.7" r="4.4"/>
<circle class="st2" cx="1021.2" cy="736.7" r="4.4"/>
<circle class="st2" cx="1037.2" cy="507.2" r="4.4"/>
<g>
	<line class="st2" x1="329.7" y1="333.3" x2="335.7" y2="340.9"/>
	<line class="st2" x1="336.5" y1="334.1" x2="328.9" y2="340.1"/>
</g>
<g>
	<line class="st2" x1="867.8" y1="749.5" x2="876.6" y2="753.3"/>
	<line class="st2" x1="874.1" y1="747" x2="870.3" y2="755.9"/>
</g>
<g>
	<line class="st2" x1="1037.2" y1="618.3" x2="1046.1" y2="622.2"/>
	<line class="st2" x1="1043.5" y1="615.8" x2="1039.7" y2="624.7"/>
</g>
<g>
	<line class="st2" x1="541.1" y1="611.3" x2="537.8" y2="620.3"/>
	<line class="st2" x1="544" y1="617.5" x2="535" y2="614.1"/>
</g>
<g>
	<line class="st2" x1="612" y1="37.4" x2="621.6" y2="38.6"/>
	<line class="st2" x1="617.4" y1="33.2" x2="616.2" y2="42.8"/>
</g>
<g>
	<line class="st2" x1="1046.2" y1="195.6" x2="1055.8" y2="196.8"/>
	<line class="st2" x1="1051.6" y1="191.4" x2="1050.4" y2="201"/>
</g>
<g>
	<line class="st2" x1="907.3" y1="344" x2="914.1" y2="337.1"/>
	<line class="st2" x1="907.2" y1="337.1" x2="914.1" y2="343.9"/>
</g>
<rect x="639.7" y="687.7" transform="matrix(0.9025 0.4307 -0.4307 0.9025 361.2864 -210.1592)" class="st2" width="10.1" height="10.1"/>
<rect x="902.2" y="642.2" transform="matrix(0.9139 -0.406 0.406 0.9139 -184.6387 424.0898)" class="st2" width="10.1" height="10.1"/>
<rect x="312.6" y="239.2" transform="matrix(0.9794 0.202 -0.202 0.9794 55.895 -59.1276)" class="st2" width="10.1" height="10.1"/>
<rect x="1005.1" y="269.4" transform="matrix(0.5 -0.866 0.866 0.5 267.3663 1012.1058)" class="st2" width="10.1" height="10.1"/>
<g>
	
		<rect x="719" y="626.5" transform="matrix(0.9571 0.2897 -0.2897 0.9571 223.5123 -194.2188)" class="st0" width="97.4" height="62.5"/>
	<line class="st1" x1="728.4" y1="619.4" x2="821.6" y2="647.6"/>
	
		<rect x="763.3" y="639.6" transform="matrix(0.9571 0.2897 -0.2897 0.9571 219.1063 -196.2981)" class="st1" width="18.5" height="4.5"/>
	<line class="st1" x1="722.5" y1="639" x2="815.7" y2="667.2"/>
	<path class="st1" d="M741.6,670.5l-20.8-6.3l3.2-10.7l20.8,6.3L741.6,670.5z M807.6,674.3l-55.7-16.9l-1.3,4.2l55.7,16.9
		L807.6,674.3z M804.1,685.9L748.4,669l1.3-4.2l55.7,16.9L804.1,685.9z M801.9,693.3l-55.7-16.9l1.3-4.2l55.7,16.9L801.9,693.3z"/>
</g>
<g>
	
		<rect x="896.4" y="517.4" transform="matrix(0.9756 0.2197 -0.2197 0.9756 143.8533 -193.7042)" class="st0" width="92.6" height="64.8"/>
	<line class="st1" x1="902.7" y1="516.8" x2="993" y2="537.1"/>
	<line class="st1" x1="935.6" y1="581.4" x2="947.9" y2="526.9"/>
	<path class="st1" d="M975.2,569.8l-25.2-5.7l6.4-28.6l25.2,5.7L975.2,569.8z M973.5,577.3l-25.2-5.7l-1.3,5.7l25.2,5.7L973.5,577.3
		z"/>
	<path class="st1" d="M927.8,569.4l-25.2-5.7l1.3-5.7l25.2,5.7L927.8,569.4z M932.4,549.1l-25.2-5.7l-1.3,5.7l25.2,5.7L932.4,549.1z
		 M935.6,534.5l-25.2-5.7l-1.3,5.7l25.2,5.7L935.6,534.5z"/>
</g>
<g>
	
		<rect x="491.5" y="96.2" transform="matrix(0.9353 -0.3538 0.3538 0.9353 -10.7315 198.6117)" class="st0" width="92.6" height="64.8"/>
	
		<rect x="497.6" y="102.1" transform="matrix(0.9353 -0.3538 0.3538 0.9353 -10.7315 198.6117)" class="st1" width="80.5" height="53.1"/>
	<line class="st1" x1="502.7" y1="149.7" x2="578" y2="121.2"/>
	<polyline class="st1" points="510.4,146.8 516.4,126.8 533.1,138.2 	"/>
	<polyline class="st1" points="537,136.7 540,126.7 548.3,132.4 	"/>
	<circle class="st1" cx="559.3" cy="110.3" r="4.7"/>
</g>
<g>
	
		<rect x="979.3" y="77.9" transform="matrix(0.9708 -0.2401 0.2401 0.9708 3.5031 249.4405)" class="st0" width="92.6" height="64.8"/>
	<path class="st1" d="M1015,108.7l-26.7,6.6l-3.9-15.9l26.7-6.6L1015,108.7z M1017,116.8l-26.7,6.6l3.9,15.9l26.7-6.6L1017,116.8z
		 M1057,81.4l-38.7,9.6l9.9,39.9l38.7-9.6L1057,81.4z"/>
</g>
<g>
	
		<rect x="716.1" y="29.7" transform="matrix(0.964 0.2658 -0.2658 0.964 43.9343 -200.419)" class="st0" width="92.6" height="64.8"/>
	<path class="st1" d="M756.2,45.5l-25-6.9l2.5-8.9l25,6.9L756.2,45.5z M754.2,52.6l-25-6.9l-2.5,8.9l25,6.9L754.2,52.6z M803.7,49
		l-37-10.2l-6.9,25l37,10.2L803.7,49z M794.4,82.9l-70.1-19.3l-3.2,11.7l70.1,19.3L794.4,82.9z"/>
</g>
<path class="st0" d="M169.5,442.2c16.7-46.2,58.1-81.3,80.1-125.2c19.4-38.6,20.3-85.1,43.4-121.6c19.8-31.2,53.4-51.1,87.5-65.4
	c34.1-14.3,70.1-24.4,102.5-42.2c37.6-20.7,68.3-50.6,95-84.4"/>
</svg>
