<?xml version="1.0" encoding="utf-8"?>
<!-- Generator: Adobe Illustrator 24.0.2, SVG Export Plug-In . SVG Version: 6.00 Build 0)  -->
<svg version="1.1" id="Layer_1" xmlns="http://www.w3.org/2000/svg" xmlns:xlink="http://www.w3.org/1999/xlink" x="0px" y="0px"
	 viewBox="0 0 1022 766.5" style="enable-background:new 0 0 1022 766.5;" xml:space="preserve">
<style type="text/css">
	.st0{fill:#F2FBFF;}
	.st1{fill:#D3F0FE;}
	.st2{opacity:0.3;fill:#B9E0FE;}
	.st3{fill:#FAFAFA;}
	.st4{fill:#3D3245;}
	.st5{fill:#FFFFFF;}
	.st6{fill:#FAE47F;}
	.st7{clip-path:url(#XMLID_6_);fill:#FAE47F;}
	.st8{fill:#170F21;}
	.st9{fill:#DDD2C2;}
	.st10{fill:#E0CAB6;}
	.st11{opacity:0.4;clip-path:url(#SVGID_2_);fill:#A11D30;}
	.st12{clip-path:url(#SVGID_5_);}
	.st13{opacity:0.4;clip-path:url(#SVGID_6_);fill:#A11D30;}
	.st14{opacity:0.4;clip-path:url(#SVGID_8_);fill:#A11D30;}
	.st15{fill:#EF8E5D;}
	.st16{clip-path:url(#XMLID_7_);fill:#FFCEF5;}
</style>
<g>
	<g>
		<path class="st0" d="M710.9,557.6c-211.6,103.1-281.4,115.1-456.5-42.2c-117.9-105.9-101.6-254.2,40.9-323.5
			c211.6-103.1,267.2-45.7,476,62.8C915.9,329.8,853.3,488.2,710.9,557.6z"/>
	</g>
	<g>
		<path class="st1" d="M722.5,507.6c-176.4,118.8-248.3,119.8-424.7,1c-118.8-79.9-119-206.8-0.2-286.7
			c176.4-118.8,226.8-75.4,425.7-0.2C869.4,276.9,841.3,427.7,722.5,507.6z"/>
	</g>
	<polygon class="st2" points="844.7,330.3 325.1,330.3 325.1,361.1 441.8,361.1 427.8,402.8 510,361.1 844.7,361.1 	"/>
	<polygon class="st3" points="844.7,151.9 325.1,151.9 325.1,354.6 442.5,354.6 430.8,395.2 510,354.6 844.7,354.6 	"/>
	<g>
		<g>
			<path class="st4" d="M389.6,189.8h4.5c5.6,0,8,3.2,8,7.2c0,4-2.4,7.2-8,7.2h-4.5V189.8z M394,202.5c4.7,0,6-2.6,6-5.5
				c0-2.9-1.3-5.5-6-5.5h-2.6v11H394z"/>
			<path class="st4" d="M403.6,199c0-3,2.3-5.6,5.7-5.6c3.3,0,5.6,2.5,5.6,5.6c0,3-2.3,5.6-5.6,5.6C405.9,204.6,403.6,202,403.6,199
				z M413.1,199c0-2.3-1.5-4.1-3.8-4.1c-2.4,0-3.8,1.8-3.8,4.1c0,2.3,1.5,4.1,3.8,4.1S413.1,201.3,413.1,199z"/>
			<path class="st4" d="M416.6,199c0-3.2,2.3-5.5,5.4-5.5c1.4,0,2.4,0.2,3.6,1.1v1.7c-1-0.9-2.3-1.2-3.5-1.2c-2.2,0-3.7,1.7-3.7,4
				c0,2.3,1.5,4,3.7,4c1.2,0,2.5-0.3,3.5-1.2v1.7c-1.2,0.8-2.3,1.1-3.6,1.1C418.9,204.5,416.6,202.2,416.6,199z"/>
			<path class="st4" d="M427.3,203.4l0.4-1.4c0.7,0.4,2,1.1,3.5,1.1c1.3,0,2.3-0.5,2.3-1.6c0-0.9-0.9-1.4-2.6-1.8
				c-2.2-0.6-3.2-1.7-3.2-3.1c0-1.6,1.2-3,3.8-3c1.7,0,3.2,0.9,3.2,0.9l-0.4,1.4c-0.7-0.5-1.8-0.8-2.9-0.8c-1.4,0-2.1,0.5-2.1,1.4
				c0,0.9,0.9,1.4,2.2,1.8c2.4,0.6,3.6,1.7,3.6,3c0,2.2-1.7,3.4-4,3.4C428.9,204.5,427.3,203.4,427.3,203.4z"/>
			<path class="st4" d="M437.4,189.8h1.8v2h-1.8V189.8z M437.4,193.8h1.8v10.4h-1.8V193.8z"/>
			<path class="st4" d="M441.6,198.9c0-3.3,2.5-5.4,5-5.4c2.6,0,4.4,1.7,4.4,4c0,0.4-0.1,0.8-0.1,1.2h-7.5c-0.1,1.8,0.7,4.2,4,4.2
				c1.2,0,2.6-0.6,3.4-1.3v1.6c-1,0.8-2.5,1.2-4,1.2C443.8,204.5,441.6,202.1,441.6,198.9z M449.3,197.4c0.2-1.4-0.9-2.5-2.6-2.5
				c-1.5,0-2.8,0.8-3.1,2.5H449.3z"/>
			<path class="st4" d="M458.2,189.8h1.8v2h-1.8V189.8z M458.2,193.8h1.8v10.4h-1.8V193.8z"/>
			<path class="st4" d="M462.3,203.4l0.4-1.4c0.7,0.4,2,1.1,3.5,1.1c1.3,0,2.3-0.5,2.3-1.6c0-0.9-0.9-1.4-2.6-1.8
				c-2.2-0.6-3.2-1.7-3.2-3.1c0-1.6,1.2-3,3.8-3c1.7,0,3.2,0.9,3.2,0.9l-0.4,1.4c-0.7-0.5-1.8-0.8-2.9-0.8c-1.4,0-2.1,0.5-2.1,1.4
				c0,0.9,0.9,1.4,2.2,1.8c2.4,0.6,3.6,1.7,3.6,3c0,2.2-1.7,3.4-4,3.4C463.9,204.5,462.3,203.4,462.3,203.4z"/>
			<path class="st4" d="M475.6,193.8h1.9l3.4,7.8l3.3-7.8h1.8l-4.6,10.4h-1.2L475.6,193.8z"/>
			<path class="st4" d="M486.7,198.9c0-3.3,2.5-5.4,5-5.4c2.6,0,4.4,1.7,4.4,4c0,0.4-0.1,0.8-0.1,1.2h-7.5c-0.1,1.8,0.7,4.2,4,4.2
				c1.2,0,2.6-0.6,3.4-1.3v1.6c-1,0.8-2.5,1.2-4,1.2C488.9,204.5,486.7,202.1,486.7,198.9z M494.4,197.4c0.2-1.4-0.9-2.5-2.6-2.5
				c-1.5,0-2.8,0.8-3.1,2.5H494.4z"/>
			<path class="st4" d="M498.7,193.8h1.6l0.1,2c0.7-1.3,2.3-2.3,4-2.3v2c-2-0.4-3.9,0.8-3.9,2.5v6.2h-1.8V193.8z"/>
			<path class="st4" d="M509.7,203.6l-4.3-9.8h1.9l3.4,7.8l3.3-7.8h1.8l-6.6,15h-1.8L509.7,203.6z"/>
			<path class="st4" d="M521.9,189.8h1.8v2h-1.8V189.8z M521.9,193.8h1.8v10.4h-1.8V193.8z"/>
			<path class="st4" d="M526.7,193.8h1.6l0.1,2c0.8-1.2,2.3-2.3,4-2.3c2.8,0,3.7,1.9,3.7,4.5v6.2h-1.8v-6c0-2.3-0.9-3.1-2.4-3.1
				c-1.5,0-3.4,1.3-3.4,3v6.1h-1.8V193.8z"/>
			<path class="st4" d="M540.4,195H538v-1.2h2.3V191h1.8v2.8h2.4v1.2h-2.4v9.1h-1.8V195z"/>
			<path class="st4" d="M546.4,200v-6.2h1.8v6c0,2.3,0.9,3.1,2.4,3.1c1.5,0,3.4-1.3,3.4-3v-6.1h1.8v10.4h-1.6l-0.1-2
				c-0.8,1.2-2.3,2.3-4,2.3C547.4,204.5,546.4,202.5,546.4,200z"/>
			<path class="st4" d="M558.9,189.8h1.8v2h-1.8V189.8z M558.9,193.8h1.8v10.4h-1.8V193.8z"/>
			<path class="st4" d="M564.9,195h-2.3v-1.2h2.3V191h1.8v2.8h2.4v1.2h-2.4v9.1h-1.8V195z"/>
			<path class="st4" d="M571,189.8h1.8v2H571V189.8z M571,193.8h1.8v10.4H571V193.8z"/>
			<path class="st4" d="M574.4,193.8h1.9l3.4,7.8l3.3-7.8h1.8l-4.6,10.4h-1.2L574.4,193.8z"/>
			<path class="st4" d="M585.4,198.9c0-3.3,2.5-5.4,5-5.4c2.6,0,4.4,1.7,4.4,4c0,0.4-0.1,0.8-0.1,1.2h-7.5c-0.1,1.8,0.7,4.2,4,4.2
				c1.2,0,2.6-0.6,3.4-1.3v1.6c-1,0.8-2.5,1.2-4,1.2C587.6,204.5,585.4,202.1,585.4,198.9z M593.1,197.4c0.2-1.4-0.9-2.5-2.6-2.5
				c-1.5,0-2.8,0.8-3.1,2.5H593.1z"/>
			<path class="st4" d="M602.5,195h-2.1v-1.2h2.1v0c0-3,1.2-4.2,3.3-4.2c0.5,0,1,0.1,1.3,0.2v1.3c-0.4-0.1-0.8-0.1-1.1-0.1
				c-1.3,0-1.7,0.6-1.7,2.7v0.1h2.8v1.2h-2.8v9.1h-1.8V195z"/>
			<path class="st4" d="M607.8,199c0-3,2.3-5.6,5.7-5.6c3.3,0,5.6,2.5,5.6,5.6c0,3-2.3,5.6-5.6,5.6C610.1,204.6,607.8,202,607.8,199
				z M617.3,199c0-2.3-1.5-4.1-3.8-4.1c-2.4,0-3.8,1.8-3.8,4.1c0,2.3,1.5,4.1,3.8,4.1S617.3,201.3,617.3,199z"/>
			<path class="st4" d="M621.4,193.8h1.6l0.1,2c0.7-1.3,2.3-2.3,4-2.3v2c-2-0.4-3.9,0.8-3.9,2.5v6.2h-1.8V193.8z"/>
			<path class="st4" d="M634.8,195h-2.3v-1.2h2.3V191h1.8v2.8h2.4v1.2h-2.4v9.1h-1.8V195z"/>
			<path class="st4" d="M640.9,189.8h1.8v5.8c0.9-1.1,2.2-2.1,3.9-2.1c2.8,0,3.7,1.9,3.7,4.5v6.2h-1.8v-6c0-2.3-0.9-3.1-2.4-3.1
				c-1.5,0-3.4,1.3-3.4,3v6.1h-1.8V189.8z"/>
			<path class="st4" d="M652.8,198.9c0-3.3,2.5-5.4,5-5.4c2.6,0,4.4,1.7,4.4,4c0,0.4-0.1,0.8-0.1,1.2h-7.5c-0.1,1.8,0.7,4.2,4,4.2
				c1.2,0,2.6-0.6,3.4-1.3v1.6c-1,0.8-2.5,1.2-4,1.2C654.9,204.5,652.8,202.1,652.8,198.9z M660.4,197.4c0.2-1.4-0.9-2.5-2.6-2.5
				c-1.5,0-2.8,0.8-3.1,2.5H660.4z"/>
			<path class="st4" d="M668,193.8h1.8l3,7.8l3-7.8h1.1l3,7.8l2.9-7.8h1.7l-4.1,10.4h-1.2l-2.9-7.5l-3,7.5h-1.2L668,193.8z"/>
			<path class="st4" d="M686.1,189.8h1.8v5.8c0.9-1.1,2.2-2.1,3.9-2.1c2.8,0,3.7,1.9,3.7,4.5v6.2h-1.8v-6c0-2.3-0.9-3.1-2.4-3.1
				c-1.5,0-3.4,1.3-3.4,3v6.1h-1.8V189.8z"/>
			<path class="st4" d="M697.8,199c0-3,2.3-5.6,5.7-5.6c3.3,0,5.6,2.5,5.6,5.6c0,3-2.3,5.6-5.6,5.6C700.1,204.6,697.8,202,697.8,199
				z M707.3,199c0-2.3-1.5-4.1-3.8-4.1c-2.4,0-3.8,1.8-3.8,4.1c0,2.3,1.5,4.1,3.8,4.1S707.3,201.3,707.3,199z"/>
			<path class="st4" d="M711.4,189.8h1.8v14.4h-1.8V189.8z"/>
			<path class="st4" d="M715.6,198.9c0-3.3,2.5-5.4,5-5.4c2.6,0,4.4,1.7,4.4,4c0,0.4-0.1,0.8-0.1,1.2h-7.5c-0.1,1.8,0.7,4.2,4,4.2
				c1.2,0,2.6-0.6,3.4-1.3v1.6c-1,0.8-2.5,1.2-4,1.2C717.8,204.5,715.6,202.1,715.6,198.9z M723.3,197.4c0.2-1.4-0.9-2.5-2.6-2.5
				c-1.5,0-2.8,0.8-3.1,2.5H723.3z"/>
			<path class="st4" d="M733.4,195h-2.3v-1.2h2.3V191h1.8v2.8h2.4v1.2h-2.4v9.1h-1.8V195z"/>
			<path class="st4" d="M738.9,198.9c0-3.3,2.5-5.4,5-5.4c2.6,0,4.4,1.7,4.4,4c0,0.4-0.1,0.8-0.1,1.2h-7.5c-0.1,1.8,0.7,4.2,4,4.2
				c1.2,0,2.6-0.6,3.4-1.3v1.6c-1,0.8-2.5,1.2-4,1.2C741.1,204.5,738.9,202.1,738.9,198.9z M746.6,197.4c0.2-1.4-0.9-2.5-2.6-2.5
				c-1.5,0-2.8,0.8-3.1,2.5H746.6z"/>
			<path class="st4" d="M750.3,199c0-3,2.1-5.5,4.9-5.5c1.7,0,3.2,0.8,4.1,2.2l0.1-1.9h1.6v10.4h-1.6l-0.1-1.9
				c-0.9,1.3-2.4,2.2-4.1,2.2C752.4,204.5,750.3,202,750.3,199z M759.3,199c0-2.5-1.6-4-3.6-4s-3.6,1.5-3.6,4s1.6,4,3.6,4
				S759.3,201.5,759.3,199z"/>
			<path class="st4" d="M763.9,193.8h1.6l0.1,2c0.9-1.3,2.2-2.3,3.8-2.3c1.9,0,2.9,0.9,3.3,2.4c1.1-1.6,2.5-2.4,4-2.4
				c2.8,0,3.5,1.9,3.5,4.5v6.2h-1.8v-6c0-2.3-0.7-3.1-2.2-3.1c-1.5,0-3.2,1.3-3.2,3v6.1h-1.8v-6c0-2.3-0.7-3.1-2.2-3.1
				c-1.5,0-3.2,1.3-3.2,3v6.1h-1.8V193.8z"/>
			<path class="st4" d="M401.4,231h-2.3v-1.2h2.3V227h1.8v2.8h2.4v1.2h-2.4v9.1h-1.8V231z"/>
			<path class="st4" d="M406.7,235c0-3,2.3-5.6,5.7-5.6c3.3,0,5.6,2.5,5.6,5.6c0,3-2.3,5.6-5.6,5.6C409,240.6,406.7,238,406.7,235z
				 M416.2,235c0-2.3-1.5-4.1-3.8-4.1c-2.4,0-3.8,1.8-3.8,4.1c0,2.3,1.5,4.1,3.8,4.1S416.2,237.3,416.2,235z"/>
			<path class="st4" d="M425.2,243.9v-1.6c1.6,1,2.7,1.3,4.5,1.3c1.8,0,3.5-1.1,3.5-4.1v-0.9c-0.9,1.2-2.3,1.9-3.9,1.9
				c-2.9,0-4.9-2.4-4.9-5.5s2.1-5.5,4.9-5.5c1.7,0,3.2,0.8,4.1,2.2l0.1-1.9h1.6v9.5c0,4.8-3,5.8-5.5,5.8
				C428,245.1,426.4,244.5,425.2,243.9z M433.3,235c0-2.5-1.6-4-3.6-4s-3.6,1.5-3.6,4s1.6,4,3.6,4S433.3,237.5,433.3,235z"/>
			<path class="st4" d="M438,229.8h1.6l0.1,2c0.7-1.3,2.3-2.3,4-2.3v2c-2-0.4-3.9,0.8-3.9,2.5v6.2H438V229.8z"/>
			<path class="st4" d="M444.9,235c0-3,2.1-5.5,4.9-5.5c1.7,0,3.2,0.8,4.1,2.2l0.1-1.9h1.6v10.4H454l-0.1-1.9
				c-0.9,1.3-2.4,2.2-4.1,2.2C447,240.5,444.9,238,444.9,235z M453.9,235c0-2.5-1.6-4-3.6-4s-3.6,1.5-3.6,4s1.6,4,3.6,4
				S453.9,237.5,453.9,235z"/>
			<path class="st4" d="M457.9,239.4l0.4-1.4c0.7,0.4,2,1.1,3.5,1.1c1.3,0,2.3-0.5,2.3-1.6c0-0.9-0.9-1.4-2.6-1.8
				c-2.2-0.6-3.2-1.7-3.2-3.1c0-1.6,1.2-3,3.8-3c1.7,0,3.2,0.9,3.2,0.9l-0.4,1.4c-0.7-0.5-1.8-0.8-2.9-0.8c-1.4,0-2.1,0.5-2.1,1.4
				c0,0.9,0.9,1.4,2.2,1.8c2.4,0.6,3.6,1.7,3.6,3c0,2.2-1.7,3.4-4,3.4C459.5,240.5,457.9,239.4,457.9,239.4z"/>
			<path class="st4" d="M468,229.8h1.6l0.1,1.9c0.9-1.3,2.4-2.2,4.1-2.2c2.9,0,4.9,2.4,4.9,5.5s-2.1,5.5-4.9,5.5
				c-1.6,0-3-0.7-3.9-1.9v6.3H468V229.8z M476.9,235c0-2.5-1.6-4-3.6-4s-3.6,1.5-3.6,4s1.6,4,3.6,4S476.9,237.5,476.9,235z"/>
			<path class="st4" d="M494,238.5c-0.9,1.2-2.3,1.9-3.9,1.9c-2.9,0-4.9-2.4-4.9-5.5s2.1-5.5,4.9-5.5c1.7,0,3.2,0.8,4.1,2.2l0.1-1.9
				h1.6v15H494V238.5z M494.1,235c0-2.5-1.6-4-3.6-4s-3.6,1.5-3.6,4s1.6,4,3.6,4S494.1,237.5,494.1,235z"/>
			<path class="st4" d="M498.8,236v-6.2h1.8v6c0,2.3,0.9,3.1,2.4,3.1c1.5,0,3.4-1.3,3.4-3v-6.1h1.8v10.4h-1.6l-0.1-2
				c-0.8,1.2-2.3,2.3-4,2.3C499.7,240.5,498.8,238.5,498.8,236z"/>
			<path class="st4" d="M511.2,225.8h1.8v2h-1.8V225.8z M511.2,229.8h1.8v10.4h-1.8V229.8z"/>
			<path class="st4" d="M515.4,235c0-3.2,2.3-5.5,5.4-5.5c1.4,0,2.4,0.2,3.6,1.1v1.7c-1-0.9-2.3-1.2-3.5-1.2c-2.2,0-3.7,1.7-3.7,4
				c0,2.3,1.5,4,3.7,4c1.2,0,2.5-0.3,3.5-1.2v1.7c-1.2,0.8-2.3,1.1-3.6,1.1C517.7,240.5,515.4,238.2,515.4,235z"/>
			<path class="st4" d="M526.8,225.8h1.8v8.4l4.9-4.4h2.3l-5.3,4.6l5.5,5.7h-2.4l-5-5.4v5.4h-1.8V225.8z"/>
			<path class="st4" d="M537.6,225.8h1.8v14.4h-1.8V225.8z"/>
			<path class="st4" d="M545.2,239.6l-4.3-9.8h1.9l3.4,7.8l3.3-7.8h1.8l-6.6,15h-1.8L545.2,239.6z"/>
			<path class="st4" d="M551.8,238h2.2v2.2h-2.2V238z"/>
			<path class="st4" d="M561.8,225.8h1.9l5.6,12l5.6-12h1.8v14.4h-1.8v-9.8c0-0.4,0-1.2,0-1.2c0,0.1-0.4,0.9-0.5,1.2l-4.5,9.8h-1.3
				l-4.5-9.8c-0.2-0.4-0.5-1.1-0.5-1.2c0,0,0,0.8,0,1.2v9.8h-1.8V225.8z"/>
			<path class="st4" d="M582.4,239.6l-4.3-9.8h1.9l3.4,7.8l3.3-7.8h1.8l-6.6,15h-1.8L582.4,239.6z"/>
			<path class="st4" d="M595.9,231h-2.3v-1.2h2.3V227h1.8v2.8h2.4v1.2h-2.4v9.1h-1.8V231z"/>
			<path class="st4" d="M601.4,234.9c0-3.3,2.5-5.4,5-5.4c2.6,0,4.4,1.7,4.4,4c0,0.4-0.1,0.8-0.1,1.2h-7.5c-0.1,1.8,0.7,4.2,4,4.2
				c1.2,0,2.6-0.6,3.4-1.3v1.6c-1,0.8-2.5,1.2-4,1.2C603.6,240.5,601.4,238.1,601.4,234.9z M609.1,233.4c0.2-1.4-0.9-2.5-2.6-2.5
				c-1.5,0-2.8,0.8-3.1,2.5H609.1z"/>
			<path class="st4" d="M612.8,235c0-3,2.1-5.5,4.9-5.5c1.7,0,3.2,0.8,4.1,2.2l0.1-1.9h1.6v10.4h-1.6l-0.1-1.9
				c-0.9,1.3-2.4,2.2-4.1,2.2C614.8,240.5,612.8,238,612.8,235z M621.7,235c0-2.5-1.6-4-3.6-4c-2,0-3.6,1.5-3.6,4s1.6,4,3.6,4
				C620.1,239,621.7,237.5,621.7,235z"/>
			<path class="st4" d="M626.4,229.8h1.6l0.1,2c0.9-1.3,2.2-2.3,3.8-2.3c1.9,0,2.9,0.9,3.3,2.4c1.1-1.6,2.5-2.4,4-2.4
				c2.8,0,3.5,1.9,3.5,4.5v6.2h-1.8v-6c0-2.3-0.7-3.1-2.2-3.1c-1.5,0-3.2,1.3-3.2,3v6.1h-1.8v-6c0-2.3-0.7-3.1-2.2-3.1
				c-1.5,0-3.2,1.3-3.2,3v6.1h-1.8V229.8z"/>
			<path class="st4" d="M650.2,236v-6.2h1.8v6c0,2.3,0.9,3.1,2.4,3.1c1.5,0,3.4-1.3,3.4-3v-6.1h1.8v10.4h-1.6l-0.1-2
				c-0.8,1.2-2.3,2.3-4,2.3C651.2,240.5,650.2,238.5,650.2,236z"/>
			<path class="st4" d="M662,239.4l0.4-1.4c0.7,0.4,2,1.1,3.5,1.1c1.3,0,2.3-0.5,2.3-1.6c0-0.9-0.9-1.4-2.6-1.8
				c-2.2-0.6-3.2-1.7-3.2-3.1c0-1.6,1.2-3,3.8-3c1.7,0,3.2,0.9,3.2,0.9l-0.4,1.4c-0.7-0.5-1.8-0.8-2.9-0.8c-1.4,0-2.1,0.5-2.1,1.4
				c0,0.9,0.9,1.4,2.2,1.8c2.4,0.6,3.6,1.7,3.6,3c0,2.2-1.7,3.4-4,3.4C663.6,240.5,662,239.4,662,239.4z"/>
			<path class="st4" d="M671.6,234.9c0-3.3,2.5-5.4,5-5.4c2.6,0,4.4,1.7,4.4,4c0,0.4-0.1,0.8-0.1,1.2h-7.5c-0.1,1.8,0.7,4.2,4,4.2
				c1.2,0,2.6-0.6,3.4-1.3v1.6c-1,0.8-2.5,1.2-4,1.2C673.7,240.5,671.6,238.1,671.6,234.9z M679.2,233.4c0.2-1.4-0.9-2.5-2.6-2.5
				c-1.5,0-2.8,0.8-3.1,2.5H679.2z"/>
			<path class="st4" d="M682.8,239.4l0.4-1.4c0.7,0.4,2,1.1,3.5,1.1c1.3,0,2.3-0.5,2.3-1.6c0-0.9-0.9-1.4-2.6-1.8
				c-2.2-0.6-3.2-1.7-3.2-3.1c0-1.6,1.2-3,3.8-3c1.7,0,3.2,0.9,3.2,0.9l-0.4,1.4c-0.7-0.5-1.8-0.8-2.9-0.8c-1.4,0-2.1,0.5-2.1,1.4
				c0,0.9,0.9,1.4,2.2,1.8c2.4,0.6,3.6,1.7,3.6,3c0,2.2-1.7,3.4-4,3.4C684.4,240.5,682.8,239.4,682.8,239.4z"/>
			<path class="st4" d="M697.6,225.8h1.8v2h-1.8V225.8z M697.6,229.8h1.8v10.4h-1.8V229.8z"/>
			<path class="st4" d="M703.6,231h-2.3v-1.2h2.3V227h1.8v2.8h2.4v1.2h-2.4v9.1h-1.8V231z"/>
			<path class="st4" d="M713.7,235c0-3,2.1-5.5,4.9-5.5c1.7,0,3.2,0.8,4.1,2.2l0.1-1.9h1.6v10.4h-1.6l-0.1-1.9
				c-0.9,1.3-2.4,2.2-4.1,2.2C715.8,240.5,713.7,238,713.7,235z M722.7,235c0-2.5-1.6-4-3.6-4s-3.6,1.5-3.6,4s1.6,4,3.6,4
				S722.7,237.5,722.7,235z"/>
			<path class="st4" d="M726.7,239.4l0.4-1.4c0.7,0.4,2,1.1,3.5,1.1c1.3,0,2.3-0.5,2.3-1.6c0-0.9-0.9-1.4-2.6-1.8
				c-2.2-0.6-3.2-1.7-3.2-3.1c0-1.6,1.2-3,3.8-3c1.7,0,3.2,0.9,3.2,0.9l-0.4,1.4c-0.7-0.5-1.8-0.8-2.9-0.8c-1.4,0-2.1,0.5-2.1,1.4
				c0,0.9,0.9,1.4,2.2,1.8c2.4,0.6,3.6,1.7,3.6,3c0,2.2-1.7,3.4-4,3.4C728.3,240.5,726.7,239.4,726.7,239.4z"/>
			<path class="st4" d="M742.7,231h-2.3v-1.2h2.3V227h1.8v2.8h2.4v1.2h-2.4v9.1h-1.8V231z"/>
			<path class="st4" d="M748.8,225.8h1.8v5.8c0.9-1.1,2.2-2.1,3.9-2.1c2.8,0,3.7,1.9,3.7,4.5v6.2h-1.8v-6c0-2.3-0.9-3.1-2.4-3.1
				c-1.5,0-3.4,1.3-3.4,3v6.1h-1.8V225.8z"/>
			<path class="st4" d="M760.6,234.9c0-3.3,2.5-5.4,5-5.4c2.6,0,4.4,1.7,4.4,4c0,0.4-0.1,0.8-0.1,1.2h-7.5c-0.1,1.8,0.7,4.2,4,4.2
				c1.2,0,2.6-0.6,3.4-1.3v1.6c-1,0.8-2.5,1.2-4,1.2C762.8,240.5,760.6,238.1,760.6,234.9z M768.3,233.4c0.2-1.4-0.9-2.5-2.6-2.5
				c-1.5,0-2.8,0.8-3.1,2.5H768.3z"/>
			<path class="st4" d="M415.7,265.8h1.6l0.1,2c0.9-1.3,2.2-2.3,3.8-2.3c1.9,0,2.9,0.9,3.3,2.4c1.1-1.6,2.5-2.4,4-2.4
				c2.8,0,3.5,1.9,3.5,4.5v6.2h-1.8v-6c0-2.3-0.7-3.1-2.2-3.1c-1.5,0-3.2,1.3-3.2,3v6.1H423v-6c0-2.3-0.7-3.1-2.2-3.1
				c-1.5,0-3.2,1.3-3.2,3v6.1h-1.8V265.8z"/>
			<path class="st4" d="M434.4,271c0-3,2.1-5.5,4.9-5.5c1.7,0,3.2,0.8,4.1,2.2l0.1-1.9h1.6v10.4h-1.6l-0.1-1.9
				c-0.9,1.3-2.4,2.2-4.1,2.2C436.4,276.5,434.4,274,434.4,271z M443.3,271c0-2.5-1.6-4-3.6-4s-3.6,1.5-3.6,4s1.6,4,3.6,4
				S443.3,273.5,443.3,271z"/>
			<path class="st4" d="M448,261.8h1.8v2H448V261.8z M448,265.8h1.8v10.4H448V265.8z"/>
			<path class="st4" d="M452.8,265.8h1.6l0.1,2c0.8-1.2,2.3-2.3,4-2.3c2.8,0,3.7,1.9,3.7,4.5v6.2h-1.8v-6c0-2.3-0.9-3.1-2.4-3.1
				c-1.5,0-3.4,1.3-3.4,3v6.1h-1.8V265.8z"/>
			<path class="st4" d="M469.3,271c0-3,2.1-5.5,4.9-5.5c1.6,0,3,0.7,3.9,1.9v-5.7h1.8v14.4h-1.6l-0.1-1.9c-0.9,1.3-2.4,2.2-4.1,2.2
				C471.4,276.5,469.3,274,469.3,271z M478.2,271c0-2.5-1.6-4-3.6-4s-3.6,1.5-3.6,4s1.6,4,3.6,4S478.2,273.5,478.2,271z"/>
			<path class="st4" d="M482.2,271c0-3,2.3-5.6,5.7-5.6c3.3,0,5.6,2.5,5.6,5.6c0,3-2.3,5.6-5.6,5.6C484.5,276.6,482.2,274,482.2,271
				z M491.7,271c0-2.3-1.5-4.1-3.8-4.1c-2.4,0-3.8,1.8-3.8,4.1c0,2.3,1.5,4.1,3.8,4.1S491.7,273.3,491.7,271z"/>
			<path class="st4" d="M495.2,271c0-3.2,2.3-5.5,5.4-5.5c1.4,0,2.4,0.2,3.6,1.1v1.7c-1-0.9-2.3-1.2-3.5-1.2c-2.2,0-3.7,1.7-3.7,4
				c0,2.3,1.5,4,3.7,4c1.2,0,2.5-0.3,3.5-1.2v1.7c-1.2,0.8-2.3,1.1-3.6,1.1C497.4,276.5,495.2,274.2,495.2,271z"/>
			<path class="st4" d="M506.5,272v-6.2h1.8v6c0,2.3,0.9,3.1,2.4,3.1c1.5,0,3.4-1.3,3.4-3v-6.1h1.8v10.4h-1.6l-0.1-2
				c-0.8,1.2-2.3,2.3-4,2.3C507.5,276.5,506.5,274.5,506.5,272z"/>
			<path class="st4" d="M519,265.8h1.6l0.1,2c0.9-1.3,2.2-2.3,3.8-2.3c1.9,0,2.9,0.9,3.3,2.4c1.1-1.6,2.5-2.4,4-2.4
				c2.8,0,3.5,1.9,3.5,4.5v6.2h-1.8v-6c0-2.3-0.7-3.1-2.2-3.1c-1.5,0-3.2,1.3-3.2,3v6.1h-1.8v-6c0-2.3-0.7-3.1-2.2-3.1
				c-1.5,0-3.2,1.3-3.2,3v6.1H519V265.8z"/>
			<path class="st4" d="M537.6,270.9c0-3.3,2.5-5.4,5-5.4c2.6,0,4.4,1.7,4.4,4c0,0.4-0.1,0.8-0.1,1.2h-7.5c-0.1,1.8,0.7,4.2,4,4.2
				c1.2,0,2.6-0.6,3.4-1.3v1.6c-1,0.8-2.5,1.2-4,1.2C539.8,276.5,537.6,274.1,537.6,270.9z M545.3,269.4c0.2-1.4-0.9-2.5-2.6-2.5
				c-1.5,0-2.8,0.8-3.1,2.5H545.3z"/>
			<path class="st4" d="M549.6,265.8h1.6l0.1,2c0.8-1.2,2.3-2.3,4-2.3c2.8,0,3.7,1.9,3.7,4.5v6.2h-1.8v-6c0-2.3-0.9-3.1-2.4-3.1
				c-1.5,0-3.4,1.3-3.4,3v6.1h-1.8V265.8z"/>
			<path class="st4" d="M563.3,267h-2.3v-1.2h2.3V263h1.8v2.8h2.4v1.2h-2.4v9.1h-1.8V267z"/>
			<path class="st4" d="M568.7,271c0-3,2.1-5.5,4.9-5.5c1.7,0,3.2,0.8,4.1,2.2l0.1-1.9h1.6v10.4h-1.6l-0.1-1.9
				c-0.9,1.3-2.4,2.2-4.1,2.2C570.8,276.5,568.7,274,568.7,271z M577.7,271c0-2.5-1.6-4-3.6-4s-3.6,1.5-3.6,4s1.6,4,3.6,4
				S577.7,273.5,577.7,271z"/>
			<path class="st4" d="M583.7,267h-2.3v-1.2h2.3V263h1.8v2.8h2.4v1.2h-2.4v9.1h-1.8V267z"/>
			<path class="st4" d="M589.7,261.8h1.8v2h-1.8V261.8z M589.7,265.8h1.8v10.4h-1.8V265.8z"/>
			<path class="st4" d="M593.8,271c0-3,2.3-5.6,5.7-5.6c3.3,0,5.6,2.5,5.6,5.6c0,3-2.3,5.6-5.6,5.6C596.1,276.6,593.8,274,593.8,271
				z M603.3,271c0-2.3-1.5-4.1-3.8-4.1c-2.4,0-3.8,1.8-3.8,4.1c0,2.3,1.5,4.1,3.8,4.1C601.8,275.1,603.3,273.3,603.3,271z"/>
			<path class="st4" d="M607.4,265.8h1.6l0.1,2c0.8-1.2,2.3-2.3,4-2.3c2.8,0,3.7,1.9,3.7,4.5v6.2H615v-6c0-2.3-0.9-3.1-2.4-3.1
				c-1.5,0-3.4,1.3-3.4,3v6.1h-1.8V265.8z"/>
			<path class="st4" d="M624.4,265.8h1.6l0.1,2c0.9-1.3,2.2-2.3,3.8-2.3c1.9,0,2.9,0.9,3.3,2.4c1.1-1.6,2.5-2.4,4-2.4
				c2.8,0,3.5,1.9,3.5,4.5v6.2h-1.8v-6c0-2.3-0.7-3.1-2.2-3.1c-1.5,0-3.2,1.3-3.2,3v6.1h-1.8v-6c0-2.3-0.7-3.1-2.2-3.1
				c-1.5,0-3.2,1.3-3.2,3v6.1h-1.8V265.8z"/>
			<path class="st4" d="M643.1,271c0-3,2.1-5.5,4.9-5.5c1.7,0,3.2,0.8,4.1,2.2l0.1-1.9h1.6v10.4h-1.6l-0.1-1.9
				c-0.9,1.3-2.4,2.2-4.1,2.2C645.1,276.5,643.1,274,643.1,271z M652,271c0-2.5-1.6-4-3.6-4s-3.6,1.5-3.6,4s1.6,4,3.6,4
				S652,273.5,652,271z"/>
			<path class="st4" d="M656.7,265.8h1.6l0.1,2c0.8-1.2,2.3-2.3,4-2.3c2.8,0,3.7,1.9,3.7,4.5v6.2h-1.8v-6c0-2.3-0.9-3.1-2.4-3.1
				c-1.5,0-3.4,1.3-3.4,3v6.1h-1.8V265.8z"/>
			<path class="st4" d="M668.5,271c0-3,2.1-5.5,4.9-5.5c1.7,0,3.2,0.8,4.1,2.2l0.1-1.9h1.6v10.4h-1.6l-0.1-1.9
				c-0.9,1.3-2.4,2.2-4.1,2.2C670.6,276.5,668.5,274,668.5,271z M677.5,271c0-2.5-1.6-4-3.6-4c-2,0-3.6,1.5-3.6,4s1.6,4,3.6,4
				C675.9,275,677.5,273.5,677.5,271z"/>
			<path class="st4" d="M682.5,279.9v-1.6c1.6,1,2.7,1.3,4.5,1.3c1.8,0,3.5-1.1,3.5-4.1v-0.9c-0.9,1.2-2.3,1.9-3.9,1.9
				c-2.9,0-4.9-2.4-4.9-5.5s2.1-5.5,4.9-5.5c1.7,0,3.2,0.8,4.1,2.2l0.1-1.9h1.6v9.5c0,4.8-3,5.8-5.5,5.8
				C685.2,281.1,683.7,280.5,682.5,279.9z M690.6,271c0-2.5-1.6-4-3.6-4c-2,0-3.6,1.5-3.6,4s1.6,4,3.6,4
				C689,275,690.6,273.5,690.6,271z"/>
			<path class="st4" d="M694.7,270.9c0-3.3,2.5-5.4,5-5.4c2.6,0,4.4,1.7,4.4,4c0,0.4-0.1,0.8-0.1,1.2h-7.5c-0.1,1.8,0.7,4.2,4,4.2
				c1.2,0,2.6-0.6,3.4-1.3v1.6c-1,0.8-2.5,1.2-4,1.2C696.8,276.5,694.7,274.1,694.7,270.9z M702.4,269.4c0.2-1.4-0.9-2.5-2.6-2.5
				c-1.5,0-2.8,0.8-3.1,2.5H702.4z"/>
			<path class="st4" d="M706.6,265.8h1.6l0.1,2c0.9-1.3,2.2-2.3,3.8-2.3c1.9,0,2.9,0.9,3.3,2.4c1.1-1.6,2.5-2.4,4-2.4
				c2.8,0,3.5,1.9,3.5,4.5v6.2h-1.8v-6c0-2.3-0.7-3.1-2.2-3.1c-1.5,0-3.2,1.3-3.2,3v6.1h-1.8v-6c0-2.3-0.7-3.1-2.2-3.1
				c-1.5,0-3.2,1.3-3.2,3v6.1h-1.8V265.8z"/>
			<path class="st4" d="M725.3,270.9c0-3.3,2.5-5.4,5-5.4c2.6,0,4.4,1.7,4.4,4c0,0.4-0.1,0.8-0.1,1.2h-7.5c-0.1,1.8,0.7,4.2,4,4.2
				c1.2,0,2.6-0.6,3.4-1.3v1.6c-1,0.8-2.5,1.2-4,1.2C727.4,276.5,725.3,274.1,725.3,270.9z M733,269.4c0.2-1.4-0.9-2.5-2.6-2.5
				c-1.5,0-2.8,0.8-3.1,2.5H733z"/>
			<path class="st4" d="M737.2,265.8h1.6l0.1,2c0.8-1.2,2.3-2.3,4-2.3c2.8,0,3.7,1.9,3.7,4.5v6.2h-1.8v-6c0-2.3-0.9-3.1-2.4-3.1
				c-1.5,0-3.4,1.3-3.4,3v6.1h-1.8V265.8z"/>
			<path class="st4" d="M750.9,267h-2.3v-1.2h2.3V263h1.8v2.8h2.4v1.2h-2.4v9.1h-1.8V267z"/>
			<path class="st4" d="M518.3,301.8h1.6l0.1,1.9c0.9-1.3,2.4-2.2,4.1-2.2c2.9,0,4.9,2.4,4.9,5.5s-2.1,5.5-4.9,5.5
				c-1.6,0-3-0.7-3.9-1.9v6.3h-1.8V301.8z M527.2,307c0-2.5-1.6-4-3.6-4s-3.6,1.5-3.6,4s1.6,4,3.6,4S527.2,309.5,527.2,307z"/>
			<path class="st4" d="M531.4,297.8h1.8v14.4h-1.8V297.8z"/>
			<path class="st4" d="M535.6,307c0-3,2.1-5.5,4.9-5.5c1.7,0,3.2,0.8,4.1,2.2l0.1-1.9h1.6v10.4h-1.6l-0.1-1.9
				c-0.9,1.3-2.4,2.2-4.1,2.2C537.7,312.5,535.6,310,535.6,307z M544.5,307c0-2.5-1.6-4-3.6-4s-3.6,1.5-3.6,4s1.6,4,3.6,4
				S544.5,309.5,544.5,307z"/>
			<path class="st4" d="M550.5,303h-2.3v-1.2h2.3V299h1.8v2.8h2.4v1.2h-2.4v9.1h-1.8V303z"/>
			<path class="st4" d="M557.6,303h-2.1v-1.2h2.1v0c0-3,1.2-4.2,3.3-4.2c0.5,0,1,0.1,1.3,0.2v1.3c-0.4-0.1-0.8-0.1-1.1-0.1
				c-1.3,0-1.7,0.6-1.7,2.7v0.1h2.8v1.2h-2.8v9.1h-1.8V303z"/>
			<path class="st4" d="M563,307c0-3,2.3-5.6,5.7-5.6c3.3,0,5.6,2.5,5.6,5.6c0,3-2.3,5.6-5.6,5.6C565.3,312.6,563,310,563,307z
				 M572.5,307c0-2.3-1.5-4.1-3.8-4.1c-2.4,0-3.8,1.8-3.8,4.1c0,2.3,1.5,4.1,3.8,4.1C571,311.1,572.5,309.3,572.5,307z"/>
			<path class="st4" d="M576.5,301.8h1.6l0.1,2c0.7-1.3,2.3-2.3,4-2.3v2c-2-0.4-3.9,0.8-3.9,2.5v6.2h-1.8V301.8z"/>
			<path class="st4" d="M584.1,301.8h1.6l0.1,2c0.9-1.3,2.2-2.3,3.8-2.3c1.9,0,2.9,0.9,3.3,2.4c1.1-1.6,2.5-2.4,4-2.4
				c2.8,0,3.5,1.9,3.5,4.5v6.2h-1.8v-6c0-2.3-0.7-3.1-2.2-3.1c-1.5,0-3.2,1.3-3.2,3v6.1h-1.8v-6c0-2.3-0.7-3.1-2.2-3.1
				c-1.5,0-3.2,1.3-3.2,3v6.1h-1.8V301.8z"/>
			<path class="st4" d="M608,301.8h1.6l0.1,2c0.8-1.2,2.3-2.3,4-2.3c2.8,0,3.7,1.9,3.7,4.5v6.2h-1.8v-6c0-2.3-0.9-3.1-2.4-3.1
				c-1.5,0-3.4,1.3-3.4,3v6.1H608V301.8z"/>
			<path class="st4" d="M619.7,307c0-3,2.3-5.6,5.7-5.6c3.3,0,5.6,2.5,5.6,5.6c0,3-2.3,5.6-5.6,5.6C622,312.6,619.7,310,619.7,307z
				 M629.1,307c0-2.3-1.5-4.1-3.8-4.1c-2.4,0-3.8,1.8-3.8,4.1c0,2.3,1.5,4.1,3.8,4.1C627.7,311.1,629.1,309.3,629.1,307z"/>
			<path class="st4" d="M631.7,301.8h1.8l3,7.8l3-7.8h1.1l3,7.8l2.9-7.8h1.7l-4.1,10.4h-1.2l-2.9-7.5l-3,7.5h-1.2L631.7,301.8z"/>
		</g>
	</g>
	<g>
		<polygon class="st2" points="462.3,504.5 443.4,514.5 447,493.3 431.6,478.4 452.8,475.3 462.3,456.1 471.8,475.3 493,478.4 
			477.7,493.3 481.3,514.5 		"/>
		<polygon class="st5" points="462.3,501.5 443.4,511.5 447,490.3 431.6,475.4 452.8,472.3 462.3,453.1 471.8,472.3 493,475.4 
			477.7,490.3 481.3,511.5 		"/>
		<polygon class="st6" points="452.1,489.3 441.8,479.3 456,477.2 462.3,464.4 468.7,477.2 482.8,479.3 472.6,489.3 475,503.4 
			462.3,496.7 449.7,503.4 		"/>
		<polygon class="st2" points="532.7,504.5 513.7,514.5 517.3,493.3 502,478.4 523.2,475.3 532.7,456.1 542.1,475.3 563.4,478.4 
			548,493.3 551.6,514.5 		"/>
		<polygon class="st5" points="532.7,501.5 513.7,511.5 517.3,490.3 502,475.4 523.2,472.3 532.7,453.1 542.1,472.3 563.4,475.4 
			548,490.3 551.6,511.5 		"/>
		<polygon class="st6" points="522.4,489.3 512.2,479.3 526.3,477.2 532.7,464.4 539,477.2 553.1,479.3 542.9,489.3 545.3,503.4 
			532.7,496.7 520,503.4 		"/>
		<polygon class="st2" points="603,504.5 584,514.5 587.6,493.3 572.3,478.4 593.5,475.3 603,456.1 612.5,475.3 633.7,478.4 
			618.3,493.3 622,514.5 		"/>
		<polygon class="st5" points="603,501.5 584,511.5 587.6,490.3 572.3,475.4 593.5,472.3 603,453.1 612.5,472.3 633.7,475.4 
			618.3,490.3 622,511.5 		"/>
		<polygon class="st6" points="592.7,489.3 582.5,479.3 596.6,477.2 603,464.4 609.3,477.2 623.5,479.3 613.2,489.3 615.6,503.4 
			603,496.7 590.3,503.4 		"/>
		<polygon class="st2" points="673.3,504.5 654.3,514.5 658,493.3 642.6,478.4 663.8,475.3 673.3,456.1 682.8,475.3 704,478.4 
			688.7,493.3 692.3,514.5 		"/>
		<polygon class="st5" points="673.3,501.5 654.3,511.5 658,490.3 642.6,475.4 663.8,472.3 673.3,453.1 682.8,472.3 704,475.4 
			688.7,490.3 692.3,511.5 		"/>
		<polygon class="st6" points="663.1,489.3 652.8,479.3 667,477.2 673.3,464.4 679.6,477.2 693.8,479.3 683.6,489.3 686,503.4 
			673.3,496.7 660.6,503.4 		"/>
		<polygon class="st2" points="743.6,504.5 724.7,514.5 728.3,493.3 712.9,478.4 734.1,475.3 743.6,456.1 753.1,475.3 774.3,478.4 
			759,493.3 762.6,514.5 		"/>
		<polygon class="st5" points="743.6,501.5 724.7,511.5 728.3,490.3 712.9,475.4 734.1,472.3 743.6,453.1 753.1,472.3 774.3,475.4 
			759,490.3 762.6,511.5 		"/>
		<g>
			<defs>
				<polygon id="XMLID_214_" points="733.4,489.3 723.1,479.3 737.3,477.2 743.6,464.4 750,477.2 764.1,479.3 753.9,489.3 
					756.3,503.4 743.6,496.7 731,503.4 				"/>
			</defs>
			<use xlink:href="#XMLID_214_"  style="overflow:visible;fill:#EDEDED;"/>
			<clipPath id="XMLID_6_">
				<use xlink:href="#XMLID_214_"  style="overflow:visible;"/>
			</clipPath>
			<path class="st7" d="M748.3,468.6v1.4v44.4c0,0-40.1-7.3-40.7-8.2c-0.6-0.9-5.7-48.8-5.7-48.8l27.2-4.5"/>
		</g>
	</g>
	<g>
		<path class="st8" d="M255.3,565.7c0,0-48.8,7.6-69.2-11.5c-20.4-19.1,1.7-30.6-3.4-71.7s0-167.3,96.8-165.6S381.4,419.3,378,451.1
			s-12.3,52.1-8.1,72.9c4.2,20.9,7,45.2-38.5,46.8C285.9,572.5,255.3,565.7,255.3,565.7z"/>
		<path class="st9" d="M279.5,547.5c-4.2,0-8.1,0.3-11.8,0.9c-10.6,12.8-23.1,34.2-25.8,66.2h108.5
			C350.4,614.6,342.4,547.5,279.5,547.5z"/>
		<path class="st10" d="M208.7,614.6h33.2c2.7-32,15.2-53.4,25.8-66.2C215.7,556.1,208.7,614.6,208.7,614.6z"/>
		<g>
			<defs>
				<path id="SVGID_1_" d="M296.7,511c0,0-8,27.6,0,43.3c0,0,3.3,13.2-12.9,13.2c-20.8,0-22-13.3-21.3-13.2c8-15.7,0-43.3,0-43.3
					l21.3-11.9L296.7,511z"/>
			</defs>
			<use xlink:href="#SVGID_1_"  style="overflow:visible;fill:#EFA17A;"/>
			<clipPath id="SVGID_2_">
				<use xlink:href="#SVGID_1_"  style="overflow:visible;"/>
			</clipPath>
			<path class="st11" d="M231.2,397.6c0,0-32.7,140.5,93.8,119.7c126.5-20.8-90.8,37.4-90.8,37.4l-59-65v-75.1l33.5-25.3
				L231.2,397.6z"/>
		</g>
		<g>
			<defs>
				<ellipse id="SVGID_3_" cx="211.6" cy="448.2" rx="15.3" ry="17.4"/>
			</defs>
			<defs>
				<ellipse id="SVGID_4_" cx="347.5" cy="448.2" rx="15.3" ry="17.4"/>
			</defs>
			<use xlink:href="#SVGID_3_"  style="overflow:visible;fill:#EFA17A;"/>
			<use xlink:href="#SVGID_4_"  style="overflow:visible;fill:#EFA17A;"/>
			<clipPath id="SVGID_5_">
				<use xlink:href="#SVGID_3_"  style="overflow:visible;"/>
			</clipPath>
			<clipPath id="SVGID_6_" class="st12">
				<use xlink:href="#SVGID_4_"  style="overflow:visible;"/>
			</clipPath>
			<path class="st13" d="M231.2,397.6c0,0-32.7,140.5,93.8,119.7c126.5-20.8-90.8,37.4-90.8,37.4l-59-65v-75.1l33.5-25.3
				L231.2,397.6z"/>
		</g>
		<g>
			<defs>
				<path id="SVGID_7_" d="M220.1,413.8v46.6c0,35.2,28.5,63.7,63.7,63.7h0c35.2,0,63.7-28.5,63.7-63.7v-55.1
					c0,0-3.4-50.6-69.6-64.8C277.8,340.5,266.8,389.1,220.1,413.8z"/>
			</defs>
			<use xlink:href="#SVGID_7_"  style="overflow:visible;fill:#EFB99E;"/>
			<clipPath id="SVGID_8_">
				<use xlink:href="#SVGID_7_"  style="overflow:visible;"/>
			</clipPath>
			<path class="st14" d="M231.2,397.6c0,0-32.7,140.5,93.8,119.7c126.5-20.8-90.8,37.4-90.8,37.4l-59-65v-75.1l33.5-25.3
				L231.2,397.6z"/>
		</g>
		<path class="st8" d="M260.8,424.5c0,4.3-2.4,7.8-5.3,7.8c-2.9,0-5.3-3.5-5.3-7.8s2.4-7.8,5.3-7.8
			C258.4,416.7,260.8,420.2,260.8,424.5z M308.7,416.7c-2.9,0-5.3,3.5-5.3,7.8s2.4,7.8,5.3,7.8c2.9,0,5.3-3.5,5.3-7.8
			S311.6,416.7,308.7,416.7z"/>
		<g>
			<g>
				<g>
					<path class="st15" d="M284,407.6l0.3,17.1l0.2,8.6l0.1,4.3l0,2.1c0,0.3,0,0.5,0.1,0.7l0.4-0.1l0.2,0l0.1,0l0.3,0
						c0.8,0,1.7-0.1,2.5,0c1.7,0.1,3.4,0.2,5.1,0.8c1.7,0.5,3.5,1.5,4.7,3.2c0.6,0.8,1,1.8,1.2,2.8c0.2,1,0.2,1.9,0.1,2.9
						c-0.1,1-0.5,2-1.1,2.9c-0.6,0.9-1.4,1.6-2.3,2.1c-1.8,1-3.6,1.3-5.3,1.5c-3.5,0.3-6.8-0.1-10-0.6c-2-0.3-1.2-4.3,0.7-3.9
						c3.1,0.6,6.1,1,9.1,0.9c1.4-0.1,2.8-0.3,3.9-0.9c1-0.6,1.6-1.4,1.8-2.6c0.2-1.2,0-2.6-0.6-3.5c-0.6-1-1.7-1.7-3.1-2.2
						c-1.3-0.5-2.8-0.7-4.3-0.8c-0.8,0-1.5-0.1-2.3,0l-0.8,0c-0.3,0-0.7,0-1,0.1l-2,0.3c0-1.1,0-2.4,0-3.5l0-2.2l0.1-4.3l0.2-8.6
						l0.3-17.1C282.7,406.8,284,406.8,284,407.6z"/>
				</g>
			</g>
		</g>
		<g>
			<g>
				<g>
					<path class="st8" d="M271.4,397c2.9-8.9,4.8-18.1,5.9-27.4c0.5-4.6,0.7-9.3,0.6-13.9l-0.2-3.5l-0.1-1.7l-0.2-1.7
						c-0.2-1.1-0.3-2.3-0.5-3.4l-0.7-3.4c-0.3-1.4,3.7-2.4,3.9-0.8l0.6,3.6c0.2,1.2,0.2,2.4,0.3,3.6l0.2,1.8l0,1.8
						c0,1.2,0.1,2.4,0.1,3.6c-0.1,4.8-0.5,9.6-1.2,14.3c-1.5,9.4-3.9,18.6-7.2,27.5C272.5,398,271.3,397.5,271.4,397z"/>
				</g>
			</g>
		</g>
		<g>
			<g>
				<g>
					<path class="st8" d="M247,409.2c2.2-5.5,6.8-9.6,12.2-12.3c0.4-0.3,2.8,7.6,2.5,7.5c-2.3,0.3-4.5,0.9-6.6,1.8
						c-2.1,1-4.2,2.4-5.7,4.1C249.3,410.5,247,409.5,247,409.2z"/>
				</g>
			</g>
		</g>
		<g>
			<g>
				<g>
					<path class="st8" d="M318.3,409c-1.7-1.6-3.6-2.9-5.6-3.7c-1-0.4-2-0.7-2.9-0.8c-0.9-0.1-1.9-0.1-2.5,0.1
						c0.1,0.1-0.7-8.1,0.2-7.9c1,0.1,1.7,0.4,2.5,0.7c0.8,0.3,1.5,0.6,2.1,1c1.3,0.7,2.5,1.6,3.5,2.6c2.1,2,3.6,4.2,4.7,6.5
						C320.5,407.5,318.5,409,318.3,409z"/>
				</g>
			</g>
		</g>
		<g>
			<defs>
				<path id="XMLID_4_" d="M257.9,461.8c0,0,14.5,10.2,36.3,6c0,0-5.5,16-19.8,14.7C257.8,481,257.9,461.8,257.9,461.8z"/>
			</defs>
			<use xlink:href="#XMLID_4_"  style="overflow:visible;fill:#6B1111;"/>
			<clipPath id="XMLID_7_">
				<use xlink:href="#XMLID_4_"  style="overflow:visible;"/>
			</clipPath>
			<path class="st16" d="M257.9,480.8c0,0,2.8-8.3,17.1-7.1s17.1,12.2,17.1,12.2l-20.3,7.9L257.9,480.8z"/>
		</g>
	</g>
</g>
</svg>
