<?xml version="1.0" encoding="utf-8"?>
<!-- Generator: Adobe Illustrator 24.0.2, SVG Export Plug-In . SVG Version: 6.00 Build 0)  -->
<svg version="1.1" id="Layer_1" xmlns="http://www.w3.org/2000/svg" xmlns:xlink="http://www.w3.org/1999/xlink" x="0px" y="0px"
	 viewBox="0 0 1022 766.5" style="enable-background:new 0 0 1022 766.5;" xml:space="preserve">
<style type="text/css">
	.st0{fill:#F2FBFF;}
	.st1{fill:#D3F0FE;}
	.st2{opacity:0.3;fill:#B9E0FE;}
	.st3{fill:#FAFAFA;}
	.st4{fill:#3D3245;}
	.st5{fill:#FFFFFF;}
	.st6{fill:#FAE47F;}
	.st7{fill:#875044;}
	.st8{fill:#9BADDD;}
	.st9{fill:#7E98DD;}
	.st10{opacity:0.4;clip-path:url(#SVGID_2_);fill:#A11D30;}
	.st11{clip-path:url(#SVGID_5_);}
	.st12{opacity:0.4;clip-path:url(#SVGID_6_);fill:#A11D30;}
	.st13{opacity:0.4;clip-path:url(#SVGID_8_);fill:#A11D30;}
	.st14{fill:#B56B5B;}
	.st15{fill:#170F21;}
	.st16{fill:none;stroke:#875044;stroke-width:8;stroke-linejoin:round;stroke-miterlimit:10;}
	.st17{clip-path:url(#XMLID_5_);fill:#FFCEF5;}
	.st18{fill:#D17964;}
</style>
<g>
	<g>
		<path class="st0" d="M699.7,557.6c-211.6,103.1-281.4,115.1-456.5-42.2c-117.9-105.9-101.6-254.2,40.9-323.5
			c211.6-103.1,267.2-45.7,476,62.8C904.7,329.8,842.2,488.2,699.7,557.6z"/>
	</g>
	<g>
		<path class="st1" d="M711.3,507.6c-176.4,118.8-248.3,119.8-424.7,1c-118.8-79.9-119-206.8-0.2-286.7
			c176.4-118.8,226.8-75.4,425.7-0.2C858.2,276.9,830.1,427.7,711.3,507.6z"/>
	</g>
	<polygon class="st2" points="833.5,330.3 313.9,330.3 313.9,361.1 430.6,361.1 416.6,402.8 498.8,361.1 833.5,361.1 	"/>
	<polygon class="st3" points="833.5,151.9 313.9,151.9 313.9,354.6 431.4,354.6 419.6,395.2 498.8,354.6 833.5,354.6 	"/>
	<g>
		<g>
			<path class="st4" d="M368.9,204.4h-5.1v-1.6H376v1.6h-5.1v12.8h-1.9V204.4z"/>
			<path class="st4" d="M377.7,202.8h1.8v5.8c0.9-1.1,2.2-2.1,3.9-2.1c2.8,0,3.7,1.9,3.7,4.5v6.2h-1.8v-6c0-2.3-0.9-3.1-2.4-3.1
				c-1.5,0-3.4,1.3-3.4,3v6.1h-1.8V202.8z"/>
			<path class="st4" d="M389.5,211.9c0-3.3,2.5-5.4,5-5.4c2.6,0,4.4,1.7,4.4,4c0,0.4-0.1,0.8-0.1,1.2h-7.5c-0.1,1.8,0.7,4.2,4,4.2
				c1.2,0,2.6-0.6,3.4-1.3v1.6c-1,0.8-2.5,1.2-4,1.2C391.7,217.5,389.5,215.1,389.5,211.9z M397.2,210.5c0.2-1.4-0.9-2.5-2.6-2.5
				c-1.5,0-2.8,0.8-3.1,2.5H397.2z"/>
			<path class="st4" d="M401.5,202.8h1.8v2h-1.8V202.8z M401.5,206.8h1.8v10.4h-1.8V206.8z"/>
			<path class="st4" d="M406.3,206.8h1.6l0.1,2c0.7-1.3,2.3-2.3,4-2.3v2c-2-0.4-3.9,0.8-3.9,2.5v6.2h-1.8V206.8z"/>
			<path class="st4" d="M418.5,206.8h1.6l0.1,1.9c0.9-1.3,2.4-2.2,4.1-2.2c2.9,0,4.9,2.4,4.9,5.5s-2.1,5.5-4.9,5.5
				c-1.6,0-3-0.7-3.9-1.9v6.3h-1.8V206.8z M427.3,212c0-2.5-1.6-4-3.6-4s-3.6,1.5-3.6,4s1.6,4,3.6,4S427.3,214.5,427.3,212z"/>
			<path class="st4" d="M431.5,202.8h1.8v14.4h-1.8V202.8z"/>
			<path class="st4" d="M435.7,212c0-3,2.1-5.5,4.9-5.5c1.7,0,3.2,0.8,4.1,2.2l0.1-1.9h1.6v10.4h-1.6l-0.1-1.9
				c-0.9,1.3-2.4,2.2-4.1,2.2C437.8,217.5,435.7,215,435.7,212z M444.7,212c0-2.5-1.6-4-3.6-4s-3.6,1.5-3.6,4s1.6,4,3.6,4
				S444.7,214.5,444.7,212z"/>
			<path class="st4" d="M450.6,208.1h-2.3v-1.2h2.3V204h1.8v2.8h2.4v1.2h-2.4v9.1h-1.8V208.1z"/>
			<path class="st4" d="M457.8,208.1h-2.1v-1.2h2.1v0c0-3,1.2-4.2,3.3-4.2c0.5,0,1,0.1,1.3,0.2v1.3c-0.4-0.1-0.8-0.1-1.1-0.1
				c-1.3,0-1.7,0.6-1.7,2.7v0.1h2.8v1.2h-2.8v9.1h-1.8V208.1z"/>
			<path class="st4" d="M463.1,212c0-3,2.3-5.6,5.7-5.6c3.3,0,5.6,2.5,5.6,5.6c0,3-2.3,5.6-5.6,5.6C465.4,217.6,463.1,215,463.1,212
				z M472.6,212c0-2.3-1.5-4.1-3.8-4.1c-2.4,0-3.8,1.8-3.8,4.1c0,2.3,1.5,4.1,3.8,4.1S472.6,214.3,472.6,212z"/>
			<path class="st4" d="M476.7,206.8h1.6l0.1,2c0.7-1.3,2.3-2.3,4-2.3v2c-2-0.4-3.9,0.8-3.9,2.5v6.2h-1.8V206.8z"/>
			<path class="st4" d="M484.2,206.8h1.6l0.1,2c0.9-1.3,2.2-2.3,3.8-2.3c1.9,0,2.9,0.9,3.3,2.4c1.1-1.6,2.5-2.4,4-2.4
				c2.8,0,3.5,1.9,3.5,4.5v6.2h-1.8v-6c0-2.3-0.7-3.1-2.2-3.1c-1.5,0-3.2,1.3-3.2,3v6.1h-1.8v-6c0-2.3-0.7-3.1-2.2-3.1
				c-1.5,0-3.2,1.3-3.2,3v6.1h-1.8V206.8z"/>
			<path class="st4" d="M508.1,202.8h1.8v2h-1.8V202.8z M508.1,206.8h1.8v10.4h-1.8V206.8z"/>
			<path class="st4" d="M512.2,216.4l0.4-1.4c0.7,0.4,2,1.1,3.5,1.1c1.3,0,2.3-0.5,2.3-1.6c0-0.9-0.9-1.4-2.6-1.8
				c-2.2-0.6-3.2-1.7-3.2-3.1c0-1.6,1.2-3,3.8-3c1.7,0,3.2,0.9,3.2,0.9l-0.4,1.4c-0.7-0.5-1.8-0.8-2.9-0.8c-1.4,0-2.1,0.5-2.1,1.4
				c0,0.9,0.9,1.4,2.2,1.8c2.4,0.6,3.6,1.7,3.6,3c0,2.2-1.7,3.4-4,3.4C513.8,217.5,512.2,216.4,512.2,216.4z"/>
			<path class="st4" d="M527,206.8h1.6l0.1,2c0.7-1.3,2.3-2.3,4-2.3v2c-2-0.4-3.9,0.8-3.9,2.5v6.2H527V206.8z"/>
			<path class="st4" d="M533.9,211.9c0-3.3,2.5-5.4,5-5.4c2.6,0,4.4,1.7,4.4,4c0,0.4-0.1,0.8-0.1,1.2h-7.5c-0.1,1.8,0.7,4.2,4,4.2
				c1.2,0,2.6-0.6,3.4-1.3v1.6c-1,0.8-2.5,1.2-4,1.2C536.1,217.5,533.9,215.1,533.9,211.9z M541.6,210.5c0.2-1.4-0.9-2.5-2.6-2.5
				c-1.5,0-2.8,0.8-3.1,2.5H541.6z"/>
			<path class="st4" d="M545.3,212c0-3,2.1-5.5,4.9-5.5c1.7,0,3.2,0.8,4.1,2.2l0.1-1.9h1.6v10.4h-1.6l-0.1-1.9
				c-0.9,1.3-2.4,2.2-4.1,2.2C547.4,217.5,545.3,215,545.3,212z M554.3,212c0-2.5-1.6-4-3.6-4c-2,0-3.6,1.5-3.6,4s1.6,4,3.6,4
				C552.7,216,554.3,214.5,554.3,212z"/>
			<path class="st4" d="M558.9,202.8h1.8v14.4h-1.8V202.8z"/>
			<path class="st4" d="M563.7,202.8h1.8v14.4h-1.8V202.8z"/>
			<path class="st4" d="M571.4,216.6l-4.3-9.8h1.9l3.4,7.8l3.3-7.8h1.8l-6.6,15H569L571.4,216.6z"/>
			<path class="st4" d="M583,211.9c0-3.3,2.5-5.4,5-5.4c2.6,0,4.4,1.7,4.4,4c0,0.4-0.1,0.8-0.1,1.2h-7.5c-0.1,1.8,0.7,4.2,4,4.2
				c1.2,0,2.6-0.6,3.4-1.3v1.6c-1,0.8-2.5,1.2-4,1.2C585.2,217.5,583,215.1,583,211.9z M590.7,210.5c0.2-1.4-0.9-2.5-2.6-2.5
				c-1.5,0-2.8,0.8-3.1,2.5H590.7z"/>
			<path class="st4" d="M594.4,212c0-3,2.1-5.5,4.9-5.5c1.7,0,3.2,0.8,4.1,2.2l0.1-1.9h1.6v10.4h-1.6l-0.1-1.9
				c-0.9,1.3-2.4,2.2-4.1,2.2C596.5,217.5,594.4,215,594.4,212z M603.4,212c0-2.5-1.6-4-3.6-4c-2,0-3.6,1.5-3.6,4s1.6,4,3.6,4
				C601.8,216,603.4,214.5,603.4,212z"/>
			<path class="st4" d="M607.3,216.4l0.4-1.4c0.7,0.4,2,1.1,3.5,1.1c1.3,0,2.3-0.5,2.3-1.6c0-0.9-0.9-1.4-2.6-1.8
				c-2.2-0.6-3.2-1.7-3.2-3.1c0-1.6,1.2-3,3.8-3c1.7,0,3.2,0.9,3.2,0.9l-0.4,1.4c-0.7-0.5-1.8-0.8-2.9-0.8c-1.4,0-2.1,0.5-2.1,1.4
				c0,0.9,0.9,1.4,2.2,1.8c2.4,0.6,3.6,1.7,3.6,3c0,2.2-1.7,3.4-4,3.4C608.9,217.5,607.3,216.4,607.3,216.4z"/>
			<path class="st4" d="M620.3,216.6l-4.3-9.8h1.9l3.4,7.8l3.3-7.8h1.8l-6.6,15H618L620.3,216.6z"/>
			<path class="st4" d="M633.8,208.1h-2.3v-1.2h2.3V204h1.8v2.8h2.4v1.2h-2.4v9.1h-1.8V208.1z"/>
			<path class="st4" d="M639.2,212c0-3,2.3-5.6,5.7-5.6c3.3,0,5.6,2.5,5.6,5.6c0,3-2.3,5.6-5.6,5.6C641.5,217.6,639.2,215,639.2,212
				z M648.6,212c0-2.3-1.5-4.1-3.8-4.1c-2.4,0-3.8,1.8-3.8,4.1c0,2.3,1.5,4.1,3.8,4.1C647.2,216.1,648.6,214.3,648.6,212z"/>
			<path class="st4" d="M657.3,213v-6.2h1.8v6c0,2.3,0.9,3.1,2.4,3.1c1.5,0,3.4-1.3,3.4-3v-6.1h1.8v10.4h-1.6l-0.1-2
				c-0.8,1.2-2.3,2.3-4,2.3C658.3,217.5,657.3,215.5,657.3,213z"/>
			<path class="st4" d="M669.1,216.4l0.4-1.4c0.7,0.4,2,1.1,3.5,1.1c1.3,0,2.3-0.5,2.3-1.6c0-0.9-0.9-1.4-2.6-1.8
				c-2.2-0.6-3.2-1.7-3.2-3.1c0-1.6,1.2-3,3.8-3c1.7,0,3.2,0.9,3.2,0.9l-0.4,1.4c-0.7-0.5-1.8-0.8-2.9-0.8c-1.4,0-2.1,0.5-2.1,1.4
				c0,0.9,0.9,1.4,2.2,1.8c2.4,0.6,3.6,1.7,3.6,3c0,2.2-1.7,3.4-4,3.4C670.7,217.5,669.1,216.4,669.1,216.4z"/>
			<path class="st4" d="M678.6,211.9c0-3.3,2.5-5.4,5-5.4c2.6,0,4.4,1.7,4.4,4c0,0.4-0.1,0.8-0.1,1.2h-7.5c-0.1,1.8,0.7,4.2,4,4.2
				c1.2,0,2.6-0.6,3.4-1.3v1.6c-1,0.8-2.5,1.2-4,1.2C680.8,217.5,678.6,215.1,678.6,211.9z M686.3,210.5c0.2-1.4-0.9-2.5-2.6-2.5
				c-1.5,0-2.8,0.8-3.1,2.5H686.3z"/>
			<path class="st4" d="M690.6,219.6c0.8-0.5,1.2-1.5,1.2-2.4h-1V215h2.2v1.9c0,1.6-0.7,2.9-2,3.3L690.6,219.6z"/>
			<path class="st4" d="M700.1,212c0-3,2.1-5.5,4.9-5.5c1.7,0,3.2,0.8,4.1,2.2l0.1-1.9h1.6v10.4h-1.6l-0.1-1.9
				c-0.9,1.3-2.4,2.2-4.1,2.2C702.2,217.5,700.1,215,700.1,212z M709.1,212c0-2.5-1.6-4-3.6-4c-2,0-3.6,1.5-3.6,4s1.6,4,3.6,4
				C707.5,216,709.1,214.5,709.1,212z"/>
			<path class="st4" d="M713.8,206.8h1.6l0.1,2c0.8-1.2,2.3-2.3,4-2.3c2.8,0,3.7,1.9,3.7,4.5v6.2h-1.8v-6c0-2.3-0.9-3.1-2.4-3.1
				c-1.5,0-3.4,1.3-3.4,3v6.1h-1.8V206.8z"/>
			<path class="st4" d="M725.6,212c0-3,2.1-5.5,4.9-5.5c1.6,0,3,0.7,3.9,1.9v-5.7h1.8v14.4h-1.6l-0.1-1.9c-0.9,1.3-2.4,2.2-4.1,2.2
				C727.7,217.5,725.6,215,725.6,212z M734.6,212c0-2.5-1.6-4-3.6-4c-2,0-3.6,1.5-3.6,4s1.6,4,3.6,4C733,216,734.6,214.5,734.6,212z
				"/>
			<path class="st4" d="M745.2,208.1h-2.3v-1.2h2.3V204h1.8v2.8h2.4v1.2H747v9.1h-1.8V208.1z"/>
			<path class="st4" d="M751.2,202.8h1.8v5.8c0.9-1.1,2.2-2.1,3.9-2.1c2.8,0,3.7,1.9,3.7,4.5v6.2h-1.8v-6c0-2.3-0.9-3.1-2.4-3.1
				c-1.5,0-3.4,1.3-3.4,3v6.1h-1.8V202.8z"/>
			<path class="st4" d="M763.1,211.9c0-3.3,2.5-5.4,5-5.4c2.6,0,4.4,1.7,4.4,4c0,0.4-0.1,0.8-0.1,1.2h-7.5c-0.1,1.8,0.7,4.2,4,4.2
				c1.2,0,2.6-0.6,3.4-1.3v1.6c-1,0.8-2.5,1.2-4,1.2C765.2,217.5,763.1,215.1,763.1,211.9z M770.8,210.5c0.2-1.4-0.9-2.5-2.6-2.5
				c-1.5,0-2.8,0.8-3.1,2.5H770.8z"/>
			<path class="st4" d="M777.7,216.6l-4.3-9.8h1.9l3.4,7.8l3.3-7.8h1.8l-6.6,15h-1.8L777.7,216.6z"/>
			<path class="st4" d="M365.4,238.8h1.8v5.8c0.9-1.1,2.2-2.1,3.9-2.1c2.8,0,3.7,1.9,3.7,4.5v6.2H373v-6c0-2.3-0.9-3.1-2.4-3.1
				c-1.5,0-3.4,1.3-3.4,3v6.1h-1.8V238.8z"/>
			<path class="st4" d="M377.2,248c0-3,2.1-5.5,4.9-5.5c1.7,0,3.2,0.8,4.1,2.2l0.1-1.9h1.6v10.4h-1.6l-0.1-1.9
				c-0.9,1.3-2.4,2.2-4.1,2.2C379.3,253.5,377.2,251,377.2,248z M386.2,248c0-2.5-1.6-4-3.6-4s-3.6,1.5-3.6,4s1.6,4,3.6,4
				S386.2,250.5,386.2,248z"/>
			<path class="st4" d="M389.4,242.8h1.9l3.4,7.8l3.3-7.8h1.8l-4.6,10.4H394L389.4,242.8z"/>
			<path class="st4" d="M400.5,247.9c0-3.3,2.5-5.4,5-5.4c2.6,0,4.4,1.7,4.4,4c0,0.4-0.1,0.8-0.1,1.2h-7.5c-0.1,1.8,0.7,4.2,4,4.2
				c1.2,0,2.6-0.6,3.4-1.3v1.6c-1,0.8-2.5,1.2-4,1.2C402.6,253.5,400.5,251.1,400.5,247.9z M408.2,246.5c0.2-1.4-0.9-2.5-2.6-2.5
				c-1.5,0-2.8,0.8-3.1,2.5H408.2z"/>
			<path class="st4" d="M416.5,248c0-3,2.1-5.5,4.9-5.5c1.7,0,3.2,0.8,4.1,2.2l0.1-1.9h1.6v10.4h-1.6l-0.1-1.9
				c-0.9,1.3-2.4,2.2-4.1,2.2C418.5,253.5,416.5,251,416.5,248z M425.4,248c0-2.5-1.6-4-3.6-4s-3.6,1.5-3.6,4s1.6,4,3.6,4
				S425.4,250.5,425.4,248z"/>
			<path class="st4" d="M428.8,242.8h1.8l3,7.8l3-7.8h1.1l3,7.8l2.9-7.8h1.7l-4.1,10.4H440l-2.9-7.5l-3,7.5h-1.2L428.8,242.8z"/>
			<path class="st4" d="M446.1,247.9c0-3.3,2.5-5.4,5-5.4c2.6,0,4.4,1.7,4.4,4c0,0.4-0.1,0.8-0.1,1.2h-7.5c-0.1,1.8,0.7,4.2,4,4.2
				c1.2,0,2.6-0.6,3.4-1.3v1.6c-1,0.8-2.5,1.2-4,1.2C448.2,253.5,446.1,251.1,446.1,247.9z M453.8,246.5c0.2-1.4-0.9-2.5-2.6-2.5
				c-1.5,0-2.8,0.8-3.1,2.5H453.8z"/>
			<path class="st4" d="M457.3,252.4l0.4-1.4c0.7,0.4,2,1.1,3.5,1.1c1.3,0,2.3-0.5,2.3-1.6c0-0.9-0.9-1.4-2.6-1.8
				c-2.2-0.6-3.2-1.7-3.2-3.1c0-1.6,1.2-3,3.8-3c1.7,0,3.2,0.9,3.2,0.9l-0.4,1.4c-0.7-0.5-1.8-0.8-2.9-0.8c-1.4,0-2.1,0.5-2.1,1.4
				c0,0.9,0.9,1.4,2.2,1.8c2.4,0.6,3.6,1.7,3.6,3c0,2.2-1.7,3.4-4,3.4C458.9,253.5,457.3,252.4,457.3,252.4z"/>
			<path class="st4" d="M466.7,248c0-3,2.3-5.6,5.7-5.6c3.3,0,5.6,2.5,5.6,5.6c0,3-2.3,5.6-5.6,5.6C469,253.6,466.7,251,466.7,248z
				 M476.2,248c0-2.3-1.5-4.1-3.8-4.1c-2.4,0-3.8,1.8-3.8,4.1c0,2.3,1.5,4.1,3.8,4.1S476.2,250.3,476.2,248z"/>
			<path class="st4" d="M480.3,242.8h1.6l0.1,2c0.9-1.3,2.2-2.3,3.8-2.3c1.9,0,2.9,0.9,3.3,2.4c1.1-1.6,2.5-2.4,4-2.4
				c2.8,0,3.5,1.9,3.5,4.5v6.2h-1.8v-6c0-2.3-0.7-3.1-2.2-3.1c-1.5,0-3.2,1.3-3.2,3v6.1h-1.8v-6c0-2.3-0.7-3.1-2.2-3.1
				c-1.5,0-3.2,1.3-3.2,3v6.1h-1.8V242.8z"/>
			<path class="st4" d="M498.9,247.9c0-3.3,2.5-5.4,5-5.4c2.6,0,4.4,1.7,4.4,4c0,0.4-0.1,0.8-0.1,1.2h-7.5c-0.1,1.8,0.7,4.2,4,4.2
				c1.2,0,2.6-0.6,3.4-1.3v1.6c-1,0.8-2.5,1.2-4,1.2C501.1,253.5,498.9,251.1,498.9,247.9z M506.6,246.5c0.2-1.4-0.9-2.5-2.6-2.5
				c-1.5,0-2.8,0.8-3.1,2.5H506.6z"/>
			<path class="st4" d="M515,248c0-3.2,2.3-5.5,5.4-5.5c1.4,0,2.4,0.2,3.6,1.1v1.7c-1-0.9-2.3-1.2-3.5-1.2c-2.2,0-3.7,1.7-3.7,4
				c0,2.3,1.5,4,3.7,4c1.2,0,2.5-0.3,3.5-1.2v1.7c-1.2,0.8-2.3,1.1-3.6,1.1C517.2,253.5,515,251.2,515,248z"/>
			<path class="st4" d="M526.3,249v-6.2h1.8v6c0,2.3,0.9,3.1,2.4,3.1c1.5,0,3.4-1.3,3.4-3v-6.1h1.8v10.4h-1.6l-0.1-2
				c-0.8,1.2-2.3,2.3-4,2.3C527.3,253.5,526.3,251.5,526.3,249z"/>
			<path class="st4" d="M538,252.4l0.4-1.4c0.7,0.4,2,1.1,3.5,1.1c1.3,0,2.3-0.5,2.3-1.6c0-0.9-0.9-1.4-2.6-1.8
				c-2.2-0.6-3.2-1.7-3.2-3.1c0-1.6,1.2-3,3.8-3c1.7,0,3.2,0.9,3.2,0.9l-0.4,1.4c-0.7-0.5-1.8-0.8-2.9-0.8c-1.4,0-2.1,0.5-2.1,1.4
				c0,0.9,0.9,1.4,2.2,1.8c2.4,0.6,3.6,1.7,3.6,3c0,2.2-1.7,3.4-4,3.4C539.6,253.5,538,252.4,538,252.4z"/>
			<path class="st4" d="M549.4,244.1h-2.3v-1.2h2.3V240h1.8v2.8h2.4v1.2h-2.4v9.1h-1.8V244.1z"/>
			<path class="st4" d="M554.8,248c0-3,2.3-5.6,5.7-5.6c3.3,0,5.6,2.5,5.6,5.6c0,3-2.3,5.6-5.6,5.6C557.1,253.6,554.8,251,554.8,248
				z M564.3,248c0-2.3-1.5-4.1-3.8-4.1c-2.4,0-3.8,1.8-3.8,4.1c0,2.3,1.5,4.1,3.8,4.1C562.8,252.1,564.3,250.3,564.3,248z"/>
			<path class="st4" d="M568.4,242.8h1.6l0.1,2c0.9-1.3,2.2-2.3,3.8-2.3c1.9,0,2.9,0.9,3.3,2.4c1.1-1.6,2.5-2.4,4-2.4
				c2.8,0,3.5,1.9,3.5,4.5v6.2h-1.8v-6c0-2.3-0.7-3.1-2.2-3.1c-1.5,0-3.2,1.3-3.2,3v6.1h-1.8v-6c0-2.3-0.7-3.1-2.2-3.1
				c-1.5,0-3.2,1.3-3.2,3v6.1h-1.8V242.8z"/>
			<path class="st4" d="M587,247.9c0-3.3,2.5-5.4,5-5.4c2.6,0,4.4,1.7,4.4,4c0,0.4-0.1,0.8-0.1,1.2h-7.5c-0.1,1.8,0.7,4.2,4,4.2
				c1.2,0,2.6-0.6,3.4-1.3v1.6c-1,0.8-2.5,1.2-4,1.2C589.2,253.5,587,251.1,587,247.9z M594.7,246.5c0.2-1.4-0.9-2.5-2.6-2.5
				c-1.5,0-2.8,0.8-3.1,2.5H594.7z"/>
			<path class="st4" d="M599,242.8h1.6l0.1,2c0.7-1.3,2.3-2.3,4-2.3v2c-2-0.4-3.9,0.8-3.9,2.5v6.2H599V242.8z"/>
			<path class="st4" d="M610.4,252.4l0.4-1.4c0.7,0.4,2,1.1,3.5,1.1c1.3,0,2.3-0.5,2.3-1.6c0-0.9-0.9-1.4-2.6-1.8
				c-2.2-0.6-3.2-1.7-3.2-3.1c0-1.6,1.2-3,3.8-3c1.7,0,3.2,0.9,3.2,0.9l-0.4,1.4c-0.7-0.5-1.8-0.8-2.9-0.8c-1.4,0-2.1,0.5-2.1,1.4
				c0,0.9,0.9,1.4,2.2,1.8c2.4,0.6,3.6,1.7,3.6,3c0,2.2-1.7,3.4-4,3.4C612,253.5,610.4,252.4,610.4,252.4z"/>
			<path class="st4" d="M620,247.9c0-3.3,2.5-5.4,5-5.4c2.6,0,4.4,1.7,4.4,4c0,0.4-0.1,0.8-0.1,1.2h-7.5c-0.1,1.8,0.7,4.2,4,4.2
				c1.2,0,2.6-0.6,3.4-1.3v1.6c-1,0.8-2.5,1.2-4,1.2C622.2,253.5,620,251.1,620,247.9z M627.7,246.5c0.2-1.4-0.9-2.5-2.6-2.5
				c-1.5,0-2.8,0.8-3.1,2.5H627.7z"/>
			<path class="st4" d="M632,242.8h1.6l0.1,2c0.7-1.3,2.3-2.3,4-2.3v2c-2-0.4-3.9,0.8-3.9,2.5v6.2H632V242.8z"/>
			<path class="st4" d="M638.7,242.8h1.9l3.4,7.8l3.3-7.8h1.8l-4.6,10.4h-1.2L638.7,242.8z"/>
			<path class="st4" d="M650.6,238.8h1.8v2h-1.8V238.8z M650.6,242.8h1.8v10.4h-1.8V242.8z"/>
			<path class="st4" d="M654.8,248c0-3.2,2.3-5.5,5.4-5.5c1.4,0,2.4,0.2,3.6,1.1v1.7c-1-0.9-2.3-1.2-3.5-1.2c-2.2,0-3.7,1.7-3.7,4
				c0,2.3,1.5,4,3.7,4c1.2,0,2.5-0.3,3.5-1.2v1.7c-1.2,0.8-2.3,1.1-3.6,1.1C657,253.5,654.8,251.2,654.8,248z"/>
			<path class="st4" d="M665.6,247.9c0-3.3,2.5-5.4,5-5.4c2.6,0,4.4,1.7,4.4,4c0,0.4-0.1,0.8-0.1,1.2h-7.5c-0.1,1.8,0.7,4.2,4,4.2
				c1.2,0,2.6-0.6,3.4-1.3v1.6c-1,0.8-2.5,1.2-4,1.2C667.7,253.5,665.6,251.1,665.6,247.9z M673.3,246.5c0.2-1.4-0.9-2.5-2.6-2.5
				c-1.5,0-2.8,0.8-3.1,2.5H673.3z"/>
			<path class="st4" d="M680.9,242.8h1.8l3,7.8l3-7.8h1.1l3,7.8l2.9-7.8h1.7l-4.1,10.4H692l-2.9-7.5l-3,7.5h-1.2L680.9,242.8z"/>
			<path class="st4" d="M698.9,238.8h1.8v5.8c0.9-1.1,2.2-2.1,3.9-2.1c2.8,0,3.7,1.9,3.7,4.5v6.2h-1.8v-6c0-2.3-0.9-3.1-2.4-3.1
				c-1.5,0-3.4,1.3-3.4,3v6.1h-1.8V238.8z"/>
			<path class="st4" d="M710.8,247.9c0-3.3,2.5-5.4,5-5.4c2.6,0,4.4,1.7,4.4,4c0,0.4-0.1,0.8-0.1,1.2h-7.5c-0.1,1.8,0.7,4.2,4,4.2
				c1.2,0,2.6-0.6,3.4-1.3v1.6c-1,0.8-2.5,1.2-4,1.2C712.9,253.5,710.8,251.1,710.8,247.9z M718.5,246.5c0.2-1.4-0.9-2.5-2.6-2.5
				c-1.5,0-2.8,0.8-3.1,2.5H718.5z"/>
			<path class="st4" d="M722.7,242.8h1.6l0.1,2c0.8-1.2,2.3-2.3,4-2.3c2.8,0,3.7,1.9,3.7,4.5v6.2h-1.8v-6c0-2.3-0.9-3.1-2.4-3.1
				c-1.5,0-3.4,1.3-3.4,3v6.1h-1.8V242.8z"/>
			<path class="st4" d="M734.6,247.9c0-3.3,2.5-5.4,5-5.4c2.6,0,4.4,1.7,4.4,4c0,0.4-0.1,0.8-0.1,1.2h-7.5c-0.1,1.8,0.7,4.2,4,4.2
				c1.2,0,2.6-0.6,3.4-1.3v1.6c-1,0.8-2.5,1.2-4,1.2C736.8,253.5,734.6,251.1,734.6,247.9z M742.3,246.5c0.2-1.4-0.9-2.5-2.6-2.5
				c-1.5,0-2.8,0.8-3.1,2.5H742.3z"/>
			<path class="st4" d="M744.9,242.8h1.9l3.4,7.8l3.3-7.8h1.8l-4.6,10.4h-1.2L744.9,242.8z"/>
			<path class="st4" d="M755.9,247.9c0-3.3,2.5-5.4,5-5.4c2.6,0,4.4,1.7,4.4,4c0,0.4-0.1,0.8-0.1,1.2h-7.5c-0.1,1.8,0.7,4.2,4,4.2
				c1.2,0,2.6-0.6,3.4-1.3v1.6c-1,0.8-2.5,1.2-4,1.2C758.1,253.5,755.9,251.1,755.9,247.9z M763.6,246.5c0.2-1.4-0.9-2.5-2.6-2.5
				c-1.5,0-2.8,0.8-3.1,2.5H763.6z"/>
			<path class="st4" d="M767.9,242.8h1.6l0.1,2c0.7-1.3,2.3-2.3,4-2.3v2c-2-0.4-3.9,0.8-3.9,2.5v6.2h-1.8V242.8z"/>
			<path class="st4" d="M780.1,238.8h1.9v14.4h-1.9V238.8z"/>
			<path class="st4" d="M522.8,278.8h1.6l0.1,2c0.8-1.2,2.3-2.3,4-2.3c2.8,0,3.7,1.9,3.7,4.5v6.2h-1.8v-6c0-2.3-0.9-3.1-2.4-3.1
				c-1.5,0-3.4,1.3-3.4,3v6.1h-1.8V278.8z"/>
			<path class="st4" d="M534.7,283.9c0-3.3,2.5-5.4,5-5.4c2.6,0,4.4,1.7,4.4,4c0,0.4-0.1,0.8-0.1,1.2h-7.5c-0.1,1.8,0.7,4.2,4,4.2
				c1.2,0,2.6-0.6,3.4-1.3v1.6c-1,0.8-2.5,1.2-4,1.2C536.9,289.5,534.7,287.1,534.7,283.9z M542.4,282.5c0.2-1.4-0.9-2.5-2.6-2.5
				c-1.5,0-2.8,0.8-3.1,2.5H542.4z"/>
			<path class="st4" d="M546.1,283.9c0-3.3,2.5-5.4,5-5.4c2.6,0,4.4,1.7,4.4,4c0,0.4-0.1,0.8-0.1,1.2h-7.5c-0.1,1.8,0.7,4.2,4,4.2
				c1.2,0,2.6-0.6,3.4-1.3v1.6c-1,0.8-2.5,1.2-4,1.2C548.2,289.5,546.1,287.1,546.1,283.9z M553.8,282.5c0.2-1.4-0.9-2.5-2.6-2.5
				c-1.5,0-2.8,0.8-3.1,2.5H553.8z"/>
			<path class="st4" d="M557.4,284c0-3,2.1-5.5,4.9-5.5c1.6,0,3,0.7,3.9,1.9v-5.7h1.8v14.4h-1.6l-0.1-1.9c-0.9,1.3-2.4,2.2-4.1,2.2
				C559.5,289.5,557.4,287,557.4,284z M566.4,284c0-2.5-1.6-4-3.6-4c-2,0-3.6,1.5-3.6,4s1.6,4,3.6,4
				C564.8,288,566.4,286.5,566.4,284z"/>
			<path class="st4" d="M575.7,274.8h1.8v5.8c0.9-1.1,2.2-2.1,3.9-2.1c2.8,0,3.7,1.9,3.7,4.5v6.2h-1.8v-6c0-2.3-0.9-3.1-2.4-3.1
				c-1.5,0-3.4,1.3-3.4,3v6.1h-1.8V274.8z"/>
			<path class="st4" d="M587.6,283.9c0-3.3,2.5-5.4,5-5.4c2.6,0,4.4,1.7,4.4,4c0,0.4-0.1,0.8-0.1,1.2h-7.5c-0.1,1.8,0.7,4.2,4,4.2
				c1.2,0,2.6-0.6,3.4-1.3v1.6c-1,0.8-2.5,1.2-4,1.2C589.7,289.5,587.6,287.1,587.6,283.9z M595.3,282.5c0.2-1.4-0.9-2.5-2.6-2.5
				c-1.5,0-2.8,0.8-3.1,2.5H595.3z"/>
			<path class="st4" d="M599.5,274.8h1.8v14.4h-1.8V274.8z"/>
			<path class="st4" d="M604.3,278.8h1.6l0.1,1.9c0.9-1.3,2.4-2.2,4.1-2.2c2.9,0,4.9,2.4,4.9,5.5s-2.1,5.5-4.9,5.5
				c-1.6,0-3-0.7-3.9-1.9v6.3h-1.8V278.8z M613.2,284c0-2.5-1.6-4-3.6-4c-2,0-3.6,1.5-3.6,4s1.6,4,3.6,4
				C611.6,288,613.2,286.5,613.2,284z"/>
			<path class="st4" d="M617.5,274.8h2.3l-0.6,10.6h-1.1L617.5,274.8z M617.6,287.1h2.1v2.1h-2.1V287.1z"/>
		</g>
	</g>
	<g>
		<polygon class="st2" points="451.2,504.5 432.2,514.5 435.8,493.3 420.5,478.4 441.7,475.3 451.2,456.1 460.7,475.3 481.9,478.4 
			466.5,493.3 470.1,514.5 		"/>
		<polygon class="st5" points="451.2,501.5 432.2,511.5 435.8,490.3 420.5,475.4 441.7,472.3 451.2,453.1 460.7,472.3 481.9,475.4 
			466.5,490.3 470.1,511.5 		"/>
		<polygon class="st6" points="440.9,489.3 430.7,479.3 444.8,477.2 451.2,464.4 457.5,477.2 471.7,479.3 461.4,489.3 463.8,503.4 
			451.2,496.7 438.5,503.4 		"/>
		<polygon class="st2" points="521.5,504.5 502.5,514.5 506.1,493.3 490.8,478.4 512,475.3 521.5,456.1 531,475.3 552.2,478.4 
			536.8,493.3 540.5,514.5 		"/>
		<polygon class="st5" points="521.5,501.5 502.5,511.5 506.1,490.3 490.8,475.4 512,472.3 521.5,453.1 531,472.3 552.2,475.4 
			536.8,490.3 540.5,511.5 		"/>
		<polygon class="st6" points="511.2,489.3 501,479.3 515.2,477.2 521.5,464.4 527.8,477.2 542,479.3 531.7,489.3 534.2,503.4 
			521.5,496.7 508.8,503.4 		"/>
		<polygon class="st2" points="591.8,504.5 572.8,514.5 576.5,493.3 561.1,478.4 582.3,475.3 591.8,456.1 601.3,475.3 622.5,478.4 
			607.2,493.3 610.8,514.5 		"/>
		<polygon class="st5" points="591.8,501.5 572.8,511.5 576.5,490.3 561.1,475.4 582.3,472.3 591.8,453.1 601.3,472.3 622.5,475.4 
			607.2,490.3 610.8,511.5 		"/>
		<polygon class="st6" points="581.6,489.3 571.3,479.3 585.5,477.2 591.8,464.4 598.2,477.2 612.3,479.3 602.1,489.3 604.5,503.4 
			591.8,496.7 579.2,503.4 		"/>
		<polygon class="st2" points="662.1,504.5 643.2,514.5 646.8,493.3 631.4,478.4 652.7,475.3 662.1,456.1 671.6,475.3 692.8,478.4 
			677.5,493.3 681.1,514.5 		"/>
		<polygon class="st5" points="662.1,501.5 643.2,511.5 646.8,490.3 631.4,475.4 652.7,472.3 662.1,453.1 671.6,472.3 692.8,475.4 
			677.5,490.3 681.1,511.5 		"/>
		<polygon class="st6" points="651.9,489.3 641.7,479.3 655.8,477.2 662.1,464.4 668.5,477.2 682.6,479.3 672.4,489.3 674.8,503.4 
			662.1,496.7 649.5,503.4 		"/>
		<polygon class="st2" points="732.5,504.5 713.5,514.5 717.1,493.3 701.8,478.4 723,475.3 732.5,456.1 742,475.3 763.2,478.4 
			747.8,493.3 751.4,514.5 		"/>
		<polygon class="st5" points="732.5,501.5 713.5,511.5 717.1,490.3 701.8,475.4 723,472.3 732.5,453.1 742,472.3 763.2,475.4 
			747.8,490.3 751.4,511.5 		"/>
		<polygon class="st6" points="722.2,489.3 712,479.3 726.1,477.2 732.5,464.4 738.8,477.2 753,479.3 742.7,489.3 745.1,503.4 
			732.5,496.7 719.8,503.4 		"/>
	</g>
	<g>
		<path class="st7" d="M201.4,445.1c0,0-20.7-29-3.9-66.1c15.9-35.1,38.6-31,38.6-31s23.3-34.2,68.6-17.7s50.9,81.6,44.1,103.5
			c-17,55.2-9.6,28.3-9.6,28.3s-101.9-2.1-135.5-5C205.3,445.5,201.4,445.1,201.4,445.1z"/>
		<path class="st8" d="M268.4,547.5c-4.2,0-8.1,0.3-11.8,0.9c-10.6,12.8-23.1,34.2-25.8,66.2h108.5
			C339.2,614.6,331.2,547.5,268.4,547.5z"/>
		<path class="st9" d="M197.5,614.6h33.2c2.7-32,15.2-53.4,25.8-66.2C204.5,556.1,197.5,614.6,197.5,614.6z"/>
		<g>
			<defs>
				<path id="SVGID_1_" d="M285.5,511c0,0-8,27.6,0,43.3c0,0,3.3,13.2-12.9,13.2c-20.8,0-22-13.3-21.3-13.2c8-15.7,0-43.3,0-43.3
					l21.3-11.9L285.5,511z"/>
			</defs>
			<use xlink:href="#SVGID_1_"  style="overflow:visible;fill:#FFCAAD;"/>
			<clipPath id="SVGID_2_">
				<use xlink:href="#SVGID_1_"  style="overflow:visible;"/>
			</clipPath>
			<path class="st10" d="M220,397.6c0,0-32.7,140.5,93.8,119.7c126.5-20.8-90.8,37.4-90.8,37.4l-59-65v-75.1l33.5-25.3L220,397.6z"
				/>
		</g>
		<g>
			<defs>
				<ellipse id="SVGID_3_" cx="203.8" cy="454.2" rx="15.3" ry="17.4"/>
			</defs>
			<defs>
				<ellipse id="SVGID_4_" cx="336.3" cy="454.2" rx="15.3" ry="17.4"/>
			</defs>
			<use xlink:href="#SVGID_3_"  style="overflow:visible;fill:#FFCAAD;"/>
			<use xlink:href="#SVGID_4_"  style="overflow:visible;fill:#FFCAAD;"/>
			<clipPath id="SVGID_5_">
				<use xlink:href="#SVGID_3_"  style="overflow:visible;"/>
			</clipPath>
			<clipPath id="SVGID_6_" class="st11">
				<use xlink:href="#SVGID_4_"  style="overflow:visible;"/>
			</clipPath>
			<path class="st12" d="M220,403.6c0,0-32.7,140.5,93.8,119.7c126.5-20.8-90.8,37.4-90.8,37.4l-59-65v-75.1l33.5-25.3L220,403.6z"
				/>
		</g>
		<g>
			<defs>
				<path id="SVGID_7_" d="M268.5,509.4c54.1,2.2,64.4-41.5,67-98.6c-2.7-17.7-11.8-34.1-26.1-45.3c-0.6-0.5-1.3-1-2-1.5
					c-26.3-19.5-63.9-13.3-82.3,13.9c-2.4,3.5-4.6,7.3-6.6,11.4c-4.3,8.8-7,18.1-8.4,27.7C213.7,456.3,226.6,507.7,268.5,509.4z"/>
			</defs>
			<use xlink:href="#SVGID_7_"  style="overflow:visible;fill:#FFDAC6;"/>
			<clipPath id="SVGID_8_">
				<use xlink:href="#SVGID_7_"  style="overflow:visible;"/>
			</clipPath>
			<path class="st13" d="M221.2,384.1c0,0-44.7,162.6,92.6,139.2c126.4-21.5-90.8,37.4-90.8,37.4l-59-65v-75.1l33.5-25.3
				L221.2,384.1z"/>
		</g>
		<path class="st14" d="M269.8,464.3c-41.9,0.6-56-8-59.8-47.4c-0.7,4.9-1.1,9.8-1.1,14.8v34.7c0,35.2,28.5,79.3,63.7,79.3h0
			c35.2,0,63.7-44.1,63.7-79.3v-44.3c0-3.8-0.3-7.6-0.9-11.3C327.2,454.2,324,463.5,269.8,464.3z"/>
		<path class="st15" d="M249.6,430.5c0,4.3-2.4,7.8-5.3,7.8c-2.9,0-5.3-3.5-5.3-7.8c0-4.3,2.4-7.8,5.3-7.8
			C247.3,422.7,249.6,426.2,249.6,430.5z M297.5,422.7c-2.9,0-5.3,3.5-5.3,7.8c0,4.3,2.4,7.8,5.3,7.8s5.3-3.5,5.3-7.8
			C302.8,426.2,300.4,422.7,297.5,422.7z"/>
		<path class="st16" d="M234.2,411.3c0,0,3-6.4,12.6-9.3"/>
		<path class="st16" d="M297.5,402.8c0,0,6.4-0.4,12.3,7.6"/>
		<g>
			<defs>
				<path id="XMLID_153_" d="M255.9,471.7c0,0,16.2,7.2,36.7-1.3c0,0-2,24.2-16.3,25.8C259.8,498,255.9,471.7,255.9,471.7z"/>
			</defs>
			<use xlink:href="#XMLID_153_"  style="overflow:visible;fill:#2E0707;"/>
			<clipPath id="XMLID_5_">
				<use xlink:href="#XMLID_153_"  style="overflow:visible;"/>
			</clipPath>
			<path class="st17" d="M255.3,496.5c0,0,1.1-8.7,15.4-10.3c14.3-1.6,19.2,8.6,19.2,8.6l-18.3,11.8L255.3,496.5z"/>
		</g>
		<g>
			<g>
				<g>
					<path class="st18" d="M265.1,456.4c4.9,1,9.9,1,14.7,0.1c0.6-0.1,1.2-0.3,1.8-0.4l0.4-0.1l0.2-0.1l0.4-0.1l0.4-0.2l0.2-0.1
						l0.1,0c0,0,0-0.1,0-0.1l-0.4-0.8l-0.1-0.2l-0.1-0.3l-0.4-0.9l-0.8-1.7l-1.6-3.5l-12.5-27.8c-0.7-1.5,4.4-3.6,4.9-2l10.9,28.5
						l2.9,7.5c0.4,0.9,0.7,1.8,0.9,2.7c0,0.1,0.1,0.2,0.1,0.3l-0.3,0.1l-0.7,0.2c-0.4,0.2-0.9,0.3-1.3,0.5l-1.4,0.4l-0.7,0.2
						l-0.5,0.1c-0.7,0.1-1.3,0.2-2,0.3c-5.2,0.7-10.5,0.3-15.5-1C262.5,457.6,262.9,456,265.1,456.4z"/>
				</g>
			</g>
		</g>
	</g>
</g>
</svg>
