<?xml version="1.0" encoding="utf-8"?>
<!-- Generator: Adobe Illustrator 24.0.2, SVG Export Plug-In . SVG Version: 6.00 Build 0)  -->
<svg version="1.1" id="Layer_1" xmlns="http://www.w3.org/2000/svg" xmlns:xlink="http://www.w3.org/1999/xlink" x="0px" y="0px"
	 viewBox="0 0 768 692" style="enable-background:new 0 0 768 692;" xml:space="preserve">
<style type="text/css">
	.st0{fill:#F2FBFF;}
	.st1{fill:#D3F0FE;}
	.st2{fill:#250101;}
	.st3{fill:#9FDDB3;}
	.st4{fill:#96D1B4;}
	.st5{fill:#AD3B48;}
	.st6{opacity:0.4;clip-path:url(#SVGID_2_);fill:#0D072E;enable-background:new    ;}
	.st7{opacity:0.4;clip-path:url(#SVGID_4_);}
	.st8{fill:#392F73;}
	.st9{fill:#C75161;}
	.st10{opacity:0.4;clip-path:url(#SVGID_6_);}
	.st11{fill:#170F21;}
	.st12{fill:none;stroke:#170F21;stroke-width:8.4729;stroke-linejoin:round;stroke-miterlimit:10;}
	.st13{fill:#6B1111;}
	.st14{clip-path:url(#SVGID_8_);fill:#FFCEF5;}
	.st15{fill:#A42634;}
	.st16{opacity:0.3;fill:#B9E0FE;enable-background:new    ;}
	.st17{fill:#FFFFFF;}
	.st18{fill:#FAE47F;}
</style>
<g>
	<path class="st0" d="M735.1,73c-5.7-16.6-14.5-31.9-23.3-47.1c-1.5-2.6-3-5.3-4.6-7.9c-24.5,0-50.4,0.1-77.1,0.1
		c6.4,2.1,12.4,5.1,17.7,9.5c8,6.6,13.3,15.8,18.5,24.8c7.6,13.1,15.2,26.3,20.1,40.5c20.2,58.6-8.2,122.3-6.9,184.3
		c0.6,30.2,8.4,60.7,2.7,90.4c-9.1,48.1-52.3,83.6-98.8,98.1c-60.8,19-121.1,1.1-181.9,10.4c-54,8.3-120.4,18.4-174.6,8.5
		c-31.1-5.7-60.4-20.8-83.3-42.6c-26.6-25.3-9.9-49.3-11.3-82.3c-1.4-34.3-26-62.4-40.7-93.4c-15.2-32.1-19.7-69.9-8.3-103.6
		c6.5-19.1,17.6-36.1,28.9-52.8c21.7-32.1,44.7-64.1,72-91.4c-21.1,0-41.6,0-61,0C103.4,42,85.6,67.3,68.5,92.6
		c-13.1,19.4-26.1,39.2-33.6,61.3c-13.3,39-8,82.9,9.6,120.2c17,36,45.6,68.6,47.2,108.4c1.6,38.3-17.8,66.1,13.1,95.5
		c26.5,25.2,60.5,42.8,96.6,49.4c63,11.6,140-0.2,202.7-9.8c70.5-10.8,140.5,10,211.1-12.1c53.9-16.9,104.1-58.1,115-113.6
		c6.6-34.4-2.4-69.8-3.1-104.9C725.6,215,758.5,141.1,735.1,73z"/>
	<path class="st1" d="M184.1,18.5c-27.3,27.3-50.3,59.3-72,91.4c-11.3,16.7-22.4,33.7-28.9,52.8c-11.4,33.7-6.9,71.5,8.3,103.6
		c14.7,31,39.3,59.1,40.7,93.4c1.4,33-15.3,57,11.3,82.3c22.9,21.8,52.2,36.9,83.3,42.6c54.2,9.9,120.6-0.2,174.6-8.5
		c60.8-9.3,121.1,8.6,181.9-10.4c46.5-14.5,89.7-50,98.8-98.1c5.7-29.7-2.1-60.2-2.7-90.4c-1.3-62,27.1-125.7,6.9-184.3
		c-4.9-14.2-12.5-27.4-20.1-40.5c-5.2-9-10.5-18.2-18.5-24.8c-5.2-4.3-11.2-7.3-17.7-9.5C488.7,18.3,321.3,18.5,184.1,18.5z"/>
	<g>
		<path class="st2" d="M128.1,331.9l-7.3-52.4c0,0-24.8-14.2-7.6-41.3c0,0-6.1-43.9,37-36c0,0,7-32.9,37.5-16.5
			c0,0,15.6-17.2,35.1-1.4c0,0,21.7-22.8,39.4-5.2c0,0,26.7-19.5,33.9,21c0,0,15.4-2.1,18.5,31.5c0,0,23,9.9,7.2,34.9L303.3,337
			L128.1,331.9z"/>
		<path class="st3" d="M213.9,457.3c-5.1,0-9.8,0.4-14.3,1c-12.9,15.5-27.9,41.4-31.2,80.1h131.3C299.7,538.5,290,457.3,213.9,457.3
			z"/>
		<path class="st4" d="M128.1,538.5h40.2c3.3-38.8,18.4-64.7,31.2-80.1C136.6,467.7,128.1,538.5,128.1,538.5z"/>
		<g>
			<g>
				<path id="SVGID_9_" class="st5" d="M234.6,413.1c0,0-9.7,33.4,0,52.4c0,0,3.9,15.9-15.6,15.9c-25.2,0-26.7-16-25.8-15.9
					c9.7-19,0-52.4,0-52.4l25.8-14.4L234.6,413.1z"/>
			</g>
			<g>
				<defs>
					<path id="SVGID_1_" d="M234.6,413.1c0,0-9.7,33.4,0,52.4c0,0,3.9,15.9-15.6,15.9c-25.2,0-26.7-16-25.8-15.9
						c9.7-19,0-52.4,0-52.4l25.8-14.4L234.6,413.1z"/>
				</defs>
				<clipPath id="SVGID_2_">
					<use xlink:href="#SVGID_1_"  style="overflow:visible;"/>
				</clipPath>
				<path class="st6" d="M155.3,275.9c0,0-39.6,170.1,113.6,144.9s-110,45.2-110,45.2l-71.4-78.6v-90.9l40.6-30.6L155.3,275.9z"/>
			</g>
		</g>
		<g>
			<g>
				<g>
					<path id="XMLID_16_" class="st5" d="M150.2,337.1c0,11.6-8.3,21-18.5,21s-18.5-9.4-18.5-21s8.3-21,18.5-21
						S150.2,325.5,150.2,337.1z M296.1,316.1c-10.2,0-18.5,9.4-18.5,21s8.3,21,18.5,21s18.5-9.4,18.5-21S306.4,316.1,296.1,316.1z"
						/>
				</g>
				<g>
					<defs>
						<path id="SVGID_3_" d="M150.2,337.1c0,11.6-8.3,21-18.5,21s-18.5-9.4-18.5-21s8.3-21,18.5-21S150.2,325.5,150.2,337.1z
							 M296.1,316.1c-10.2,0-18.5,9.4-18.5,21s8.3,21,18.5,21s18.5-9.4,18.5-21S306.4,316.1,296.1,316.1z"/>
					</defs>
					<clipPath id="SVGID_4_">
						<use xlink:href="#SVGID_3_"  style="overflow:visible;"/>
					</clipPath>
					<g class="st7">
						<path class="st8" d="M155.3,275.9c0,0-39.6,170.1,113.6,144.9s-110,45.2-110,45.2l-71.4-78.6v-90.9l40.6-30.6L155.3,275.9z"/>
					</g>
				</g>
			</g>
		</g>
		<g>
			<g>
				<g>
					<path id="SVGID_13_" class="st9" d="M142,295.4v56.4c0,42.6,34.5,77.1,77.1,77.1l0,0c42.6,0,77.1-34.5,77.1-77.1v-66.7
						c0,0,0-57.6-84.1-56.1C212.1,229,142,211.9,142,295.4z"/>
				</g>
				<g>
					<defs>
						<path id="SVGID_5_" d="M142,295.4v56.4c0,42.6,34.5,77.1,77.1,77.1l0,0c42.6,0,77.1-34.5,77.1-77.1v-66.7
							c0,0,0-57.6-84.1-56.1C212.1,229,142,211.9,142,295.4z"/>
					</defs>
					<clipPath id="SVGID_6_">
						<use xlink:href="#SVGID_5_"  style="overflow:visible;"/>
					</clipPath>
					<g class="st10">
						<path class="st8" d="M159.9,233.8c0,0-63.8,216.2,109,187c153-25.8-110,45.2-110,45.2l-71.4-78.6v-90.9l40.6-30.6L159.9,233.8
							z"/>
					</g>
				</g>
			</g>
		</g>
		<path class="st11" d="M191.2,308.4c0,5.2-2.9,9.4-6.4,9.4s-6.4-4.2-6.4-9.4s2.9-9.4,6.4-9.4C188.4,299,191.2,303.2,191.2,308.4z
			 M249.2,299c-3.5,0-6.4,4.2-6.4,9.4s2.9,9.4,6.4,9.4s6.4-4.2,6.4-9.4C255.5,303.2,252.7,299,249.2,299z"/>
		<path class="st12" d="M175.9,290.8c0,0,3.7-7.7,15.2-11.3"/>
		<path class="st12" d="M247.3,279.5c0,0,7.7-0.5,14.9,9.2"/>
		<g>
			<g>
				<path id="XMLID_202_" class="st13" d="M187.7,353.6c0,0,17.5,12.4,43.9,7.2c0,0-5,34.5-22.3,32.9
					C189.3,391.9,187.7,353.6,187.7,353.6z"/>
			</g>
			<g>
				<defs>
					<path id="SVGID_7_" d="M187.7,353.6c0,0,17.5,12.4,43.9,7.2c0,0-5,34.5-22.3,32.9C189.3,391.9,187.7,353.6,187.7,353.6z"/>
				</defs>
				<clipPath id="SVGID_8_">
					<use xlink:href="#SVGID_7_"  style="overflow:visible;"/>
				</clipPath>
				<path class="st14" d="M187.7,384.7c0,0,3.4-10.1,20.8-8.6s20.8,14.8,20.8,14.8l-24.6,9.6L187.7,384.7z"/>
			</g>
		</g>
		<g>
			<g>
				<g>
					<path class="st15" d="M215.2,287.1l2.6,18.5l1.3,9.3l0.6,4.6l0.3,1.7l0.1,0.5v0.3v0.1v0.1h0.1c0.3-0.2,0.7-0.3,1-0.5
						c0.1,0,0.1,0,0.3-0.1l0.6-0.2c0.4-0.1,0.8-0.3,1.2-0.4c1.6-0.5,3.4-0.8,5.2-0.8s3.6,0.3,5.3,1.1c1.7,0.7,3.2,2,4.4,3.4
						c2.3,2.9,3.4,6.3,4,9.6s0.8,6.9-0.2,10.4c-0.5,1.7-1.3,3.5-2.4,5c-1.1,1.5-2.6,2.8-4.2,3.7c-3.3,1.9-7,2.4-10.4,2.3
						c-7-0.3-13.4-2.8-19.4-5.7c-2.9-1.5-0.3-5.8,2.2-4.3c5.5,3,11.4,5.3,17.3,5.7c2.9,0.2,5.9-0.2,8.3-1.5c2.4-1.3,4.1-3.5,4.9-6.2
						c0.8-2.7,0.8-5.8,0.4-8.8c-0.5-3-1.4-6-3.1-8.2c-1.7-2.3-4.3-3.5-7.2-3.5c-1.4,0-2.9,0.2-4.4,0.6c-0.4,0.1-0.7,0.2-1.1,0.3
						l-0.5,0.2c-0.2,0.1-0.6,0.2-0.8,0.3c-1.2,0.5-2.4,1.2-3.6,1.8l-0.1-0.1c0,0,0-0.1,0-0.2l-0.1-0.5l-0.1-0.9l-0.2-1.8l-0.3-2.9
						l-0.5-4.6l-1-9.3l-2.1-18.6C213.2,283.2,214.6,283,215.2,287.1z"/>
				</g>
			</g>
		</g>
	</g>
	<polygon class="st16" points="0,25.9 0,59 182,59 217.3,125.5 252.5,59 770.6,59 770.6,25.9 	"/>
	<g>
		<polygon class="st16" points="392.7,378.1 376.7,386.5 379.7,368.8 366.8,356.2 384.7,353.6 392.7,337.4 400.6,353.6 418.5,356.2 
			405.6,368.8 408.6,386.5 		"/>
		<polygon class="st17" points="392.7,375.6 376.7,384 379.7,366.2 366.8,353.6 384.7,351 392.7,334.9 400.6,351 418.5,353.6 
			405.6,366.2 408.6,384 		"/>
		<polygon class="st18" points="384,365.3 375.4,356.9 387.3,355.2 392.7,344.4 398,355.2 409.9,356.9 401.3,365.3 403.3,377.2 
			392.7,371.6 382,377.2 		"/>
		<polygon class="st16" points="451.8,378.1 435.9,386.5 438.9,368.8 426,356.2 443.8,353.6 451.8,337.4 459.8,353.6 477.7,356.2 
			464.7,368.8 467.8,386.5 		"/>
		<polygon class="st17" points="451.8,375.6 435.9,384 438.9,366.2 426,353.6 443.8,351 451.8,334.9 459.8,351 477.7,353.6 
			464.7,366.2 467.8,384 		"/>
		<polygon class="st18" points="443.2,365.3 434.6,356.9 446.5,355.2 451.8,344.4 457.2,355.2 469.1,356.9 460.5,365.3 462.5,377.2 
			451.8,371.6 441.2,377.2 		"/>
		<polygon class="st16" points="511,378.1 495,386.5 498.1,368.8 485.2,356.2 503,353.6 511,337.4 519,353.6 536.8,356.2 
			523.9,368.8 527,386.5 		"/>
		<polygon class="st17" points="511,375.6 495,384 498.1,366.2 485.2,353.6 503,351 511,334.9 519,351 536.8,353.6 523.9,366.2 
			527,384 		"/>
		<polygon class="st18" points="502.4,365.3 493.8,356.9 505.7,355.2 511,344.4 516.3,355.2 528.2,356.9 519.6,365.3 521.7,377.2 
			511,371.6 500.3,377.2 		"/>
		<polygon class="st16" points="570.2,378.1 554.2,386.5 557.3,368.8 544.3,356.2 562.2,353.6 570.2,337.4 578.2,353.6 596,356.2 
			583.1,368.8 586.1,386.5 		"/>
		<polygon class="st17" points="570.2,375.6 554.2,384 557.3,366.2 544.3,353.6 562.2,351 570.2,334.9 578.2,351 596,353.6 
			583.1,366.2 586.1,384 		"/>
		<polygon class="st18" points="561.6,365.3 552.9,356.9 564.8,355.2 570.2,344.4 575.5,355.2 587.4,356.9 578.8,365.3 580.8,377.2 
			570.2,371.6 559.5,377.2 		"/>
		<polygon class="st16" points="629.3,378.1 613.4,386.5 616.4,368.8 603.5,356.2 621.4,353.6 629.3,337.4 637.3,353.6 655.2,356.2 
			642.3,368.8 645.3,386.5 		"/>
		<polygon class="st17" points="629.3,375.6 613.4,384 616.4,366.2 603.5,353.6 621.4,351 629.3,334.9 637.3,351 655.2,353.6 
			642.3,366.2 645.3,384 		"/>
		<polygon class="st18" points="620.7,365.3 612.1,356.9 624,355.2 629.3,344.4 634.7,355.2 646.6,356.9 638,365.3 640,377.2 
			629.3,371.6 618.7,377.2 		"/>
	</g>
	<polygon class="st17" points="0,0 0,50 182,50 217.3,111.1 252.5,50 770.6,50 770.6,0 	"/>
</g>
</svg>
