<?xml version="1.0" encoding="utf-8"?>
<!-- Generator: Adobe Illustrator 24.0.2, SVG Export Plug-In . SVG Version: 6.00 Build 0)  -->
<svg version="1.1" id="Layer_1" xmlns="http://www.w3.org/2000/svg" xmlns:xlink="http://www.w3.org/1999/xlink" x="0px" y="0px"
	 viewBox="0 0 768 692" style="enable-background:new 0 0 768 692;" xml:space="preserve">
<style type="text/css">
	.st0{fill:#F2FBFF;}
	.st1{fill:#D3F0FE;}
	.st2{opacity:0.3;fill:#B9E0FE;enable-background:new    ;}
	.st3{fill:#FFFFFF;}
	.st4{fill:#FAE47F;}
	.st5{fill:#875044;}
	.st6{fill:#9BADDD;}
	.st7{fill:#7E98DD;}
	.st8{fill:#FFCAAD;}
	.st9{opacity:0.4;clip-path:url(#SVGID_5_);fill:#A11D30;enable-background:new    ;}
	.st10{clip-path:url(#SVGID_11_);}
	.st11{opacity:0.4;clip-path:url(#SVGID_12_);fill:#A11D30;enable-background:new    ;}
	.st12{fill:#FFDAC6;}
	.st13{opacity:0.4;clip-path:url(#SVGID_14_);fill:#A11D30;enable-background:new    ;}
	.st14{fill:#B56B5B;}
	.st15{fill:#170F21;}
	.st16{fill:none;stroke:#875044;stroke-width:9.9451;stroke-linejoin:round;stroke-miterlimit:10;}
	.st17{fill:#2E0707;}
	.st18{clip-path:url(#SVGID_16_);fill:#FFCEF5;}
	.st19{fill:#D17964;}
</style>
<path class="st0" d="M735.1,73c-5.7-16.6-14.5-31.9-23.3-47.1c-1.5-2.6-3-5.3-4.6-7.9c-24.5,0-50.4,0.1-77.1,0.1
	c6.4,2.1,12.4,5.1,17.7,9.5c8,6.6,13.3,15.8,18.5,24.8c7.6,13.1,15.2,26.3,20.1,40.5c20.2,58.6-8.2,122.3-6.9,184.3
	c0.6,30.2,8.4,60.7,2.7,90.4c-9.1,48.1-52.3,83.6-98.8,98.1c-60.8,19-121.1,1.1-181.9,10.4c-54,8.3-120.4,18.4-174.6,8.5
	c-31.1-5.7-60.4-20.8-83.3-42.6c-26.6-25.3-9.9-49.3-11.3-82.3c-1.4-34.3-26-62.4-40.7-93.4c-15.2-32.1-19.7-69.9-8.3-103.6
	c6.5-19.1,17.6-36.1,28.9-52.8c21.7-32.1,44.7-64.1,72-91.4c-21.1,0-41.6,0-61,0C103.4,42,85.6,67.3,68.5,92.6
	c-13.1,19.4-26.1,39.2-33.6,61.3c-13.3,39-8,82.9,9.6,120.2c17,36,45.6,68.6,47.2,108.4c1.6,38.3-17.8,66.1,13.1,95.5
	c26.5,25.2,60.5,42.8,96.6,49.4c63,11.6,140-0.2,202.7-9.8c70.5-10.8,140.5,10,211.1-12.1c53.9-16.9,104.1-58.1,115-113.6
	c6.6-34.4-2.4-69.8-3.1-104.9C725.6,215,758.5,141.1,735.1,73z"/>
<path class="st1" d="M184.1,18.5c-27.3,27.3-50.3,59.3-72,91.4c-11.3,16.7-22.4,33.7-28.9,52.8c-11.4,33.7-6.9,71.5,8.3,103.6
	c14.7,31,39.3,59.1,40.7,93.4c1.4,33-15.3,57,11.3,82.3c22.9,21.8,52.2,36.9,83.3,42.6c54.2,9.9,120.6-0.2,174.6-8.5
	c60.8-9.3,121.1,8.6,181.9-10.4c46.5-14.5,89.7-50,98.8-98.1c5.7-29.7-2.1-60.2-2.7-90.4c-1.3-62,27.1-125.7,6.9-184.3
	c-4.9-14.2-12.5-27.4-20.1-40.5c-5.2-9-10.5-18.2-18.5-24.8c-5.2-4.3-11.2-7.3-17.7-9.5C488.7,18.3,321.3,18.5,184.1,18.5z"/>
<polygon class="st2" points="0,25.9 0,59 182,59 217.3,125.5 252.5,59 770.6,59 770.6,25.9 "/>
<polygon class="st3" points="0,0 0,50 182,50 217.3,111.1 252.5,50 770.6,50 770.6,0 "/>
<g>
	<polygon class="st2" points="391.3,378.1 375.4,386.5 378.4,368.8 365.5,356.2 383.4,353.6 391.3,337.4 399.3,353.6 417.2,356.2 
		404.3,368.8 407.3,386.5 	"/>
	<polygon class="st3" points="391.3,375.6 375.4,384 378.4,366.2 365.5,353.6 383.4,351 391.3,334.9 399.3,351 417.2,353.6 
		404.3,366.2 407.3,384 	"/>
	<polygon class="st4" points="382.7,365.3 374.1,356.9 386,355.2 391.3,344.4 396.7,355.2 408.6,356.9 400,365.3 402,377.2 
		391.3,371.6 380.7,377.2 	"/>
	<polygon class="st2" points="450.5,378.1 434.5,386.5 437.6,368.8 424.7,356.2 442.5,353.6 450.5,337.4 458.5,353.6 476.3,356.2 
		463.4,368.8 466.5,386.5 	"/>
	<polygon class="st3" points="450.5,375.6 434.5,384 437.6,366.2 424.7,353.6 442.5,351 450.5,334.9 458.5,351 476.3,353.6 
		463.4,366.2 466.5,384 	"/>
	<polygon class="st4" points="441.9,365.3 433.3,356.9 445.2,355.2 450.5,344.4 455.8,355.2 467.7,356.9 459.1,365.3 461.2,377.2 
		450.5,371.6 439.9,377.2 	"/>
	<polygon class="st2" points="509.7,378.1 493.7,386.5 496.8,368.8 483.8,356.2 501.7,353.6 509.7,337.4 517.7,353.6 535.5,356.2 
		522.6,368.8 525.6,386.5 	"/>
	<polygon class="st3" points="509.7,375.6 493.7,384 496.8,366.2 483.8,353.6 501.7,351 509.7,334.9 517.7,351 535.5,353.6 
		522.6,366.2 525.6,384 	"/>
	<polygon class="st4" points="501.1,365.3 492.4,356.9 504.4,355.2 509.7,344.4 515,355.2 526.9,356.9 518.3,365.3 520.3,377.2 
		509.7,371.6 499,377.2 	"/>
	<polygon class="st2" points="568.8,378.1 552.9,386.5 555.9,368.8 543,356.2 560.9,353.6 568.8,337.4 576.8,353.6 594.7,356.2 
		581.8,368.8 584.8,386.5 	"/>
	<polygon class="st3" points="568.8,375.6 552.9,384 555.9,366.2 543,353.6 560.9,351 568.8,334.9 576.8,351 594.7,353.6 
		581.8,366.2 584.8,384 	"/>
	<polygon class="st4" points="560.2,365.3 551.6,356.9 563.5,355.2 568.8,344.4 574.2,355.2 586.1,356.9 577.5,365.3 579.5,377.2 
		568.8,371.6 558.2,377.2 	"/>
	<polygon class="st2" points="628,378.1 612.1,386.5 615.1,368.8 602.2,356.2 620,353.6 628,337.4 636,353.6 653.9,356.2 
		640.9,368.8 644,386.5 	"/>
	<polygon class="st3" points="628,375.6 612.1,384 615.1,366.2 602.2,353.6 620,351 628,334.9 636,351 653.9,353.6 640.9,366.2 
		644,384 	"/>
	<polygon class="st4" points="619.4,365.3 610.8,356.9 622.7,355.2 628,344.4 633.3,355.2 645.3,356.9 636.6,365.3 638.7,377.2 
		628,371.6 617.4,377.2 	"/>
</g>
<g>
	<path class="st5" d="M130.6,329.2c0,0-25.7-36.1-4.8-82.2c19.7-43.7,48-38.5,48-38.5s29-42.5,85.3-22S322.3,288,314,315.1
		c-21.1,68.6-11.9,35.2-11.9,35.2s-126.7-2.6-168.4-6.2C135.4,329.7,130.6,329.2,130.6,329.2z"/>
	<path class="st6" d="M213.8,456.5c-5.2,0-10.1,0.4-14.7,1.1c-13.2,15.9-28.7,42.5-32.1,82.3h135C302,539.9,292,456.5,213.8,456.5z"
		/>
	<path class="st7" d="M125.7,539.9H167c3.4-39.8,18.9-66.4,32.1-82.3C134.4,467.3,125.7,539.9,125.7,539.9z"/>
	<g>
		<g>
			<path id="SVGID_1_" class="st8" d="M235.2,411.2c0,0-9.9,34.3,0,53.8c0,0,4.1,16.4-16,16.4c-25.9,0-27.4-16.5-26.5-16.4
				c9.9-19.5,0-53.8,0-53.8l26.5-14.8L235.2,411.2z"/>
		</g>
		<g>
			<defs>
				<path id="SVGID_2_" d="M235.2,411.2c0,0-9.9,34.3,0,53.8c0,0,4.1,16.4-16,16.4c-25.9,0-27.4-16.5-26.5-16.4
					c9.9-19.5,0-53.8,0-53.8l26.5-14.8L235.2,411.2z"/>
			</defs>
			<clipPath id="SVGID_5_">
				<use xlink:href="#SVGID_2_"  style="overflow:visible;"/>
			</clipPath>
			<path class="st9" d="M153.7,270.3c0,0-40.6,174.7,116.6,148.8c157.3-25.9-112.9,46.4-112.9,46.4L84,384.8v-93.4l41.7-31.4
				L153.7,270.3z"/>
		</g>
	</g>
	<g>
		<g>
			<ellipse id="SVGID_3_" class="st8" cx="133.6" cy="340.6" rx="19" ry="21.6"/>
		</g>
		<g>
			<ellipse id="SVGID_4_" class="st8" cx="298.3" cy="340.6" rx="19" ry="21.6"/>
		</g>
		<g>
			<defs>
				<ellipse id="SVGID_6_" cx="133.6" cy="340.6" rx="19" ry="21.6"/>
			</defs>
			<clipPath id="SVGID_8_">
				<use xlink:href="#SVGID_6_"  style="overflow:visible;"/>
			</clipPath>
		</g>
		<g>
			<defs>
				<ellipse id="SVGID_9_" cx="133.6" cy="340.6" rx="19" ry="21.6"/>
			</defs>
			<defs>
				<ellipse id="SVGID_10_" cx="298.3" cy="340.6" rx="19" ry="21.6"/>
			</defs>
			<clipPath id="SVGID_11_">
				<use xlink:href="#SVGID_9_"  style="overflow:visible;"/>
			</clipPath>
			<clipPath id="SVGID_12_" class="st10">
				<use xlink:href="#SVGID_10_"  style="overflow:visible;"/>
			</clipPath>
			<path class="st11" d="M153.7,277.7c0,0-40.6,174.7,116.6,148.8S157.4,473,157.4,473L84,392.3v-93.4l41.7-31.4L153.7,277.7z"/>
		</g>
	</g>
	<g>
		<g>
			<path id="SVGID_7_" class="st12" d="M214,409.1c67.3,2.7,80-51.6,83.2-122.5c-3.4-22.1-14.7-42.4-32.5-56.4
				c-0.8-0.6-1.6-1.3-2.5-1.9c-32.7-24.3-79.5-16.5-102.3,17.3c-2.9,4.3-5.7,9.1-8.2,14.2c-5.3,10.9-8.8,22.5-10.5,34.4
				C145.9,343.1,162,407.1,214,409.1z"/>
		</g>
		<g>
			<defs>
				<path id="SVGID_13_" d="M214,409.1c67.3,2.7,80-51.6,83.2-122.5c-3.4-22.1-14.7-42.4-32.5-56.4c-0.8-0.6-1.6-1.3-2.5-1.9
					c-32.7-24.3-79.5-16.5-102.3,17.3c-2.9,4.3-5.7,9.1-8.2,14.2c-5.3,10.9-8.8,22.5-10.5,34.4C145.9,343.1,162,407.1,214,409.1z"/>
			</defs>
			<clipPath id="SVGID_14_">
				<use xlink:href="#SVGID_13_"  style="overflow:visible;"/>
			</clipPath>
			<path class="st13" d="M155.2,253.4c0,0-55.6,202.1,115.2,173.1c157.1-26.7-112.9,46.4-112.9,46.4l-73.4-80.7v-93.4l41.7-31.4
				L155.2,253.4z"/>
		</g>
	</g>
	<path class="st14" d="M215.6,353.1c-52.1,0.7-69.7-10-74.3-58.9c-0.9,6.1-1.3,12.2-1.3,18.3v43.1c0,43.7,35.4,98.6,79.2,98.6l0,0
		c43.7,0,79.2-54.8,79.2-98.6v-55.1c0-4.7-0.4-9.4-1.1-14C287,340.6,283,352.2,215.6,353.1z"/>
	<path class="st15" d="M190.5,311.1c0,5.3-2.9,9.7-6.5,9.7s-6.5-4.3-6.5-9.7s2.9-9.7,6.5-9.7C187.6,301.4,190.5,305.8,190.5,311.1z
		 M250.1,301.4c-3.6,0-6.5,4.3-6.5,9.7s2.9,9.7,6.5,9.7s6.5-4.3,6.5-9.7S253.7,301.4,250.1,301.4z"/>
	<path class="st16" d="M171.3,287.2c0,0,3.8-7.9,15.6-11.6"/>
	<path class="st16" d="M250.1,276.6c0,0,7.9-0.5,15.3,9.5"/>
	<g>
		<g>
			<path id="XMLID_12_" class="st17" d="M198.3,362.3c0,0,20.1,8.9,45.7-1.6c0,0-2.5,30.1-20.3,32
				C203.2,395,198.3,362.3,198.3,362.3z"/>
		</g>
		<g>
			<defs>
				<path id="SVGID_15_" d="M198.3,362.3c0,0,20.1,8.9,45.7-1.6c0,0-2.5,30.1-20.3,32C203.2,395,198.3,362.3,198.3,362.3z"/>
			</defs>
			<clipPath id="SVGID_16_">
				<use xlink:href="#SVGID_15_"  style="overflow:visible;"/>
			</clipPath>
			<path class="st18" d="M197.6,393.1c0,0,1.4-10.8,19.2-12.8s23.9,10.7,23.9,10.7l-22.8,14.6L197.6,393.1z"/>
		</g>
	</g>
	<g>
		<g>
			<g>
				<path class="st19" d="M209.7,343.4c6.1,1.2,12.3,1.3,18.3,0.1c0.7-0.1,1.5-0.3,2.2-0.5l0.5-0.1l0.3-0.1l0.5-0.2l0.5-0.2l0.2-0.1
					l0.1-0.1v-0.1l-0.5-0.9l-0.1-0.2l-0.2-0.3l-0.5-1.1l-1-2.2l-1.9-4.3l-15.5-34.5c-0.9-1.9,5.4-4.5,6.1-2.5l13.5,35.4l3.6,9.4
					c0.5,1.2,0.8,2.3,1.2,3.3c0,0.1,0.1,0.3,0.1,0.4l-0.4,0.2l-0.8,0.3c-0.5,0.2-1.1,0.4-1.7,0.6l-1.7,0.5c-0.3,0.1-0.6,0.1-0.9,0.2
					l-0.6,0.1c-0.8,0.1-1.6,0.3-2.4,0.4c-6.5,0.9-13.1,0.4-19.3-1.2C206.5,344.8,207.1,342.9,209.7,343.4z"/>
			</g>
		</g>
	</g>
</g>
</svg>
