<?xml version="1.0" encoding="utf-8"?>
<!-- Generator: Adobe Illustrator 24.0.2, SVG Export Plug-In . SVG Version: 6.00 Build 0)  -->
<svg version="1.1" id="Layer_1" xmlns="http://www.w3.org/2000/svg" xmlns:xlink="http://www.w3.org/1999/xlink" x="0px" y="0px"
	 viewBox="0 0 768 692" style="enable-background:new 0 0 768 692;" xml:space="preserve">
<style type="text/css">
	.st0{fill:#F2FBFF;}
	.st1{fill:#D3F0FE;}
	.st2{opacity:0.3;fill:#B9E0FE;enable-background:new    ;}
	.st3{fill:#FFFFFF;}
	.st4{fill:#170F21;}
	.st5{fill:#DDD2C2;}
	.st6{fill:#E0CAB6;}
	.st7{fill:#EFA17A;}
	.st8{opacity:0.4;clip-path:url(#SVGID_4_);fill:#A11D30;enable-background:new    ;}
	.st9{clip-path:url(#SVGID_10_);}
	.st10{opacity:0.4;clip-path:url(#SVGID_11_);fill:#A11D30;enable-background:new    ;}
	.st11{fill:#EFB99E;}
	.st12{opacity:0.4;clip-path:url(#SVGID_13_);fill:#A11D30;enable-background:new    ;}
	.st13{fill:#EF8E5D;}
	.st14{fill:#6B1111;}
	.st15{clip-path:url(#SVGID_16_);fill:#FFCEF5;}
	.st16{fill:#FAE47F;}
	.st17{fill:#EDEDED;}
	.st18{clip-path:url(#SVGID_18_);fill:#FAE47F;}
</style>
<path class="st0" d="M735.1,73c-5.7-16.6-14.5-31.9-23.3-47.1c-1.5-2.6-3-5.3-4.6-7.9c-24.5,0-50.4,0.1-77.1,0.1
	c6.4,2.1,12.4,5.1,17.7,9.5c8,6.6,13.3,15.8,18.5,24.8c7.6,13.1,15.2,26.3,20.1,40.5c20.2,58.6-8.2,122.3-6.9,184.3
	c0.6,30.2,8.4,60.7,2.7,90.4c-9.1,48.1-52.3,83.6-98.8,98.1c-60.8,19-121.1,1.1-181.9,10.4c-54,8.3-120.4,18.4-174.6,8.5
	c-31.1-5.7-60.4-20.8-83.3-42.6c-26.6-25.3-9.9-49.3-11.3-82.3c-1.4-34.3-26-62.4-40.7-93.4c-15.2-32.1-19.7-69.9-8.3-103.6
	c6.5-19.1,17.6-36.1,28.9-52.8c21.7-32.1,44.7-64.1,72-91.4c-21.1,0-41.6,0-61,0C103.4,42,85.6,67.3,68.5,92.6
	c-13.1,19.4-26.1,39.2-33.6,61.3c-13.3,39-8,82.9,9.6,120.2c17,36,45.6,68.6,47.2,108.4c1.6,38.3-17.8,66.1,13.1,95.5
	c26.5,25.2,60.5,42.8,96.6,49.4c63,11.6,140-0.2,202.7-9.8c70.5-10.8,140.5,10,211.1-12.1c53.9-16.9,104.1-58.1,115-113.6
	c6.6-34.4-2.4-69.8-3.1-104.9C725.6,215,758.5,141.1,735.1,73z"/>
<path class="st1" d="M184.1,18.5c-27.3,27.3-50.3,59.3-72,91.4c-11.3,16.7-22.4,33.7-28.9,52.8c-11.4,33.7-6.9,71.5,8.3,103.6
	c14.7,31,39.3,59.1,40.7,93.4c1.4,33-15.3,57,11.3,82.3c22.9,21.8,52.2,36.9,83.3,42.6c54.2,9.9,120.6-0.2,174.6-8.5
	c60.8-9.3,121.1,8.6,181.9-10.4c46.5-14.5,89.7-50,98.8-98.1c5.7-29.7-2.1-60.2-2.7-90.4c-1.3-62,27.1-125.7,6.9-184.3
	c-4.9-14.2-12.5-27.4-20.1-40.5c-5.2-9-10.5-18.2-18.5-24.8c-5.2-4.3-11.2-7.3-17.7-9.5C488.7,18.3,321.3,18.5,184.1,18.5z"/>
<polygon class="st2" points="0,25.9 0,59 182,59 217.3,125.5 252.5,59 770.6,59 770.6,25.9 "/>
<polygon class="st3" points="0,0 0,50 182,50 217.3,111.1 252.5,50 770.6,50 770.6,0 "/>
<g>
	<path class="st4" d="M190.2,483c0,0-58.3,9.1-82.6-13.7s2-36.5-4.1-85.6s0-199.6,115.5-197.6s121.6,122.1,117.6,160.1
		c-4.1,38-14.7,62.2-9.6,87.1s8.4,53.9-46,55.9S190.2,483,190.2,483z"/>
	<path class="st5" d="M219,461.2c-5,0-9.7,0.4-14.1,1c-12.7,15.2-27.5,40.8-30.8,79h129.5C303.6,541.2,294,461.2,219,461.2z"/>
	<path class="st6" d="M134.4,541.2h39.7c3.3-38.2,18.1-63.8,30.8-79C142.8,471.5,134.4,541.2,134.4,541.2z"/>
	<g>
		<g>
			<path id="SVGID_9_" class="st7" d="M239.5,417.6c0,0-9.5,32.9,0,51.7c0,0,3.9,15.7-15.4,15.7c-24.8,0-26.3-15.8-25.4-15.7
				c9.5-18.7,0-51.7,0-51.7l25.4-14.2L239.5,417.6z"/>
		</g>
		<g>
			<defs>
				<path id="SVGID_1_" d="M239.5,417.6c0,0-9.5,32.9,0,51.7c0,0,3.9,15.7-15.4,15.7c-24.8,0-26.3-15.8-25.4-15.7
					c9.5-18.7,0-51.7,0-51.7l25.4-14.2L239.5,417.6z"/>
			</defs>
			<clipPath id="SVGID_4_">
				<use xlink:href="#SVGID_1_"  style="overflow:visible;"/>
			</clipPath>
			<path class="st8" d="M161.3,282.4c0,0-39,167.7,112,142.9s-108.4,44.6-108.4,44.6l-70.4-77.5v-89.7l40-30.2L161.3,282.4z"/>
		</g>
	</g>
	<g>
		<g>
			<ellipse id="SVGID_2_" class="st7" cx="138" cy="342.7" rx="18.2" ry="20.7"/>
		</g>
		<g>
			<ellipse id="SVGID_3_" class="st7" cx="300.1" cy="342.7" rx="18.2" ry="20.7"/>
		</g>
		<g>
			<defs>
				<ellipse id="SVGID_5_" cx="138" cy="342.7" rx="18.2" ry="20.7"/>
			</defs>
			<clipPath id="SVGID_6_">
				<use xlink:href="#SVGID_5_"  style="overflow:visible;"/>
			</clipPath>
		</g>
		<g>
			<defs>
				<ellipse id="SVGID_7_" cx="138" cy="342.7" rx="18.2" ry="20.7"/>
			</defs>
			<defs>
				<ellipse id="SVGID_8_" cx="300.1" cy="342.7" rx="18.2" ry="20.7"/>
			</defs>
			<clipPath id="SVGID_10_">
				<use xlink:href="#SVGID_7_"  style="overflow:visible;"/>
			</clipPath>
			<clipPath id="SVGID_11_" class="st9">
				<use xlink:href="#SVGID_8_"  style="overflow:visible;"/>
			</clipPath>
			<path class="st10" d="M161.3,282.4c0,0-39,167.7,112,142.9s-108.4,44.6-108.4,44.6l-70.4-77.5v-89.7l40-30.2L161.3,282.4z"/>
		</g>
	</g>
	<g>
		<g>
			<path id="SVGID_15_" class="st11" d="M148.1,301.6v55.6c0,42,34,76,76,76l0,0c42,0,76-34,76-76v-65.8c0,0-4.1-60.3-83.1-77.3
				C217,214.2,203.9,272.2,148.1,301.6z"/>
		</g>
		<g>
			<defs>
				<path id="SVGID_12_" d="M148.1,301.6v55.6c0,42,34,76,76,76l0,0c42,0,76-34,76-76v-65.8c0,0-4.1-60.3-83.1-77.3
					C217,214.2,203.9,272.2,148.1,301.6z"/>
			</defs>
			<clipPath id="SVGID_13_">
				<use xlink:href="#SVGID_12_"  style="overflow:visible;"/>
			</clipPath>
			<path class="st12" d="M161.3,282.4c0,0-39,167.7,112,142.9s-108.4,44.6-108.4,44.6l-70.4-77.5v-89.7l40-30.2L161.3,282.4z"/>
		</g>
	</g>
	<path class="st4" d="M196.7,314.4c0,5.1-2.8,9.3-6.3,9.3s-6.3-4.2-6.3-9.3s2.8-9.3,6.3-9.3S196.7,309.3,196.7,314.4z M253.8,305.2
		c-3.5,0-6.3,4.2-6.3,9.3s2.8,9.3,6.3,9.3c3.5,0,6.3-4.2,6.3-9.3S257.3,305.2,253.8,305.2z"/>
	<g>
		<g>
			<g>
				<path class="st13" d="M224.4,294.2l0.4,20.5l0.2,10.2l0.1,5.1v2.5c0,0.3,0,0.6,0.1,0.9l0.5-0.1h0.3h0.2h0.3c1-0.1,2-0.1,3,0
					c2,0.1,4.1,0.3,6.1,0.9s4.2,1.8,5.6,3.8c0.7,1,1.2,2.2,1.4,3.3c0.2,1.2,0.3,2.3,0.1,3.5s-0.6,2.4-1.3,3.5s-1.7,1.9-2.7,2.6
					c-2.1,1.2-4.3,1.6-6.3,1.8c-4.1,0.4-8.1-0.1-12-0.7c-2.4-0.3-1.4-5.2,0.8-4.7c3.6,0.7,7.3,1.2,10.8,1c1.7-0.1,3.4-0.4,4.6-1.1
					c1.2-0.7,1.9-1.6,2.2-3c0.1-0.7,0.1-1.5,0-2.2s-0.4-1.4-0.7-1.9c-0.7-1.1-2.1-2-3.7-2.6c-1.6-0.6-3.4-0.8-5.1-1
					c-0.9-0.1-1.8-0.1-2.7-0.1h-0.4h-0.5c-0.3,0-0.8,0.1-1.2,0.1l-2.4,0.3c0-1.4,0-2.8,0-4.2V330l0.1-5.1l0.2-10.2l0.4-20.5
					C222.8,293.3,224.3,293.3,224.4,294.2z"/>
			</g>
		</g>
	</g>
	<g>
		<g>
			<g>
				<path class="st4" d="M209.4,281.6c3.5-10.6,5.8-21.6,7-32.7c0.6-5.5,0.8-11.1,0.7-16.6c-0.1-1.4-0.2-2.7-0.3-4.1l-0.1-2.1
					l-0.3-2c-0.2-1.4-0.3-2.7-0.6-4.1l-0.8-4c-0.4-1.7,4.4-2.9,4.6-1l0.7,4.3c0.2,1.4,0.3,2.9,0.4,4.3l0.2,2.2v2.2
					c0,1.4,0.1,2.9,0.1,4.3c-0.1,5.7-0.6,11.4-1.5,17c-1.8,11.2-4.6,22.2-8.6,32.8C210.6,282.8,209.2,282.2,209.4,281.6z"/>
			</g>
		</g>
	</g>
	<g>
		<g>
			<g>
				<path class="st4" d="M180.2,296.2c2.6-6.5,8.1-11.5,14.5-14.6c0.5-0.4,3.4,9,2.9,9c-2.7,0.3-5.4,1-7.9,2.2
					c-1.3,0.6-2.5,1.3-3.6,2.1s-2.3,1.8-3.1,2.8C183,297.7,180.2,296.5,180.2,296.2z"/>
			</g>
		</g>
	</g>
	<g>
		<g>
			<g>
				<path class="st4" d="M265.3,295.9c-2.1-1.9-4.3-3.4-6.7-4.4c-1.2-0.5-2.3-0.8-3.5-1c-0.6-0.1-1.1-0.1-1.6-0.1s-1,0.1-1.3,0.2
					c0.1,0.2-0.8-9.6,0.2-9.5c1.2,0.2,2.1,0.4,3,0.8c0.9,0.3,1.7,0.7,2.5,1.2c1.6,0.9,3,2,4.2,3.1c2.5,2.3,4.3,5,5.7,7.7
					C268,294.1,265.5,296,265.3,295.9z"/>
			</g>
		</g>
	</g>
	<g>
		<g>
			<path id="XMLID_4_" class="st14" d="M193.2,358.9c0,0,17.3,12.2,43.3,7.1c0,0-6.6,19.1-23.7,17.6
				C193.1,381.9,193.2,358.9,193.2,358.9z"/>
		</g>
		<g>
			<defs>
				<path id="SVGID_14_" d="M193.2,358.9c0,0,17.3,12.2,43.3,7.1c0,0-6.6,19.1-23.7,17.6C193.1,381.9,193.2,358.9,193.2,358.9z"/>
			</defs>
			<clipPath id="SVGID_16_">
				<use xlink:href="#SVGID_14_"  style="overflow:visible;"/>
			</clipPath>
			<path class="st15" d="M193.2,381.6c0,0,3.4-9.9,20.5-8.5s20.5,14.5,20.5,14.5l-24.2,9.5L193.2,381.6z"/>
		</g>
	</g>
</g>
<g>
	<polygon class="st2" points="392.7,378.2 376.7,386.6 379.7,368.9 366.8,356.3 384.7,353.7 392.7,337.5 400.6,353.7 418.5,356.3 
		405.6,368.9 408.6,386.6 	"/>
	<polygon class="st3" points="392.7,375.7 376.7,384.1 379.7,366.3 366.8,353.7 384.7,351.1 392.7,335 400.6,351.1 418.5,353.7 
		405.6,366.3 408.6,384.1 	"/>
	<polygon class="st16" points="384,365.4 375.4,357 387.3,355.3 392.7,344.5 398,355.3 409.9,357 401.3,365.4 403.3,377.3 
		392.7,371.7 382,377.3 	"/>
	<polygon class="st2" points="451.8,378.2 435.9,386.6 438.9,368.9 426,356.3 443.8,353.7 451.8,337.5 459.8,353.7 477.7,356.3 
		464.7,368.9 467.8,386.6 	"/>
	<polygon class="st3" points="451.8,375.7 435.9,384.1 438.9,366.3 426,353.7 443.8,351.1 451.8,335 459.8,351.1 477.7,353.7 
		464.7,366.3 467.8,384.1 	"/>
	<polygon class="st16" points="443.2,365.4 434.6,357 446.5,355.3 451.8,344.5 457.2,355.3 469.1,357 460.5,365.4 462.5,377.3 
		451.8,371.7 441.2,377.3 	"/>
	<polygon class="st2" points="511,378.2 495,386.6 498.1,368.9 485.2,356.3 503,353.7 511,337.5 519,353.7 536.8,356.3 523.9,368.9 
		527,386.6 	"/>
	<polygon class="st3" points="511,375.7 495,384.1 498.1,366.3 485.2,353.7 503,351.1 511,335 519,351.1 536.8,353.7 523.9,366.3 
		527,384.1 	"/>
	<polygon class="st16" points="502.4,365.4 493.8,357 505.7,355.3 511,344.5 516.3,355.3 528.2,357 519.6,365.4 521.7,377.3 
		511,371.7 500.3,377.3 	"/>
	<polygon class="st2" points="570.2,378.2 554.2,386.6 557.3,368.9 544.3,356.3 562.2,353.7 570.2,337.5 578.2,353.7 596,356.3 
		583.1,368.9 586.1,386.6 	"/>
	<polygon class="st3" points="570.2,375.7 554.2,384.1 557.3,366.3 544.3,353.7 562.2,351.1 570.2,335 578.2,351.1 596,353.7 
		583.1,366.3 586.1,384.1 	"/>
	<polygon class="st16" points="561.6,365.4 552.9,357 564.8,355.3 570.2,344.5 575.5,355.3 587.4,357 578.8,365.4 580.8,377.3 
		570.2,371.7 559.5,377.3 	"/>
	<polygon class="st2" points="629.3,378.2 613.4,386.6 616.4,368.9 603.5,356.3 621.4,353.7 629.3,337.5 637.3,353.7 655.2,356.3 
		642.3,368.9 645.3,386.6 	"/>
	<polygon class="st3" points="629.3,375.7 613.4,384.1 616.4,366.3 603.5,353.7 621.4,351.1 629.3,335 637.3,351.1 655.2,353.7 
		642.3,366.3 645.3,384.1 	"/>
	<g>
		<g>
			<polygon id="XMLID_214_" class="st17" points="620.7,365.4 612.1,357 624,355.3 629.3,344.5 634.7,355.3 646.6,357 638,365.4 
				640,377.3 629.3,371.7 618.7,377.3 			"/>
		</g>
		<g>
			<defs>
				<polygon id="SVGID_17_" points="620.7,365.4 612.1,357 624,355.3 629.3,344.5 634.7,355.3 646.6,357 638,365.4 640,377.3 
					629.3,371.7 618.7,377.3 				"/>
			</defs>
			<clipPath id="SVGID_18_">
				<use xlink:href="#SVGID_17_"  style="overflow:visible;"/>
			</clipPath>
			<path class="st18" d="M633.3,348v1.2v37.4c0,0-33.7-6.2-34.3-6.9c-0.5-0.7-4.8-41-4.8-41l22.9-3.8"/>
		</g>
	</g>
</g>
</svg>
