<?xml version="1.0" encoding="utf-8"?>
<!-- Generator: Adobe Illustrator 24.0.2, SVG Export Plug-In . SVG Version: 6.00 Build 0)  -->
<svg version="1.1" id="Layer_1" xmlns="http://www.w3.org/2000/svg" xmlns:xlink="http://www.w3.org/1999/xlink" x="0px" y="0px"
	 viewBox="0 0 1022 766.5" style="enable-background:new 0 0 1022 766.5;" xml:space="preserve">
<style type="text/css">
	.st0{fill:#F2FBFF;}
	.st1{fill:#D3F0FE;}
	.st2{opacity:0.3;fill:#B9E0FE;}
	.st3{fill:#FAFAFA;}
	.st4{fill:#250101;}
	.st5{fill:#3D3245;}
	.st6{fill:#FFFFFF;}
	.st7{fill:#FAE47F;}
	.st8{fill:#9FDDB3;}
	.st9{fill:#96D1B4;}
	.st10{opacity:0.4;clip-path:url(#SVGID_2_);fill:#0D072E;}
	.st11{opacity:0.4;clip-path:url(#XMLID_6_);}
	.st12{fill:#392F73;}
	.st13{opacity:0.4;clip-path:url(#SVGID_6_);}
	.st14{fill:#170F21;}
	.st15{fill:none;stroke:#170F21;stroke-width:7;stroke-linejoin:round;stroke-miterlimit:10;}
	.st16{clip-path:url(#XMLID_8_);fill:#FFCEF5;}
	.st17{fill:#A42634;}
</style>
<g>
	<g>
		<path class="st0" d="M703.9,557.6c-211.6,103.1-281.4,115.1-456.5-42.2c-117.9-105.9-101.6-254.2,40.9-323.5
			c211.6-103.1,267.2-45.7,476,62.8C908.9,329.8,846.3,488.2,703.9,557.6z"/>
	</g>
	<g>
		<path class="st1" d="M715.5,507.6c-176.4,118.8-248.3,119.8-424.7,1c-118.8-79.9-119-206.8-0.2-286.7
			c176.4-118.8,226.8-75.4,425.7-0.2C862.4,276.9,834.3,427.7,715.5,507.6z"/>
	</g>
	<polygon class="st2" points="837.7,330.3 318.1,330.3 318.1,361.1 434.8,361.1 420.8,402.8 503,361.1 837.7,361.1 	"/>
	<polygon class="st3" points="837.7,151.9 318.1,151.9 318.1,354.6 435.5,354.6 423.8,395.2 503,354.6 837.7,354.6 	"/>
	<path class="st4" d="M201.7,443.9l-6-43.3c0,0-20.5-11.7-6.3-34.1c0,0-5-36.2,30.6-29.7c0,0,5.8-27.2,31-13.6c0,0,12.9-14.2,29-1.1
		c0,0,17.9-18.8,32.6-4.3c0,0,22.1-16.1,28,17.3c0,0,12.7-1.7,15.3,26c0,0,19,8.2,6,28.9l-15.3,58.2L201.7,443.9z"/>
	<g>
		<g>
			<path class="st5" d="M373.3,202.8h4.5c5.6,0,8,3.2,8,7.2c0,4-2.4,7.2-8,7.2h-4.5V202.8z M377.8,215.5c4.7,0,6-2.6,6-5.5
				c0-2.9-1.3-5.5-6-5.5h-2.6v11H377.8z"/>
			<path class="st5" d="M387.4,212c0-3,2.3-5.6,5.7-5.6c3.3,0,5.6,2.5,5.6,5.6c0,3-2.3,5.6-5.6,5.6C389.7,217.6,387.4,215,387.4,212
				z M396.8,212c0-2.3-1.5-4.1-3.8-4.1c-2.4,0-3.8,1.8-3.8,4.1c0,2.3,1.5,4.1,3.8,4.1C395.4,216.1,396.8,214.3,396.8,212z"/>
			<path class="st5" d="M400.3,212c0-3.2,2.3-5.5,5.4-5.5c1.4,0,2.4,0.2,3.6,1.1v1.7c-1-0.9-2.3-1.2-3.5-1.2c-2.2,0-3.7,1.7-3.7,4
				c0,2.3,1.5,4,3.7,4c1.2,0,2.5-0.3,3.5-1.2v1.7c-1.2,0.8-2.3,1.1-3.6,1.1C402.6,217.5,400.3,215.2,400.3,212z"/>
			<path class="st5" d="M411,216.4l0.4-1.4c0.7,0.4,2,1.1,3.5,1.1c1.3,0,2.3-0.5,2.3-1.6c0-0.9-0.9-1.4-2.6-1.8
				c-2.2-0.6-3.2-1.7-3.2-3.1c0-1.6,1.2-3,3.8-3c1.7,0,3.2,0.9,3.2,0.9l-0.4,1.4c-0.7-0.5-1.8-0.8-2.9-0.8c-1.4,0-2.1,0.5-2.1,1.4
				c0,0.9,0.9,1.4,2.2,1.8c2.4,0.6,3.6,1.7,3.6,3c0,2.2-1.7,3.4-4,3.4C412.6,217.5,411,216.4,411,216.4z"/>
			<path class="st5" d="M421.1,202.8h1.8v2h-1.8V202.8z M421.1,206.8h1.8v10.4h-1.8V206.8z"/>
			<path class="st5" d="M425.4,211.9c0-3.3,2.5-5.4,5-5.4c2.6,0,4.4,1.7,4.4,4c0,0.4-0.1,0.8-0.1,1.2h-7.5c-0.1,1.8,0.7,4.2,4,4.2
				c1.2,0,2.6-0.6,3.4-1.3v1.6c-1,0.8-2.5,1.2-4,1.2C427.5,217.5,425.4,215.1,425.4,211.9z M433.1,210.5c0.2-1.4-0.9-2.5-2.6-2.5
				c-1.5,0-2.8,0.8-3.1,2.5H433.1z"/>
			<path class="st5" d="M442,202.8h1.8v5.8c0.9-1.1,2.2-2.1,3.9-2.1c2.8,0,3.7,1.9,3.7,4.5v6.2h-1.8v-6c0-2.3-0.9-3.1-2.4-3.1
				c-1.5,0-3.4,1.3-3.4,3v6.1H442V202.8z"/>
			<path class="st5" d="M453.8,211.9c0-3.3,2.5-5.4,5-5.4c2.6,0,4.4,1.7,4.4,4c0,0.4-0.1,0.8-0.1,1.2h-7.5c-0.1,1.8,0.7,4.2,4,4.2
				c1.2,0,2.6-0.6,3.4-1.3v1.6c-1,0.8-2.5,1.2-4,1.2C456,217.5,453.8,215.1,453.8,211.9z M461.5,210.5c0.2-1.4-0.9-2.5-2.6-2.5
				c-1.5,0-2.8,0.8-3.1,2.5H461.5z"/>
			<path class="st5" d="M465.8,202.8h1.8v14.4h-1.8V202.8z"/>
			<path class="st5" d="M470.6,206.8h1.6l0.1,1.9c0.9-1.3,2.4-2.2,4.1-2.2c2.9,0,4.9,2.4,4.9,5.5s-2.1,5.5-4.9,5.5
				c-1.6,0-3-0.7-3.9-1.9v6.3h-1.8V206.8z M479.4,212c0-2.5-1.6-4-3.6-4c-2,0-3.6,1.5-3.6,4s1.6,4,3.6,4
				C477.8,216,479.4,214.5,479.4,212z"/>
			<path class="st5" d="M483,211.9c0-3.3,2.5-5.4,5-5.4c2.6,0,4.4,1.7,4.4,4c0,0.4-0.1,0.8-0.1,1.2h-7.5c-0.1,1.8,0.7,4.2,4,4.2
				c1.2,0,2.6-0.6,3.4-1.3v1.6c-1,0.8-2.5,1.2-4,1.2C485.2,217.5,483,215.1,483,211.9z M490.7,210.5c0.2-1.4-0.9-2.5-2.6-2.5
				c-1.5,0-2.8,0.8-3.1,2.5H490.7z"/>
			<path class="st5" d="M494.4,212c0-3,2.1-5.5,4.9-5.5c1.6,0,3,0.7,3.9,1.9v-5.7h1.8v14.4h-1.6l-0.1-1.9c-0.9,1.3-2.4,2.2-4.1,2.2
				C496.5,217.5,494.4,215,494.4,212z M503.4,212c0-2.5-1.6-4-3.6-4c-2,0-3.6,1.5-3.6,4s1.6,4,3.6,4
				C501.8,216,503.4,214.5,503.4,212z"/>
			<path class="st5" d="M512.7,206.8h1.6l0.1,2c0.9-1.3,2.2-2.3,3.8-2.3c1.9,0,2.9,0.9,3.3,2.4c1.1-1.6,2.5-2.4,4-2.4
				c2.8,0,3.5,1.9,3.5,4.5v6.2h-1.8v-6c0-2.3-0.7-3.1-2.2-3.1c-1.5,0-3.2,1.3-3.2,3v6.1h-1.8v-6c0-2.3-0.7-3.1-2.2-3.1
				c-1.5,0-3.2,1.3-3.2,3v6.1h-1.8V206.8z"/>
			<path class="st5" d="M531.3,211.9c0-3.3,2.5-5.4,5-5.4c2.6,0,4.4,1.7,4.4,4c0,0.4-0.1,0.8-0.1,1.2h-7.5c-0.1,1.8,0.7,4.2,4,4.2
				c1.2,0,2.6-0.6,3.4-1.3v1.6c-1,0.8-2.5,1.2-4,1.2C533.5,217.5,531.3,215.1,531.3,211.9z M539,210.5c0.2-1.4-0.9-2.5-2.6-2.5
				c-1.5,0-2.8,0.8-3.1,2.5H539z"/>
			<path class="st5" d="M549.2,208.1h-2.3v-1.2h2.3V204h1.8v2.8h2.4v1.2H551v9.1h-1.8V208.1z"/>
			<path class="st5" d="M554.5,212c0-3,2.3-5.6,5.7-5.6c3.3,0,5.6,2.5,5.6,5.6c0,3-2.3,5.6-5.6,5.6C556.8,217.6,554.5,215,554.5,212
				z M564,212c0-2.3-1.5-4.1-3.8-4.1c-2.4,0-3.8,1.8-3.8,4.1c0,2.3,1.5,4.1,3.8,4.1C562.5,216.1,564,214.3,564,212z"/>
			<path class="st5" d="M572.7,206.8h1.6l0.1,2c0.7-1.3,2.3-2.3,4-2.3v2c-2-0.4-3.9,0.8-3.9,2.5v6.2h-1.8V206.8z"/>
			<path class="st5" d="M579.7,211.9c0-3.3,2.5-5.4,5-5.4c2.6,0,4.4,1.7,4.4,4c0,0.4-0.1,0.8-0.1,1.2h-7.5c-0.1,1.8,0.7,4.2,4,4.2
				c1.2,0,2.6-0.6,3.4-1.3v1.6c-1,0.8-2.5,1.2-4,1.2C581.8,217.5,579.7,215.1,579.7,211.9z M587.4,210.5c0.2-1.4-0.9-2.5-2.6-2.5
				c-1.5,0-2.8,0.8-3.1,2.5H587.4z"/>
			<path class="st5" d="M591,212c0-3,2.1-5.5,4.9-5.5c1.6,0,3,0.7,3.9,1.9v-5.7h1.8v14.4h-1.6l-0.1-1.9c-0.9,1.3-2.4,2.2-4.1,2.2
				C593.1,217.5,591,215,591,212z M600,212c0-2.5-1.6-4-3.6-4c-2,0-3.6,1.5-3.6,4s1.6,4,3.6,4C598.4,216,600,214.5,600,212z"/>
			<path class="st5" d="M604.7,213v-6.2h1.8v6c0,2.3,0.9,3.1,2.4,3.1c1.5,0,3.4-1.3,3.4-3v-6.1h1.8v10.4h-1.6l-0.1-2
				c-0.8,1.2-2.3,2.3-4,2.3C605.7,217.5,604.7,215.5,604.7,213z"/>
			<path class="st5" d="M616.6,212c0-3.2,2.3-5.5,5.4-5.5c1.4,0,2.4,0.2,3.6,1.1v1.7c-1-0.9-2.3-1.2-3.5-1.2c-2.2,0-3.7,1.7-3.7,4
				c0,2.3,1.5,4,3.7,4c1.2,0,2.5-0.3,3.5-1.2v1.7c-1.2,0.8-2.3,1.1-3.6,1.1C618.8,217.5,616.6,215.2,616.6,212z"/>
			<path class="st5" d="M627.4,211.9c0-3.3,2.5-5.4,5-5.4c2.6,0,4.4,1.7,4.4,4c0,0.4-0.1,0.8-0.1,1.2h-7.5c-0.1,1.8,0.7,4.2,4,4.2
				c1.2,0,2.6-0.6,3.4-1.3v1.6c-1,0.8-2.5,1.2-4,1.2C629.5,217.5,627.4,215.1,627.4,211.9z M635,210.5c0.2-1.4-0.9-2.5-2.6-2.5
				c-1.5,0-2.8,0.8-3.1,2.5H635z"/>
			<path class="st5" d="M643.9,206.8h1.6l0.1,2c0.7-1.3,2.3-2.3,4-2.3v2c-2-0.4-3.9,0.8-3.9,2.5v6.2h-1.8V206.8z"/>
			<path class="st5" d="M650.9,211.9c0-3.3,2.5-5.4,5-5.4c2.6,0,4.4,1.7,4.4,4c0,0.4-0.1,0.8-0.1,1.2h-7.5c-0.1,1.8,0.7,4.2,4,4.2
				c1.2,0,2.6-0.6,3.4-1.3v1.6c-1,0.8-2.5,1.2-4,1.2C653.1,217.5,650.9,215.1,650.9,211.9z M658.6,210.5c0.2-1.4-0.9-2.5-2.6-2.5
				c-1.5,0-2.8,0.8-3.1,2.5H658.6z"/>
			<path class="st5" d="M662.9,206.8h1.6l0.1,1.9c0.9-1.3,2.4-2.2,4.1-2.2c2.9,0,4.9,2.4,4.9,5.5s-2.1,5.5-4.9,5.5
				c-1.6,0-3-0.7-3.9-1.9v6.3h-1.8V206.8z M671.7,212c0-2.5-1.6-4-3.6-4c-2,0-3.6,1.5-3.6,4s1.6,4,3.6,4
				C670.1,216,671.7,214.5,671.7,212z"/>
			<path class="st5" d="M675.3,211.9c0-3.3,2.5-5.4,5-5.4c2.6,0,4.4,1.7,4.4,4c0,0.4-0.1,0.8-0.1,1.2h-7.5c-0.1,1.8,0.7,4.2,4,4.2
				c1.2,0,2.6-0.6,3.4-1.3v1.6c-1,0.8-2.5,1.2-4,1.2C677.5,217.5,675.3,215.1,675.3,211.9z M683,210.5c0.2-1.4-0.9-2.5-2.6-2.5
				c-1.5,0-2.8,0.8-3.1,2.5H683z"/>
			<path class="st5" d="M688.5,208.1h-2.3v-1.2h2.3V204h1.8v2.8h2.4v1.2h-2.4v9.1h-1.8V208.1z"/>
			<path class="st5" d="M694.6,202.8h1.8v2h-1.8V202.8z M694.6,206.8h1.8v10.4h-1.8V206.8z"/>
			<path class="st5" d="M700.7,208.1h-2.3v-1.2h2.3V204h1.8v2.8h2.4v1.2h-2.4v9.1h-1.8V208.1z"/>
			<path class="st5" d="M706.7,202.8h1.8v2h-1.8V202.8z M706.7,206.8h1.8v10.4h-1.8V206.8z"/>
			<path class="st5" d="M710.1,206.8h1.9l3.4,7.8l3.3-7.8h1.8l-4.6,10.4h-1.2L710.1,206.8z"/>
			<path class="st5" d="M721.2,211.9c0-3.3,2.5-5.4,5-5.4c2.6,0,4.4,1.7,4.4,4c0,0.4-0.1,0.8-0.1,1.2H723c-0.1,1.8,0.7,4.2,4,4.2
				c1.2,0,2.6-0.6,3.4-1.3v1.6c-1,0.8-2.5,1.2-4,1.2C723.3,217.5,721.2,215.1,721.2,211.9z M728.8,210.5c0.2-1.4-0.9-2.5-2.6-2.5
				c-1.5,0-2.8,0.8-3.1,2.5H728.8z"/>
			<path class="st5" d="M736.5,206.8h1.8l3,7.8l3-7.8h1.1l3,7.8l2.9-7.8h1.7l-4.1,10.4h-1.2l-2.9-7.5l-3,7.5h-1.2L736.5,206.8z"/>
			<path class="st5" d="M753.6,212c0-3,2.3-5.6,5.7-5.6c3.3,0,5.6,2.5,5.6,5.6c0,3-2.3,5.6-5.6,5.6C755.9,217.6,753.6,215,753.6,212
				z M763,212c0-2.3-1.5-4.1-3.8-4.1c-2.4,0-3.8,1.8-3.8,4.1c0,2.3,1.5,4.1,3.8,4.1C761.6,216.1,763,214.3,763,212z"/>
			<path class="st5" d="M767.1,206.8h1.6l0.1,2c0.7-1.3,2.3-2.3,4-2.3v2c-2-0.4-3.9,0.8-3.9,2.5v6.2h-1.8V206.8z"/>
			<path class="st5" d="M774.7,202.8h1.8v8.4l4.9-4.4h2.3l-5.3,4.6l5.5,5.7h-2.4l-5-5.4v5.4h-1.8V202.8z"/>
			<path class="st5" d="M387,242.8h1.6l0.1,2c0.7-1.3,2.3-2.3,4-2.3v2c-2-0.4-3.9,0.8-3.9,2.5v6.2H387V242.8z"/>
			<path class="st5" d="M394,247.9c0-3.3,2.5-5.4,5-5.4c2.6,0,4.4,1.7,4.4,4c0,0.4-0.1,0.8-0.1,1.2h-7.5c-0.1,1.8,0.7,4.2,4,4.2
				c1.2,0,2.6-0.6,3.4-1.3v1.6c-1,0.8-2.5,1.2-4,1.2C396.2,253.5,394,251.1,394,247.9z M401.7,246.5c0.2-1.4-0.9-2.5-2.6-2.5
				c-1.5,0-2.8,0.8-3.1,2.5H401.7z"/>
			<path class="st5" d="M414.2,251.5c-0.9,1.2-2.3,1.9-3.9,1.9c-2.9,0-4.9-2.4-4.9-5.5s2.1-5.5,4.9-5.5c1.7,0,3.2,0.8,4.1,2.2
				l0.1-1.9h1.6v15h-1.8V251.5z M414.3,248c0-2.5-1.6-4-3.6-4c-2,0-3.6,1.5-3.6,4s1.6,4,3.6,4C412.7,252,414.3,250.5,414.3,248z"/>
			<path class="st5" d="M419,249v-6.2h1.8v6c0,2.3,0.9,3.1,2.4,3.1c1.5,0,3.4-1.3,3.4-3v-6.1h1.8v10.4h-1.6l-0.1-2
				c-0.8,1.2-2.3,2.3-4,2.3C420,253.5,419,251.5,419,249z"/>
			<path class="st5" d="M431.4,238.8h1.8v2h-1.8V238.8z M431.4,242.8h1.8v10.4h-1.8V242.8z"/>
			<path class="st5" d="M436.2,242.8h1.6l0.1,2c0.7-1.3,2.3-2.3,4-2.3v2c-2-0.4-3.9,0.8-3.9,2.5v6.2h-1.8V242.8z"/>
			<path class="st5" d="M443.2,247.9c0-3.3,2.5-5.4,5-5.4c2.6,0,4.4,1.7,4.4,4c0,0.4-0.1,0.8-0.1,1.2H445c-0.1,1.8,0.7,4.2,4,4.2
				c1.2,0,2.6-0.6,3.4-1.3v1.6c-1,0.8-2.5,1.2-4,1.2C445.4,253.5,443.2,251.1,443.2,247.9z M450.9,246.5c0.2-1.4-0.9-2.5-2.6-2.5
				c-1.5,0-2.8,0.8-3.1,2.5H450.9z"/>
			<path class="st5" d="M454.6,248c0-3,2.1-5.5,4.9-5.5c1.6,0,3,0.7,3.9,1.9v-5.7h1.8v14.4h-1.6l-0.1-1.9c-0.9,1.3-2.4,2.2-4.1,2.2
				C456.7,253.5,454.6,251,454.6,248z M463.6,248c0-2.5-1.6-4-3.6-4c-2,0-3.6,1.5-3.6,4s1.6,4,3.6,4
				C461.9,252,463.6,250.5,463.6,248z"/>
			<path class="st5" d="M474.1,244.1h-2.3v-1.2h2.3V240h1.8v2.8h2.4v1.2h-2.4v9.1h-1.8V244.1z"/>
			<path class="st5" d="M479.5,248c0-3,2.3-5.6,5.7-5.6c3.3,0,5.6,2.5,5.6,5.6c0,3-2.3,5.6-5.6,5.6C481.8,253.6,479.5,251,479.5,248
				z M488.9,248c0-2.3-1.5-4.1-3.8-4.1c-2.4,0-3.8,1.8-3.8,4.1c0,2.3,1.5,4.1,3.8,4.1C487.5,252.1,488.9,250.3,488.9,248z"/>
			<path class="st5" d="M497.1,248c0-3.2,2.3-5.5,5.4-5.5c1.4,0,2.4,0.2,3.6,1.1v1.7c-1-0.9-2.3-1.2-3.5-1.2c-2.2,0-3.7,1.7-3.7,4
				c0,2.3,1.5,4,3.7,4c1.2,0,2.5-0.3,3.5-1.2v1.7c-1.2,0.8-2.3,1.1-3.6,1.1C499.3,253.5,497.1,251.2,497.1,248z"/>
			<path class="st5" d="M508.5,242.8h1.6l0.1,2c0.7-1.3,2.3-2.3,4-2.3v2c-2-0.4-3.9,0.8-3.9,2.5v6.2h-1.8V242.8z"/>
			<path class="st5" d="M515.4,247.9c0-3.3,2.5-5.4,5-5.4c2.6,0,4.4,1.7,4.4,4c0,0.4-0.1,0.8-0.1,1.2h-7.5c-0.1,1.8,0.7,4.2,4,4.2
				c1.2,0,2.6-0.6,3.4-1.3v1.6c-1,0.8-2.5,1.2-4,1.2C517.6,253.5,515.4,251.1,515.4,247.9z M523.1,246.5c0.2-1.4-0.9-2.5-2.6-2.5
				c-1.5,0-2.8,0.8-3.1,2.5H523.1z"/>
			<path class="st5" d="M526.8,248c0-3,2.1-5.5,4.9-5.5c1.7,0,3.2,0.8,4.1,2.2l0.1-1.9h1.6v10.4h-1.6l-0.1-1.9
				c-0.9,1.3-2.4,2.2-4.1,2.2C528.9,253.5,526.8,251,526.8,248z M535.8,248c0-2.5-1.6-4-3.6-4c-2,0-3.6,1.5-3.6,4s1.6,4,3.6,4
				C534.2,252,535.8,250.5,535.8,248z"/>
			<path class="st5" d="M541.7,244.1h-2.3v-1.2h2.3V240h1.8v2.8h2.4v1.2h-2.4v9.1h-1.8V244.1z"/>
			<path class="st5" d="M547.2,247.9c0-3.3,2.5-5.4,5-5.4c2.6,0,4.4,1.7,4.4,4c0,0.4-0.1,0.8-0.1,1.2H549c-0.1,1.8,0.7,4.2,4,4.2
				c1.2,0,2.6-0.6,3.4-1.3v1.6c-1,0.8-2.5,1.2-4,1.2C549.4,253.5,547.2,251.1,547.2,247.9z M554.9,246.5c0.2-1.4-0.9-2.5-2.6-2.5
				c-1.5,0-2.8,0.8-3.1,2.5H554.9z"/>
			<path class="st5" d="M563.2,248c0-3,2.1-5.5,4.9-5.5c1.7,0,3.2,0.8,4.1,2.2l0.1-1.9h1.6v10.4h-1.6l-0.1-1.9
				c-0.9,1.3-2.4,2.2-4.1,2.2C565.3,253.5,563.2,251,563.2,248z M572.2,248c0-2.5-1.6-4-3.6-4c-2,0-3.6,1.5-3.6,4s1.6,4,3.6,4
				C570.5,252,572.2,250.5,572.2,248z"/>
			<path class="st5" d="M576.8,242.8h1.6l0.1,2c0.8-1.2,2.3-2.3,4-2.3c2.8,0,3.7,1.9,3.7,4.5v6.2h-1.8v-6c0-2.3-0.9-3.1-2.4-3.1
				c-1.5,0-3.4,1.3-3.4,3v6.1h-1.8V242.8z"/>
			<path class="st5" d="M588.7,248c0-3,2.1-5.5,4.9-5.5c1.6,0,3,0.7,3.9,1.9v-5.7h1.8v14.4h-1.6l-0.1-1.9c-0.9,1.3-2.4,2.2-4.1,2.2
				C590.8,253.5,588.7,251,588.7,248z M597.6,248c0-2.5-1.6-4-3.6-4c-2,0-3.6,1.5-3.6,4s1.6,4,3.6,4C596,252,597.6,250.5,597.6,248z
				"/>
			<path class="st5" d="M607,242.8h1.6l0.1,2c0.9-1.3,2.2-2.3,3.8-2.3c1.9,0,2.9,0.9,3.3,2.4c1.1-1.6,2.5-2.4,4-2.4
				c2.8,0,3.5,1.9,3.5,4.5v6.2h-1.8v-6c0-2.3-0.7-3.1-2.2-3.1c-1.5,0-3.2,1.3-3.2,3v6.1h-1.8v-6c0-2.3-0.7-3.1-2.2-3.1
				c-1.5,0-3.2,1.3-3.2,3v6.1H607V242.8z"/>
			<path class="st5" d="M625.6,248c0-3,2.1-5.5,4.9-5.5c1.7,0,3.2,0.8,4.1,2.2l0.1-1.9h1.6v10.4h-1.6l-0.1-1.9
				c-0.9,1.3-2.4,2.2-4.1,2.2C627.7,253.5,625.6,251,625.6,248z M634.6,248c0-2.5-1.6-4-3.6-4c-2,0-3.6,1.5-3.6,4s1.6,4,3.6,4
				C632.9,252,634.6,250.5,634.6,248z"/>
			<path class="st5" d="M639.2,242.8h1.6l0.1,2c0.8-1.2,2.3-2.3,4-2.3c2.8,0,3.7,1.9,3.7,4.5v6.2h-1.8v-6c0-2.3-0.9-3.1-2.4-3.1
				c-1.5,0-3.4,1.3-3.4,3v6.1h-1.8V242.8z"/>
			<path class="st5" d="M652.9,244.1h-2.3v-1.2h2.3V240h1.8v2.8h2.4v1.2h-2.4v9.1h-1.8V244.1z"/>
			<path class="st5" d="M658.4,248c0-3,2.1-5.5,4.9-5.5c1.7,0,3.2,0.8,4.1,2.2l0.1-1.9h1.6v10.4h-1.6l-0.1-1.9
				c-0.9,1.3-2.4,2.2-4.1,2.2C660.5,253.5,658.4,251,658.4,248z M667.4,248c0-2.5-1.6-4-3.6-4c-2,0-3.6,1.5-3.6,4s1.6,4,3.6,4
				C665.8,252,667.4,250.5,667.4,248z"/>
			<path class="st5" d="M672,238.8h1.8v2H672V238.8z M672,242.8h1.8v10.4H672V242.8z"/>
			<path class="st5" d="M676.8,242.8h1.6l0.1,2c0.8-1.2,2.3-2.3,4-2.3c2.8,0,3.7,1.9,3.7,4.5v6.2h-1.8v-6c0-2.3-0.9-3.1-2.4-3.1
				c-1.5,0-3.4,1.3-3.4,3v6.1h-1.8V242.8z"/>
			<path class="st5" d="M693.9,242.8h1.6l0.1,2c0.9-1.3,2.2-2.3,3.8-2.3c1.9,0,2.9,0.9,3.3,2.4c1.1-1.6,2.5-2.4,4-2.4
				c2.8,0,3.5,1.9,3.5,4.5v6.2h-1.8v-6c0-2.3-0.7-3.1-2.2-3.1c-1.5,0-3.2,1.3-3.2,3v6.1h-1.8v-6c0-2.3-0.7-3.1-2.2-3.1
				c-1.5,0-3.2,1.3-3.2,3v6.1h-1.8V242.8z"/>
			<path class="st5" d="M713.1,249v-6.2h1.8v6c0,2.3,0.9,3.1,2.4,3.1c1.5,0,3.4-1.3,3.4-3v-6.1h1.8v10.4H721l-0.1-2
				c-0.8,1.2-2.3,2.3-4,2.3C714.1,253.5,713.1,251.5,713.1,249z"/>
			<path class="st5" d="M725.6,238.8h1.8v14.4h-1.8V238.8z"/>
			<path class="st5" d="M731.6,244.1h-2.3v-1.2h2.3V240h1.8v2.8h2.4v1.2h-2.4v9.1h-1.8V244.1z"/>
			<path class="st5" d="M737.7,238.8h1.8v2h-1.8V238.8z M737.7,242.8h1.8v10.4h-1.8V242.8z"/>
			<path class="st5" d="M742.5,242.8h1.6l0.1,1.9c0.9-1.3,2.4-2.2,4.1-2.2c2.9,0,4.9,2.4,4.9,5.5s-2.1,5.5-4.9,5.5
				c-1.6,0-3-0.7-3.9-1.9v6.3h-1.8V242.8z M751.3,248c0-2.5-1.6-4-3.6-4c-2,0-3.6,1.5-3.6,4s1.6,4,3.6,4
				C749.7,252,751.3,250.5,751.3,248z"/>
			<path class="st5" d="M755.5,238.8h1.8v14.4h-1.8V238.8z"/>
			<path class="st5" d="M759.8,247.9c0-3.3,2.5-5.4,5-5.4c2.6,0,4.4,1.7,4.4,4c0,0.4-0.1,0.8-0.1,1.2h-7.5c-0.1,1.8,0.7,4.2,4,4.2
				c1.2,0,2.6-0.6,3.4-1.3v1.6c-1,0.8-2.5,1.2-4,1.2C761.9,253.5,759.8,251.1,759.8,247.9z M767.4,246.5c0.2-1.4-0.9-2.5-2.6-2.5
				c-1.5,0-2.8,0.8-3.1,2.5H767.4z"/>
			<path class="st5" d="M498.6,278.8h1.9l3.4,7.8l3.3-7.8h1.8l-4.6,10.4h-1.2L498.6,278.8z"/>
			<path class="st5" d="M509.7,283.9c0-3.3,2.5-5.4,5-5.4c2.6,0,4.4,1.7,4.4,4c0,0.4-0.1,0.8-0.1,1.2h-7.5c-0.1,1.8,0.7,4.2,4,4.2
				c1.2,0,2.6-0.6,3.4-1.3v1.6c-1,0.8-2.5,1.2-4,1.2C511.8,289.5,509.7,287.1,509.7,283.9z M517.4,282.5c0.2-1.4-0.9-2.5-2.6-2.5
				c-1.5,0-2.8,0.8-3.1,2.5H517.4z"/>
			<path class="st5" d="M521.6,278.8h1.6l0.1,2c0.7-1.3,2.3-2.3,4-2.3v2c-2-0.4-3.9,0.8-3.9,2.5v6.2h-1.8V278.8z"/>
			<path class="st5" d="M528.5,288.4l0.4-1.4c0.7,0.4,2,1.1,3.5,1.1c1.3,0,2.3-0.5,2.3-1.6c0-0.9-0.9-1.4-2.6-1.8
				c-2.2-0.6-3.2-1.7-3.2-3.1c0-1.6,1.2-3,3.8-3c1.7,0,3.2,0.9,3.2,0.9l-0.4,1.4c-0.7-0.5-1.8-0.8-2.9-0.8c-1.4,0-2.1,0.5-2.1,1.4
				c0,0.9,0.9,1.4,2.2,1.8c2.4,0.6,3.6,1.7,3.6,3c0,2.2-1.7,3.4-4,3.4C530.1,289.5,528.5,288.4,528.5,288.4z"/>
			<path class="st5" d="M538.6,274.8h1.8v2h-1.8V274.8z M538.6,278.8h1.8v10.4h-1.8V278.8z"/>
			<path class="st5" d="M542.7,284c0-3,2.3-5.6,5.7-5.6c3.3,0,5.6,2.5,5.6,5.6c0,3-2.3,5.6-5.6,5.6C545,289.6,542.7,287,542.7,284z
				 M552.2,284c0-2.3-1.5-4.1-3.8-4.1c-2.4,0-3.8,1.8-3.8,4.1c0,2.3,1.5,4.1,3.8,4.1C550.7,288.1,552.2,286.3,552.2,284z"/>
			<path class="st5" d="M556.3,278.8h1.6l0.1,2c0.8-1.2,2.3-2.3,4-2.3c2.8,0,3.7,1.9,3.7,4.5v6.2h-1.8v-6c0-2.3-0.9-3.1-2.4-3.1
				c-1.5,0-3.4,1.3-3.4,3v6.1h-1.8V278.8z"/>
			<path class="st5" d="M568.1,283.9c0-3.3,2.5-5.4,5-5.4c2.6,0,4.4,1.7,4.4,4c0,0.4-0.1,0.8-0.1,1.2h-7.5c-0.1,1.8,0.7,4.2,4,4.2
				c1.2,0,2.6-0.6,3.4-1.3v1.6c-1,0.8-2.5,1.2-4,1.2C570.3,289.5,568.1,287.1,568.1,283.9z M575.8,282.5c0.2-1.4-0.9-2.5-2.6-2.5
				c-1.5,0-2.8,0.8-3.1,2.5H575.8z"/>
			<path class="st5" d="M579.5,284c0-3,2.1-5.5,4.9-5.5c1.6,0,3,0.7,3.9,1.9v-5.7h1.8v14.4h-1.6l-0.1-1.9c-0.9,1.3-2.4,2.2-4.1,2.2
				C581.6,289.5,579.5,287,579.5,284z M588.4,284c0-2.5-1.6-4-3.6-4c-2,0-3.6,1.5-3.6,4s1.6,4,3.6,4
				C586.8,288,588.4,286.5,588.4,284z"/>
			<path class="st5" d="M597.2,284c0-3,2.1-5.5,4.9-5.5c1.6,0,3,0.7,3.9,1.9v-5.7h1.8v14.4h-1.6l-0.1-1.9c-0.9,1.3-2.4,2.2-4.1,2.2
				C599.2,289.5,597.2,287,597.2,284z M606.1,284c0-2.5-1.6-4-3.6-4c-2,0-3.6,1.5-3.6,4s1.6,4,3.6,4
				C604.5,288,606.1,286.5,606.1,284z"/>
			<path class="st5" d="M610.1,284c0-3,2.3-5.6,5.7-5.6c3.3,0,5.6,2.5,5.6,5.6c0,3-2.3,5.6-5.6,5.6C612.4,289.6,610.1,287,610.1,284
				z M619.6,284c0-2.3-1.5-4.1-3.8-4.1c-2.4,0-3.8,1.8-3.8,4.1c0,2.3,1.5,4.1,3.8,4.1C618.1,288.1,619.6,286.3,619.6,284z"/>
			<path class="st5" d="M623.1,284c0-3.2,2.3-5.5,5.4-5.5c1.4,0,2.4,0.2,3.6,1.1v1.7c-1-0.9-2.3-1.2-3.5-1.2c-2.2,0-3.7,1.7-3.7,4
				c0,2.3,1.5,4,3.7,4c1.2,0,2.5-0.3,3.5-1.2v1.7c-1.2,0.8-2.3,1.1-3.6,1.1C625.3,289.5,623.1,287.2,623.1,284z"/>
			<path class="st5" d="M633.7,288.4l0.4-1.4c0.7,0.4,2,1.1,3.5,1.1c1.3,0,2.3-0.5,2.3-1.6c0-0.9-0.9-1.4-2.6-1.8
				c-2.2-0.6-3.2-1.7-3.2-3.1c0-1.6,1.2-3,3.8-3c1.7,0,3.2,0.9,3.2,0.9l-0.4,1.4c-0.7-0.5-1.8-0.8-2.9-0.8c-1.4,0-2.1,0.5-2.1,1.4
				c0,0.9,0.9,1.4,2.2,1.8c2.4,0.6,3.6,1.7,3.6,3c0,2.2-1.7,3.4-4,3.4C635.3,289.5,633.7,288.4,633.7,288.4z"/>
			<path class="st5" d="M644.1,287h2.2v2.2h-2.2V287z"/>
		</g>
	</g>
	<g>
		<polygon class="st2" points="455.3,504.5 436.4,514.5 440,493.3 424.6,478.4 445.9,475.3 455.3,456.1 464.8,475.3 486,478.4 
			470.7,493.3 474.3,514.5 		"/>
		<polygon class="st6" points="455.3,501.5 436.4,511.5 440,490.3 424.6,475.4 445.9,472.3 455.3,453.1 464.8,472.3 486,475.4 
			470.7,490.3 474.3,511.5 		"/>
		<polygon class="st7" points="445.1,489.3 434.8,479.3 449,477.2 455.3,464.4 461.7,477.2 475.8,479.3 465.6,489.3 468,503.4 
			455.3,496.7 442.7,503.4 		"/>
		<polygon class="st2" points="525.7,504.5 506.7,514.5 510.3,493.3 495,478.4 516.2,475.3 525.7,456.1 535.2,475.3 556.4,478.4 
			541,493.3 544.6,514.5 		"/>
		<polygon class="st6" points="525.7,501.5 506.7,511.5 510.3,490.3 495,475.4 516.2,472.3 525.7,453.1 535.2,472.3 556.4,475.4 
			541,490.3 544.6,511.5 		"/>
		<polygon class="st7" points="515.4,489.3 505.2,479.3 519.3,477.2 525.7,464.4 532,477.2 546.2,479.3 535.9,489.3 538.3,503.4 
			525.7,496.7 513,503.4 		"/>
		<polygon class="st2" points="596,504.5 577,514.5 580.6,493.3 565.3,478.4 586.5,475.3 596,456.1 605.5,475.3 626.7,478.4 
			611.3,493.3 615,514.5 		"/>
		<polygon class="st6" points="596,501.5 577,511.5 580.6,490.3 565.3,475.4 586.5,472.3 596,453.1 605.5,472.3 626.7,475.4 
			611.3,490.3 615,511.5 		"/>
		<polygon class="st7" points="585.7,489.3 575.5,479.3 589.7,477.2 596,464.4 602.3,477.2 616.5,479.3 606.2,489.3 608.7,503.4 
			596,496.7 583.3,503.4 		"/>
		<polygon class="st2" points="666.3,504.5 647.3,514.5 651,493.3 635.6,478.4 656.8,475.3 666.3,456.1 675.8,475.3 697,478.4 
			681.7,493.3 685.3,514.5 		"/>
		<polygon class="st6" points="666.3,501.5 647.3,511.5 651,490.3 635.6,475.4 656.8,472.3 666.3,453.1 675.8,472.3 697,475.4 
			681.7,490.3 685.3,511.5 		"/>
		<polygon class="st7" points="656.1,489.3 645.8,479.3 660,477.2 666.3,464.4 672.6,477.2 686.8,479.3 676.6,489.3 679,503.4 
			666.3,496.7 653.7,503.4 		"/>
		<polygon class="st2" points="736.6,504.5 717.7,514.5 721.3,493.3 705.9,478.4 727.2,475.3 736.6,456.1 746.1,475.3 767.3,478.4 
			752,493.3 755.6,514.5 		"/>
		<polygon class="st6" points="736.6,501.5 717.7,511.5 721.3,490.3 705.9,475.4 727.2,472.3 736.6,453.1 746.1,472.3 767.3,475.4 
			752,490.3 755.6,511.5 		"/>
		<polygon class="st7" points="726.4,489.3 716.2,479.3 730.3,477.2 736.6,464.4 743,477.2 757.1,479.3 746.9,489.3 749.3,503.4 
			736.6,496.7 724,503.4 		"/>
	</g>
	<path class="st8" d="M272.5,547.5c-4.2,0-8.1,0.3-11.8,0.9c-10.6,12.8-23.1,34.2-25.8,66.2h108.5
		C343.4,614.6,335.4,547.5,272.5,547.5z"/>
	<path class="st9" d="M201.7,614.6h33.2c2.7-32,15.2-53.4,25.8-66.2C208.7,556.1,201.7,614.6,201.7,614.6z"/>
	<g>
		<defs>
			<path id="SVGID_1_" d="M289.7,511c0,0-8,27.6,0,43.3c0,0,3.3,13.2-12.9,13.2c-20.8,0-22-13.3-21.3-13.2c8-15.7,0-43.3,0-43.3
				l21.3-11.9L289.7,511z"/>
		</defs>
		<use xlink:href="#SVGID_1_"  style="overflow:visible;fill:#AD3B48;"/>
		<clipPath id="SVGID_2_">
			<use xlink:href="#SVGID_1_"  style="overflow:visible;"/>
		</clipPath>
		<path class="st10" d="M224.2,397.6c0,0-32.7,140.5,93.8,119.7c126.5-20.8-90.8,37.4-90.8,37.4l-59-65v-75.1l33.5-25.3L224.2,397.6
			z"/>
	</g>
	<g>
		<g>
			<defs>
				<path id="XMLID_14_" d="M219.9,448.2c0,9.6-6.8,17.4-15.3,17.4s-15.3-7.8-15.3-17.4s6.8-17.4,15.3-17.4S219.9,438.6,219.9,448.2
					z M340.5,430.8c-8.4,0-15.3,7.8-15.3,17.4s6.8,17.4,15.3,17.4c8.4,0,15.3-7.8,15.3-17.4S348.9,430.8,340.5,430.8z"/>
			</defs>
			<clipPath id="XMLID_5_">
				<use xlink:href="#XMLID_14_"  style="overflow:visible;"/>
			</clipPath>
		</g>
		<g>
			<defs>
				<path id="XMLID_12_" d="M219.9,448.2c0,9.6-6.8,17.4-15.3,17.4s-15.3-7.8-15.3-17.4s6.8-17.4,15.3-17.4S219.9,438.6,219.9,448.2
					z M340.5,430.8c-8.4,0-15.3,7.8-15.3,17.4s6.8,17.4,15.3,17.4c8.4,0,15.3-7.8,15.3-17.4S348.9,430.8,340.5,430.8z"/>
			</defs>
			<use xlink:href="#XMLID_12_"  style="overflow:visible;fill:#AD3B48;"/>
			<clipPath id="XMLID_6_">
				<use xlink:href="#XMLID_12_"  style="overflow:visible;"/>
			</clipPath>
			<g class="st11">
				<path class="st12" d="M224.2,397.6c0,0-32.7,140.5,93.8,119.7c126.5-20.8-90.8,37.4-90.8,37.4l-59-65v-75.1l33.5-25.3
					L224.2,397.6z"/>
			</g>
		</g>
		<g>
			<defs>
				<path id="XMLID_11_" d="M219.9,448.2c0,9.6-6.8,17.4-15.3,17.4s-15.3-7.8-15.3-17.4s6.8-17.4,15.3-17.4S219.9,438.6,219.9,448.2
					z M340.5,430.8c-8.4,0-15.3,7.8-15.3,17.4s6.8,17.4,15.3,17.4c8.4,0,15.3-7.8,15.3-17.4S348.9,430.8,340.5,430.8z"/>
			</defs>
			<clipPath id="XMLID_7_">
				<use xlink:href="#XMLID_11_"  style="overflow:visible;"/>
			</clipPath>
		</g>
	</g>
	<g>
		<g>
			<defs>
				<path id="SVGID_3_" d="M213.1,413.8v46.6c0,35.2,28.5,63.7,63.7,63.7h0c35.2,0,63.7-28.5,63.7-63.7v-55.1c0,0,0-47.6-69.5-46.4
					C271,358.9,213.1,344.7,213.1,413.8z"/>
			</defs>
			<clipPath id="SVGID_4_">
				<use xlink:href="#SVGID_3_"  style="overflow:visible;"/>
			</clipPath>
		</g>
		<g>
			<defs>
				<path id="SVGID_5_" d="M213.1,413.8v46.6c0,35.2,28.5,63.7,63.7,63.7h0c35.2,0,63.7-28.5,63.7-63.7v-55.1c0,0,0-47.6-69.5-46.4
					C271,358.9,213.1,344.7,213.1,413.8z"/>
			</defs>
			<use xlink:href="#SVGID_5_"  style="overflow:visible;fill:#C75161;"/>
			<clipPath id="SVGID_6_">
				<use xlink:href="#SVGID_5_"  style="overflow:visible;"/>
			</clipPath>
			<g class="st13">
				<path class="st12" d="M227.9,362.9c0,0-52.7,178.6,90.1,154.5c126.4-21.4-90.8,37.4-90.8,37.4l-59-65v-75.1l33.5-25.3
					L227.9,362.9z"/>
			</g>
		</g>
		<g>
			<defs>
				<path id="SVGID_7_" d="M213.1,413.8v46.6c0,35.2,28.5,63.7,63.7,63.7h0c35.2,0,63.7-28.5,63.7-63.7v-55.1c0,0,0-47.6-69.5-46.4
					C271,358.9,213.1,344.7,213.1,413.8z"/>
			</defs>
			<clipPath id="SVGID_8_">
				<use xlink:href="#SVGID_7_"  style="overflow:visible;"/>
			</clipPath>
		</g>
	</g>
	<path class="st14" d="M253.8,424.5c0,4.3-2.4,7.8-5.3,7.8c-2.9,0-5.3-3.5-5.3-7.8s2.4-7.8,5.3-7.8
		C251.4,416.7,253.8,420.2,253.8,424.5z M301.7,416.7c-2.9,0-5.3,3.5-5.3,7.8s2.4,7.8,5.3,7.8c2.9,0,5.3-3.5,5.3-7.8
		S304.6,416.7,301.7,416.7z"/>
	<path class="st15" d="M241.1,409.9c0,0,3-6.4,12.6-9.3"/>
	<path class="st15" d="M300.1,400.6c0,0,6.4-0.4,12.3,7.6"/>
	<g>
		<defs>
			<path id="XMLID_202_" d="M250.9,461.8c0,0,14.5,10.2,36.3,6c0,0-4.1,28.5-18.5,27.2C252.2,493.5,250.9,461.8,250.9,461.8z"/>
		</defs>
		<use xlink:href="#XMLID_202_"  style="overflow:visible;fill:#6B1111;"/>
		<clipPath id="XMLID_8_">
			<use xlink:href="#XMLID_202_"  style="overflow:visible;"/>
		</clipPath>
		<path class="st16" d="M250.9,487.5c0,0,2.8-8.3,17.1-7.1c14.3,1.2,17.1,12.2,17.1,12.2l-20.3,7.9L250.9,487.5z"/>
	</g>
	<g>
		<g>
			<g>
				<path class="st17" d="M273.6,406.9l2.1,15.3l1.1,7.7l0.5,3.8l0.2,1.4l0.1,0.4l0,0.2c0,0,0,0.2,0.1,0.1c0.3-0.2,0.5-0.3,0.8-0.4
					c0.1,0,0.1,0,0.2-0.1l0.5-0.2c0.3-0.1,0.7-0.2,1-0.3c1.4-0.4,2.8-0.7,4.3-0.7c1.5,0,3,0.2,4.4,0.9c1.4,0.6,2.7,1.6,3.6,2.8
					c1.9,2.4,2.8,5.2,3.3,7.9c0.5,2.8,0.6,5.7-0.1,8.6c-0.4,1.4-1,2.9-2,4.1c-0.9,1.2-2.1,2.3-3.5,3.1c-2.7,1.5-5.8,2-8.6,1.9
					c-5.8-0.3-11.1-2.3-16-4.7c-2.4-1.2-0.3-4.8,1.8-3.5c4.5,2.4,9.4,4.4,14.3,4.7c2.4,0.1,4.9-0.2,6.8-1.2c2-1.1,3.4-2.9,4.1-5.2
					c0.7-2.2,0.7-4.8,0.3-7.2c-0.4-2.5-1.1-4.9-2.6-6.8c-1.4-1.9-3.5-2.9-5.9-2.9c-1.2,0-2.4,0.2-3.6,0.5c-0.3,0.1-0.6,0.2-0.9,0.3
					l-0.4,0.1c-0.2,0-0.5,0.2-0.7,0.3c-1,0.4-2,1-2.9,1.5c-0.1-0.1-0.1-0.4-0.1-0.7l-0.1-0.8l-0.2-1.5l-0.3-2.4l-0.4-3.8l-0.9-7.7
					l-1.7-15.4C271.9,403.7,273.1,403.5,273.6,406.9z"/>
			</g>
		</g>
	</g>
</g>
</svg>
