<svg id="Layer_1" data-name="Layer 1" xmlns="http://www.w3.org/2000/svg" viewBox="0 0 1584.34 1072.37"><defs><style>.cls-1,.cls-2,.cls-3,.cls-4{fill:none;stroke:#000;stroke-linecap:round;stroke-linejoin:round;}.cls-1{stroke-width:5px;}.cls-2{stroke-width:3px;}.cls-3,.cls-4{stroke-width:2px;}.cls-4{stroke-dasharray:6.46;}</style></defs><title>Understand your customers better</title><rect class="cls-1" x="1221.57" y="639.07" width="360.27" height="239.5"/><rect class="cls-2" x="1240.97" y="654.3" width="321.46" height="209.05"/><rect class="cls-1" x="1358.32" y="878.58" width="86.77" height="12.39"/><rect class="cls-1" x="1325" y="890.97" width="153.41" height="14.28"/><line class="cls-2" x1="1271.64" y1="736.34" x2="1374.52" y2="736.34"/><rect class="cls-2" x="1286.1" y="718.94" width="13" height="17.39"/><rect class="cls-2" x="1306.42" y="690.2" width="13" height="46.13"/><rect class="cls-2" x="1326.74" y="678.3" width="13" height="58.03"/><rect class="cls-2" x="1347.06" y="711.26" width="13" height="25.08"/><rect class="cls-2" x="1354.2" y="829.18" width="17.21" height="10.25"/><path class="cls-2" d="M1358.63,829.49a37.68,37.68,0,0,0-33-5.93l10.54,36.12Z" transform="translate(-23.81 -55.11)"/><path class="cls-2" d="M1325.64,823.56a37.62,37.62,0,0,0-17.57,61.11l28.11-25Z" transform="translate(-23.81 -55.11)"/><path class="cls-2" d="M1308.07,884.67a37.59,37.59,0,0,0,51.49,4.47c-8.28-10.45-23.38-29.46-23.38-29.46Z" transform="translate(-23.81 -55.11)"/><path class="cls-2" d="M1373.8,859.68a37.53,37.53,0,0,0-15.17-30.19l-22.45,30.19s15.1,19,23.38,29.46A37.54,37.54,0,0,0,1373.8,859.68Z" transform="translate(-23.81 -55.11)"/><polyline class="cls-2" points="1443.17 775 1443.17 834.13 1524.81 834.13"/><polyline class="cls-2" points="1455.43 817.47 1466.05 804.56 1483.99 811.01 1491.36 799.67 1503.03 804.56 1514.93 787.81"/><path class="cls-2" d="M1555.58,740.47H1460v-9.89h95.56Zm-2.92,11H1503v9.89h49.62Zm-62.61,9.89H1463v-9.89h27.1Zm62.61,6.59H1503v9.88h49.62Zm-62.61,9.88H1463v-9.88h27.1Zm62.61,6.59H1503v9.89h49.62Zm-62.61,9.89H1463V784.4h27.1Z" transform="translate(-23.81 -55.11)"/><circle class="cls-1" cx="147.52" cy="184.93" r="145.02"/><path class="cls-3" d="M112.23,250.14l-6.08-4.78a30.14,30.14,0,0,1-6.7-6.49c-3.88-5.74-.66-11.49-.88-17.68-.12-3.22-2.28-6.8-5.5-6.76-3.43,0-5.34,3.87-6.6,7.06s-3.6,6.91-7,6.43c-2.25-.32-3.84-2.56-4.16-4.81a15.94,15.94,0,0,1,1-6.7l5.17-17.57c1-3.28,1.77-7.26-.57-9.74-2-2.13-5.46-2-8.23-1.11-6.49,2.2-13.27,4.21-18.56-2.17a12.23,12.23,0,0,1-2-11.81c1.77-4.8,6.38-7.95,11-10.1s9.66-3.64,13.78-6.68c5.29-3.9,8.54-9.92,11.61-15.73s6.31-11.83,11.6-15.73c10.17-7.51,22.51,1,33.89,0,6.84-.61,13.08-4.06,18.88-7.74s11.5-7.71,18.06-9.76,14.3-1.74,19.55,2.69c3.78,3.19,5.81,8.07,9.56,11.29s9.16,4.5,13.8,6.73c10.2,4.89,19.39,18.19,14.26,29.77-2.25,5.07-6.63,8.89-11.25,11.95s-9.62,5.58-14,9a27.44,27.44,0,0,0-7,7.75c-1.35,2.37-1.47,5.27-3,7.42-3.5,5-12.38,9.35-18.23,10.11-3.73.49-7.57-.11-11.26.66s-7.42,3.63-7.28,7.39c.18,4.82,6.19,7.39,7.57,12,1.53,5.16-3.18,11.25-.28,15.79,2.57,4,9.11,2.9,12.4-.55s4.61-8.29,7.08-12.36,7.27-7.65,11.74-6c6,2.23,11.79,6.75,12.49,13.12s-1.67,12.72-4.94,18.23-7.41,10.47-10.76,15.93-5.92,11.7-5.52,18.1c.34,5.52,2.86,10.67,3.8,16.12,1.28,7.41-.41,15.09.92,22.49,1.11,6.08,4.18,11.59,6.76,17.21s4.74,11.76,3.82,17.88-5.82,12-12,12.09c-6.67.08-11.54-6-15.3-11.54-12.41-18.17-24.84-36.39-35.17-55.82-3-5.63-5.8-12.61-2.51-18.08,2.2-3.67,6.55-5.44,10.7-6.52s8.55-1.78,12.06-4.25,5.76-7.44,3.57-11.14c-2.63-4.46-8.86-4-12.67-1.91-4.82,2.67-8.15,4.5-14.05,2.62-4.76-1.53-8.8-4.67-12.73-7.76Z" transform="translate(-23.81 -55.11)"/><path class="cls-3" d="M288.35,325.7a53.48,53.48,0,0,1,1.08-27.87c2.29-7.25,6.13-15.11,2.92-22-2.67-5.72-9.88-9.68-9.33-16,.48-5.41,6.81-9.2,6.51-14.62-.22-3.83-3.75-6.78-4.25-10.58-.71-5.42,5-9.59,10.28-10.82A28.42,28.42,0,0,1,315.77,227" transform="translate(-23.81 -55.11)"/><path class="cls-3" d="M290.5,199.31c-4.34,5.13-12.3,5.67-17.86,2.2a10.9,10.9,0,0,1-5-8c-.54-5.4,3.79-7.49,4.95-12.09.64-2.54.12-5.22-.41-7.79s-1.06-5.24-.45-7.79,2.74-5,5.36-5c3.13,0,5.35,3.16,6.08,6.21s.6,6.31,1.9,9.16c1.49,3.25,4.64,5.44,6.51,8.5A12.82,12.82,0,0,1,290.5,199.31Z" transform="translate(-23.81 -55.11)"/><path class="cls-3" d="M76.86,350.06a28.64,28.64,0,0,1,10.68-2.48c5.64-.39,11.56-.22,16.62-2.74s8.77-9,6-13.92c-2.38-4.29-8.34-5.55-10.78-9.81-2.58-4.52-.35-11-3.82-14.89-3.65-4.07-10.37-2-15.58-3.69-3.84-1.21-6.67-4.39-9.64-7.11s-6.75-5.23-10.73-4.59c-4.14.67-7,4.55-8.6,8.43s-2.41,8.15-4.78,11.62" transform="translate(-23.81 -55.11)"/><circle class="cls-3" cx="59.45" cy="110.33" r="4.57"/><circle class="cls-3" cx="114.06" cy="145.89" r="4.57"/><circle class="cls-3" cx="152.09" cy="272.06" r="4.57"/><circle class="cls-3" cx="50.31" cy="265.28" r="4.57"/><circle class="cls-3" cx="278.93" cy="206.92" r="4.57"/><path class="cls-4" d="M175.9,327.18s91.73,139.93,63.66,291.3c-23.14,124.78-62.29,316.86,93.54,358.86,132.67,35.76,217.71-73.13,411.59,37.42,209.92,119.69,627,186,641.46-26.64" transform="translate(-23.81 -55.11)"/><path class="cls-4" d="M302.74,262s81.39,54.7,175.5,28.69,132.49-79.05,420.66-87c172.35-4.76,161.64,29,351.5,84.81,154.2,45.36,131.73,292.54,131.73,382.12" transform="translate(-23.81 -55.11)"/><path class="cls-4" d="M74.12,320.39s-37.95,77-4.57,159.76,11.44,209.53,0,310.08,88.5,141.08,211,107.07S506.87,946,583.12,1028.37c59.53,64.33,255.44,56.74,346.39,8.5,102.62-54.42,242.65-48.75,393.4,15.88,83,35.59,153.77,35.2,153.12-68" transform="translate(-23.81 -55.11)"/><path class="cls-4" d="M83.26,165.44s-10.94-94.62,107-108.22S366,160.4,511.12,155.86s264.19,1.39,378.71,101.61,266.51-47.18,400.25,7.24c149.49,60.84,142.94,251.72,147.48,405.93" transform="translate(-23.81 -55.11)"/><path class="cls-4" d="M137.87,201s29.84,38.44,102.26,22.18S512.25,23.2,815,70.82s327.55,135,466,150.82c198.24,22.66,205.51,297.06,205.51,449" transform="translate(-23.81 -55.11)"/></svg>